<?xml version="1.0" encoding="UTF-8" standalone="no"?>
<!DOCTYPE svg PUBLIC "-//W3C//DTD SVG 1.1//EN"
 "http://www.w3.org/Graphics/SVG/1.1/DTD/svg11.dtd">
<!-- Generated by graphviz version 7.0.2 (20221119.0110)
 -->
<!-- Title: C:/Users/juanh/OneDrive/Escritorio/Facultad/Beca/Proyecto/LAL_Control/include/Abstract_state.h Pages: 1 -->
<svg width="522pt" height="588pt"
 viewBox="0.00 0.00 521.87 588.00" xmlns="http://www.w3.org/2000/svg" xmlns:xlink="http://www.w3.org/1999/xlink">
<g id="graph0" class="graph" transform="scale(1 1) rotate(0) translate(4 584)">
<title>C:/Users/juanh/OneDrive/Escritorio/Facultad/Beca/Proyecto/LAL_Control/include/Abstract_state.h</title>
<!-- Node1 -->
<g id="node1" class="node">
<title>Node1</title>
<g id="a_node1"><a xlink:title=" ">
<polygon fill="#999999" stroke="#666666" points="275,-580 126,-580 126,-528 275,-528 275,-580"/>
<text text-anchor="start" x="134" y="-568" font-family="Helvetica,sans-Serif" font-size="10.00">C:/Users/juanh/OneDrive</text>
<text text-anchor="start" x="134" y="-557" font-family="Helvetica,sans-Serif" font-size="10.00">/Escritorio/Facultad/Beca</text>
<text text-anchor="start" x="134" y="-546" font-family="Helvetica,sans-Serif" font-size="10.00">/Proyecto/LAL_Control/include</text>
<text text-anchor="middle" x="200.5" y="-535" font-family="Helvetica,sans-Serif" font-size="10.00">/Abstract_state.h</text>
</a>
</g>
</g>
<!-- Node2 -->
<g id="node2" class="node">
<title>Node2</title>
<g id="a_node2"><a xlink:href="_idle__state_8h.html" target="_top" xlink:title=" ">
<polygon fill="white" stroke="#666666" points="224,-492 75,-492 75,-440 224,-440 224,-492"/>
<text text-anchor="start" x="83" y="-480" font-family="Helvetica,sans-Serif" font-size="10.00">C:/Users/juanh/OneDrive</text>
<text text-anchor="start" x="83" y="-469" font-family="Helvetica,sans-Serif" font-size="10.00">/Escritorio/Facultad/Beca</text>
<text text-anchor="start" x="83" y="-458" font-family="Helvetica,sans-Serif" font-size="10.00">/Proyecto/LAL_Control/include</text>
<text text-anchor="middle" x="149.5" y="-447" font-family="Helvetica,sans-Serif" font-size="10.00">/Idle_state.h</text>
</a>
</g>
</g>
<!-- Node1&#45;&gt;Node2 -->
<g id="edge1" class="edge">
<title>Node1&#45;&gt;Node2</title>
<path fill="none" stroke="#63b8ff" d="M179.7,-517.93C174.65,-509.4 169.33,-500.44 164.59,-492.45"/>
<polygon fill="#63b8ff" stroke="#63b8ff" points="176.59,-519.54 184.7,-526.36 182.61,-515.97 176.59,-519.54"/>
</g>
<!-- Node3 -->
<g id="node3" class="node">
<title>Node3</title>
<g id="a_node3"><a xlink:href="_motor__control__state_8h_source.html" target="_top" xlink:title=" ">
<polygon fill="white" stroke="#666666" points="149,-228 0,-228 0,-176 149,-176 149,-228"/>
<text text-anchor="start" x="8" y="-216" font-family="Helvetica,sans-Serif" font-size="10.00">C:/Users/juanh/OneDrive</text>
<text text-anchor="start" x="8" y="-205" font-family="Helvetica,sans-Serif" font-size="10.00">/Escritorio/Facultad/Beca</text>
<text text-anchor="start" x="8" y="-194" font-family="Helvetica,sans-Serif" font-size="10.00">/Proyecto/LAL_Control/include</text>
<text text-anchor="middle" x="74.5" y="-183" font-family="Helvetica,sans-Serif" font-size="10.00">/Motor_control_state.h</text>
</a>
</g>
</g>
<!-- Node1&#45;&gt;Node3 -->
<g id="edge24" class="edge">
<title>Node1&#45;&gt;Node3</title>
<path fill="none" stroke="#63b8ff" d="M115.35,-531.93C95.73,-522.92 77.2,-510.12 65.5,-492 11.73,-408.7 46.28,-281.92 64.88,-228.33"/>
<polygon fill="#63b8ff" stroke="#63b8ff" points="113.71,-535.04 124.29,-535.72 116.44,-528.6 113.71,-535.04"/>
</g>
<!-- Node4 -->
<g id="node4" class="node">
<title>Node4</title>
<g id="a_node4"><a xlink:href="_shutdown__state_8h_source.html" target="_top" xlink:title=" ">
<polygon fill="white" stroke="#666666" points="327,-404 178,-404 178,-352 327,-352 327,-404"/>
<text text-anchor="start" x="186" y="-392" font-family="Helvetica,sans-Serif" font-size="10.00">C:/Users/juanh/OneDrive</text>
<text text-anchor="start" x="186" y="-381" font-family="Helvetica,sans-Serif" font-size="10.00">/Escritorio/Facultad/Beca</text>
<text text-anchor="start" x="186" y="-370" font-family="Helvetica,sans-Serif" font-size="10.00">/Proyecto/LAL_Control/include</text>
<text text-anchor="middle" x="252.5" y="-359" font-family="Helvetica,sans-Serif" font-size="10.00">/Shutdown_state.h</text>
</a>
</g>
</g>
<!-- Node1&#45;&gt;Node4 -->
<g id="edge25" class="edge">
<title>Node1&#45;&gt;Node4</title>
<path fill="none" stroke="#63b8ff" d="M221.37,-517.67C225.55,-509.46 229.56,-500.59 232.5,-492 242.48,-462.78 247.71,-427.52 250.28,-404.24"/>
<polygon fill="#63b8ff" stroke="#63b8ff" points="218.37,-515.86 216.75,-526.33 224.54,-519.16 218.37,-515.86"/>
</g>
<!-- Node12 -->
<g id="node12" class="node">
<title>Node12</title>
<g id="a_node12"><a xlink:href="_machine_8h.html" target="_top" xlink:title=" ">
<polygon fill="white" stroke="#666666" points="494,-404 345,-404 345,-352 494,-352 494,-404"/>
<text text-anchor="start" x="353" y="-392" font-family="Helvetica,sans-Serif" font-size="10.00">C:/Users/juanh/OneDrive</text>
<text text-anchor="start" x="353" y="-381" font-family="Helvetica,sans-Serif" font-size="10.00">/Escritorio/Facultad/Beca</text>
<text text-anchor="start" x="353" y="-370" font-family="Helvetica,sans-Serif" font-size="10.00">/Proyecto/LAL_Control/include</text>
<text text-anchor="middle" x="419.5" y="-359" font-family="Helvetica,sans-Serif" font-size="10.00">/Machine.h</text>
</a>
</g>
</g>
<!-- Node1&#45;&gt;Node12 -->
<g id="edge22" class="edge">
<title>Node1&#45;&gt;Node12</title>
<path fill="none" stroke="#63b8ff" d="M241.27,-520.61C283.59,-486.98 348.92,-435.08 387.62,-404.33"/>
<polygon fill="#63b8ff" stroke="#63b8ff" points="239.18,-517.8 233.53,-526.76 243.54,-523.28 239.18,-517.8"/>
</g>
<!-- Node2&#45;&gt;Node3 -->
<g id="edge2" class="edge">
<title>Node2&#45;&gt;Node3</title>
<path fill="none" stroke="#63b8ff" d="M134.42,-429.15C116.27,-375.42 87.82,-275.3 77.58,-228.43"/>
<polygon fill="#63b8ff" stroke="#63b8ff" points="131.06,-430.14 137.64,-438.45 137.68,-427.85 131.06,-430.14"/>
</g>
<!-- Node2&#45;&gt;Node4 -->
<g id="edge4" class="edge">
<title>Node2&#45;&gt;Node4</title>
<path fill="none" stroke="#63b8ff" d="M188.52,-432.42C199.61,-423.16 211.51,-413.22 222.01,-404.45"/>
<polygon fill="#63b8ff" stroke="#63b8ff" points="186.44,-429.6 181.01,-438.69 190.93,-434.97 186.44,-429.6"/>
</g>
<!-- Node3&#45;&gt;Node2 -->
<g id="edge3" class="edge">
<title>Node3&#45;&gt;Node2</title>
<path fill="none" stroke="#63b8ff" d="M89.7,-239.2C107.9,-293.14 136.33,-393.24 146.49,-439.88"/>
<polygon fill="#63b8ff" stroke="#63b8ff" points="93.04,-238.17 86.47,-229.86 86.43,-240.46 93.04,-238.17"/>
</g>
<!-- Node5 -->
<g id="node5" class="node">
<title>Node5</title>
<g id="a_node5"><a xlink:href="_control__system_8h_source.html" target="_top" xlink:title=" ">
<polygon fill="white" stroke="#666666" points="327,-316 178,-316 178,-264 327,-264 327,-316"/>
<text text-anchor="start" x="186" y="-304" font-family="Helvetica,sans-Serif" font-size="10.00">C:/Users/juanh/OneDrive</text>
<text text-anchor="start" x="186" y="-293" font-family="Helvetica,sans-Serif" font-size="10.00">/Escritorio/Facultad/Beca</text>
<text text-anchor="start" x="186" y="-282" font-family="Helvetica,sans-Serif" font-size="10.00">/Proyecto/LAL_Control/include</text>
<text text-anchor="middle" x="252.5" y="-271" font-family="Helvetica,sans-Serif" font-size="10.00">/Control_system.h</text>
</a>
</g>
</g>
<!-- Node4&#45;&gt;Node5 -->
<g id="edge5" class="edge">
<title>Node4&#45;&gt;Node5</title>
<path fill="none" stroke="#63b8ff" d="M245.81,-340.26C245.65,-332.24 245.8,-323.92 246.28,-316.45"/>
<polygon fill="#63b8ff" stroke="#63b8ff" points="242.31,-340.3 246.22,-350.15 249.31,-340.01 242.31,-340.3"/>
</g>
<!-- Node5&#45;&gt;Node2 -->
<g id="edge6" class="edge">
<title>Node5&#45;&gt;Node2</title>
<path fill="none" stroke="#63b8ff" d="M195.26,-323.17C184.95,-331.34 175.33,-340.98 168.5,-352 151.95,-378.72 148.59,-415.5 148.44,-439.75"/>
<polygon fill="#63b8ff" stroke="#63b8ff" points="197.27,-326.03 203.22,-317.27 193.1,-320.41 197.27,-326.03"/>
</g>
<!-- Node5&#45;&gt;Node3 -->
<g id="edge12" class="edge">
<title>Node5&#45;&gt;Node3</title>
<path fill="none" stroke="#63b8ff" d="M189.87,-258.74C169.39,-248.85 146.86,-237.96 127.18,-228.45"/>
<polygon fill="#63b8ff" stroke="#63b8ff" points="188.17,-261.8 198.69,-263 191.21,-255.5 188.17,-261.8"/>
</g>
<!-- Node5&#45;&gt;Node4 -->
<g id="edge13" class="edge">
<title>Node5&#45;&gt;Node4</title>
<path fill="none" stroke="#63b8ff" d="M259.19,-327.87C259.35,-335.89 259.19,-344.21 258.72,-351.66"/>
<polygon fill="#63b8ff" stroke="#63b8ff" points="262.69,-327.82 258.79,-317.97 255.7,-328.1 262.69,-327.82"/>
</g>
<!-- Node6 -->
<g id="node6" class="node">
<title>Node6</title>
<g id="a_node6"><a xlink:href="_instruction__observer_8h.html" target="_top" xlink:title=" ">
<polygon fill="white" stroke="#666666" points="162,-140 13,-140 13,-88 162,-88 162,-140"/>
<text text-anchor="start" x="21" y="-128" font-family="Helvetica,sans-Serif" font-size="10.00">C:/Users/juanh/OneDrive</text>
<text text-anchor="start" x="21" y="-117" font-family="Helvetica,sans-Serif" font-size="10.00">/Escritorio/Facultad/Beca</text>
<text text-anchor="start" x="21" y="-106" font-family="Helvetica,sans-Serif" font-size="10.00">/Proyecto/LAL_Control/include</text>
<text text-anchor="middle" x="87.5" y="-95" font-family="Helvetica,sans-Serif" font-size="10.00">/Instruction_observer.h</text>
</a>
</g>
</g>
<!-- Node5&#45;&gt;Node6 -->
<g id="edge7" class="edge">
<title>Node5&#45;&gt;Node6</title>
<path fill="none" stroke="#63b8ff" d="M226.24,-255.05C207.85,-231.97 182.24,-201.18 157.5,-176 145.41,-163.7 131.2,-151.02 118.75,-140.43"/>
<polygon fill="#63b8ff" stroke="#63b8ff" points="223.28,-256.94 232.22,-262.61 228.77,-252.6 223.28,-256.94"/>
</g>
<!-- Node7 -->
<g id="node7" class="node">
<title>Node7</title>
<g id="a_node7"><a xlink:href="main_8h_source.html" target="_top" xlink:title=" ">
<polygon fill="white" stroke="#666666" points="432,-46.5 251,-46.5 251,-5.5 432,-5.5 432,-46.5"/>
<text text-anchor="start" x="259" y="-34.5" font-family="Helvetica,sans-Serif" font-size="10.00">C:/Users/juanh/OneDrive</text>
<text text-anchor="start" x="259" y="-23.5" font-family="Helvetica,sans-Serif" font-size="10.00">/Escritorio/Facultad/Beca</text>
<text text-anchor="middle" x="341.5" y="-12.5" font-family="Helvetica,sans-Serif" font-size="10.00">/Proyecto/LAL_Control/include/main.h</text>
</a>
</g>
</g>
<!-- Node5&#45;&gt;Node7 -->
<g id="edge21" class="edge">
<title>Node5&#45;&gt;Node7</title>
<path fill="none" stroke="#63b8ff" d="M337.87,-268.48C400.35,-248.02 478.7,-209.33 505.5,-140 513.83,-118.44 518.69,-106.98 505.5,-88 488.51,-63.55 460.49,-48.88 432.38,-40.09"/>
<polygon fill="#63b8ff" stroke="#63b8ff" points="337.12,-265.05 328.64,-271.4 339.23,-271.72 337.12,-265.05"/>
</g>
<!-- Node9 -->
<g id="node9" class="node">
<title>Node9</title>
<g id="a_node9"><a xlink:href="_moisture__observer_8h_source.html" target="_top" xlink:title=" ">
<polygon fill="white" stroke="#666666" points="496,-140 347,-140 347,-88 496,-88 496,-140"/>
<text text-anchor="start" x="355" y="-128" font-family="Helvetica,sans-Serif" font-size="10.00">C:/Users/juanh/OneDrive</text>
<text text-anchor="start" x="355" y="-117" font-family="Helvetica,sans-Serif" font-size="10.00">/Escritorio/Facultad/Beca</text>
<text text-anchor="start" x="355" y="-106" font-family="Helvetica,sans-Serif" font-size="10.00">/Proyecto/LAL_Control/include</text>
<text text-anchor="middle" x="421.5" y="-95" font-family="Helvetica,sans-Serif" font-size="10.00">/Moisture_observer.h</text>
</a>
</g>
</g>
<!-- Node5&#45;&gt;Node9 -->
<g id="edge10" class="edge">
<title>Node5&#45;&gt;Node9</title>
<path fill="none" stroke="#63b8ff" d="M338.13,-270.92C362.23,-261.84 386.27,-248.26 402.5,-228 422.4,-203.16 424.85,-165.23 423.89,-140.28"/>
<polygon fill="#63b8ff" stroke="#63b8ff" points="337.16,-267.55 328.88,-274.16 339.48,-274.16 337.16,-267.55"/>
</g>
<!-- Node10 -->
<g id="node10" class="node">
<title>Node10</title>
<g id="a_node10"><a xlink:href="_system__observer_8h.html" target="_top" xlink:title=" ">
<polygon fill="white" stroke="#666666" points="393,-228 244,-228 244,-176 393,-176 393,-228"/>
<text text-anchor="start" x="252" y="-216" font-family="Helvetica,sans-Serif" font-size="10.00">C:/Users/juanh/OneDrive</text>
<text text-anchor="start" x="252" y="-205" font-family="Helvetica,sans-Serif" font-size="10.00">/Escritorio/Facultad/Beca</text>
<text text-anchor="start" x="252" y="-194" font-family="Helvetica,sans-Serif" font-size="10.00">/Proyecto/LAL_Control/include</text>
<text text-anchor="middle" x="318.5" y="-183" font-family="Helvetica,sans-Serif" font-size="10.00">/System_observer.h</text>
</a>
</g>
</g>
<!-- Node5&#45;&gt;Node10 -->
<g id="edge14" class="edge">
<title>Node5&#45;&gt;Node10</title>
<path fill="none" stroke="#63b8ff" d="M272.35,-254.49C278.78,-245.79 285.96,-236.61 292.74,-228.45"/>
<polygon fill="#63b8ff" stroke="#63b8ff" points="269.63,-252.28 266.62,-262.44 275.31,-256.38 269.63,-252.28"/>
</g>
<!-- Node11 -->
<g id="node11" class="node">
<title>Node11</title>
<g id="a_node11"><a xlink:href="_temperature__observer_8h.html" target="_top" xlink:title=" ">
<polygon fill="white" stroke="#666666" points="329,-140 180,-140 180,-88 329,-88 329,-140"/>
<text text-anchor="start" x="188" y="-128" font-family="Helvetica,sans-Serif" font-size="10.00">C:/Users/juanh/OneDrive</text>
<text text-anchor="start" x="188" y="-117" font-family="Helvetica,sans-Serif" font-size="10.00">/Escritorio/Facultad/Beca</text>
<text text-anchor="start" x="188" y="-106" font-family="Helvetica,sans-Serif" font-size="10.00">/Proyecto/LAL_Control/include</text>
<text text-anchor="middle" x="254.5" y="-95" font-family="Helvetica,sans-Serif" font-size="10.00">/Temperature_observer.h</text>
</a>
</g>
</g>
<!-- Node5&#45;&gt;Node11 -->
<g id="edge20" class="edge">
<title>Node5&#45;&gt;Node11</title>
<path fill="none" stroke="#63b8ff" d="M239.92,-252.63C237.67,-244.62 235.67,-236.1 234.5,-228 231.2,-205.13 230.85,-198.82 234.5,-176 236.42,-164 240.33,-151.16 244.19,-140.38"/>
<polygon fill="#63b8ff" stroke="#63b8ff" points="236.54,-253.53 242.78,-262.09 243.24,-251.51 236.54,-253.53"/>
</g>
<!-- Node6&#45;&gt;Node7 -->
<g id="edge8" class="edge">
<title>Node6&#45;&gt;Node7</title>
<path fill="none" stroke="#63b8ff" d="M172.84,-84.1C208.86,-71.91 249.91,-58.01 282.49,-46.98"/>
<polygon fill="#63b8ff" stroke="#63b8ff" points="172.12,-80.65 163.77,-87.18 174.36,-87.28 172.12,-80.65"/>
</g>
<!-- Node8 -->
<g id="node8" class="node">
<title>Node8</title>
<g id="a_node8"><a xlink:href="_instruction__observer_8cpp.html" target="_top" xlink:title=" ">
<polygon fill="white" stroke="#666666" points="153,-52 22,-52 22,0 153,0 153,-52"/>
<text text-anchor="start" x="30" y="-40" font-family="Helvetica,sans-Serif" font-size="10.00">C:/Users/juanh/OneDrive</text>
<text text-anchor="start" x="30" y="-29" font-family="Helvetica,sans-Serif" font-size="10.00">/Escritorio/Facultad/Beca</text>
<text text-anchor="start" x="30" y="-18" font-family="Helvetica,sans-Serif" font-size="10.00">/Proyecto/LAL_Control/src</text>
<text text-anchor="middle" x="87.5" y="-7" font-family="Helvetica,sans-Serif" font-size="10.00">/Instruction_observer.cpp</text>
</a>
</g>
</g>
<!-- Node6&#45;&gt;Node8 -->
<g id="edge9" class="edge">
<title>Node6&#45;&gt;Node8</title>
<path fill="none" stroke="#63b8ff" d="M87.5,-76.26C87.5,-68.24 87.5,-59.92 87.5,-52.45"/>
<polygon fill="#63b8ff" stroke="#63b8ff" points="84,-76.15 87.5,-86.15 91,-76.15 84,-76.15"/>
</g>
<!-- Node9&#45;&gt;Node7 -->
<g id="edge11" class="edge">
<title>Node9&#45;&gt;Node7</title>
<path fill="none" stroke="#63b8ff" d="M390.32,-79.48C380.1,-68.49 369.07,-56.64 360.09,-46.98"/>
<polygon fill="#63b8ff" stroke="#63b8ff" points="387.53,-81.62 396.9,-86.55 392.65,-76.85 387.53,-81.62"/>
</g>
<!-- Node10&#45;&gt;Node5 -->
<g id="edge15" class="edge">
<title>Node10&#45;&gt;Node5</title>
<path fill="none" stroke="#63b8ff" d="M298.55,-237.64C292.12,-246.34 284.94,-255.51 278.16,-263.66"/>
<polygon fill="#63b8ff" stroke="#63b8ff" points="301.28,-239.84 304.3,-229.68 295.61,-235.74 301.28,-239.84"/>
</g>
<!-- Node10&#45;&gt;Node6 -->
<g id="edge16" class="edge">
<title>Node10&#45;&gt;Node6</title>
<path fill="none" stroke="#63b8ff" d="M239.46,-171.57C212.23,-161.44 181.99,-150.18 155.69,-140.39"/>
<polygon fill="#63b8ff" stroke="#63b8ff" points="238.12,-174.81 248.71,-175.02 240.56,-168.25 238.12,-174.81"/>
</g>
<!-- Node10&#45;&gt;Node9 -->
<g id="edge17" class="edge">
<title>Node10&#45;&gt;Node9</title>
<path fill="none" stroke="#63b8ff" d="M357.52,-168.42C368.61,-159.16 380.51,-149.22 391.01,-140.45"/>
<polygon fill="#63b8ff" stroke="#63b8ff" points="355.44,-165.6 350.01,-174.69 359.93,-170.97 355.44,-165.6"/>
</g>
<!-- Node10&#45;&gt;Node11 -->
<g id="edge18" class="edge">
<title>Node10&#45;&gt;Node11</title>
<path fill="none" stroke="#63b8ff" d="M292.82,-166.49C286.34,-157.79 279.51,-148.61 273.44,-140.45"/>
<polygon fill="#63b8ff" stroke="#63b8ff" points="289.96,-168.52 298.74,-174.45 295.58,-164.34 289.96,-168.52"/>
</g>
<!-- Node11&#45;&gt;Node7 -->
<g id="edge19" class="edge">
<title>Node11&#45;&gt;Node7</title>
<path fill="none" stroke="#63b8ff" d="M288.08,-79.8C299.29,-68.73 311.42,-56.73 321.29,-46.98"/>
<polygon fill="#63b8ff" stroke="#63b8ff" points="285.86,-77.08 281.21,-86.6 290.78,-82.06 285.86,-77.08"/>
</g>
<!-- Node12&#45;&gt;Node5 -->
<g id="edge23" class="edge">
<title>Node12&#45;&gt;Node5</title>
<path fill="none" stroke="#63b8ff" d="M360.22,-346.47C341.14,-336.65 320.22,-325.87 301.93,-316.45"/>
<polygon fill="#63b8ff" stroke="#63b8ff" points="358.46,-349.5 368.95,-350.97 361.66,-343.28 358.46,-349.5"/>
</g>
</g>
</svg>
