<?xml version="1.0" encoding="UTF-8" standalone="no"?>
<!DOCTYPE svg PUBLIC "-//W3C//DTD SVG 1.1//EN"
 "http://www.w3.org/Graphics/SVG/1.1/DTD/svg11.dtd">
<!-- Generated by graphviz version 7.0.2 (20221119.0110)
 -->
<!-- Title: C:/Users/juanh/OneDrive/Escritorio/Facultad/Beca/Proyecto/LAL_Control/include/drivers/Display.h Pages: 1 -->
<svg width="390pt" height="126pt"
 viewBox="0.00 0.00 390.00 126.00" xmlns="http://www.w3.org/2000/svg" xmlns:xlink="http://www.w3.org/1999/xlink">
<g id="graph0" class="graph" transform="scale(1 1) rotate(0) translate(4 122)">
<title>C:/Users/juanh/OneDrive/Escritorio/Facultad/Beca/Proyecto/LAL_Control/include/drivers/Display.h</title>
<!-- Node1 -->
<g id="node1" class="node">
<title>Node1</title>
<g id="a_node1"><a xlink:title="Controlador de LCD hd44780 por interfaz I2C.">
<polygon fill="#999999" stroke="#666666" points="225,-118 76,-118 76,-66 225,-66 225,-118"/>
<text text-anchor="start" x="84" y="-106" font-family="Helvetica,sans-Serif" font-size="10.00">C:/Users/juanh/OneDrive</text>
<text text-anchor="start" x="84" y="-95" font-family="Helvetica,sans-Serif" font-size="10.00">/Escritorio/Facultad/Beca</text>
<text text-anchor="start" x="84" y="-84" font-family="Helvetica,sans-Serif" font-size="10.00">/Proyecto/LAL_Control/include</text>
<text text-anchor="middle" x="150.5" y="-73" font-family="Helvetica,sans-Serif" font-size="10.00">/drivers/Display.h</text>
</a>
</g>
</g>
<!-- Node2 -->
<g id="node2" class="node">
<title>Node2</title>
<g id="a_node2"><a xlink:title=" ">
<polygon fill="#e0e0e0" stroke="#999999" points="45,-24.5 0,-24.5 0,-5.5 45,-5.5 45,-24.5"/>
<text text-anchor="middle" x="22.5" y="-12.5" font-family="Helvetica,sans-Serif" font-size="10.00">Wire.h</text>
</a>
</g>
</g>
<!-- Node1&#45;&gt;Node2 -->
<g id="edge1" class="edge">
<title>Node1&#45;&gt;Node2</title>
<path fill="none" stroke="#63b8ff" d="M107.17,-65.61C87.22,-53.92 64.29,-40.48 47.32,-30.54"/>
<polygon fill="#63b8ff" stroke="#63b8ff" points="49.31,-27.65 38.91,-25.62 45.77,-33.69 49.31,-27.65"/>
</g>
<!-- Node3 -->
<g id="node3" class="node">
<title>Node3</title>
<g id="a_node3"><a xlink:title=" ">
<polygon fill="#e0e0e0" stroke="#999999" points="125.5,-24.5 63.5,-24.5 63.5,-5.5 125.5,-5.5 125.5,-24.5"/>
<text text-anchor="middle" x="94.5" y="-12.5" font-family="Helvetica,sans-Serif" font-size="10.00">hd44780.h</text>
</a>
</g>
</g>
<!-- Node1&#45;&gt;Node3 -->
<g id="edge2" class="edge">
<title>Node1&#45;&gt;Node3</title>
<path fill="none" stroke="#63b8ff" d="M131.54,-65.61C123.8,-55.25 115.04,-43.5 107.97,-34.05"/>
<polygon fill="#63b8ff" stroke="#63b8ff" points="110.8,-31.98 102.01,-26.06 105.19,-36.17 110.8,-31.98"/>
</g>
<!-- Node4 -->
<g id="node4" class="node">
<title>Node4</title>
<g id="a_node4"><a xlink:title=" ">
<polygon fill="#e0e0e0" stroke="#999999" points="269,-30 144,-30 144,0 269,0 269,-30"/>
<text text-anchor="start" x="152" y="-18" font-family="Helvetica,sans-Serif" font-size="10.00">hd44780ioClass/hd44780</text>
<text text-anchor="middle" x="206.5" y="-7" font-family="Helvetica,sans-Serif" font-size="10.00">_I2Cexp.h</text>
</a>
</g>
</g>
<!-- Node1&#45;&gt;Node4 -->
<g id="edge3" class="edge">
<title>Node1&#45;&gt;Node4</title>
<path fill="none" stroke="#63b8ff" d="M169.46,-65.61C175.75,-57.18 182.73,-47.83 188.92,-39.55"/>
<polygon fill="#63b8ff" stroke="#63b8ff" points="191.64,-41.75 194.82,-31.64 186.03,-37.56 191.64,-41.75"/>
</g>
<!-- Node5 -->
<g id="node5" class="node">
<title>Node5</title>
<g id="a_node5"><a xlink:href="display__settings_8h.html" target="_top" xlink:title="Archivo de configuración de la pantalla.">
<polygon fill="white" stroke="#666666" points="382,-24.5 287,-24.5 287,-5.5 382,-5.5 382,-24.5"/>
<text text-anchor="middle" x="334.5" y="-12.5" font-family="Helvetica,sans-Serif" font-size="10.00">display_settings.h</text>
</a>
</g>
</g>
<!-- Node1&#45;&gt;Node5 -->
<g id="edge4" class="edge">
<title>Node1&#45;&gt;Node5</title>
<path fill="none" stroke="#63b8ff" d="M213.05,-65.5C243.05,-53.28 277.71,-39.15 302.31,-29.12"/>
<polygon fill="#63b8ff" stroke="#63b8ff" points="303.51,-32.41 311.45,-25.4 300.86,-25.93 303.51,-32.41"/>
</g>
</g>
</svg>
