<?xml version="1.0" encoding="UTF-8" standalone="no"?>
<!DOCTYPE svg PUBLIC "-//W3C//DTD SVG 1.1//EN"
 "http://www.w3.org/Graphics/SVG/1.1/DTD/svg11.dtd">
<!-- Generated by graphviz version 7.0.2 (20221119.0110)
 -->
<!-- Title: C:/Users/juanh/OneDrive/Escritorio/Facultad/Beca/Proyecto/LAL_Control/include/machine_state_pattern/machine_states/Idle_state.h Pages: 1 -->
<svg width="1858pt" height="423pt"
 viewBox="0.00 0.00 1857.83 423.00" xmlns="http://www.w3.org/2000/svg" xmlns:xlink="http://www.w3.org/1999/xlink">
<g id="graph0" class="graph" transform="scale(1 1) rotate(0) translate(4 419)">
<title>C:/Users/juanh/OneDrive/Escritorio/Facultad/Beca/Proyecto/LAL_Control/include/machine_state_pattern/machine_states/Idle_state.h</title>
<!-- Node1 -->
<g id="node1" class="node">
<title>Node1</title>
<g id="a_node1"><a xlink:title="Clase de estado de reposo.">
<polygon fill="#999999" stroke="#666666" points="1837,-415 1679,-415 1679,-352 1837,-352 1837,-415"/>
<text text-anchor="start" x="1687" y="-403" font-family="Helvetica,sans-Serif" font-size="10.00">C:/Users/juanh/OneDrive</text>
<text text-anchor="start" x="1687" y="-392" font-family="Helvetica,sans-Serif" font-size="10.00">/Escritorio/Facultad/Beca</text>
<text text-anchor="start" x="1687" y="-381" font-family="Helvetica,sans-Serif" font-size="10.00">/Proyecto/LAL_Control/include</text>
<text text-anchor="start" x="1687" y="-370" font-family="Helvetica,sans-Serif" font-size="10.00">/machine_state_pattern/machine</text>
<text text-anchor="middle" x="1758" y="-359" font-family="Helvetica,sans-Serif" font-size="10.00">_states/Idle_state.h</text>
</a>
</g>
</g>
<!-- Node2 -->
<g id="node2" class="node">
<title>Node2</title>
<g id="a_node2"><a xlink:href="_control__system_8h_source.html" target="_top" xlink:title=" ">
<polygon fill="white" stroke="#666666" points="1167.5,-239 1074.5,-239 1074.5,-220 1167.5,-220 1167.5,-239"/>
<text text-anchor="middle" x="1121" y="-227" font-family="Helvetica,sans-Serif" font-size="10.00">Control_system.h</text>
</a>
</g>
</g>
<!-- Node1&#45;&gt;Node2 -->
<g id="edge1" class="edge">
<title>Node1&#45;&gt;Node2</title>
<path fill="none" stroke="#63b8ff" d="M1678.61,-363.56C1544.93,-331.66 1278.83,-268.16 1169.55,-242.09"/>
<polygon fill="#63b8ff" stroke="#63b8ff" points="1170.57,-238.73 1160.03,-239.81 1168.94,-245.54 1170.57,-238.73"/>
</g>
<!-- Node7 -->
<g id="node7" class="node">
<title>Node7</title>
<g id="a_node7"><a xlink:href="_abstract__state_8h.html" target="_top" xlink:title="Clase de estado abstracta.">
<polygon fill="white" stroke="#666666" points="1841,-107 1713,-107 1713,-66 1841,-66 1841,-107"/>
<text text-anchor="start" x="1721" y="-95" font-family="Helvetica,sans-Serif" font-size="10.00">machine_state_pattern</text>
<text text-anchor="start" x="1721" y="-84" font-family="Helvetica,sans-Serif" font-size="10.00">/machine_states/Abstract</text>
<text text-anchor="middle" x="1777" y="-73" font-family="Helvetica,sans-Serif" font-size="10.00">_state.h</text>
</a>
</g>
</g>
<!-- Node1&#45;&gt;Node7 -->
<g id="edge43" class="edge">
<title>Node1&#45;&gt;Node7</title>
<path fill="none" stroke="#63b8ff" d="M1810.96,-351.72C1823.04,-341.95 1834.29,-329.98 1841,-316 1858.16,-280.27 1847.47,-203.85 1821,-143 1816.87,-133.5 1810.68,-124.24 1804.25,-116.09"/>
<polygon fill="#63b8ff" stroke="#63b8ff" points="1807.06,-113.98 1797.95,-108.57 1801.69,-118.48 1807.06,-113.98"/>
</g>
<!-- Node30 -->
<g id="node30" class="node">
<title>Node30</title>
<g id="a_node30"><a xlink:href="_motor__control__state_8h.html" target="_top" xlink:title="Clase de estado de control del motor.">
<polygon fill="white" stroke="#666666" points="1816,-316 1700,-316 1700,-275 1816,-275 1816,-316"/>
<text text-anchor="start" x="1708" y="-304" font-family="Helvetica,sans-Serif" font-size="10.00">machine_state_pattern</text>
<text text-anchor="start" x="1708" y="-293" font-family="Helvetica,sans-Serif" font-size="10.00">/machine_states/Motor</text>
<text text-anchor="middle" x="1758" y="-282" font-family="Helvetica,sans-Serif" font-size="10.00">_control_state.h</text>
</a>
</g>
</g>
<!-- Node1&#45;&gt;Node30 -->
<g id="edge44" class="edge">
<title>Node1&#45;&gt;Node30</title>
<path fill="none" stroke="#63b8ff" d="M1751.51,-351.94C1751.18,-344.11 1751.16,-335.69 1751.48,-327.83"/>
<polygon fill="#63b8ff" stroke="#63b8ff" points="1754.96,-328.2 1752.1,-317.99 1747.97,-327.75 1754.96,-328.2"/>
</g>
<!-- Node3 -->
<g id="node3" class="node">
<title>Node3</title>
<g id="a_node3"><a xlink:href="_subject_8h.html" target="_top" xlink:title=" ">
<polygon fill="white" stroke="#666666" points="128,-101.5 0,-101.5 0,-71.5 128,-71.5 128,-101.5"/>
<text text-anchor="start" x="8" y="-89.5" font-family="Helvetica,sans-Serif" font-size="10.00">observer_pattern/subjects</text>
<text text-anchor="middle" x="64" y="-78.5" font-family="Helvetica,sans-Serif" font-size="10.00">/Subject.h</text>
</a>
</g>
</g>
<!-- Node2&#45;&gt;Node3 -->
<g id="edge2" class="edge">
<title>Node2&#45;&gt;Node3</title>
<path fill="none" stroke="#63b8ff" d="M1074.01,-227.29C930.8,-223.36 501.25,-209.68 364,-184 271.29,-166.65 167.4,-128.91 109.43,-106.11"/>
<polygon fill="#63b8ff" stroke="#63b8ff" points="110.8,-102.88 100.22,-102.45 108.22,-109.39 110.8,-102.88"/>
</g>
<!-- Node6 -->
<g id="node6" class="node">
<title>Node6</title>
<g id="a_node6"><a xlink:href="_machine_8h.html" target="_top" xlink:title="Clase de máquina abstracta.">
<polygon fill="white" stroke="#666666" points="1645,-178.5 1529,-178.5 1529,-148.5 1645,-148.5 1645,-178.5"/>
<text text-anchor="start" x="1537" y="-166.5" font-family="Helvetica,sans-Serif" font-size="10.00">machine_state_pattern</text>
<text text-anchor="middle" x="1587" y="-155.5" font-family="Helvetica,sans-Serif" font-size="10.00">/Machine.h</text>
</a>
</g>
</g>
<!-- Node2&#45;&gt;Node6 -->
<g id="edge5" class="edge">
<title>Node2&#45;&gt;Node6</title>
<path fill="none" stroke="#63b8ff" d="M1167.78,-225.9C1242.72,-221.15 1394.06,-209.15 1520,-184 1523.34,-183.33 1526.75,-182.58 1530.18,-181.76"/>
<polygon fill="#63b8ff" stroke="#63b8ff" points="1530.83,-185.21 1539.66,-179.35 1529.1,-178.42 1530.83,-185.21"/>
</g>
<!-- Node8 -->
<g id="node8" class="node">
<title>Node8</title>
<g id="a_node8"><a xlink:href="_display_8h.html" target="_top" xlink:title="Controlador de LCD hd44780 por interfaz I2C.">
<polygon fill="white" stroke="#666666" points="461,-173 373,-173 373,-154 461,-154 461,-173"/>
<text text-anchor="middle" x="417" y="-161" font-family="Helvetica,sans-Serif" font-size="10.00">drivers/Display.h</text>
</a>
</g>
</g>
<!-- Node2&#45;&gt;Node8 -->
<g id="edge7" class="edge">
<title>Node2&#45;&gt;Node8</title>
<path fill="none" stroke="#63b8ff" d="M1074.15,-226.34C974.61,-221.46 734.81,-208.05 535,-184 514.58,-181.54 492.29,-178.07 472.64,-174.73"/>
<polygon fill="#63b8ff" stroke="#63b8ff" points="473.36,-171.3 462.91,-173.05 472.16,-178.2 473.36,-171.3"/>
</g>
<!-- Node13 -->
<g id="node13" class="node">
<title>Node13</title>
<g id="a_node13"><a xlink:href="user__messages_8h.html" target="_top" xlink:title="Archivo para la configuración de interfaz con el usuario.">
<polygon fill="white" stroke="#666666" points="638,-173 544,-173 544,-154 638,-154 638,-173"/>
<text text-anchor="middle" x="591" y="-161" font-family="Helvetica,sans-Serif" font-size="10.00">user_messages.h</text>
</a>
</g>
</g>
<!-- Node2&#45;&gt;Node13 -->
<g id="edge12" class="edge">
<title>Node2&#45;&gt;Node13</title>
<path fill="none" stroke="#63b8ff" d="M1074.13,-227.46C989.01,-224.83 803.69,-215.64 651,-184 642.52,-182.24 633.56,-179.71 625.21,-177.05"/>
<polygon fill="#63b8ff" stroke="#63b8ff" points="626.36,-173.74 615.76,-173.89 624.13,-180.38 626.36,-173.74"/>
</g>
<!-- Node15 -->
<g id="node15" class="node">
<title>Node15</title>
<g id="a_node15"><a xlink:href="_system__observer_8h.html" target="_top" xlink:title="Clase observador del sistema de control.">
<polygon fill="white" stroke="#666666" points="792,-178.5 660,-178.5 660,-148.5 792,-148.5 792,-178.5"/>
<text text-anchor="start" x="668" y="-166.5" font-family="Helvetica,sans-Serif" font-size="10.00">observer_pattern/observers</text>
<text text-anchor="middle" x="726" y="-155.5" font-family="Helvetica,sans-Serif" font-size="10.00">/System_observer.h</text>
</a>
</g>
</g>
<!-- Node2&#45;&gt;Node15 -->
<g id="edge14" class="edge">
<title>Node2&#45;&gt;Node15</title>
<path fill="none" stroke="#63b8ff" d="M1074.25,-224.35C1009.98,-217.81 891.44,-203.77 792,-184 788.19,-183.24 784.28,-182.41 780.37,-181.52"/>
<polygon fill="#63b8ff" stroke="#63b8ff" points="781.38,-178.16 770.84,-179.27 779.76,-184.98 781.38,-178.16"/>
</g>
<!-- Node17 -->
<g id="node17" class="node">
<title>Node17</title>
<g id="a_node17"><a xlink:href="_temperature__sensor_8h.html" target="_top" xlink:title="Controlador para sensor de temperatura DS18B20.">
<polygon fill="white" stroke="#666666" points="911.5,-178.5 810.5,-178.5 810.5,-148.5 911.5,-148.5 911.5,-178.5"/>
<text text-anchor="start" x="818.5" y="-166.5" font-family="Helvetica,sans-Serif" font-size="10.00">drivers/Temperature</text>
<text text-anchor="middle" x="861" y="-155.5" font-family="Helvetica,sans-Serif" font-size="10.00">_sensor.h</text>
</a>
</g>
</g>
<!-- Node2&#45;&gt;Node17 -->
<g id="edge19" class="edge">
<title>Node2&#45;&gt;Node17</title>
<path fill="none" stroke="#63b8ff" d="M1077.81,-219.51C1038.16,-211.06 977.87,-197.68 926,-184 923.59,-183.37 921.14,-182.7 918.67,-182.02"/>
<polygon fill="#63b8ff" stroke="#63b8ff" points="919.79,-178.7 909.22,-179.35 917.89,-185.44 919.79,-178.7"/>
</g>
<!-- Node21 -->
<g id="node21" class="node">
<title>Node21</title>
<g id="a_node21"><a xlink:href="_moisture__sensor_8h.html" target="_top" xlink:title="Controlador de sensor de humedad analógico.">
<polygon fill="white" stroke="#666666" points="1309,-173 1181,-173 1181,-154 1309,-154 1309,-173"/>
<text text-anchor="middle" x="1245" y="-161" font-family="Helvetica,sans-Serif" font-size="10.00">drivers/Moisture_sensor.h</text>
</a>
</g>
</g>
<!-- Node2&#45;&gt;Node21 -->
<g id="edge23" class="edge">
<title>Node2&#45;&gt;Node21</title>
<path fill="none" stroke="#63b8ff" d="M1138.24,-219.6C1158.88,-208.95 1193.68,-190.99 1217.92,-178.48"/>
<polygon fill="#63b8ff" stroke="#63b8ff" points="1219.28,-181.71 1226.56,-174.02 1216.07,-175.49 1219.28,-181.71"/>
</g>
<!-- Node23 -->
<g id="node23" class="node">
<title>Node23</title>
<g id="a_node23"><a xlink:href="types_8h.html" target="_top" xlink:title="Archivo de definición de tipos de dato.">
<polygon fill="white" stroke="#666666" points="1054.5,-96 1005.5,-96 1005.5,-77 1054.5,-77 1054.5,-96"/>
<text text-anchor="middle" x="1030" y="-84" font-family="Helvetica,sans-Serif" font-size="10.00">types.h</text>
</a>
</g>
</g>
<!-- Node2&#45;&gt;Node23 -->
<g id="edge25" class="edge">
<title>Node2&#45;&gt;Node23</title>
<path fill="none" stroke="#63b8ff" d="M1074.1,-221.99C1031.4,-214.98 972.97,-202.32 959,-184 947.95,-169.51 951.01,-159.38 959,-143 964.17,-132.39 987.91,-115.01 1006.53,-102.52"/>
<polygon fill="#63b8ff" stroke="#63b8ff" points="1008.25,-105.58 1014.68,-97.16 1004.4,-99.74 1008.25,-105.58"/>
</g>
<!-- Node24 -->
<g id="node24" class="node">
<title>Node24</title>
<g id="a_node24"><a xlink:href="_buzzer_8h.html" target="_top" xlink:title="Controlador de Buzzer de 12 milimetros.">
<polygon fill="white" stroke="#666666" points="1511,-173 1425,-173 1425,-154 1511,-154 1511,-173"/>
<text text-anchor="middle" x="1468" y="-161" font-family="Helvetica,sans-Serif" font-size="10.00">drivers/Buzzer.h</text>
</a>
</g>
</g>
<!-- Node2&#45;&gt;Node24 -->
<g id="edge26" class="edge">
<title>Node2&#45;&gt;Node24</title>
<path fill="none" stroke="#63b8ff" d="M1167.85,-224.48C1226.55,-218.76 1329.9,-206.37 1416,-184 1422.7,-182.26 1429.72,-179.96 1436.37,-177.56"/>
<polygon fill="#63b8ff" stroke="#63b8ff" points="1437.55,-180.85 1445.66,-174.03 1435.07,-174.31 1437.55,-180.85"/>
</g>
<!-- Node26 -->
<g id="node26" class="node">
<title>Node26</title>
<g id="a_node26"><a xlink:href="_motor_8h.html" target="_top" xlink:title="Controlador de motor de 220 VAC.">
<polygon fill="white" stroke="#666666" points="1407,-173 1327,-173 1327,-154 1407,-154 1407,-173"/>
<text text-anchor="middle" x="1367" y="-161" font-family="Helvetica,sans-Serif" font-size="10.00">drivers/Motor.h</text>
</a>
</g>
</g>
<!-- Node2&#45;&gt;Node26 -->
<g id="edge29" class="edge">
<title>Node2&#45;&gt;Node26</title>
<path fill="none" stroke="#63b8ff" d="M1167.71,-220.09C1207.97,-212.34 1267.43,-199.67 1318,-184 1324.01,-182.14 1330.33,-179.87 1336.35,-177.55"/>
<polygon fill="#63b8ff" stroke="#63b8ff" points="1337.36,-180.91 1345.35,-173.95 1334.76,-174.41 1337.36,-180.91"/>
</g>
<!-- Node27 -->
<g id="node27" class="node">
<title>Node27</title>
<g id="a_node27"><a xlink:href="_dual___l_e_d_8h.html" target="_top" xlink:title="Controlador de LED RG.">
<polygon fill="white" stroke="#666666" points="1061.5,-173 968.5,-173 968.5,-154 1061.5,-154 1061.5,-173"/>
<text text-anchor="middle" x="1015" y="-161" font-family="Helvetica,sans-Serif" font-size="10.00">drivers/Dual_led.h</text>
</a>
</g>
</g>
<!-- Node2&#45;&gt;Node27 -->
<g id="edge32" class="edge">
<title>Node2&#45;&gt;Node27</title>
<path fill="none" stroke="#63b8ff" d="M1106.26,-219.6C1088.94,-209.14 1059.93,-191.63 1039.27,-179.16"/>
<polygon fill="#63b8ff" stroke="#63b8ff" points="1041.28,-176.28 1030.91,-174.11 1037.66,-182.27 1041.28,-176.28"/>
</g>
<!-- Node28 -->
<g id="node28" class="node">
<title>Node28</title>
<g id="a_node28"><a xlink:href="_cooler_8h.html" target="_top" xlink:title="Controlador de ventilador de 12 volts y 5 milímteros.">
<polygon fill="white" stroke="#666666" points="1162.5,-173 1079.5,-173 1079.5,-154 1162.5,-154 1162.5,-173"/>
<text text-anchor="middle" x="1121" y="-161" font-family="Helvetica,sans-Serif" font-size="10.00">drivers/Cooler.h</text>
</a>
</g>
</g>
<!-- Node2&#45;&gt;Node28 -->
<g id="edge36" class="edge">
<title>Node2&#45;&gt;Node28</title>
<path fill="none" stroke="#63b8ff" d="M1121,-219.6C1121,-210.62 1121,-196.45 1121,-184.72"/>
<polygon fill="#63b8ff" stroke="#63b8ff" points="1124.5,-184.84 1121,-174.84 1117.5,-184.84 1124.5,-184.84"/>
</g>
<!-- Node29 -->
<g id="node29" class="node">
<title>Node29</title>
<g id="a_node29"><a xlink:href="_shutdown__state_8h.html" target="_top" xlink:title="Clase de estado de apagado del sistema.">
<polygon fill="white" stroke="#666666" points="1797,-184 1663,-184 1663,-143 1797,-143 1797,-184"/>
<text text-anchor="start" x="1671" y="-172" font-family="Helvetica,sans-Serif" font-size="10.00">machine_state_pattern</text>
<text text-anchor="start" x="1671" y="-161" font-family="Helvetica,sans-Serif" font-size="10.00">/machine_states/Shutdown</text>
<text text-anchor="middle" x="1730" y="-150" font-family="Helvetica,sans-Serif" font-size="10.00">_state.h</text>
</a>
</g>
</g>
<!-- Node2&#45;&gt;Node29 -->
<g id="edge39" class="edge">
<title>Node2&#45;&gt;Node29</title>
<path fill="none" stroke="#63b8ff" d="M1167.91,-227.05C1260.05,-223.74 1470.35,-213.48 1645,-184 1647.17,-183.63 1649.36,-183.24 1651.57,-182.81"/>
<polygon fill="#63b8ff" stroke="#63b8ff" points="1652.18,-186.26 1661.27,-180.82 1650.77,-179.41 1652.18,-186.26"/>
</g>
<!-- Node4 -->
<g id="node4" class="node">
<title>Node4</title>
<g id="a_node4"><a xlink:href="_subject__interface_8h.html" target="_top" xlink:title="Clase para interfaz para implementar el sujeto.">
<polygon fill="white" stroke="#666666" points="379,-30 251,-30 251,0 379,0 379,-30"/>
<text text-anchor="start" x="259" y="-18" font-family="Helvetica,sans-Serif" font-size="10.00">observer_pattern/subjects</text>
<text text-anchor="middle" x="315" y="-7" font-family="Helvetica,sans-Serif" font-size="10.00">/Subject_interface.h</text>
</a>
</g>
</g>
<!-- Node3&#45;&gt;Node4 -->
<g id="edge3" class="edge">
<title>Node3&#45;&gt;Node4</title>
<path fill="none" stroke="#63b8ff" d="M116.31,-71.02C155.75,-60.1 210,-45.07 251.85,-33.49"/>
<polygon fill="#63b8ff" stroke="#63b8ff" points="252.59,-36.91 261.3,-30.87 250.73,-30.17 252.59,-36.91"/>
</g>
<!-- Node5 -->
<g id="node5" class="node">
<title>Node5</title>
<g id="a_node5"><a xlink:href="_observer__interface_8h.html" target="_top" xlink:title="Clase para interfaz para implementar el observador.">
<polygon fill="white" stroke="#666666" points="655,-30 523,-30 523,0 655,0 655,-30"/>
<text text-anchor="start" x="531" y="-18" font-family="Helvetica,sans-Serif" font-size="10.00">observer_pattern/observers</text>
<text text-anchor="middle" x="589" y="-7" font-family="Helvetica,sans-Serif" font-size="10.00">/Observer_interface.h</text>
</a>
</g>
</g>
<!-- Node3&#45;&gt;Node5 -->
<g id="edge4" class="edge">
<title>Node3&#45;&gt;Node5</title>
<path fill="none" stroke="#63b8ff" d="M114.04,-71.07C121.69,-69.17 129.52,-67.4 137,-66 267.22,-41.55 420.96,-27.67 511.41,-21.01"/>
<polygon fill="#63b8ff" stroke="#63b8ff" points="511.44,-24.51 521.16,-20.3 510.93,-17.53 511.44,-24.51"/>
</g>
<!-- Node6&#45;&gt;Node7 -->
<g id="edge6" class="edge">
<title>Node6&#45;&gt;Node7</title>
<path fill="none" stroke="#63b8ff" d="M1623.63,-148.04C1649.78,-137.72 1685.54,-123.6 1715.96,-111.59"/>
<polygon fill="#63b8ff" stroke="#63b8ff" points="1717.05,-114.93 1725.07,-108 1714.48,-108.42 1717.05,-114.93"/>
</g>
<!-- Node9 -->
<g id="node9" class="node">
<title>Node9</title>
<g id="a_node9"><a xlink:title=" ">
<polygon fill="#e0e0e0" stroke="#999999" points="527.5,-96 482.5,-96 482.5,-77 527.5,-77 527.5,-96"/>
<text text-anchor="middle" x="505" y="-84" font-family="Helvetica,sans-Serif" font-size="10.00">Wire.h</text>
</a>
</g>
</g>
<!-- Node8&#45;&gt;Node9 -->
<g id="edge8" class="edge">
<title>Node8&#45;&gt;Node9</title>
<path fill="none" stroke="#63b8ff" d="M427.44,-153.6C441.86,-141.31 468.13,-118.92 486.06,-103.64"/>
<polygon fill="#63b8ff" stroke="#63b8ff" points="488.08,-106.52 493.42,-97.37 483.54,-101.19 488.08,-106.52"/>
</g>
<!-- Node10 -->
<g id="node10" class="node">
<title>Node10</title>
<g id="a_node10"><a xlink:title=" ">
<polygon fill="#e0e0e0" stroke="#999999" points="208,-96 146,-96 146,-77 208,-77 208,-96"/>
<text text-anchor="middle" x="177" y="-84" font-family="Helvetica,sans-Serif" font-size="10.00">hd44780.h</text>
</a>
</g>
</g>
<!-- Node8&#45;&gt;Node10 -->
<g id="edge9" class="edge">
<title>Node8&#45;&gt;Node10</title>
<path fill="none" stroke="#63b8ff" d="M376.46,-153.56C335.56,-144 270.92,-127.43 217,-107 212.65,-105.35 208.14,-103.4 203.78,-101.38"/>
<polygon fill="#63b8ff" stroke="#63b8ff" points="205.32,-98.24 194.8,-97.02 202.26,-104.54 205.32,-98.24"/>
</g>
<!-- Node11 -->
<g id="node11" class="node">
<title>Node11</title>
<g id="a_node11"><a xlink:title=" ">
<polygon fill="#e0e0e0" stroke="#999999" points="351.5,-101.5 226.5,-101.5 226.5,-71.5 351.5,-71.5 351.5,-101.5"/>
<text text-anchor="start" x="234.5" y="-89.5" font-family="Helvetica,sans-Serif" font-size="10.00">hd44780ioClass/hd44780</text>
<text text-anchor="middle" x="289" y="-78.5" font-family="Helvetica,sans-Serif" font-size="10.00">_I2Cexp.h</text>
</a>
</g>
</g>
<!-- Node8&#45;&gt;Node11 -->
<g id="edge10" class="edge">
<title>Node8&#45;&gt;Node11</title>
<path fill="none" stroke="#63b8ff" d="M401.81,-153.6C382.52,-142.3 348.66,-122.46 323.05,-107.45"/>
<polygon fill="#63b8ff" stroke="#63b8ff" points="325.05,-104.57 314.65,-102.53 321.51,-110.61 325.05,-104.57"/>
</g>
<!-- Node12 -->
<g id="node12" class="node">
<title>Node12</title>
<g id="a_node12"><a xlink:href="display__settings_8h.html" target="_top" xlink:title="Archivo de configuración de la pantalla.">
<polygon fill="white" stroke="#666666" points="464.5,-96 369.5,-96 369.5,-77 464.5,-77 464.5,-96"/>
<text text-anchor="middle" x="417" y="-84" font-family="Helvetica,sans-Serif" font-size="10.00">display_settings.h</text>
</a>
</g>
</g>
<!-- Node8&#45;&gt;Node12 -->
<g id="edge11" class="edge">
<title>Node8&#45;&gt;Node12</title>
<path fill="none" stroke="#63b8ff" d="M417,-153.6C417,-142.33 417,-122.55 417,-107.56"/>
<polygon fill="#63b8ff" stroke="#63b8ff" points="420.5,-107.9 417,-97.9 413.5,-107.9 420.5,-107.9"/>
</g>
<!-- Node14 -->
<g id="node14" class="node">
<title>Node14</title>
<g id="a_node14"><a xlink:title=" ">
<polygon fill="#e0e0e0" stroke="#999999" points="630.5,-96 545.5,-96 545.5,-77 630.5,-77 630.5,-96"/>
<text text-anchor="middle" x="588" y="-84" font-family="Helvetica,sans-Serif" font-size="10.00">avr/pgmspace.h</text>
</a>
</g>
</g>
<!-- Node13&#45;&gt;Node14 -->
<g id="edge13" class="edge">
<title>Node13&#45;&gt;Node14</title>
<path fill="none" stroke="#63b8ff" d="M590.64,-153.6C590.19,-142.33 589.4,-122.55 588.8,-107.56"/>
<polygon fill="#63b8ff" stroke="#63b8ff" points="592.31,-107.75 588.42,-97.9 585.32,-108.03 592.31,-107.75"/>
</g>
<!-- Node15&#45;&gt;Node2 -->
<g id="edge18" class="edge">
<title>Node15&#45;&gt;Node2</title>
<path fill="none" stroke="#63b8ff" d="M787.18,-178.92C794.87,-180.77 802.61,-182.53 810,-184 897.65,-201.43 1000.16,-214.4 1062.9,-221.71"/>
<polygon fill="#63b8ff" stroke="#63b8ff" points="1062.3,-225.17 1072.64,-222.84 1063.11,-218.21 1062.3,-225.17"/>
</g>
<!-- Node16 -->
<g id="node16" class="node">
<title>Node16</title>
<g id="a_node16"><a xlink:href="_observer_8h.html" target="_top" xlink:title="Clase observador.">
<polygon fill="white" stroke="#666666" points="781,-101.5 649,-101.5 649,-71.5 781,-71.5 781,-101.5"/>
<text text-anchor="start" x="657" y="-89.5" font-family="Helvetica,sans-Serif" font-size="10.00">observer_pattern/observers</text>
<text text-anchor="middle" x="715" y="-78.5" font-family="Helvetica,sans-Serif" font-size="10.00">/Observer.h</text>
</a>
</g>
</g>
<!-- Node15&#45;&gt;Node16 -->
<g id="edge15" class="edge">
<title>Node15&#45;&gt;Node16</title>
<path fill="none" stroke="#63b8ff" d="M723.88,-148.04C722.43,-138.18 720.48,-124.86 718.77,-113.22"/>
<polygon fill="#63b8ff" stroke="#63b8ff" points="722.25,-112.8 717.33,-103.41 715.32,-113.82 722.25,-112.8"/>
</g>
<!-- Node16&#45;&gt;Node4 -->
<g id="edge16" class="edge">
<title>Node16&#45;&gt;Node4</title>
<path fill="none" stroke="#63b8ff" d="M661.59,-71.1C654.03,-69.26 646.34,-67.5 639,-66 554.4,-48.66 456.28,-34.31 390.37,-25.5"/>
<polygon fill="#63b8ff" stroke="#63b8ff" points="391.14,-22.07 380.77,-24.23 390.22,-29.01 391.14,-22.07"/>
</g>
<!-- Node16&#45;&gt;Node5 -->
<g id="edge17" class="edge">
<title>Node16&#45;&gt;Node5</title>
<path fill="none" stroke="#63b8ff" d="M688.89,-71.1C670.39,-60.9 645.34,-47.08 624.95,-35.83"/>
<polygon fill="#63b8ff" stroke="#63b8ff" points="626.85,-32.88 616.4,-31.11 623.46,-39.01 626.85,-32.88"/>
</g>
<!-- Node18 -->
<g id="node18" class="node">
<title>Node18</title>
<g id="a_node18"><a xlink:href="system__settings_8h.html" target="_top" xlink:title="Archivo para la definición de constantes del sistema.">
<polygon fill="white" stroke="#666666" points="1169.5,-96 1072.5,-96 1072.5,-77 1169.5,-77 1169.5,-96"/>
<text text-anchor="middle" x="1121" y="-84" font-family="Helvetica,sans-Serif" font-size="10.00">system_settings.h</text>
</a>
</g>
</g>
<!-- Node17&#45;&gt;Node18 -->
<g id="edge20" class="edge">
<title>Node17&#45;&gt;Node18</title>
<path fill="none" stroke="#63b8ff" d="M911.87,-149.37C952.85,-138.59 1011.87,-122.61 1063,-107 1070,-104.86 1077.44,-102.46 1084.56,-100.1"/>
<polygon fill="#63b8ff" stroke="#63b8ff" points="1085.61,-103.44 1093.97,-96.93 1083.37,-96.81 1085.61,-103.44"/>
</g>
<!-- Node19 -->
<g id="node19" class="node">
<title>Node19</title>
<g id="a_node19"><a xlink:title=" ">
<polygon fill="#e0e0e0" stroke="#999999" points="862.5,-96 799.5,-96 799.5,-77 862.5,-77 862.5,-96"/>
<text text-anchor="middle" x="831" y="-84" font-family="Helvetica,sans-Serif" font-size="10.00">OneWire.h</text>
</a>
</g>
</g>
<!-- Node17&#45;&gt;Node19 -->
<g id="edge21" class="edge">
<title>Node17&#45;&gt;Node19</title>
<path fill="none" stroke="#63b8ff" d="M855.22,-148.04C850.52,-136.31 843.86,-119.66 838.72,-106.79"/>
<polygon fill="#63b8ff" stroke="#63b8ff" points="842.04,-105.68 835.08,-97.69 835.54,-108.28 842.04,-105.68"/>
</g>
<!-- Node20 -->
<g id="node20" class="node">
<title>Node20</title>
<g id="a_node20"><a xlink:title=" ">
<polygon fill="#e0e0e0" stroke="#999999" points="987,-96 881,-96 881,-77 987,-77 987,-96"/>
<text text-anchor="middle" x="934" y="-84" font-family="Helvetica,sans-Serif" font-size="10.00">DallasTemperature.h</text>
</a>
</g>
</g>
<!-- Node17&#45;&gt;Node20 -->
<g id="edge22" class="edge">
<title>Node17&#45;&gt;Node20</title>
<path fill="none" stroke="#63b8ff" d="M875.08,-148.04C887.19,-135.59 904.7,-117.61 917.48,-104.47"/>
<polygon fill="#63b8ff" stroke="#63b8ff" points="919.92,-106.98 924.39,-97.37 914.91,-102.1 919.92,-106.98"/>
</g>
<!-- Node22 -->
<g id="node22" class="node">
<title>Node22</title>
<g id="a_node22"><a xlink:title=" ">
<polygon fill="#e0e0e0" stroke="#999999" points="1274,-96 1216,-96 1216,-77 1274,-77 1274,-96"/>
<text text-anchor="middle" x="1245" y="-84" font-family="Helvetica,sans-Serif" font-size="10.00">Arduino.h</text>
</a>
</g>
</g>
<!-- Node21&#45;&gt;Node22 -->
<g id="edge24" class="edge">
<title>Node21&#45;&gt;Node22</title>
<path fill="none" stroke="#63b8ff" d="M1245,-153.6C1245,-142.33 1245,-122.55 1245,-107.56"/>
<polygon fill="#63b8ff" stroke="#63b8ff" points="1248.5,-107.9 1245,-97.9 1241.5,-107.9 1248.5,-107.9"/>
</g>
<!-- Node24&#45;&gt;Node22 -->
<g id="edge27" class="edge">
<title>Node24&#45;&gt;Node22</title>
<path fill="none" stroke="#63b8ff" d="M1444.78,-153.54C1435.82,-150.15 1425.47,-146.31 1416,-143 1371.2,-127.34 1319.3,-110.7 1284.53,-99.78"/>
<polygon fill="#63b8ff" stroke="#63b8ff" points="1285.91,-96.54 1275.32,-96.89 1283.82,-103.22 1285.91,-96.54"/>
</g>
<!-- Node25 -->
<g id="node25" class="node">
<title>Node25</title>
<g id="a_node25"><a xlink:href="port__config_8h.html" target="_top" xlink:title="Archivo de configuración para los puertos de la placa donde se implementará el sistema.">
<polygon fill="white" stroke="#666666" points="1454,-96 1382,-96 1382,-77 1454,-77 1454,-96"/>
<text text-anchor="middle" x="1418" y="-84" font-family="Helvetica,sans-Serif" font-size="10.00">port_config.h</text>
</a>
</g>
</g>
<!-- Node24&#45;&gt;Node25 -->
<g id="edge28" class="edge">
<title>Node24&#45;&gt;Node25</title>
<path fill="none" stroke="#63b8ff" d="M1462.07,-153.6C1454.25,-141.87 1440.3,-120.96 1430.19,-105.79"/>
<polygon fill="#63b8ff" stroke="#63b8ff" points="1433.22,-104.02 1424.76,-97.65 1427.4,-107.91 1433.22,-104.02"/>
</g>
<!-- Node26&#45;&gt;Node22 -->
<g id="edge30" class="edge">
<title>Node26&#45;&gt;Node22</title>
<path fill="none" stroke="#63b8ff" d="M1352.53,-153.6C1331.98,-140.97 1294.1,-117.68 1269.23,-102.39"/>
<polygon fill="#63b8ff" stroke="#63b8ff" points="1271.1,-99.43 1260.74,-97.18 1267.43,-105.4 1271.1,-99.43"/>
</g>
<!-- Node26&#45;&gt;Node25 -->
<g id="edge31" class="edge">
<title>Node26&#45;&gt;Node25</title>
<path fill="none" stroke="#63b8ff" d="M1373.05,-153.6C1381.03,-141.87 1395.25,-120.96 1405.56,-105.79"/>
<polygon fill="#63b8ff" stroke="#63b8ff" points="1408.38,-107.88 1411.11,-97.64 1402.59,-103.94 1408.38,-107.88"/>
</g>
<!-- Node27&#45;&gt;Node18 -->
<g id="edge35" class="edge">
<title>Node27&#45;&gt;Node18</title>
<path fill="none" stroke="#63b8ff" d="M1027.58,-153.6C1045.19,-141.14 1077.46,-118.31 1099.07,-103.01"/>
<polygon fill="#63b8ff" stroke="#63b8ff" points="1101.06,-105.89 1107.2,-97.26 1097.02,-100.18 1101.06,-105.89"/>
</g>
<!-- Node27&#45;&gt;Node22 -->
<g id="edge33" class="edge">
<title>Node27&#45;&gt;Node22</title>
<path fill="none" stroke="#63b8ff" d="M1039.58,-153.59C1049.06,-150.2 1060.01,-146.35 1070,-143 1116.08,-127.53 1169.36,-110.8 1204.91,-99.79"/>
<polygon fill="#63b8ff" stroke="#63b8ff" points="1205.83,-103.17 1214.35,-96.88 1203.76,-96.49 1205.83,-103.17"/>
</g>
<!-- Node27&#45;&gt;Node23 -->
<g id="edge34" class="edge">
<title>Node27&#45;&gt;Node23</title>
<path fill="none" stroke="#63b8ff" d="M1016.78,-153.6C1019.03,-142.33 1022.99,-122.55 1025.99,-107.56"/>
<polygon fill="#63b8ff" stroke="#63b8ff" points="1029.4,-108.36 1027.93,-97.87 1022.53,-106.99 1029.4,-108.36"/>
</g>
<!-- Node28&#45;&gt;Node18 -->
<g id="edge38" class="edge">
<title>Node28&#45;&gt;Node18</title>
<path fill="none" stroke="#63b8ff" d="M1121,-153.6C1121,-142.33 1121,-122.55 1121,-107.56"/>
<polygon fill="#63b8ff" stroke="#63b8ff" points="1124.5,-107.9 1121,-97.9 1117.5,-107.9 1124.5,-107.9"/>
</g>
<!-- Node28&#45;&gt;Node22 -->
<g id="edge37" class="edge">
<title>Node28&#45;&gt;Node22</title>
<path fill="none" stroke="#63b8ff" d="M1135.71,-153.6C1156.69,-140.92 1195.44,-117.48 1220.71,-102.19"/>
<polygon fill="#63b8ff" stroke="#63b8ff" points="1222.27,-105.34 1229.01,-97.17 1218.64,-99.35 1222.27,-105.34"/>
</g>
<!-- Node29&#45;&gt;Node1 -->
<g id="edge42" class="edge">
<title>Node29&#45;&gt;Node1</title>
<path fill="none" stroke="#63b8ff" d="M1755,-184.2C1778.17,-204.21 1811.1,-237.52 1825,-275 1831.33,-292.09 1832,-299.18 1825,-316 1820.84,-325.99 1814.36,-335.26 1807.05,-343.5"/>
<polygon fill="#63b8ff" stroke="#63b8ff" points="1804.62,-340.98 1800.23,-350.62 1809.67,-345.82 1804.62,-340.98"/>
</g>
<!-- Node29&#45;&gt;Node2 -->
<g id="edge40" class="edge">
<title>Node29&#45;&gt;Node2</title>
<path fill="none" stroke="#63b8ff" d="M1662.73,-184.04C1488.62,-213.41 1279.16,-223.68 1179.29,-227.02"/>
<polygon fill="#63b8ff" stroke="#63b8ff" points="1179.35,-223.52 1169.47,-227.34 1179.58,-230.51 1179.35,-223.52"/>
</g>
<!-- Node29&#45;&gt;Node7 -->
<g id="edge41" class="edge">
<title>Node29&#45;&gt;Node7</title>
<path fill="none" stroke="#63b8ff" d="M1742.35,-142.79C1747.27,-134.93 1753.05,-125.71 1758.46,-117.08"/>
<polygon fill="#63b8ff" stroke="#63b8ff" points="1761.42,-118.95 1763.77,-108.62 1755.49,-115.23 1761.42,-118.95"/>
</g>
<!-- Node30&#45;&gt;Node1 -->
<g id="edge47" class="edge">
<title>Node30&#45;&gt;Node1</title>
<path fill="none" stroke="#63b8ff" d="M1763.8,-316.48C1764.46,-323.72 1764.78,-332.2 1764.75,-340.62"/>
<polygon fill="#63b8ff" stroke="#63b8ff" points="1761.25,-340.35 1764.53,-350.42 1768.25,-340.51 1761.25,-340.35"/>
</g>
<!-- Node30&#45;&gt;Node2 -->
<g id="edge45" class="edge">
<title>Node30&#45;&gt;Node2</title>
<path fill="none" stroke="#63b8ff" d="M1699.78,-288.65C1578.54,-276.47 1300.18,-248.5 1179.07,-236.33"/>
<polygon fill="#63b8ff" stroke="#63b8ff" points="1179.65,-232.88 1169.35,-235.36 1178.95,-239.84 1179.65,-232.88"/>
</g>
<!-- Node30&#45;&gt;Node7 -->
<g id="edge46" class="edge">
<title>Node30&#45;&gt;Node7</title>
<path fill="none" stroke="#63b8ff" d="M1769.66,-274.56C1781.5,-253.05 1799.06,-217.38 1806,-184 1809.71,-166.16 1810.34,-160.7 1806,-143 1803.86,-134.26 1800.07,-125.38 1795.92,-117.35"/>
<polygon fill="#63b8ff" stroke="#63b8ff" points="1799.03,-115.74 1791.11,-108.7 1792.91,-119.14 1799.03,-115.74"/>
</g>
</g>
</svg>
