<?xml version="1.0" encoding="UTF-8" standalone="no"?>
<!DOCTYPE svg PUBLIC "-//W3C//DTD SVG 1.1//EN"
 "http://www.w3.org/Graphics/SVG/1.1/DTD/svg11.dtd">
<!-- Generated by graphviz version 7.0.2 (20221119.0110)
 -->
<!-- Title: C:/Users/juanh/OneDrive/Escritorio/Facultad/Beca/Proyecto/LAL_Control/include/Idle_state.h Pages: 1 -->
<!--zoomable 346 -->
<svg id="main" version="1.1" xmlns="http://www.w3.org/2000/svg" xmlns:xlink="http://www.w3.org/1999/xlink" xml:space="preserve" onload="init(evt)">
<style type="text/css"><![CDATA[
.edge:hover path { stroke: red; }
.edge:hover polygon { stroke: red; fill: red; }
]]></style>
<script type="text/javascript"><![CDATA[
var edges = document.getElementsByTagName('g');
if (edges && edges.length) {
  for (var i=0;i<edges.length;i++) {
    if (edges[i].id.substr(0,4)=='edge') {
      edges[i].setAttribute('class','edge');
    }
  }
}
]]></script>
        <defs>
                <circle id="rim" cx="0" cy="0" r="7"/>
                <circle id="rim2" cx="0" cy="0" r="3.5"/>
                <g id="zoomPlus">
                        <use xlink:href="#rim" fill="#404040">
                                <set attributeName="fill" to="#808080" begin="zoomplus.mouseover" end="zoomplus.mouseout"/>
                        </use>
                        <path d="M-4,0h8M0,-4v8" fill="none" stroke="white" stroke-width="1.5" pointer-events="none"/>
                </g>
                <g id="zoomMin">
                        <use xlink:href="#rim" fill="#404040">
                                <set attributeName="fill" to="#808080" begin="zoomminus.mouseover" end="zoomminus.mouseout"/>
                        </use>
                        <path d="M-4,0h8" fill="none" stroke="white" stroke-width="1.5" pointer-events="none"/>
                </g>
                <g id="dirArrow">
                        <path fill="none" stroke="white" stroke-width="1.5" d="M0,-3.0v7 M-2.5,-0.5L0,-3.0L2.5,-0.5"/>
                </g>
               <g id="resetDef">
                       <use xlink:href="#rim2" fill="#404040">
                               <set attributeName="fill" to="#808080" begin="reset.mouseover" end="reset.mouseout"/>
                       </use>
               </g>
        </defs>

<script type="text/javascript">
var viewWidth = 1402;
var viewHeight = 346;
var sectionId = 'dynsection-0';
</script>
<script xlink:href="svgpan.js"/>
<svg id="graph" class="graph">
<g id="viewport">
<title>C:/Users/juanh/OneDrive/Escritorio/Facultad/Beca/Proyecto/LAL_Control/include/Idle_state.h</title>
<!-- Node1 -->
<g id="node1" class="node">
<title>Node1</title>
<g id="a_node1"><a xlink:title=" ">
<polygon fill="#999999" stroke="#666666" points="250,-338 101,-338 101,-286 250,-286 250,-338"/>
<text text-anchor="start" x="109" y="-326" font-family="Helvetica,sans-Serif" font-size="10.00">C:/Users/juanh/OneDrive</text>
<text text-anchor="start" x="109" y="-315" font-family="Helvetica,sans-Serif" font-size="10.00">/Escritorio/Facultad/Beca</text>
<text text-anchor="start" x="109" y="-304" font-family="Helvetica,sans-Serif" font-size="10.00">/Proyecto/LAL_Control/include</text>
<text text-anchor="middle" x="175.5" y="-293" font-family="Helvetica,sans-Serif" font-size="10.00">/Idle_state.h</text>
</a>
</g>
</g>
<!-- Node2 -->
<g id="node2" class="node">
<title>Node2</title>
<g id="a_node2"><a xlink:href="_control__system_8h_source.html" target="_top" xlink:title=" ">
<polygon fill="white" stroke="#666666" points="667,-195 574,-195 574,-176 667,-176 667,-195"/>
<text text-anchor="middle" x="620.5" y="-183" font-family="Helvetica,sans-Serif" font-size="10.00">Control_system.h</text>
</a>
</g>
</g>
<!-- Node1&#45;&gt;Node2 -->
<g id="edge1" class="edge">
<title>Node1&#45;&gt;Node2</title>
<path fill="none" stroke="#63b8ff" d="M250.48,-290.02C344.37,-263.75 502.04,-219.64 577.6,-198.5"/>
<polygon fill="#63b8ff" stroke="#63b8ff" points="578.42,-201.91 587.11,-195.84 576.53,-195.17 578.42,-201.91"/>
</g>
<!-- Node7 -->
<g id="node7" class="node">
<title>Node7</title>
<g id="a_node7"><a xlink:href="_abstract__state_8h.html" target="_top" xlink:title=" ">
<polygon fill="white" stroke="#666666" points="89,-79.5 0,-79.5 0,-60.5 89,-60.5 89,-79.5"/>
<text text-anchor="middle" x="44.5" y="-67.5" font-family="Helvetica,sans-Serif" font-size="10.00">Abstract_state.h</text>
</a>
</g>
</g>
<!-- Node1&#45;&gt;Node7 -->
<g id="edge43" class="edge">
<title>Node1&#45;&gt;Node7</title>
<path fill="none" stroke="#63b8ff" d="M142.7,-285.62C131.31,-275.52 119.22,-263.16 110.5,-250 75.96,-197.87 56.47,-125.26 48.61,-90.74"/>
<polygon fill="#63b8ff" stroke="#63b8ff" points="52.11,-90.36 46.56,-81.34 45.27,-91.85 52.11,-90.36"/>
</g>
<!-- Node30 -->
<g id="node30" class="node">
<title>Node30</title>
<g id="a_node30"><a xlink:href="_motor__control__state_8h_source.html" target="_top" xlink:title=" ">
<polygon fill="white" stroke="#666666" points="231,-250 120,-250 120,-231 231,-231 231,-250"/>
<text text-anchor="middle" x="175.5" y="-238" font-family="Helvetica,sans-Serif" font-size="10.00">Motor_control_state.h</text>
</a>
</g>
</g>
<!-- Node1&#45;&gt;Node30 -->
<g id="edge44" class="edge">
<title>Node1&#45;&gt;Node30</title>
<path fill="none" stroke="#63b8ff" d="M168.97,-285.52C168.59,-277.57 168.71,-268.94 169.33,-261.43"/>
<polygon fill="#63b8ff" stroke="#63b8ff" points="172.77,-262.08 170.65,-251.7 165.84,-261.14 172.77,-262.08"/>
</g>
<!-- Node3 -->
<g id="node3" class="node">
<title>Node3</title>
<g id="a_node3"><a xlink:href="_subject_8h.html" target="_top" xlink:title=" ">
<polygon fill="white" stroke="#666666" points="1351.5,-79.5 1293.5,-79.5 1293.5,-60.5 1351.5,-60.5 1351.5,-79.5"/>
<text text-anchor="middle" x="1322.5" y="-67.5" font-family="Helvetica,sans-Serif" font-size="10.00">Subject.h</text>
</a>
</g>
</g>
<!-- Node2&#45;&gt;Node3 -->
<g id="edge2" class="edge">
<title>Node2&#45;&gt;Node3</title>
<path fill="none" stroke="#63b8ff" d="M667.44,-183.87C788.99,-181.79 1111.53,-173.2 1212.5,-140 1247.44,-128.51 1282.53,-103.64 1303.38,-87.11"/>
<polygon fill="#63b8ff" stroke="#63b8ff" points="1305.43,-89.95 1310.98,-80.93 1301.02,-84.52 1305.43,-89.95"/>
</g>
<!-- Node6 -->
<g id="node6" class="node">
<title>Node6</title>
<g id="a_node6"><a xlink:href="_machine_8h.html" target="_top" xlink:title=" ">
<polygon fill="white" stroke="#666666" points="387.5,-140 325.5,-140 325.5,-121 387.5,-121 387.5,-140"/>
<text text-anchor="middle" x="356.5" y="-128" font-family="Helvetica,sans-Serif" font-size="10.00">Machine.h</text>
</a>
</g>
</g>
<!-- Node2&#45;&gt;Node6 -->
<g id="edge5" class="edge">
<title>Node2&#45;&gt;Node6</title>
<path fill="none" stroke="#63b8ff" d="M574.56,-175.56C531.64,-167.16 465.49,-154.12 399.03,-140.5"/>
<polygon fill="#63b8ff" stroke="#63b8ff" points="399.92,-137.11 389.42,-138.53 398.51,-143.97 399.92,-137.11"/>
</g>
<!-- Node8 -->
<g id="node8" class="node">
<title>Node8</title>
<g id="a_node8"><a xlink:href="_display_8h.html" target="_top" xlink:title=" ">
<polygon fill="white" stroke="#666666" points="463,-140 406,-140 406,-121 463,-121 463,-140"/>
<text text-anchor="middle" x="434.5" y="-128" font-family="Helvetica,sans-Serif" font-size="10.00">Display.h</text>
</a>
</g>
</g>
<!-- Node2&#45;&gt;Node8 -->
<g id="edge7" class="edge">
<title>Node2&#45;&gt;Node8</title>
<path fill="none" stroke="#63b8ff" d="M588.95,-175.51C557.38,-166.51 508.72,-152.65 474.47,-142.89"/>
<polygon fill="#63b8ff" stroke="#63b8ff" points="475.48,-139.54 464.9,-140.16 473.56,-146.27 475.48,-139.54"/>
</g>
<!-- Node13 -->
<g id="node13" class="node">
<title>Node13</title>
<g id="a_node13"><a xlink:href="user__messages_8h.html" target="_top" xlink:title="Archivo para la configuración de interfaz con el usuario.">
<polygon fill="white" stroke="#666666" points="639.5,-79.5 545.5,-79.5 545.5,-60.5 639.5,-60.5 639.5,-79.5"/>
<text text-anchor="middle" x="592.5" y="-67.5" font-family="Helvetica,sans-Serif" font-size="10.00">user_messages.h</text>
</a>
</g>
</g>
<!-- Node2&#45;&gt;Node13 -->
<g id="edge12" class="edge">
<title>Node2&#45;&gt;Node13</title>
<path fill="none" stroke="#63b8ff" d="M610.89,-175.69C602.63,-167.41 591.3,-154.18 586.5,-140 581.08,-123.97 583.43,-104.7 586.65,-90.61"/>
<polygon fill="#63b8ff" stroke="#63b8ff" points="589.96,-91.79 589.14,-81.23 583.19,-90 589.96,-91.79"/>
</g>
<!-- Node15 -->
<g id="node15" class="node">
<title>Node15</title>
<g id="a_node15"><a xlink:href="_system__observer_8h.html" target="_top" xlink:title=" ">
<polygon fill="white" stroke="#666666" points="1203.5,-140 1103.5,-140 1103.5,-121 1203.5,-121 1203.5,-140"/>
<text text-anchor="middle" x="1153.5" y="-128" font-family="Helvetica,sans-Serif" font-size="10.00">System_observer.h</text>
</a>
</g>
</g>
<!-- Node2&#45;&gt;Node15 -->
<g id="edge14" class="edge">
<title>Node2&#45;&gt;Node15</title>
<path fill="none" stroke="#63b8ff" d="M667.31,-180.44C751.31,-173.46 932.63,-158.18 1085.5,-140 1087.53,-139.76 1089.6,-139.5 1091.69,-139.24"/>
<polygon fill="#63b8ff" stroke="#63b8ff" points="1092.08,-142.72 1101.54,-137.95 1091.17,-135.78 1092.08,-142.72"/>
</g>
<!-- Node17 -->
<g id="node17" class="node">
<title>Node17</title>
<g id="a_node17"><a xlink:href="_temperature__sensor_8h.html" target="_top" xlink:title="Módulo de gestión de sensores de temperatura por interfaz OneWire.">
<polygon fill="white" stroke="#666666" points="1085,-140 972,-140 972,-121 1085,-121 1085,-140"/>
<text text-anchor="middle" x="1028.5" y="-128" font-family="Helvetica,sans-Serif" font-size="10.00">Temperature_sensor.h</text>
</a>
</g>
</g>
<!-- Node2&#45;&gt;Node17 -->
<g id="edge19" class="edge">
<title>Node2&#45;&gt;Node17</title>
<path fill="none" stroke="#63b8ff" d="M667.3,-178.42C739.27,-169.07 877.47,-151.12 960.49,-140.33"/>
<polygon fill="#63b8ff" stroke="#63b8ff" points="960.86,-143.82 970.32,-139.06 959.95,-136.87 960.86,-143.82"/>
</g>
<!-- Node21 -->
<g id="node21" class="node">
<title>Node21</title>
<g id="a_node21"><a xlink:href="_moisture__sensor_8h_source.html" target="_top" xlink:title=" ">
<polygon fill="white" stroke="#666666" points="835,-140 738,-140 738,-121 835,-121 835,-140"/>
<text text-anchor="middle" x="786.5" y="-128" font-family="Helvetica,sans-Serif" font-size="10.00">Moisture_sensor.h</text>
</a>
</g>
</g>
<!-- Node2&#45;&gt;Node21 -->
<g id="edge23" class="edge">
<title>Node2&#45;&gt;Node21</title>
<path fill="none" stroke="#63b8ff" d="M648.66,-175.51C675.93,-166.8 717.49,-153.53 747.85,-143.84"/>
<polygon fill="#63b8ff" stroke="#63b8ff" points="748.58,-147.28 757.04,-140.91 746.45,-140.61 748.58,-147.28"/>
</g>
<!-- Node23 -->
<g id="node23" class="node">
<title>Node23</title>
<g id="a_node23"><a xlink:href="types_8h.html" target="_top" xlink:title="Archivo de definición de tipos de dato.">
<polygon fill="white" stroke="#666666" points="873,-79.5 824,-79.5 824,-60.5 873,-60.5 873,-79.5"/>
<text text-anchor="middle" x="848.5" y="-67.5" font-family="Helvetica,sans-Serif" font-size="10.00">types.h</text>
</a>
</g>
</g>
<!-- Node2&#45;&gt;Node23 -->
<g id="edge25" class="edge">
<title>Node2&#45;&gt;Node23</title>
<path fill="none" stroke="#63b8ff" d="M667.5,-181.76C726.23,-177.26 821.82,-166.05 844.5,-140 856.06,-126.72 855.68,-105.99 853.25,-90.71"/>
<polygon fill="#63b8ff" stroke="#63b8ff" points="856.77,-90.47 851.35,-81.36 849.91,-91.86 856.77,-90.47"/>
</g>
<!-- Node24 -->
<g id="node24" class="node">
<title>Node24</title>
<g id="a_node24"><a xlink:href="_buzzer_8h.html" target="_top" xlink:title=" ">
<polygon fill="white" stroke="#666666" points="719.5,-140 663.5,-140 663.5,-121 719.5,-121 719.5,-140"/>
<text text-anchor="middle" x="691.5" y="-128" font-family="Helvetica,sans-Serif" font-size="10.00">Buzzer.h</text>
</a>
</g>
</g>
<!-- Node2&#45;&gt;Node24 -->
<g id="edge26" class="edge">
<title>Node2&#45;&gt;Node24</title>
<path fill="none" stroke="#63b8ff" d="M632.54,-175.51C642.91,-167.77 658.1,-156.43 670.47,-147.2"/>
<polygon fill="#63b8ff" stroke="#63b8ff" points="672.5,-150.05 678.42,-141.26 668.31,-144.44 672.5,-150.05"/>
</g>
<!-- Node26 -->
<g id="node26" class="node">
<title>Node26</title>
<g id="a_node26"><a xlink:href="_motor_8h.html" target="_top" xlink:title=" ">
<polygon fill="white" stroke="#666666" points="645.5,-140 595.5,-140 595.5,-121 645.5,-121 645.5,-140"/>
<text text-anchor="middle" x="620.5" y="-128" font-family="Helvetica,sans-Serif" font-size="10.00">Motor.h</text>
</a>
</g>
</g>
<!-- Node2&#45;&gt;Node26 -->
<g id="edge29" class="edge">
<title>Node2&#45;&gt;Node26</title>
<path fill="none" stroke="#63b8ff" d="M620.5,-175.75C620.5,-169.27 620.5,-160.16 620.5,-151.9"/>
<polygon fill="#63b8ff" stroke="#63b8ff" points="624,-151.96 620.5,-141.96 617,-151.96 624,-151.96"/>
</g>
<!-- Node27 -->
<g id="node27" class="node">
<title>Node27</title>
<g id="a_node27"><a xlink:href="_dual___l_e_d_8h.html" target="_top" xlink:title=" ">
<polygon fill="white" stroke="#666666" points="953.5,-140 891.5,-140 891.5,-121 953.5,-121 953.5,-140"/>
<text text-anchor="middle" x="922.5" y="-128" font-family="Helvetica,sans-Serif" font-size="10.00">Dual_led.h</text>
</a>
</g>
</g>
<!-- Node2&#45;&gt;Node27 -->
<g id="edge32" class="edge">
<title>Node2&#45;&gt;Node27</title>
<path fill="none" stroke="#63b8ff" d="M667.43,-176.59C718.99,-167.86 804.2,-153.27 877.5,-140 878.32,-139.85 879.15,-139.7 879.99,-139.55"/>
<polygon fill="#63b8ff" stroke="#63b8ff" points="880.35,-143.04 889.55,-137.78 879.08,-136.16 880.35,-143.04"/>
</g>
<!-- Node28 -->
<g id="node28" class="node">
<title>Node28</title>
<g id="a_node28"><a xlink:href="_shutdown__state_8h_source.html" target="_top" xlink:title=" ">
<polygon fill="white" stroke="#666666" points="307,-140 212,-140 212,-121 307,-121 307,-140"/>
<text text-anchor="middle" x="259.5" y="-128" font-family="Helvetica,sans-Serif" font-size="10.00">Shutdown_state.h</text>
</a>
</g>
</g>
<!-- Node2&#45;&gt;Node28 -->
<g id="edge36" class="edge">
<title>Node2&#45;&gt;Node28</title>
<path fill="none" stroke="#63b8ff" d="M573.73,-178.56C514.84,-170.41 410.67,-155.23 319.16,-141.72"/>
<polygon fill="#63b8ff" stroke="#63b8ff" points="319.68,-138.26 309.27,-140.26 318.65,-145.19 319.68,-138.26"/>
</g>
<!-- Node29 -->
<g id="node29" class="node">
<title>Node29</title>
<g id="a_node29"><a xlink:href="utils_8h_source.html" target="_top" xlink:title=" ">
<polygon fill="white" stroke="#666666" points="539,-140 496,-140 496,-121 539,-121 539,-140"/>
<text text-anchor="middle" x="517.5" y="-128" font-family="Helvetica,sans-Serif" font-size="10.00">utils.h</text>
</a>
</g>
</g>
<!-- Node2&#45;&gt;Node29 -->
<g id="edge40" class="edge">
<title>Node2&#45;&gt;Node29</title>
<path fill="none" stroke="#63b8ff" d="M603.03,-175.51C587.1,-167.31 563.31,-155.07 544.86,-145.58"/>
<polygon fill="#63b8ff" stroke="#63b8ff" points="546.55,-142.51 536.06,-141.05 543.35,-148.74 546.55,-142.51"/>
</g>
<!-- Node4 -->
<g id="node4" class="node">
<title>Node4</title>
<g id="a_node4"><a xlink:href="_subject__interface_8h_source.html" target="_top" xlink:title=" ">
<polygon fill="white" stroke="#666666" points="1393.5,-19 1293.5,-19 1293.5,0 1393.5,0 1393.5,-19"/>
<text text-anchor="middle" x="1343.5" y="-7" font-family="Helvetica,sans-Serif" font-size="10.00">Subject_interface.h</text>
</a>
</g>
</g>
<!-- Node3&#45;&gt;Node4 -->
<g id="edge3" class="edge">
<title>Node3&#45;&gt;Node4</title>
<path fill="none" stroke="#63b8ff" d="M1325.6,-60.37C1328.48,-52.33 1332.88,-40.07 1336.6,-29.72"/>
<polygon fill="#63b8ff" stroke="#63b8ff" points="1339.79,-31.19 1339.88,-20.59 1333.2,-28.82 1339.79,-31.19"/>
</g>
<!-- Node5 -->
<g id="node5" class="node">
<title>Node5</title>
<g id="a_node5"><a xlink:href="_observer__interface_8h.html" target="_top" xlink:title=" ">
<polygon fill="white" stroke="#666666" points="1275,-19 1170,-19 1170,0 1275,0 1275,-19"/>
<text text-anchor="middle" x="1222.5" y="-7" font-family="Helvetica,sans-Serif" font-size="10.00">Observer_interface.h</text>
</a>
</g>
</g>
<!-- Node3&#45;&gt;Node5 -->
<g id="edge4" class="edge">
<title>Node3&#45;&gt;Node5</title>
<path fill="none" stroke="#63b8ff" d="M1307.31,-60.12C1291.45,-50.84 1266.32,-36.13 1247.52,-25.14"/>
<polygon fill="#63b8ff" stroke="#63b8ff" points="1249.54,-22.26 1239.14,-20.23 1246,-28.3 1249.54,-22.26"/>
</g>
<!-- Node6&#45;&gt;Node7 -->
<g id="edge6" class="edge">
<title>Node6&#45;&gt;Node7</title>
<path fill="none" stroke="#63b8ff" d="M325.19,-122.87C321.92,-122.22 318.64,-121.59 315.5,-121 219.4,-103.07 194.13,-105.29 98.5,-85 95.15,-84.29 91.7,-83.51 88.23,-82.69"/>
<polygon fill="#63b8ff" stroke="#63b8ff" points="89.25,-79.33 78.7,-80.35 87.57,-86.13 89.25,-79.33"/>
</g>
<!-- Node9 -->
<g id="node9" class="node">
<title>Node9</title>
<g id="a_node9"><a xlink:title=" ">
<polygon fill="#e0e0e0" stroke="#999999" points="489,-79.5 444,-79.5 444,-60.5 489,-60.5 489,-79.5"/>
<text text-anchor="middle" x="466.5" y="-67.5" font-family="Helvetica,sans-Serif" font-size="10.00">Wire.h</text>
</a>
</g>
</g>
<!-- Node8&#45;&gt;Node9 -->
<g id="edge8" class="edge">
<title>Node8&#45;&gt;Node9</title>
<path fill="none" stroke="#63b8ff" d="M439.22,-120.87C443.71,-112.66 450.61,-100.04 456.35,-89.55"/>
<polygon fill="#63b8ff" stroke="#63b8ff" points="459.3,-91.45 461.03,-81 453.16,-88.09 459.3,-91.45"/>
</g>
<!-- Node10 -->
<g id="node10" class="node">
<title>Node10</title>
<g id="a_node10"><a xlink:title=" ">
<polygon fill="#e0e0e0" stroke="#999999" points="169.5,-79.5 107.5,-79.5 107.5,-60.5 169.5,-60.5 169.5,-79.5"/>
<text text-anchor="middle" x="138.5" y="-67.5" font-family="Helvetica,sans-Serif" font-size="10.00">hd44780.h</text>
</a>
</g>
</g>
<!-- Node8&#45;&gt;Node10 -->
<g id="edge9" class="edge">
<title>Node8&#45;&gt;Node10</title>
<path fill="none" stroke="#63b8ff" d="M405.9,-122.92C402.74,-122.25 399.55,-121.59 396.5,-121 300.1,-102.27 273.64,-109.31 178.5,-85 176.64,-84.52 174.74,-84 172.83,-83.44"/>
<polygon fill="#63b8ff" stroke="#63b8ff" points="174.01,-80.15 163.42,-80.44 171.89,-86.81 174.01,-80.15"/>
</g>
<!-- Node11 -->
<g id="node11" class="node">
<title>Node11</title>
<g id="a_node11"><a xlink:title=" ">
<polygon fill="#e0e0e0" stroke="#999999" points="313,-85 188,-85 188,-55 313,-55 313,-85"/>
<text text-anchor="start" x="196" y="-73" font-family="Helvetica,sans-Serif" font-size="10.00">hd44780ioClass/hd44780</text>
<text text-anchor="middle" x="250.5" y="-62" font-family="Helvetica,sans-Serif" font-size="10.00">_I2Cexp.h</text>
</a>
</g>
</g>
<!-- Node8&#45;&gt;Node11 -->
<g id="edge10" class="edge">
<title>Node8&#45;&gt;Node11</title>
<path fill="none" stroke="#63b8ff" d="M406.55,-120.62C380.18,-112.23 339.86,-99.41 306.81,-88.9"/>
<polygon fill="#63b8ff" stroke="#63b8ff" points="307.95,-85.59 297.36,-85.9 305.83,-92.26 307.95,-85.59"/>
</g>
<!-- Node12 -->
<g id="node12" class="node">
<title>Node12</title>
<g id="a_node12"><a xlink:href="display__settings_8h.html" target="_top" xlink:title="Archivo de configuración de la pantalla.">
<polygon fill="white" stroke="#666666" points="426,-79.5 331,-79.5 331,-60.5 426,-60.5 426,-79.5"/>
<text text-anchor="middle" x="378.5" y="-67.5" font-family="Helvetica,sans-Serif" font-size="10.00">display_settings.h</text>
</a>
</g>
</g>
<!-- Node8&#45;&gt;Node12 -->
<g id="edge11" class="edge">
<title>Node8&#45;&gt;Node12</title>
<path fill="none" stroke="#63b8ff" d="M426.24,-120.87C417.97,-112.23 405.02,-98.7 394.69,-87.92"/>
<polygon fill="#63b8ff" stroke="#63b8ff" points="397.29,-85.56 387.84,-80.76 392.23,-90.4 397.29,-85.56"/>
</g>
<!-- Node14 -->
<g id="node14" class="node">
<title>Node14</title>
<g id="a_node14"><a xlink:title=" ">
<polygon fill="#e0e0e0" stroke="#999999" points="598,-19 513,-19 513,0 598,0 598,-19"/>
<text text-anchor="middle" x="555.5" y="-7" font-family="Helvetica,sans-Serif" font-size="10.00">avr/pgmspace.h</text>
</a>
</g>
</g>
<!-- Node13&#45;&gt;Node14 -->
<g id="edge13" class="edge">
<title>Node13&#45;&gt;Node14</title>
<path fill="none" stroke="#63b8ff" d="M587.04,-60.37C581.79,-52.07 573.7,-39.28 567.03,-28.72"/>
<polygon fill="#63b8ff" stroke="#63b8ff" points="570.09,-27.03 561.79,-20.45 564.18,-30.77 570.09,-27.03"/>
</g>
<!-- Node15&#45;&gt;Node2 -->
<g id="edge18" class="edge">
<title>Node15&#45;&gt;Node2</title>
<path fill="none" stroke="#63b8ff" d="M1103.03,-140.06C950.39,-158.19 769.5,-173.44 678.6,-180.42"/>
<polygon fill="#63b8ff" stroke="#63b8ff" points="678.39,-176.93 668.68,-181.18 678.92,-183.91 678.39,-176.93"/>
</g>
<!-- Node16 -->
<g id="node16" class="node">
<title>Node16</title>
<g id="a_node16"><a xlink:href="_observer_8h.html" target="_top" xlink:title=" ">
<polygon fill="white" stroke="#666666" points="1275,-79.5 1212,-79.5 1212,-60.5 1275,-60.5 1275,-79.5"/>
<text text-anchor="middle" x="1243.5" y="-67.5" font-family="Helvetica,sans-Serif" font-size="10.00">Observer.h</text>
</a>
</g>
</g>
<!-- Node15&#45;&gt;Node16 -->
<g id="edge15" class="edge">
<title>Node15&#45;&gt;Node16</title>
<path fill="none" stroke="#63b8ff" d="M1167.17,-120.62C1181.31,-111.42 1203.64,-96.91 1220.51,-85.94"/>
<polygon fill="#63b8ff" stroke="#63b8ff" points="1221.96,-89.18 1228.43,-80.79 1218.14,-83.31 1221.96,-89.18"/>
</g>
<!-- Node16&#45;&gt;Node4 -->
<g id="edge16" class="edge">
<title>Node16&#45;&gt;Node4</title>
<path fill="none" stroke="#63b8ff" d="M1258.69,-60.12C1274.55,-50.84 1299.68,-36.13 1318.48,-25.14"/>
<polygon fill="#63b8ff" stroke="#63b8ff" points="1320,-28.3 1326.86,-20.23 1316.46,-22.26 1320,-28.3"/>
</g>
<!-- Node16&#45;&gt;Node5 -->
<g id="edge17" class="edge">
<title>Node16&#45;&gt;Node5</title>
<path fill="none" stroke="#63b8ff" d="M1240.4,-60.37C1237.52,-52.33 1233.12,-40.07 1229.4,-29.72"/>
<polygon fill="#63b8ff" stroke="#63b8ff" points="1232.8,-28.82 1226.12,-20.59 1226.21,-31.19 1232.8,-28.82"/>
</g>
<!-- Node18 -->
<g id="node18" class="node">
<title>Node18</title>
<g id="a_node18"><a xlink:href="system__settings_8h.html" target="_top" xlink:title="Archivo para la definición de constantes del sistema.">
<polygon fill="white" stroke="#666666" points="988,-79.5 891,-79.5 891,-60.5 988,-60.5 988,-79.5"/>
<text text-anchor="middle" x="939.5" y="-67.5" font-family="Helvetica,sans-Serif" font-size="10.00">system_settings.h</text>
</a>
</g>
</g>
<!-- Node17&#45;&gt;Node18 -->
<g id="edge20" class="edge">
<title>Node17&#45;&gt;Node18</title>
<path fill="none" stroke="#63b8ff" d="M1014.98,-120.62C1001.13,-111.51 979.32,-97.18 962.7,-86.25"/>
<polygon fill="#63b8ff" stroke="#63b8ff" points="964.69,-83.37 954.41,-80.8 960.84,-89.22 964.69,-83.37"/>
</g>
<!-- Node19 -->
<g id="node19" class="node">
<title>Node19</title>
<g id="a_node19"><a xlink:title=" ">
<polygon fill="#e0e0e0" stroke="#999999" points="1194,-79.5 1131,-79.5 1131,-60.5 1194,-60.5 1194,-79.5"/>
<text text-anchor="middle" x="1162.5" y="-67.5" font-family="Helvetica,sans-Serif" font-size="10.00">OneWire.h</text>
</a>
</g>
</g>
<!-- Node17&#45;&gt;Node19 -->
<g id="edge21" class="edge">
<title>Node17&#45;&gt;Node19</title>
<path fill="none" stroke="#63b8ff" d="M1048.85,-120.62C1070.89,-110.99 1106.29,-95.54 1131.73,-84.43"/>
<polygon fill="#63b8ff" stroke="#63b8ff" points="1132.81,-87.78 1140.57,-80.57 1130,-81.37 1132.81,-87.78"/>
</g>
<!-- Node20 -->
<g id="node20" class="node">
<title>Node20</title>
<g id="a_node20"><a xlink:title=" ">
<polygon fill="#e0e0e0" stroke="#999999" points="1112.5,-79.5 1006.5,-79.5 1006.5,-60.5 1112.5,-60.5 1112.5,-79.5"/>
<text text-anchor="middle" x="1059.5" y="-67.5" font-family="Helvetica,sans-Serif" font-size="10.00">DallasTemperature.h</text>
</a>
</g>
</g>
<!-- Node17&#45;&gt;Node20 -->
<g id="edge22" class="edge">
<title>Node17&#45;&gt;Node20</title>
<path fill="none" stroke="#63b8ff" d="M1033.07,-120.87C1037.42,-112.66 1044.11,-100.04 1049.67,-89.55"/>
<polygon fill="#63b8ff" stroke="#63b8ff" points="1052.61,-91.48 1054.2,-81 1046.42,-88.2 1052.61,-91.48"/>
</g>
<!-- Node22 -->
<g id="node22" class="node">
<title>Node22</title>
<g id="a_node22"><a xlink:title=" ">
<polygon fill="#e0e0e0" stroke="#999999" points="805.5,-79.5 747.5,-79.5 747.5,-60.5 805.5,-60.5 805.5,-79.5"/>
<text text-anchor="middle" x="776.5" y="-67.5" font-family="Helvetica,sans-Serif" font-size="10.00">Arduino.h</text>
</a>
</g>
</g>
<!-- Node21&#45;&gt;Node22 -->
<g id="edge24" class="edge">
<title>Node21&#45;&gt;Node22</title>
<path fill="none" stroke="#63b8ff" d="M785.02,-120.87C783.68,-113 781.64,-101.1 779.9,-90.89"/>
<polygon fill="#63b8ff" stroke="#63b8ff" points="783.37,-90.43 778.24,-81.16 776.47,-91.61 783.37,-90.43"/>
</g>
<!-- Node24&#45;&gt;Node22 -->
<g id="edge27" class="edge">
<title>Node24&#45;&gt;Node22</title>
<path fill="none" stroke="#63b8ff" d="M704.41,-120.62C717.64,-111.51 738.47,-97.18 754.34,-86.25"/>
<polygon fill="#63b8ff" stroke="#63b8ff" points="755.97,-89.38 762.22,-80.83 752,-83.61 755.97,-89.38"/>
</g>
<!-- Node25 -->
<g id="node25" class="node">
<title>Node25</title>
<g id="a_node25"><a xlink:href="port__config_8h.html" target="_top" xlink:title="Archivo de configuración para los puertos de la placa donde se implementará el sistema.">
<polygon fill="white" stroke="#666666" points="729.5,-79.5 657.5,-79.5 657.5,-60.5 729.5,-60.5 729.5,-79.5"/>
<text text-anchor="middle" x="693.5" y="-67.5" font-family="Helvetica,sans-Serif" font-size="10.00">port_config.h</text>
</a>
</g>
</g>
<!-- Node24&#45;&gt;Node25 -->
<g id="edge28" class="edge">
<title>Node24&#45;&gt;Node25</title>
<path fill="none" stroke="#63b8ff" d="M691.8,-120.87C692.06,-113 692.47,-101.1 692.82,-90.89"/>
<polygon fill="#63b8ff" stroke="#63b8ff" points="696.31,-91.29 693.15,-81.18 689.31,-91.05 696.31,-91.29"/>
</g>
<!-- Node26&#45;&gt;Node22 -->
<g id="edge30" class="edge">
<title>Node26&#45;&gt;Node22</title>
<path fill="none" stroke="#63b8ff" d="M644.19,-120.62C670.19,-110.87 712.17,-95.12 741.86,-83.99"/>
<polygon fill="#63b8ff" stroke="#63b8ff" points="743.03,-87.29 751.17,-80.5 740.57,-80.73 743.03,-87.29"/>
</g>
<!-- Node26&#45;&gt;Node25 -->
<g id="edge31" class="edge">
<title>Node26&#45;&gt;Node25</title>
<path fill="none" stroke="#63b8ff" d="M631.59,-120.62C642.74,-111.68 660.16,-97.72 673.69,-86.87"/>
<polygon fill="#63b8ff" stroke="#63b8ff" points="675.51,-89.9 681.13,-80.91 671.14,-84.44 675.51,-89.9"/>
</g>
<!-- Node27&#45;&gt;Node18 -->
<g id="edge35" class="edge">
<title>Node27&#45;&gt;Node18</title>
<path fill="none" stroke="#63b8ff" d="M925.01,-120.87C927.32,-112.92 930.83,-100.83 933.82,-90.55"/>
<polygon fill="#63b8ff" stroke="#63b8ff" points="937.13,-91.7 936.56,-81.12 930.41,-89.75 937.13,-91.7"/>
</g>
<!-- Node27&#45;&gt;Node22 -->
<g id="edge33" class="edge">
<title>Node27&#45;&gt;Node22</title>
<path fill="none" stroke="#63b8ff" d="M900.33,-120.62C876.1,-110.91 837.05,-95.26 809.28,-84.14"/>
<polygon fill="#63b8ff" stroke="#63b8ff" points="810.87,-81 800.29,-80.53 808.27,-87.5 810.87,-81"/>
</g>
<!-- Node27&#45;&gt;Node23 -->
<g id="edge34" class="edge">
<title>Node27&#45;&gt;Node23</title>
<path fill="none" stroke="#63b8ff" d="M911.26,-120.62C899.96,-111.68 882.29,-97.72 868.58,-86.87"/>
<polygon fill="#63b8ff" stroke="#63b8ff" points="871.05,-84.36 861.03,-80.91 866.71,-89.85 871.05,-84.36"/>
</g>
<!-- Node28&#45;&gt;Node1 -->
<g id="edge39" class="edge">
<title>Node28&#45;&gt;Node1</title>
<path fill="none" stroke="#63b8ff" d="M259.85,-140.43C260.28,-161.03 259.17,-212.96 239.5,-250 234.1,-260.17 226.37,-269.61 218.14,-277.89"/>
<polygon fill="#63b8ff" stroke="#63b8ff" points="215.78,-275.3 210.91,-284.71 220.58,-280.39 215.78,-275.3"/>
</g>
<!-- Node28&#45;&gt;Node2 -->
<g id="edge37" class="edge">
<title>Node28&#45;&gt;Node2</title>
<path fill="none" stroke="#63b8ff" d="M307.33,-137.32C313.48,-138.22 319.66,-139.14 325.5,-140 408.04,-152.2 503.21,-166.1 562.7,-175.07"/>
<polygon fill="#63b8ff" stroke="#63b8ff" points="561.84,-178.48 572.25,-176.52 562.89,-171.56 561.84,-178.48"/>
</g>
<!-- Node28&#45;&gt;Node7 -->
<g id="edge38" class="edge">
<title>Node28&#45;&gt;Node7</title>
<path fill="none" stroke="#63b8ff" d="M226.85,-120.62C189.91,-110.56 129.57,-94.15 88.5,-82.97"/>
<polygon fill="#63b8ff" stroke="#63b8ff" points="89.49,-79.61 78.92,-80.37 87.65,-86.37 89.49,-79.61"/>
</g>
<!-- Node29&#45;&gt;Node13 -->
<g id="edge42" class="edge">
<title>Node29&#45;&gt;Node13</title>
<path fill="none" stroke="#63b8ff" d="M528.89,-120.62C540.34,-111.68 558.25,-97.72 572.15,-86.87"/>
<polygon fill="#63b8ff" stroke="#63b8ff" points="574.08,-89.81 579.81,-80.9 569.77,-84.29 574.08,-89.81"/>
</g>
<!-- Node29&#45;&gt;Node14 -->
<g id="edge41" class="edge">
<title>Node29&#45;&gt;Node14</title>
<path fill="none" stroke="#63b8ff" d="M519.29,-120.66C522.25,-106.57 528.62,-78.26 536.5,-55 539.36,-46.55 543.12,-37.44 546.54,-29.69"/>
<polygon fill="#63b8ff" stroke="#63b8ff" points="549.73,-31.14 550.68,-20.59 543.35,-28.24 549.73,-31.14"/>
</g>
<!-- Node30&#45;&gt;Node1 -->
<g id="edge47" class="edge">
<title>Node30&#45;&gt;Node1</title>
<path fill="none" stroke="#63b8ff" d="M180.15,-250.2C181.45,-256.4 182.15,-265.21 182.24,-274.21"/>
<polygon fill="#63b8ff" stroke="#63b8ff" points="178.74,-273.94 182.06,-284 185.74,-274.07 178.74,-273.94"/>
</g>
<!-- Node30&#45;&gt;Node2 -->
<g id="edge45" class="edge">
<title>Node30&#45;&gt;Node2</title>
<path fill="none" stroke="#63b8ff" d="M231.41,-232.84C316.1,-222.75 476.15,-203.69 562.23,-193.44"/>
<polygon fill="#63b8ff" stroke="#63b8ff" points="562.59,-196.92 572.11,-192.26 561.76,-189.97 562.59,-196.92"/>
</g>
<!-- Node30&#45;&gt;Node7 -->
<g id="edge46" class="edge">
<title>Node30&#45;&gt;Node7</title>
<path fill="none" stroke="#63b8ff" d="M168.82,-230.91C148.33,-204.55 86.04,-124.43 58.2,-88.62"/>
<polygon fill="#63b8ff" stroke="#63b8ff" points="61.15,-86.71 52.25,-80.97 55.62,-91.01 61.15,-86.71"/>
</g>
</g>
</svg>
        <g id="navigator" transform="translate(0 0)" fill="#404254">
                <rect fill="#f2f5e9" fill-opacity="0.5" stroke="#606060" stroke-width=".5" x="0" y="0" width="60" height="60"/>
                <use id="zoomplus" xlink:href="#zoomPlus" x="17" y="9" onmousedown="handleZoom(evt,'in')"/>
                <use id="zoomminus" xlink:href="#zoomMin" x="42" y="9" onmousedown="handleZoom(evt,'out')"/>
                <use id="reset" xlink:href="#resetDef" x="30" y="36" onmousedown="handleReset()"/>
                <g id="arrowUp" xlink:href="#dirArrow" transform="translate(30 24)" onmousedown="handlePan(0,-1)">
                  <use xlink:href="#rim" fill="#404040">
                        <set attributeName="fill" to="#808080" begin="arrowUp.mouseover" end="arrowUp.mouseout"/>
                  </use>
                  <path fill="none" stroke="white" stroke-width="1.5" d="M0,-3.0v7 M-2.5,-0.5L0,-3.0L2.5,-0.5"/>
                </g>
                <g id="arrowRight" xlink:href="#dirArrow" transform="rotate(90) translate(36 -43)" onmousedown="handlePan(1,0)">
                  <use xlink:href="#rim" fill="#404040">
                        <set attributeName="fill" to="#808080" begin="arrowRight.mouseover" end="arrowRight.mouseout"/>
                  </use>
                  <path fill="none" stroke="white" stroke-width="1.5" d="M0,-3.0v7 M-2.5,-0.5L0,-3.0L2.5,-0.5"/>
                </g>
                <g id="arrowDown" xlink:href="#dirArrow" transform="rotate(180) translate(-30 -48)" onmousedown="handlePan(0,1)">
                  <use xlink:href="#rim" fill="#404040">
                        <set attributeName="fill" to="#808080" begin="arrowDown.mouseover" end="arrowDown.mouseout"/>
                  </use>
                  <path fill="none" stroke="white" stroke-width="1.5" d="M0,-3.0v7 M-2.5,-0.5L0,-3.0L2.5,-0.5"/>
                </g>
                <g id="arrowLeft" xlink:href="#dirArrow" transform="rotate(270) translate(-36 17)" onmousedown="handlePan(-1,0)">
                  <use xlink:href="#rim" fill="#404040">
                        <set attributeName="fill" to="#808080" begin="arrowLeft.mouseover" end="arrowLeft.mouseout"/>
                  </use>
                  <path fill="none" stroke="white" stroke-width="1.5" d="M0,-3.0v7 M-2.5,-0.5L0,-3.0L2.5,-0.5"/>
                </g>
        </g>
        <svg viewBox="0 0 15 15" width="100%" height="30px" preserveAspectRatio="xMaxYMin meet">
         <g id="arrow_out" transform="scale(0.3 0.3)">
          <a xlink:href="_idle__state_8h__incl_org.svg" target="_base">
           <rect id="button" ry="5" rx="5" y="6" x="6" height="38" width="38"
                fill="#f2f5e9" fill-opacity="0.5" stroke="#606060" stroke-width="1.0"/>
           <path id="arrow"
             d="M 11.500037,31.436501 C 11.940474,20.09759 22.043105,11.32322 32.158766,21.979434 L 37.068811,17.246167 C 37.068811,17.246167 37.088388,32 37.088388,32 L 22.160133,31.978069 C 22.160133,31.978069 26.997745,27.140456 26.997745,27.140456 C 18.528582,18.264221 13.291696,25.230495 11.500037,31.436501 z"
             style="fill:#404040;"/>
          </a>
         </g>
        </svg>
</svg>
