<?xml version="1.0" encoding="UTF-8" standalone="no"?>
<!DOCTYPE svg PUBLIC "-//W3C//DTD SVG 1.1//EN"
 "http://www.w3.org/Graphics/SVG/1.1/DTD/svg11.dtd">
<!-- Generated by graphviz version 7.0.2 (20221119.0110)
 -->
<!-- Title: C:/Users/juanh/OneDrive/Escritorio/Facultad/Beca/Proyecto/LAL_Control/include/observer_pattern/observers/Observer_interface.h Pages: 1 -->
<svg width="860pt" height="555pt"
 viewBox="0.00 0.00 859.50 555.00" xmlns="http://www.w3.org/2000/svg" xmlns:xlink="http://www.w3.org/1999/xlink">
<g id="graph0" class="graph" transform="scale(1 1) rotate(0) translate(4 551)">
<title>C:/Users/juanh/OneDrive/Escritorio/Facultad/Beca/Proyecto/LAL_Control/include/observer_pattern/observers/Observer_interface.h</title>
<!-- Node1 -->
<g id="node1" class="node">
<title>Node1</title>
<g id="a_node1"><a xlink:title="Clase para interfaz para implementar el observador.">
<polygon fill="#999999" stroke="#666666" points="459,-547 310,-547 310,-484 459,-484 459,-547"/>
<text text-anchor="start" x="318" y="-535" font-family="Helvetica,sans-Serif" font-size="10.00">C:/Users/juanh/OneDrive</text>
<text text-anchor="start" x="318" y="-524" font-family="Helvetica,sans-Serif" font-size="10.00">/Escritorio/Facultad/Beca</text>
<text text-anchor="start" x="318" y="-513" font-family="Helvetica,sans-Serif" font-size="10.00">/Proyecto/LAL_Control/include</text>
<text text-anchor="start" x="318" y="-502" font-family="Helvetica,sans-Serif" font-size="10.00">/observer_pattern/observers</text>
<text text-anchor="middle" x="384.5" y="-491" font-family="Helvetica,sans-Serif" font-size="10.00">/Observer_interface.h</text>
</a>
</g>
</g>
<!-- Node2 -->
<g id="node2" class="node">
<title>Node2</title>
<g id="a_node2"><a xlink:href="_observer_8h.html" target="_top" xlink:title="Clase observador.">
<polygon fill="white" stroke="#666666" points="369,-448 220,-448 220,-385 369,-385 369,-448"/>
<text text-anchor="start" x="228" y="-436" font-family="Helvetica,sans-Serif" font-size="10.00">C:/Users/juanh/OneDrive</text>
<text text-anchor="start" x="228" y="-425" font-family="Helvetica,sans-Serif" font-size="10.00">/Escritorio/Facultad/Beca</text>
<text text-anchor="start" x="228" y="-414" font-family="Helvetica,sans-Serif" font-size="10.00">/Proyecto/LAL_Control/include</text>
<text text-anchor="start" x="228" y="-403" font-family="Helvetica,sans-Serif" font-size="10.00">/observer_pattern/observers</text>
<text text-anchor="middle" x="294.5" y="-392" font-family="Helvetica,sans-Serif" font-size="10.00">/Observer.h</text>
</a>
</g>
</g>
<!-- Node1&#45;&gt;Node2 -->
<g id="edge1" class="edge">
<title>Node1&#45;&gt;Node2</title>
<path fill="none" stroke="#63b8ff" d="M348.03,-475.19C339.78,-466.3 331.14,-456.99 323.26,-448.5"/>
<polygon fill="#63b8ff" stroke="#63b8ff" points="345.38,-477.48 354.75,-482.43 350.51,-472.72 345.38,-477.48"/>
</g>
<!-- Node13 -->
<g id="node13" class="node">
<title>Node13</title>
<g id="a_node13"><a xlink:href="_subject_8h.html" target="_top" xlink:title=" ">
<polygon fill="white" stroke="#666666" points="562,-442.5 387,-442.5 387,-390.5 562,-390.5 562,-442.5"/>
<text text-anchor="start" x="395" y="-430.5" font-family="Helvetica,sans-Serif" font-size="10.00">C:/Users/juanh/OneDrive</text>
<text text-anchor="start" x="395" y="-419.5" font-family="Helvetica,sans-Serif" font-size="10.00">/Escritorio/Facultad/Beca</text>
<text text-anchor="start" x="395" y="-408.5" font-family="Helvetica,sans-Serif" font-size="10.00">/Proyecto/LAL_Control/include</text>
<text text-anchor="middle" x="474.5" y="-397.5" font-family="Helvetica,sans-Serif" font-size="10.00">/observer_pattern/subjects/Subject.h</text>
</a>
</g>
</g>
<!-- Node1&#45;&gt;Node13 -->
<g id="edge23" class="edge">
<title>Node1&#45;&gt;Node13</title>
<path fill="none" stroke="#63b8ff" d="M420.81,-475.36C430.94,-464.45 441.67,-452.88 450.86,-442.98"/>
<polygon fill="#63b8ff" stroke="#63b8ff" points="418.49,-472.72 414.25,-482.43 423.62,-477.48 418.49,-472.72"/>
</g>
<!-- Node3 -->
<g id="node3" class="node">
<title>Node3</title>
<g id="a_node3"><a xlink:href="_system__observer_8h.html" target="_top" xlink:title="Clase observador del sistema de control.">
<polygon fill="white" stroke="#666666" points="369,-349 220,-349 220,-286 369,-286 369,-349"/>
<text text-anchor="start" x="228" y="-337" font-family="Helvetica,sans-Serif" font-size="10.00">C:/Users/juanh/OneDrive</text>
<text text-anchor="start" x="228" y="-326" font-family="Helvetica,sans-Serif" font-size="10.00">/Escritorio/Facultad/Beca</text>
<text text-anchor="start" x="228" y="-315" font-family="Helvetica,sans-Serif" font-size="10.00">/Proyecto/LAL_Control/include</text>
<text text-anchor="start" x="228" y="-304" font-family="Helvetica,sans-Serif" font-size="10.00">/observer_pattern/observers</text>
<text text-anchor="middle" x="294.5" y="-293" font-family="Helvetica,sans-Serif" font-size="10.00">/System_observer.h</text>
</a>
</g>
</g>
<!-- Node2&#45;&gt;Node3 -->
<g id="edge2" class="edge">
<title>Node2&#45;&gt;Node3</title>
<path fill="none" stroke="#63b8ff" d="M294.5,-373.15C294.5,-365.2 294.5,-357.02 294.5,-349.5"/>
<polygon fill="#63b8ff" stroke="#63b8ff" points="291,-373.03 294.5,-383.03 298,-373.03 291,-373.03"/>
</g>
<!-- Node4 -->
<g id="node4" class="node">
<title>Node4</title>
<g id="a_node4"><a xlink:href="_control__system_8h_source.html" target="_top" xlink:title=" ">
<polygon fill="white" stroke="#666666" points="586,-250 437,-250 437,-198 586,-198 586,-250"/>
<text text-anchor="start" x="445" y="-238" font-family="Helvetica,sans-Serif" font-size="10.00">C:/Users/juanh/OneDrive</text>
<text text-anchor="start" x="445" y="-227" font-family="Helvetica,sans-Serif" font-size="10.00">/Escritorio/Facultad/Beca</text>
<text text-anchor="start" x="445" y="-216" font-family="Helvetica,sans-Serif" font-size="10.00">/Proyecto/LAL_Control/include</text>
<text text-anchor="middle" x="511.5" y="-205" font-family="Helvetica,sans-Serif" font-size="10.00">/Control_system.h</text>
</a>
</g>
</g>
<!-- Node3&#45;&gt;Node4 -->
<g id="edge3" class="edge">
<title>Node3&#45;&gt;Node4</title>
<path fill="none" stroke="#63b8ff" d="M371.98,-281.05C395.85,-270.85 421.89,-259.94 444.97,-250.47"/>
<polygon fill="#63b8ff" stroke="#63b8ff" points="370.74,-277.77 362.93,-284.93 373.5,-284.2 370.74,-277.77"/>
</g>
<!-- Node9 -->
<g id="node9" class="node">
<title>Node9</title>
<g id="a_node9"><a xlink:href="_instruction__observer_8h.html" target="_top" xlink:title="Observador de instrucciones.">
<polygon fill="white" stroke="#666666" points="149,-162 0,-162 0,-99 149,-99 149,-162"/>
<text text-anchor="start" x="8" y="-150" font-family="Helvetica,sans-Serif" font-size="10.00">C:/Users/juanh/OneDrive</text>
<text text-anchor="start" x="8" y="-139" font-family="Helvetica,sans-Serif" font-size="10.00">/Escritorio/Facultad/Beca</text>
<text text-anchor="start" x="8" y="-128" font-family="Helvetica,sans-Serif" font-size="10.00">/Proyecto/LAL_Control/include</text>
<text text-anchor="start" x="8" y="-117" font-family="Helvetica,sans-Serif" font-size="10.00">/observer_pattern/observers</text>
<text text-anchor="middle" x="74.5" y="-106" font-family="Helvetica,sans-Serif" font-size="10.00">/Instruction_observer.h</text>
</a>
</g>
</g>
<!-- Node3&#45;&gt;Node9 -->
<g id="edge20" class="edge">
<title>Node3&#45;&gt;Node9</title>
<path fill="none" stroke="#63b8ff" d="M249,-278.24C208.14,-243.88 148.93,-194.09 111.08,-162.26"/>
<polygon fill="#63b8ff" stroke="#63b8ff" points="246.61,-280.8 256.52,-284.56 251.12,-275.45 246.61,-280.8"/>
</g>
<!-- Node11 -->
<g id="node11" class="node">
<title>Node11</title>
<g id="a_node11"><a xlink:href="_moisture__observer_8h.html" target="_top" xlink:title="Observador del sensor de temperatura.">
<polygon fill="white" stroke="#666666" points="316,-162 167,-162 167,-99 316,-99 316,-162"/>
<text text-anchor="start" x="175" y="-150" font-family="Helvetica,sans-Serif" font-size="10.00">C:/Users/juanh/OneDrive</text>
<text text-anchor="start" x="175" y="-139" font-family="Helvetica,sans-Serif" font-size="10.00">/Escritorio/Facultad/Beca</text>
<text text-anchor="start" x="175" y="-128" font-family="Helvetica,sans-Serif" font-size="10.00">/Proyecto/LAL_Control/include</text>
<text text-anchor="start" x="175" y="-117" font-family="Helvetica,sans-Serif" font-size="10.00">/observer_pattern/observers</text>
<text text-anchor="middle" x="241.5" y="-106" font-family="Helvetica,sans-Serif" font-size="10.00">/Moisture_observer.h</text>
</a>
</g>
</g>
<!-- Node3&#45;&gt;Node11 -->
<g id="edge21" class="edge">
<title>Node3&#45;&gt;Node11</title>
<path fill="none" stroke="#63b8ff" d="M282.47,-274.5C272.68,-240.35 259.11,-192.96 250.31,-162.26"/>
<polygon fill="#63b8ff" stroke="#63b8ff" points="279.09,-275.43 285.21,-284.08 285.82,-273.5 279.09,-275.43"/>
</g>
<!-- Node12 -->
<g id="node12" class="node">
<title>Node12</title>
<g id="a_node12"><a xlink:href="_temperature__observer_8h.html" target="_top" xlink:title="Observador del sensor de temperatura.">
<polygon fill="white" stroke="#666666" points="483,-162 334,-162 334,-99 483,-99 483,-162"/>
<text text-anchor="start" x="342" y="-150" font-family="Helvetica,sans-Serif" font-size="10.00">C:/Users/juanh/OneDrive</text>
<text text-anchor="start" x="342" y="-139" font-family="Helvetica,sans-Serif" font-size="10.00">/Escritorio/Facultad/Beca</text>
<text text-anchor="start" x="342" y="-128" font-family="Helvetica,sans-Serif" font-size="10.00">/Proyecto/LAL_Control/include</text>
<text text-anchor="start" x="342" y="-117" font-family="Helvetica,sans-Serif" font-size="10.00">/observer_pattern/observers</text>
<text text-anchor="middle" x="408.5" y="-106" font-family="Helvetica,sans-Serif" font-size="10.00">/Temperature_observer.h</text>
</a>
</g>
</g>
<!-- Node3&#45;&gt;Node12 -->
<g id="edge22" class="edge">
<title>Node3&#45;&gt;Node12</title>
<path fill="none" stroke="#63b8ff" d="M319.56,-275.83C340.66,-241.59 370.38,-193.36 389.55,-162.26"/>
<polygon fill="#63b8ff" stroke="#63b8ff" points="316.64,-273.9 314.38,-284.25 322.6,-277.57 316.64,-273.9"/>
</g>
<!-- Node4&#45;&gt;Node3 -->
<g id="edge17" class="edge">
<title>Node4&#45;&gt;Node3</title>
<path fill="none" stroke="#63b8ff" d="M446.9,-254.93C422.56,-265.41 394.69,-277.15 369.49,-287.55"/>
<polygon fill="#63b8ff" stroke="#63b8ff" points="448.28,-258.15 456.07,-250.97 445.5,-251.72 448.28,-258.15"/>
</g>
<!-- Node5 -->
<g id="node5" class="node">
<title>Node5</title>
<g id="a_node5"><a xlink:href="_idle__state_8h.html" target="_top" xlink:title="Clase de estado de reposo.">
<polygon fill="white" stroke="#666666" points="735.5,-162 577.5,-162 577.5,-99 735.5,-99 735.5,-162"/>
<text text-anchor="start" x="585.5" y="-150" font-family="Helvetica,sans-Serif" font-size="10.00">C:/Users/juanh/OneDrive</text>
<text text-anchor="start" x="585.5" y="-139" font-family="Helvetica,sans-Serif" font-size="10.00">/Escritorio/Facultad/Beca</text>
<text text-anchor="start" x="585.5" y="-128" font-family="Helvetica,sans-Serif" font-size="10.00">/Proyecto/LAL_Control/include</text>
<text text-anchor="start" x="585.5" y="-117" font-family="Helvetica,sans-Serif" font-size="10.00">/machine_state_pattern/machine</text>
<text text-anchor="middle" x="656.5" y="-106" font-family="Helvetica,sans-Serif" font-size="10.00">_states/Idle_state.h</text>
</a>
</g>
</g>
<!-- Node4&#45;&gt;Node5 -->
<g id="edge4" class="edge">
<title>Node4&#45;&gt;Node5</title>
<path fill="none" stroke="#63b8ff" d="M561.46,-191.47C576.38,-182.06 592.71,-171.75 607.56,-162.38"/>
<polygon fill="#63b8ff" stroke="#63b8ff" points="559.76,-188.41 553.17,-196.7 563.5,-194.33 559.76,-188.41"/>
</g>
<!-- Node6 -->
<g id="node6" class="node">
<title>Node6</title>
<g id="a_node6"><a xlink:href="_motor__control__state_8h.html" target="_top" xlink:title="Clase de estado de control del motor.">
<polygon fill="white" stroke="#666666" points="675.5,-63 517.5,-63 517.5,0 675.5,0 675.5,-63"/>
<text text-anchor="start" x="525.5" y="-51" font-family="Helvetica,sans-Serif" font-size="10.00">C:/Users/juanh/OneDrive</text>
<text text-anchor="start" x="525.5" y="-40" font-family="Helvetica,sans-Serif" font-size="10.00">/Escritorio/Facultad/Beca</text>
<text text-anchor="start" x="525.5" y="-29" font-family="Helvetica,sans-Serif" font-size="10.00">/Proyecto/LAL_Control/include</text>
<text text-anchor="start" x="525.5" y="-18" font-family="Helvetica,sans-Serif" font-size="10.00">/machine_state_pattern/machine</text>
<text text-anchor="middle" x="596.5" y="-7" font-family="Helvetica,sans-Serif" font-size="10.00">_states/Motor_control_state.h</text>
</a>
</g>
</g>
<!-- Node4&#45;&gt;Node6 -->
<g id="edge9" class="edge">
<title>Node4&#45;&gt;Node6</title>
<path fill="none" stroke="#63b8ff" d="M527.45,-187.25C543.39,-151.52 567.66,-97.14 582.77,-63.27"/>
<polygon fill="#63b8ff" stroke="#63b8ff" points="524.28,-185.76 523.4,-196.32 530.68,-188.61 524.28,-185.76"/>
</g>
<!-- Node7 -->
<g id="node7" class="node">
<title>Node7</title>
<g id="a_node7"><a xlink:href="_shutdown__state_8h.html" target="_top" xlink:title="Clase de estado de apagado del sistema.">
<polygon fill="white" stroke="#666666" points="851.5,-63 693.5,-63 693.5,0 851.5,0 851.5,-63"/>
<text text-anchor="start" x="701.5" y="-51" font-family="Helvetica,sans-Serif" font-size="10.00">C:/Users/juanh/OneDrive</text>
<text text-anchor="start" x="701.5" y="-40" font-family="Helvetica,sans-Serif" font-size="10.00">/Escritorio/Facultad/Beca</text>
<text text-anchor="start" x="701.5" y="-29" font-family="Helvetica,sans-Serif" font-size="10.00">/Proyecto/LAL_Control/include</text>
<text text-anchor="start" x="701.5" y="-18" font-family="Helvetica,sans-Serif" font-size="10.00">/machine_state_pattern/machine</text>
<text text-anchor="middle" x="772.5" y="-7" font-family="Helvetica,sans-Serif" font-size="10.00">_states/Shutdown_state.h</text>
</a>
</g>
</g>
<!-- Node4&#45;&gt;Node7 -->
<g id="edge10" class="edge">
<title>Node4&#45;&gt;Node7</title>
<path fill="none" stroke="#63b8ff" d="M597.46,-208.7C652.07,-198.28 715.95,-182.41 735.5,-162 760.64,-135.75 765.41,-92.58 767.5,-63.36"/>
<polygon fill="#63b8ff" stroke="#63b8ff" points="597,-205.23 587.81,-210.5 598.28,-212.11 597,-205.23"/>
</g>
<!-- Node8 -->
<g id="node8" class="node">
<title>Node8</title>
<g id="a_node8"><a xlink:href="main_8h.html" target="_top" xlink:title="Archivo principal del programa.">
<polygon fill="white" stroke="#666666" points="421,-52 240,-52 240,-11 421,-11 421,-52"/>
<text text-anchor="start" x="248" y="-40" font-family="Helvetica,sans-Serif" font-size="10.00">C:/Users/juanh/OneDrive</text>
<text text-anchor="start" x="248" y="-29" font-family="Helvetica,sans-Serif" font-size="10.00">/Escritorio/Facultad/Beca</text>
<text text-anchor="middle" x="330.5" y="-18" font-family="Helvetica,sans-Serif" font-size="10.00">/Proyecto/LAL_Control/include/main.h</text>
</a>
</g>
</g>
<!-- Node4&#45;&gt;Node8 -->
<g id="edge11" class="edge">
<title>Node4&#45;&gt;Node8</title>
<path fill="none" stroke="#63b8ff" d="M514.91,-186.57C515.47,-159.67 511.86,-123.6 492.5,-99 474.73,-76.42 448.01,-61.45 421.36,-51.55"/>
<polygon fill="#63b8ff" stroke="#63b8ff" points="511.42,-186.19 514.49,-196.33 518.42,-186.49 511.42,-186.19"/>
</g>
<!-- Node4&#45;&gt;Node9 -->
<g id="edge12" class="edge">
<title>Node4&#45;&gt;Node9</title>
<path fill="none" stroke="#63b8ff" d="M425.44,-212.62C353.17,-202.85 247.57,-186.09 157.5,-162 154.83,-161.29 152.13,-160.52 149.4,-159.72"/>
<polygon fill="#63b8ff" stroke="#63b8ff" points="424.87,-216.08 435.25,-213.93 425.8,-209.14 424.87,-216.08"/>
</g>
<!-- Node4&#45;&gt;Node11 -->
<g id="edge15" class="edge">
<title>Node4&#45;&gt;Node11</title>
<path fill="none" stroke="#63b8ff" d="M426.03,-195.85C394.08,-185.51 357.55,-173.46 324.5,-162 321.74,-161.04 318.94,-160.06 316.11,-159.06"/>
<polygon fill="#63b8ff" stroke="#63b8ff" points="424.64,-199.08 435.23,-198.82 426.79,-192.42 424.64,-199.08"/>
</g>
<!-- Node4&#45;&gt;Node12 -->
<g id="edge18" class="edge">
<title>Node4&#45;&gt;Node12</title>
<path fill="none" stroke="#63b8ff" d="M474.49,-190.12C464.31,-181.08 453.31,-171.31 443.26,-162.38"/>
<polygon fill="#63b8ff" stroke="#63b8ff" points="471.88,-192.48 481.68,-196.51 476.53,-187.25 471.88,-192.48"/>
</g>
<!-- Node5&#45;&gt;Node6 -->
<g id="edge5" class="edge">
<title>Node5&#45;&gt;Node6</title>
<path fill="none" stroke="#63b8ff" d="M624.84,-89.09C619.37,-80.54 613.97,-71.64 609.33,-63.5"/>
<polygon fill="#63b8ff" stroke="#63b8ff" points="621.78,-90.81 630.18,-97.27 627.65,-86.99 621.78,-90.81"/>
</g>
<!-- Node5&#45;&gt;Node7 -->
<g id="edge7" class="edge">
<title>Node5&#45;&gt;Node7</title>
<path fill="none" stroke="#63b8ff" d="M702.2,-91.29C713.22,-82.07 724.86,-72.34 735.43,-63.5"/>
<polygon fill="#63b8ff" stroke="#63b8ff" points="700.11,-88.47 694.68,-97.57 704.6,-93.84 700.11,-88.47"/>
</g>
<!-- Node6&#45;&gt;Node5 -->
<g id="edge6" class="edge">
<title>Node6&#45;&gt;Node5</title>
<path fill="none" stroke="#63b8ff" d="M628.19,-72.95C633.66,-81.51 639.05,-90.4 643.69,-98.54"/>
<polygon fill="#63b8ff" stroke="#63b8ff" points="631.24,-71.22 622.84,-64.76 625.38,-75.05 631.24,-71.22"/>
</g>
<!-- Node7&#45;&gt;Node4 -->
<g id="edge8" class="edge">
<title>Node7&#45;&gt;Node4</title>
<path fill="none" stroke="#63b8ff" d="M781.72,-74.54C781.96,-102.78 775.59,-138.93 753.5,-162 730.87,-185.63 648.83,-203.17 586.42,-213.23"/>
<polygon fill="#63b8ff" stroke="#63b8ff" points="785.23,-74.73 781.33,-64.88 778.24,-75.01 785.23,-74.73"/>
</g>
<!-- Node9&#45;&gt;Node8 -->
<g id="edge13" class="edge">
<title>Node9&#45;&gt;Node8</title>
<path fill="none" stroke="#63b8ff" d="M159.82,-97.17C198.92,-82.36 244.01,-65.27 278.03,-52.38"/>
<polygon fill="#63b8ff" stroke="#63b8ff" points="158.76,-93.83 150.65,-100.65 161.24,-100.38 158.76,-93.83"/>
</g>
<!-- Node10 -->
<g id="node10" class="node">
<title>Node10</title>
<g id="a_node10"><a xlink:href="_instruction__observer_8cpp.html" target="_top" xlink:title=" ">
<polygon fill="white" stroke="#666666" points="144,-63 5,-63 5,0 144,0 144,-63"/>
<text text-anchor="start" x="13" y="-51" font-family="Helvetica,sans-Serif" font-size="10.00">C:/Users/juanh/OneDrive</text>
<text text-anchor="start" x="13" y="-40" font-family="Helvetica,sans-Serif" font-size="10.00">/Escritorio/Facultad/Beca</text>
<text text-anchor="start" x="13" y="-29" font-family="Helvetica,sans-Serif" font-size="10.00">/Proyecto/LAL_Control/src</text>
<text text-anchor="start" x="13" y="-18" font-family="Helvetica,sans-Serif" font-size="10.00">/observer_pattern/Instruction</text>
<text text-anchor="middle" x="74.5" y="-7" font-family="Helvetica,sans-Serif" font-size="10.00">_observer.cpp</text>
</a>
</g>
</g>
<!-- Node9&#45;&gt;Node10 -->
<g id="edge14" class="edge">
<title>Node9&#45;&gt;Node10</title>
<path fill="none" stroke="#63b8ff" d="M74.5,-87.15C74.5,-79.2 74.5,-71.02 74.5,-63.5"/>
<polygon fill="#63b8ff" stroke="#63b8ff" points="71,-87.03 74.5,-97.03 78,-87.03 71,-87.03"/>
</g>
<!-- Node11&#45;&gt;Node8 -->
<g id="edge16" class="edge">
<title>Node11&#45;&gt;Node8</title>
<path fill="none" stroke="#63b8ff" d="M277.56,-90.2C289.45,-77.24 302.17,-63.38 312.16,-52.49"/>
<polygon fill="#63b8ff" stroke="#63b8ff" points="275.11,-87.69 270.93,-97.43 280.27,-92.42 275.11,-87.69"/>
</g>
<!-- Node12&#45;&gt;Node8 -->
<g id="edge19" class="edge">
<title>Node12&#45;&gt;Node8</title>
<path fill="none" stroke="#63b8ff" d="M376.6,-89.83C366.27,-76.98 355.25,-63.28 346.57,-52.49"/>
<polygon fill="#63b8ff" stroke="#63b8ff" points="373.66,-91.76 382.66,-97.36 379.12,-87.38 373.66,-91.76"/>
</g>
<!-- Node13&#45;&gt;Node4 -->
<g id="edge24" class="edge">
<title>Node13&#45;&gt;Node4</title>
<path fill="none" stroke="#63b8ff" d="M518.75,-382.41C528.38,-372.8 537.25,-361.49 542.5,-349 553.36,-323.19 549.02,-313.23 542.5,-286 539.54,-273.64 533.64,-260.95 527.77,-250.38"/>
<polygon fill="#63b8ff" stroke="#63b8ff" points="516.57,-379.65 511.65,-389.03 521.35,-384.77 516.57,-379.65"/>
</g>
<!-- Node14 -->
<g id="node14" class="node">
<title>Node14</title>
<g id="a_node14"><a xlink:href="_subject_8cpp.html" target="_top" xlink:title=" ">
<polygon fill="white" stroke="#666666" points="533.5,-343.5 387.5,-343.5 387.5,-291.5 533.5,-291.5 533.5,-343.5"/>
<text text-anchor="start" x="395.5" y="-331.5" font-family="Helvetica,sans-Serif" font-size="10.00">C:/Users/juanh/OneDrive</text>
<text text-anchor="start" x="395.5" y="-320.5" font-family="Helvetica,sans-Serif" font-size="10.00">/Escritorio/Facultad/Beca</text>
<text text-anchor="start" x="395.5" y="-309.5" font-family="Helvetica,sans-Serif" font-size="10.00">/Proyecto/LAL_Control/src</text>
<text text-anchor="middle" x="460.5" y="-298.5" font-family="Helvetica,sans-Serif" font-size="10.00">/observer_pattern/Subject.cpp</text>
</a>
</g>
</g>
<!-- Node13&#45;&gt;Node14 -->
<g id="edge25" class="edge">
<title>Node13&#45;&gt;Node14</title>
<path fill="none" stroke="#63b8ff" d="M469.2,-378.78C467.52,-367.12 465.69,-354.49 464.15,-343.82"/>
<polygon fill="#63b8ff" stroke="#63b8ff" points="465.71,-379.12 470.61,-388.52 472.64,-378.12 465.71,-379.12"/>
</g>
</g>
</svg>
