<?xml version="1.0" encoding="UTF-8" standalone="no"?>
<!DOCTYPE svg PUBLIC "-//W3C//DTD SVG 1.1//EN"
 "http://www.w3.org/Graphics/SVG/1.1/DTD/svg11.dtd">
<!-- Generated by graphviz version 7.0.2 (20221119.0110)
 -->
<!-- Title: C:/Users/juanh/OneDrive/Escritorio/Facultad/Beca/Proyecto/LAL_Control/include/machine_state_pattern/machine_states/Shutdown_state.h Pages: 1 -->
<svg width="1592pt" height="489pt"
 viewBox="0.00 0.00 1591.50 489.00" xmlns="http://www.w3.org/2000/svg" xmlns:xlink="http://www.w3.org/1999/xlink">
<g id="graph0" class="graph" transform="scale(1 1) rotate(0) translate(4 485)">
<title>C:/Users/juanh/OneDrive/Escritorio/Facultad/Beca/Proyecto/LAL_Control/include/machine_state_pattern/machine_states/Shutdown_state.h</title>
<!-- Node1 -->
<g id="node1" class="node">
<title>Node1</title>
<g id="a_node1"><a xlink:title="Clase de estado de apagado del sistema.">
<polygon fill="#999999" stroke="#666666" points="574,-481 416,-481 416,-418 574,-418 574,-481"/>
<text text-anchor="start" x="424" y="-469" font-family="Helvetica,sans-Serif" font-size="10.00">C:/Users/juanh/OneDrive</text>
<text text-anchor="start" x="424" y="-458" font-family="Helvetica,sans-Serif" font-size="10.00">/Escritorio/Facultad/Beca</text>
<text text-anchor="start" x="424" y="-447" font-family="Helvetica,sans-Serif" font-size="10.00">/Proyecto/LAL_Control/include</text>
<text text-anchor="start" x="424" y="-436" font-family="Helvetica,sans-Serif" font-size="10.00">/machine_state_pattern/machine</text>
<text text-anchor="middle" x="495" y="-425" font-family="Helvetica,sans-Serif" font-size="10.00">_states/Shutdown_state.h</text>
</a>
</g>
</g>
<!-- Node2 -->
<g id="node2" class="node">
<title>Node2</title>
<g id="a_node2"><a xlink:href="_control__system_8h_source.html" target="_top" xlink:title=" ">
<polygon fill="white" stroke="#666666" points="608.5,-228 515.5,-228 515.5,-209 608.5,-209 608.5,-228"/>
<text text-anchor="middle" x="562" y="-216" font-family="Helvetica,sans-Serif" font-size="10.00">Control_system.h</text>
</a>
</g>
</g>
<!-- Node1&#45;&gt;Node2 -->
<g id="edge1" class="edge">
<title>Node1&#45;&gt;Node2</title>
<path fill="none" stroke="#63b8ff" d="M499.25,-417.62C510.43,-369.6 537.38,-278.44 552.41,-238.76"/>
<polygon fill="#63b8ff" stroke="#63b8ff" points="555.6,-240.19 556.09,-229.61 549.11,-237.58 555.6,-240.19"/>
</g>
<!-- Node7 -->
<g id="node7" class="node">
<title>Node7</title>
<g id="a_node7"><a xlink:href="_abstract__state_8h.html" target="_top" xlink:title="Clase de estado abstracta.">
<polygon fill="white" stroke="#666666" points="128,-107 0,-107 0,-66 128,-66 128,-107"/>
<text text-anchor="start" x="8" y="-95" font-family="Helvetica,sans-Serif" font-size="10.00">machine_state_pattern</text>
<text text-anchor="start" x="8" y="-84" font-family="Helvetica,sans-Serif" font-size="10.00">/machine_states/Abstract</text>
<text text-anchor="middle" x="64" y="-73" font-family="Helvetica,sans-Serif" font-size="10.00">_state.h</text>
</a>
</g>
</g>
<!-- Node1&#45;&gt;Node7 -->
<g id="edge40" class="edge">
<title>Node1&#45;&gt;Node7</title>
<path fill="none" stroke="#63b8ff" d="M415.51,-438.66C277.23,-419.3 7,-370.58 7,-285.5 7,-285.5 7,-285.5 7,-217.5 7,-180.52 26.59,-142.22 42.8,-116.85"/>
<polygon fill="#63b8ff" stroke="#63b8ff" points="45.58,-119 48.19,-108.73 39.74,-115.13 45.58,-119"/>
</g>
<!-- Node29 -->
<g id="node29" class="node">
<title>Node29</title>
<g id="a_node29"><a xlink:href="_idle__state_8h.html" target="_top" xlink:title="Clase de estado de reposo.">
<polygon fill="white" stroke="#666666" points="487,-382 371,-382 371,-341 487,-341 487,-382"/>
<text text-anchor="start" x="379" y="-370" font-family="Helvetica,sans-Serif" font-size="10.00">machine_state_pattern</text>
<text text-anchor="start" x="379" y="-359" font-family="Helvetica,sans-Serif" font-size="10.00">/machine_states/Idle</text>
<text text-anchor="middle" x="429" y="-348" font-family="Helvetica,sans-Serif" font-size="10.00">_state.h</text>
</a>
</g>
</g>
<!-- Node1&#45;&gt;Node29 -->
<g id="edge41" class="edge">
<title>Node1&#45;&gt;Node29</title>
<path fill="none" stroke="#63b8ff" d="M471.55,-417.94C464.91,-409.29 457.7,-399.9 451.14,-391.35"/>
<polygon fill="#63b8ff" stroke="#63b8ff" points="454.12,-389.49 445.26,-383.68 448.57,-393.75 454.12,-389.49"/>
</g>
<!-- Node2&#45;&gt;Node1 -->
<g id="edge39" class="edge">
<title>Node2&#45;&gt;Node1</title>
<path fill="none" stroke="#63b8ff" d="M562.25,-228.2C557.99,-257.13 531.28,-351.34 512.57,-406.75"/>
<polygon fill="#63b8ff" stroke="#63b8ff" points="509.27,-405.59 509.32,-416.19 515.88,-407.87 509.27,-405.59"/>
</g>
<!-- Node3 -->
<g id="node3" class="node">
<title>Node3</title>
<g id="a_node3"><a xlink:href="_subject_8h.html" target="_top" xlink:title=" ">
<polygon fill="white" stroke="#666666" points="1080,-101.5 952,-101.5 952,-71.5 1080,-71.5 1080,-101.5"/>
<text text-anchor="start" x="960" y="-89.5" font-family="Helvetica,sans-Serif" font-size="10.00">observer_pattern/subjects</text>
<text text-anchor="middle" x="1016" y="-78.5" font-family="Helvetica,sans-Serif" font-size="10.00">/Subject.h</text>
</a>
</g>
</g>
<!-- Node2&#45;&gt;Node3 -->
<g id="edge2" class="edge">
<title>Node2&#45;&gt;Node3</title>
<path fill="none" stroke="#63b8ff" d="M608.6,-217.21C734.04,-215.94 1071.67,-209.17 1105,-173 1126.91,-149.22 1092.07,-123.77 1059.77,-106.88"/>
<polygon fill="#63b8ff" stroke="#63b8ff" points="1061.75,-103.96 1051.25,-102.6 1058.61,-110.22 1061.75,-103.96"/>
</g>
<!-- Node6 -->
<g id="node6" class="node">
<title>Node6</title>
<g id="a_node6"><a xlink:href="_machine_8h.html" target="_top" xlink:title="Clase de máquina abstracta.">
<polygon fill="white" stroke="#666666" points="227,-173 111,-173 111,-143 227,-143 227,-173"/>
<text text-anchor="start" x="119" y="-161" font-family="Helvetica,sans-Serif" font-size="10.00">machine_state_pattern</text>
<text text-anchor="middle" x="169" y="-150" font-family="Helvetica,sans-Serif" font-size="10.00">/Machine.h</text>
</a>
</g>
</g>
<!-- Node2&#45;&gt;Node6 -->
<g id="edge5" class="edge">
<title>Node2&#45;&gt;Node6</title>
<path fill="none" stroke="#63b8ff" d="M515.14,-212.15C453.84,-204.93 342.85,-191.06 238.47,-173.35"/>
<polygon fill="#63b8ff" stroke="#63b8ff" points="239.36,-169.95 228.91,-171.71 238.18,-176.85 239.36,-169.95"/>
</g>
<!-- Node8 -->
<g id="node8" class="node">
<title>Node8</title>
<g id="a_node8"><a xlink:href="_display_8h.html" target="_top" xlink:title="Controlador de LCD hd44780 por interfaz I2C.">
<polygon fill="white" stroke="#666666" points="1333,-167.5 1245,-167.5 1245,-148.5 1333,-148.5 1333,-167.5"/>
<text text-anchor="middle" x="1289" y="-155.5" font-family="Helvetica,sans-Serif" font-size="10.00">drivers/Display.h</text>
</a>
</g>
</g>
<!-- Node2&#45;&gt;Node8 -->
<g id="edge7" class="edge">
<title>Node2&#45;&gt;Node8</title>
<path fill="none" stroke="#63b8ff" d="M608.68,-214.14C706.75,-207.02 941.37,-189.71 1138,-173 1169.59,-170.32 1204.87,-167.06 1233.38,-164.36"/>
<polygon fill="#63b8ff" stroke="#63b8ff" points="1233.62,-167.86 1243.24,-163.43 1232.95,-160.89 1233.62,-167.86"/>
</g>
<!-- Node13 -->
<g id="node13" class="node">
<title>Node13</title>
<g id="a_node13"><a xlink:href="user__messages_8h.html" target="_top" xlink:title="Archivo para la configuración de interfaz con el usuario.">
<polygon fill="white" stroke="#666666" points="1516,-167.5 1422,-167.5 1422,-148.5 1516,-148.5 1516,-167.5"/>
<text text-anchor="middle" x="1469" y="-155.5" font-family="Helvetica,sans-Serif" font-size="10.00">user_messages.h</text>
</a>
</g>
</g>
<!-- Node2&#45;&gt;Node13 -->
<g id="edge12" class="edge">
<title>Node2&#45;&gt;Node13</title>
<path fill="none" stroke="#63b8ff" d="M608.66,-215.7C729.79,-210.83 1064.23,-196.22 1342,-173 1364.39,-171.13 1388.95,-168.55 1410.45,-166.11"/>
<polygon fill="#63b8ff" stroke="#63b8ff" points="1410.68,-169.61 1420.21,-164.99 1409.88,-162.65 1410.68,-169.61"/>
</g>
<!-- Node15 -->
<g id="node15" class="node">
<title>Node15</title>
<g id="a_node15"><a xlink:href="_system__observer_8h.html" target="_top" xlink:title="Clase observador del sistema de control.">
<polygon fill="white" stroke="#666666" points="377,-173 245,-173 245,-143 377,-143 377,-173"/>
<text text-anchor="start" x="253" y="-161" font-family="Helvetica,sans-Serif" font-size="10.00">observer_pattern/observers</text>
<text text-anchor="middle" x="311" y="-150" font-family="Helvetica,sans-Serif" font-size="10.00">/System_observer.h</text>
</a>
</g>
</g>
<!-- Node2&#45;&gt;Node15 -->
<g id="edge14" class="edge">
<title>Node2&#45;&gt;Node15</title>
<path fill="none" stroke="#63b8ff" d="M518.58,-208.55C479.81,-199.94 422.56,-186.68 377.95,-176.05"/>
<polygon fill="#63b8ff" stroke="#63b8ff" points="378.92,-172.68 368.38,-173.76 377.29,-179.49 378.92,-172.68"/>
</g>
<!-- Node17 -->
<g id="node17" class="node">
<title>Node17</title>
<g id="a_node17"><a xlink:href="_temperature__sensor_8h.html" target="_top" xlink:title="Controlador para sensor de temperatura DS18B20.">
<polygon fill="white" stroke="#666666" points="496.5,-173 395.5,-173 395.5,-143 496.5,-143 496.5,-173"/>
<text text-anchor="start" x="403.5" y="-161" font-family="Helvetica,sans-Serif" font-size="10.00">drivers/Temperature</text>
<text text-anchor="middle" x="446" y="-150" font-family="Helvetica,sans-Serif" font-size="10.00">_sensor.h</text>
</a>
</g>
</g>
<!-- Node2&#45;&gt;Node17 -->
<g id="edge19" class="edge">
<title>Node2&#45;&gt;Node17</title>
<path fill="none" stroke="#63b8ff" d="M544.38,-208.62C528.62,-200.67 504.97,-188.74 484.8,-178.57"/>
<polygon fill="#63b8ff" stroke="#63b8ff" points="486.49,-175.5 475.98,-174.12 483.34,-181.75 486.49,-175.5"/>
</g>
<!-- Node21 -->
<g id="node21" class="node">
<title>Node21</title>
<g id="a_node21"><a xlink:href="_moisture__sensor_8h.html" target="_top" xlink:title="Controlador de sensor de humedad analógico.">
<polygon fill="white" stroke="#666666" points="894,-167.5 766,-167.5 766,-148.5 894,-148.5 894,-167.5"/>
<text text-anchor="middle" x="830" y="-155.5" font-family="Helvetica,sans-Serif" font-size="10.00">drivers/Moisture_sensor.h</text>
</a>
</g>
</g>
<!-- Node2&#45;&gt;Node21 -->
<g id="edge23" class="edge">
<title>Node2&#45;&gt;Node21</title>
<path fill="none" stroke="#63b8ff" d="M603,-208.55C649.89,-198.32 726.77,-181.53 777.88,-170.38"/>
<polygon fill="#63b8ff" stroke="#63b8ff" points="778.51,-173.82 787.53,-168.27 777.01,-166.98 778.51,-173.82"/>
</g>
<!-- Node23 -->
<g id="node23" class="node">
<title>Node23</title>
<g id="a_node23"><a xlink:href="types_8h.html" target="_top" xlink:title="Archivo de definición de tipos de dato.">
<polygon fill="white" stroke="#666666" points="631.5,-96 582.5,-96 582.5,-77 631.5,-77 631.5,-96"/>
<text text-anchor="middle" x="607" y="-84" font-family="Helvetica,sans-Serif" font-size="10.00">types.h</text>
</a>
</g>
</g>
<!-- Node2&#45;&gt;Node23 -->
<g id="edge25" class="edge">
<title>Node2&#45;&gt;Node23</title>
<path fill="none" stroke="#63b8ff" d="M556.41,-208.89C547.93,-194.66 533.81,-165.55 544,-143 551.63,-126.11 567.22,-112.31 580.98,-102.69"/>
<polygon fill="#63b8ff" stroke="#63b8ff" points="582.82,-105.67 589.27,-97.27 578.99,-99.81 582.82,-105.67"/>
</g>
<!-- Node24 -->
<g id="node24" class="node">
<title>Node24</title>
<g id="a_node24"><a xlink:href="_buzzer_8h.html" target="_top" xlink:title="Controlador de Buzzer de 12 milimetros.">
<polygon fill="white" stroke="#666666" points="1096,-167.5 1010,-167.5 1010,-148.5 1096,-148.5 1096,-167.5"/>
<text text-anchor="middle" x="1053" y="-155.5" font-family="Helvetica,sans-Serif" font-size="10.00">drivers/Buzzer.h</text>
</a>
</g>
</g>
<!-- Node2&#45;&gt;Node24 -->
<g id="edge26" class="edge">
<title>Node2&#45;&gt;Node24</title>
<path fill="none" stroke="#63b8ff" d="M608.81,-215.25C689.45,-210.82 859.55,-199.03 1001,-173 1004.59,-172.34 1008.29,-171.56 1011.98,-170.7"/>
<polygon fill="#63b8ff" stroke="#63b8ff" points="1012.61,-174.15 1021.47,-168.34 1010.92,-167.36 1012.61,-174.15"/>
</g>
<!-- Node26 -->
<g id="node26" class="node">
<title>Node26</title>
<g id="a_node26"><a xlink:href="_motor_8h.html" target="_top" xlink:title="Controlador de motor de 220 VAC.">
<polygon fill="white" stroke="#666666" points="992,-167.5 912,-167.5 912,-148.5 992,-148.5 992,-167.5"/>
<text text-anchor="middle" x="952" y="-155.5" font-family="Helvetica,sans-Serif" font-size="10.00">drivers/Motor.h</text>
</a>
</g>
</g>
<!-- Node2&#45;&gt;Node26 -->
<g id="edge29" class="edge">
<title>Node2&#45;&gt;Node26</title>
<path fill="none" stroke="#63b8ff" d="M608.97,-213.6C675.07,-207.6 799.08,-194.5 903,-173 906.13,-172.35 909.35,-171.61 912.57,-170.81"/>
<polygon fill="#63b8ff" stroke="#63b8ff" points="913.18,-174.27 921.95,-168.33 911.39,-167.5 913.18,-174.27"/>
</g>
<!-- Node27 -->
<g id="node27" class="node">
<title>Node27</title>
<g id="a_node27"><a xlink:href="_dual___l_e_d_8h.html" target="_top" xlink:title="Controlador de LED RG.">
<polygon fill="white" stroke="#666666" points="646.5,-167.5 553.5,-167.5 553.5,-148.5 646.5,-148.5 646.5,-167.5"/>
<text text-anchor="middle" x="600" y="-155.5" font-family="Helvetica,sans-Serif" font-size="10.00">drivers/Dual_led.h</text>
</a>
</g>
</g>
<!-- Node2&#45;&gt;Node27 -->
<g id="edge32" class="edge">
<title>Node2&#45;&gt;Node27</title>
<path fill="none" stroke="#63b8ff" d="M567.61,-208.87C573,-200.57 581.31,-187.78 588.16,-177.22"/>
<polygon fill="#63b8ff" stroke="#63b8ff" points="591.03,-179.23 593.55,-168.94 585.16,-175.42 591.03,-179.23"/>
</g>
<!-- Node28 -->
<g id="node28" class="node">
<title>Node28</title>
<g id="a_node28"><a xlink:href="_cooler_8h.html" target="_top" xlink:title="Controlador de ventilador de 12 volts y 5 milímteros.">
<polygon fill="white" stroke="#666666" points="747.5,-167.5 664.5,-167.5 664.5,-148.5 747.5,-148.5 747.5,-167.5"/>
<text text-anchor="middle" x="706" y="-155.5" font-family="Helvetica,sans-Serif" font-size="10.00">drivers/Cooler.h</text>
</a>
</g>
</g>
<!-- Node2&#45;&gt;Node28 -->
<g id="edge36" class="edge">
<title>Node2&#45;&gt;Node28</title>
<path fill="none" stroke="#63b8ff" d="M583.87,-208.62C607.66,-198.95 645.94,-183.4 673.3,-172.28"/>
<polygon fill="#63b8ff" stroke="#63b8ff" points="674.57,-175.54 682.52,-168.54 671.94,-169.06 674.57,-175.54"/>
</g>
<!-- Node4 -->
<g id="node4" class="node">
<title>Node4</title>
<g id="a_node4"><a xlink:href="_subject__interface_8h.html" target="_top" xlink:title="Clase para interfaz para implementar el sujeto.">
<polygon fill="white" stroke="#666666" points="644,-30 516,-30 516,0 644,0 644,-30"/>
<text text-anchor="start" x="524" y="-18" font-family="Helvetica,sans-Serif" font-size="10.00">observer_pattern/subjects</text>
<text text-anchor="middle" x="580" y="-7" font-family="Helvetica,sans-Serif" font-size="10.00">/Subject_interface.h</text>
</a>
</g>
</g>
<!-- Node3&#45;&gt;Node4 -->
<g id="edge3" class="edge">
<title>Node3&#45;&gt;Node4</title>
<path fill="none" stroke="#63b8ff" d="M965.14,-71.05C957.74,-69.2 950.2,-67.45 943,-66 844.39,-46.12 729.1,-31.72 655.36,-23.62"/>
<polygon fill="#63b8ff" stroke="#63b8ff" points="656.16,-20.18 645.84,-22.58 655.41,-27.14 656.16,-20.18"/>
</g>
<!-- Node5 -->
<g id="node5" class="node">
<title>Node5</title>
<g id="a_node5"><a xlink:href="_observer__interface_8h.html" target="_top" xlink:title="Clase para interfaz para implementar el observador.">
<polygon fill="white" stroke="#666666" points="938,-30 806,-30 806,0 938,0 938,-30"/>
<text text-anchor="start" x="814" y="-18" font-family="Helvetica,sans-Serif" font-size="10.00">observer_pattern/observers</text>
<text text-anchor="middle" x="872" y="-7" font-family="Helvetica,sans-Serif" font-size="10.00">/Observer_interface.h</text>
</a>
</g>
</g>
<!-- Node3&#45;&gt;Node5 -->
<g id="edge4" class="edge">
<title>Node3&#45;&gt;Node5</title>
<path fill="none" stroke="#63b8ff" d="M986.16,-71.1C964.73,-60.76 935.6,-46.7 912.14,-35.37"/>
<polygon fill="#63b8ff" stroke="#63b8ff" points="913.69,-32.23 903.16,-31.04 910.65,-38.54 913.69,-32.23"/>
</g>
<!-- Node6&#45;&gt;Node7 -->
<g id="edge6" class="edge">
<title>Node6&#45;&gt;Node7</title>
<path fill="none" stroke="#63b8ff" d="M147.24,-142.6C134.63,-134.25 118.36,-123.48 103.55,-113.68"/>
<polygon fill="#63b8ff" stroke="#63b8ff" points="105.62,-110.85 95.35,-108.25 101.76,-116.69 105.62,-110.85"/>
</g>
<!-- Node9 -->
<g id="node9" class="node">
<title>Node9</title>
<g id="a_node9"><a xlink:title=" ">
<polygon fill="#e0e0e0" stroke="#999999" points="1399.5,-96 1354.5,-96 1354.5,-77 1399.5,-77 1399.5,-96"/>
<text text-anchor="middle" x="1377" y="-84" font-family="Helvetica,sans-Serif" font-size="10.00">Wire.h</text>
</a>
</g>
</g>
<!-- Node8&#45;&gt;Node9 -->
<g id="edge8" class="edge">
<title>Node8&#45;&gt;Node9</title>
<path fill="none" stroke="#63b8ff" d="M1300.15,-148.2C1314.35,-136.98 1339.17,-117.38 1356.75,-103.49"/>
<polygon fill="#63b8ff" stroke="#63b8ff" points="1358.8,-106.33 1364.48,-97.39 1354.46,-100.84 1358.8,-106.33"/>
</g>
<!-- Node10 -->
<g id="node10" class="node">
<title>Node10</title>
<g id="a_node10"><a xlink:title=" ">
<polygon fill="#e0e0e0" stroke="#999999" points="1480,-96 1418,-96 1418,-77 1480,-77 1480,-96"/>
<text text-anchor="middle" x="1449" y="-84" font-family="Helvetica,sans-Serif" font-size="10.00">hd44780.h</text>
</a>
</g>
</g>
<!-- Node8&#45;&gt;Node10 -->
<g id="edge9" class="edge">
<title>Node8&#45;&gt;Node10</title>
<path fill="none" stroke="#63b8ff" d="M1311.28,-148.17C1335.51,-138.47 1375.27,-122.23 1409,-107 1412.89,-105.24 1416.96,-103.34 1420.96,-101.43"/>
<polygon fill="#63b8ff" stroke="#63b8ff" points="1422.36,-104.64 1429.82,-97.12 1419.3,-98.34 1422.36,-104.64"/>
</g>
<!-- Node11 -->
<g id="node11" class="node">
<title>Node11</title>
<g id="a_node11"><a xlink:title=" ">
<polygon fill="#e0e0e0" stroke="#999999" points="1223.5,-101.5 1098.5,-101.5 1098.5,-71.5 1223.5,-71.5 1223.5,-101.5"/>
<text text-anchor="start" x="1106.5" y="-89.5" font-family="Helvetica,sans-Serif" font-size="10.00">hd44780ioClass/hd44780</text>
<text text-anchor="middle" x="1161" y="-78.5" font-family="Helvetica,sans-Serif" font-size="10.00">_I2Cexp.h</text>
</a>
</g>
</g>
<!-- Node8&#45;&gt;Node11 -->
<g id="edge10" class="edge">
<title>Node8&#45;&gt;Node11</title>
<path fill="none" stroke="#63b8ff" d="M1272.53,-148.06C1253.74,-137.86 1222.43,-120.86 1197.76,-107.46"/>
<polygon fill="#63b8ff" stroke="#63b8ff" points="1199.44,-104.39 1188.98,-102.69 1196.1,-110.54 1199.44,-104.39"/>
</g>
<!-- Node12 -->
<g id="node12" class="node">
<title>Node12</title>
<g id="a_node12"><a xlink:href="display__settings_8h.html" target="_top" xlink:title="Archivo de configuración de la pantalla.">
<polygon fill="white" stroke="#666666" points="1336.5,-96 1241.5,-96 1241.5,-77 1336.5,-77 1336.5,-96"/>
<text text-anchor="middle" x="1289" y="-84" font-family="Helvetica,sans-Serif" font-size="10.00">display_settings.h</text>
</a>
</g>
</g>
<!-- Node8&#45;&gt;Node12 -->
<g id="edge11" class="edge">
<title>Node8&#45;&gt;Node12</title>
<path fill="none" stroke="#63b8ff" d="M1289,-148.2C1289,-138.12 1289,-121.29 1289,-107.9"/>
<polygon fill="#63b8ff" stroke="#63b8ff" points="1292.5,-107.96 1289,-97.96 1285.5,-107.96 1292.5,-107.96"/>
</g>
<!-- Node14 -->
<g id="node14" class="node">
<title>Node14</title>
<g id="a_node14"><a xlink:title=" ">
<polygon fill="#e0e0e0" stroke="#999999" points="1583.5,-96 1498.5,-96 1498.5,-77 1583.5,-77 1583.5,-96"/>
<text text-anchor="middle" x="1541" y="-84" font-family="Helvetica,sans-Serif" font-size="10.00">avr/pgmspace.h</text>
</a>
</g>
</g>
<!-- Node13&#45;&gt;Node14 -->
<g id="edge13" class="edge">
<title>Node13&#45;&gt;Node14</title>
<path fill="none" stroke="#63b8ff" d="M1478.12,-148.2C1489.53,-137.19 1509.3,-118.1 1523.63,-104.27"/>
<polygon fill="#63b8ff" stroke="#63b8ff" points="1525.87,-106.96 1530.64,-97.5 1521.01,-101.93 1525.87,-106.96"/>
</g>
<!-- Node15&#45;&gt;Node2 -->
<g id="edge18" class="edge">
<title>Node15&#45;&gt;Node2</title>
<path fill="none" stroke="#63b8ff" d="M377.23,-173.07C421.59,-183.11 478.69,-196.44 517.65,-205.88"/>
<polygon fill="#63b8ff" stroke="#63b8ff" points="516.61,-209.23 527.16,-208.19 518.27,-202.43 516.61,-209.23"/>
</g>
<!-- Node16 -->
<g id="node16" class="node">
<title>Node16</title>
<g id="a_node16"><a xlink:href="_observer_8h.html" target="_top" xlink:title="Clase observador.">
<polygon fill="white" stroke="#666666" points="358,-101.5 226,-101.5 226,-71.5 358,-71.5 358,-101.5"/>
<text text-anchor="start" x="234" y="-89.5" font-family="Helvetica,sans-Serif" font-size="10.00">observer_pattern/observers</text>
<text text-anchor="middle" x="292" y="-78.5" font-family="Helvetica,sans-Serif" font-size="10.00">/Observer.h</text>
</a>
</g>
</g>
<!-- Node15&#45;&gt;Node16 -->
<g id="edge15" class="edge">
<title>Node15&#45;&gt;Node16</title>
<path fill="none" stroke="#63b8ff" d="M307.06,-142.6C304.72,-134.03 301.68,-122.9 298.94,-112.9"/>
<polygon fill="#63b8ff" stroke="#63b8ff" points="302.34,-112.07 296.33,-103.34 295.59,-113.91 302.34,-112.07"/>
</g>
<!-- Node16&#45;&gt;Node4 -->
<g id="edge16" class="edge">
<title>Node16&#45;&gt;Node4</title>
<path fill="none" stroke="#63b8ff" d="M346.85,-71.08C353.63,-69.34 360.47,-67.62 367,-66 412.94,-54.64 464.6,-42.49 505.55,-33.02"/>
<polygon fill="#63b8ff" stroke="#63b8ff" points="506.1,-36.49 515.05,-30.82 504.52,-29.66 506.1,-36.49"/>
</g>
<!-- Node16&#45;&gt;Node5 -->
<g id="edge17" class="edge">
<title>Node16&#45;&gt;Node5</title>
<path fill="none" stroke="#63b8ff" d="M343.41,-71.01C351.27,-69.12 359.32,-67.37 367,-66 516.97,-39.25 694.72,-25.82 794.32,-19.93"/>
<polygon fill="#63b8ff" stroke="#63b8ff" points="794.49,-23.42 804.27,-19.35 794.08,-16.44 794.49,-23.42"/>
</g>
<!-- Node18 -->
<g id="node18" class="node">
<title>Node18</title>
<g id="a_node18"><a xlink:href="system__settings_8h.html" target="_top" xlink:title="Archivo para la definición de constantes del sistema.">
<polygon fill="white" stroke="#666666" points="746.5,-96 649.5,-96 649.5,-77 746.5,-77 746.5,-96"/>
<text text-anchor="middle" x="698" y="-84" font-family="Helvetica,sans-Serif" font-size="10.00">system_settings.h</text>
</a>
</g>
</g>
<!-- Node17&#45;&gt;Node18 -->
<g id="edge20" class="edge">
<title>Node17&#45;&gt;Node18</title>
<path fill="none" stroke="#63b8ff" d="M496.93,-144.94C536.22,-135.38 591.82,-121.29 640,-107 647.17,-104.87 654.78,-102.44 662.05,-100.04"/>
<polygon fill="#63b8ff" stroke="#63b8ff" points="662.92,-103.43 671.28,-96.92 660.69,-96.8 662.92,-103.43"/>
</g>
<!-- Node19 -->
<g id="node19" class="node">
<title>Node19</title>
<g id="a_node19"><a xlink:title=" ">
<polygon fill="#e0e0e0" stroke="#999999" points="439.5,-96 376.5,-96 376.5,-77 439.5,-77 439.5,-96"/>
<text text-anchor="middle" x="408" y="-84" font-family="Helvetica,sans-Serif" font-size="10.00">OneWire.h</text>
</a>
</g>
</g>
<!-- Node17&#45;&gt;Node19 -->
<g id="edge21" class="edge">
<title>Node17&#45;&gt;Node19</title>
<path fill="none" stroke="#63b8ff" d="M438.13,-142.6C432.33,-131.99 424.39,-117.48 418.12,-106.02"/>
<polygon fill="#63b8ff" stroke="#63b8ff" points="421.34,-104.6 413.47,-97.51 415.2,-107.96 421.34,-104.6"/>
</g>
<!-- Node20 -->
<g id="node20" class="node">
<title>Node20</title>
<g id="a_node20"><a xlink:title=" ">
<polygon fill="#e0e0e0" stroke="#999999" points="564,-96 458,-96 458,-77 564,-77 564,-96"/>
<text text-anchor="middle" x="511" y="-84" font-family="Helvetica,sans-Serif" font-size="10.00">DallasTemperature.h</text>
</a>
</g>
</g>
<!-- Node17&#45;&gt;Node20 -->
<g id="edge22" class="edge">
<title>Node17&#45;&gt;Node20</title>
<path fill="none" stroke="#63b8ff" d="M459.47,-142.6C469.9,-131.45 484.37,-115.98 495.32,-104.27"/>
<polygon fill="#63b8ff" stroke="#63b8ff" points="497.57,-106.98 501.85,-97.28 492.46,-102.2 497.57,-106.98"/>
</g>
<!-- Node22 -->
<g id="node22" class="node">
<title>Node22</title>
<g id="a_node22"><a xlink:title=" ">
<polygon fill="#e0e0e0" stroke="#999999" points="844,-96 786,-96 786,-77 844,-77 844,-96"/>
<text text-anchor="middle" x="815" y="-84" font-family="Helvetica,sans-Serif" font-size="10.00">Arduino.h</text>
</a>
</g>
</g>
<!-- Node21&#45;&gt;Node22 -->
<g id="edge24" class="edge">
<title>Node21&#45;&gt;Node22</title>
<path fill="none" stroke="#63b8ff" d="M828.1,-148.2C825.9,-138.02 822.22,-120.94 819.31,-107.48"/>
<polygon fill="#63b8ff" stroke="#63b8ff" points="822.78,-106.97 817.25,-97.93 815.94,-108.44 822.78,-106.97"/>
</g>
<!-- Node24&#45;&gt;Node22 -->
<g id="edge27" class="edge">
<title>Node24&#45;&gt;Node22</title>
<path fill="none" stroke="#63b8ff" d="M1020.3,-148.07C1013.91,-146.36 1007.25,-144.6 1001,-143 935.42,-126.2 916.44,-130.62 853,-107 848.74,-105.42 844.35,-103.47 840.13,-101.43"/>
<polygon fill="#63b8ff" stroke="#63b8ff" points="842,-98.46 831.5,-97.01 838.8,-104.69 842,-98.46"/>
</g>
<!-- Node25 -->
<g id="node25" class="node">
<title>Node25</title>
<g id="a_node25"><a xlink:href="port__config_8h.html" target="_top" xlink:title="Archivo de configuración para los puertos de la placa donde se implementará el sistema.">
<polygon fill="white" stroke="#666666" points="934,-96 862,-96 862,-77 934,-77 934,-96"/>
<text text-anchor="middle" x="898" y="-84" font-family="Helvetica,sans-Serif" font-size="10.00">port_config.h</text>
</a>
</g>
</g>
<!-- Node24&#45;&gt;Node25 -->
<g id="edge28" class="edge">
<title>Node24&#45;&gt;Node25</title>
<path fill="none" stroke="#63b8ff" d="M1033.05,-148.06C1006.43,-136.12 959.05,-114.87 928.08,-100.99"/>
<polygon fill="#63b8ff" stroke="#63b8ff" points="929.81,-97.93 919.25,-97.03 926.94,-104.31 929.81,-97.93"/>
</g>
<!-- Node26&#45;&gt;Node22 -->
<g id="edge30" class="edge">
<title>Node26&#45;&gt;Node22</title>
<path fill="none" stroke="#63b8ff" d="M934.1,-148C914.26,-138.02 881.31,-121.41 853,-107 849.63,-105.28 846.09,-103.48 842.59,-101.69"/>
<polygon fill="#63b8ff" stroke="#63b8ff" points="844.23,-98.59 833.74,-97.15 841.04,-104.82 844.23,-98.59"/>
</g>
<!-- Node26&#45;&gt;Node25 -->
<g id="edge31" class="edge">
<title>Node26&#45;&gt;Node25</title>
<path fill="none" stroke="#63b8ff" d="M945.16,-148.2C936.85,-137.5 922.61,-119.18 911.95,-105.45"/>
<polygon fill="#63b8ff" stroke="#63b8ff" points="914.78,-103.39 905.88,-97.65 909.25,-107.69 914.78,-103.39"/>
</g>
<!-- Node27&#45;&gt;Node18 -->
<g id="edge35" class="edge">
<title>Node27&#45;&gt;Node18</title>
<path fill="none" stroke="#63b8ff" d="M612.41,-148.2C628.38,-136.88 656.38,-117.02 676,-103.11"/>
<polygon fill="#63b8ff" stroke="#63b8ff" points="678.01,-105.97 684.14,-97.33 673.96,-100.26 678.01,-105.97"/>
</g>
<!-- Node27&#45;&gt;Node22 -->
<g id="edge33" class="edge">
<title>Node27&#45;&gt;Node22</title>
<path fill="none" stroke="#63b8ff" d="M628.21,-148.04C659.47,-138.1 711.38,-121.52 756,-107 762.87,-104.76 770.18,-102.37 777.23,-100.04"/>
<polygon fill="#63b8ff" stroke="#63b8ff" points="778.16,-103.42 786.56,-96.96 775.96,-96.77 778.16,-103.42"/>
</g>
<!-- Node27&#45;&gt;Node23 -->
<g id="edge34" class="edge">
<title>Node27&#45;&gt;Node23</title>
<path fill="none" stroke="#63b8ff" d="M600.89,-148.2C601.9,-138.12 603.6,-121.29 604.95,-107.9"/>
<polygon fill="#63b8ff" stroke="#63b8ff" points="608.43,-108.26 605.95,-97.96 601.46,-107.56 608.43,-108.26"/>
</g>
<!-- Node28&#45;&gt;Node18 -->
<g id="edge38" class="edge">
<title>Node28&#45;&gt;Node18</title>
<path fill="none" stroke="#63b8ff" d="M704.99,-148.2C703.82,-138.02 701.85,-120.94 700.3,-107.48"/>
<polygon fill="#63b8ff" stroke="#63b8ff" points="703.82,-107.49 699.2,-97.95 696.87,-108.29 703.82,-107.49"/>
</g>
<!-- Node28&#45;&gt;Node22 -->
<g id="edge37" class="edge">
<title>Node28&#45;&gt;Node22</title>
<path fill="none" stroke="#63b8ff" d="M719.8,-148.2C737.81,-136.72 769.57,-116.47 791.42,-102.53"/>
<polygon fill="#63b8ff" stroke="#63b8ff" points="793.14,-105.59 799.69,-97.26 789.37,-99.69 793.14,-105.59"/>
</g>
<!-- Node29&#45;&gt;Node2 -->
<g id="edge42" class="edge">
<title>Node29&#45;&gt;Node2</title>
<path fill="none" stroke="#63b8ff" d="M455.62,-340.68C468.41,-330.61 483.62,-317.82 496,-305 516.8,-283.47 537.33,-255.54 549.83,-237.56"/>
<polygon fill="#63b8ff" stroke="#63b8ff" points="552.59,-239.73 555.35,-229.5 546.81,-235.78 552.59,-239.73"/>
</g>
<!-- Node29&#45;&gt;Node7 -->
<g id="edge43" class="edge">
<title>Node29&#45;&gt;Node7</title>
<path fill="none" stroke="#63b8ff" d="M370.64,-348.57C288.71,-328.35 142.41,-278.77 78,-173 68.08,-156.72 64.56,-135.6 63.52,-118.42"/>
<polygon fill="#63b8ff" stroke="#63b8ff" points="67.03,-118.66 63.2,-108.78 60.03,-118.89 67.03,-118.66"/>
</g>
<!-- Node30 -->
<g id="node30" class="node">
<title>Node30</title>
<g id="a_node30"><a xlink:href="_motor__control__state_8h.html" target="_top" xlink:title="Clase de estado de control del motor.">
<polygon fill="white" stroke="#666666" points="487,-305 371,-305 371,-264 487,-264 487,-305"/>
<text text-anchor="start" x="379" y="-293" font-family="Helvetica,sans-Serif" font-size="10.00">machine_state_pattern</text>
<text text-anchor="start" x="379" y="-282" font-family="Helvetica,sans-Serif" font-size="10.00">/machine_states/Motor</text>
<text text-anchor="middle" x="429" y="-271" font-family="Helvetica,sans-Serif" font-size="10.00">_control_state.h</text>
</a>
</g>
</g>
<!-- Node29&#45;&gt;Node30 -->
<g id="edge44" class="edge">
<title>Node29&#45;&gt;Node30</title>
<path fill="none" stroke="#63b8ff" d="M422.98,-340.79C422.33,-333.45 422.11,-324.91 422.33,-316.78"/>
<polygon fill="#63b8ff" stroke="#63b8ff" points="425.82,-317.02 422.88,-306.85 418.84,-316.64 425.82,-317.02"/>
</g>
<!-- Node30&#45;&gt;Node2 -->
<g id="edge45" class="edge">
<title>Node30&#45;&gt;Node2</title>
<path fill="none" stroke="#63b8ff" d="M470.35,-263.6C490.78,-253.77 514.93,-242.15 533.3,-233.31"/>
<polygon fill="#63b8ff" stroke="#63b8ff" points="534.79,-236.48 542.28,-228.99 531.76,-230.17 534.79,-236.48"/>
</g>
<!-- Node30&#45;&gt;Node7 -->
<g id="edge46" class="edge">
<title>Node30&#45;&gt;Node7</title>
<path fill="none" stroke="#63b8ff" d="M370.77,-278C299.25,-268.38 178.06,-242.34 102,-173 86.17,-158.57 76.57,-136.32 70.97,-118.13"/>
<polygon fill="#63b8ff" stroke="#63b8ff" points="74.38,-117.32 68.33,-108.62 67.64,-119.2 74.38,-117.32"/>
</g>
<!-- Node30&#45;&gt;Node29 -->
<g id="edge47" class="edge">
<title>Node30&#45;&gt;Node29</title>
<path fill="none" stroke="#63b8ff" d="M435.03,-305.33C435.68,-312.7 435.89,-321.24 435.66,-329.36"/>
<polygon fill="#63b8ff" stroke="#63b8ff" points="432.17,-329.1 435.11,-339.28 439.16,-329.49 432.17,-329.1"/>
</g>
</g>
</svg>
