<?xml version="1.0" encoding="UTF-8" standalone="no"?>
<!DOCTYPE svg PUBLIC "-//W3C//DTD SVG 1.1//EN"
 "http://www.w3.org/Graphics/SVG/1.1/DTD/svg11.dtd">
<!-- Generated by graphviz version 7.0.2 (20221119.0110)
 -->
<!-- Title: C:/Users/juanh/OneDrive/Escritorio/Facultad/Beca/Proyecto/LAL_Control/include/machine_state_pattern/machine_states/Shutdown_state.h Pages: 1 -->
<svg width="687pt" height="456pt"
 viewBox="0.00 0.00 687.47 456.00" xmlns="http://www.w3.org/2000/svg" xmlns:xlink="http://www.w3.org/1999/xlink">
<g id="graph0" class="graph" transform="scale(1 1) rotate(0) translate(4 452)">
<title>C:/Users/juanh/OneDrive/Escritorio/Facultad/Beca/Proyecto/LAL_Control/include/machine_state_pattern/machine_states/Shutdown_state.h</title>
<!-- Node1 -->
<g id="node1" class="node">
<title>Node1</title>
<g id="a_node1"><a xlink:title="Clase de estado de apagado del sistema.">
<polygon fill="#999999" stroke="#666666" points="448.47,-448 290.47,-448 290.47,-385 448.47,-385 448.47,-448"/>
<text text-anchor="start" x="298.47" y="-436" font-family="Helvetica,sans-Serif" font-size="10.00">C:/Users/juanh/OneDrive</text>
<text text-anchor="start" x="298.47" y="-425" font-family="Helvetica,sans-Serif" font-size="10.00">/Escritorio/Facultad/Beca</text>
<text text-anchor="start" x="298.47" y="-414" font-family="Helvetica,sans-Serif" font-size="10.00">/Proyecto/LAL_Control/include</text>
<text text-anchor="start" x="298.47" y="-403" font-family="Helvetica,sans-Serif" font-size="10.00">/machine_state_pattern/machine</text>
<text text-anchor="middle" x="369.47" y="-392" font-family="Helvetica,sans-Serif" font-size="10.00">_states/Shutdown_state.h</text>
</a>
</g>
</g>
<!-- Node2 -->
<g id="node2" class="node">
<title>Node2</title>
<g id="a_node2"><a xlink:href="_control__system_8h_source.html" target="_top" xlink:title=" ">
<polygon fill="white" stroke="#666666" points="443.97,-349 294.97,-349 294.97,-297 443.97,-297 443.97,-349"/>
<text text-anchor="start" x="302.97" y="-337" font-family="Helvetica,sans-Serif" font-size="10.00">C:/Users/juanh/OneDrive</text>
<text text-anchor="start" x="302.97" y="-326" font-family="Helvetica,sans-Serif" font-size="10.00">/Escritorio/Facultad/Beca</text>
<text text-anchor="start" x="302.97" y="-315" font-family="Helvetica,sans-Serif" font-size="10.00">/Proyecto/LAL_Control/include</text>
<text text-anchor="middle" x="369.47" y="-304" font-family="Helvetica,sans-Serif" font-size="10.00">/Control_system.h</text>
</a>
</g>
</g>
<!-- Node1&#45;&gt;Node2 -->
<g id="edge1" class="edge">
<title>Node1&#45;&gt;Node2</title>
<path fill="none" stroke="#63b8ff" d="M362.74,-373.25C362.66,-365.13 362.86,-356.86 363.35,-349.47"/>
<polygon fill="#63b8ff" stroke="#63b8ff" points="359.23,-373.11 363,-383.01 366.23,-372.92 359.23,-373.11"/>
</g>
<!-- Node2&#45;&gt;Node1 -->
<g id="edge7" class="edge">
<title>Node2&#45;&gt;Node1</title>
<path fill="none" stroke="#63b8ff" d="M376.11,-360.95C376.31,-368.77 376.24,-376.95 375.9,-384.52"/>
<polygon fill="#63b8ff" stroke="#63b8ff" points="379.61,-360.82 375.66,-350.98 372.61,-361.13 379.61,-360.82"/>
</g>
<!-- Node3 -->
<g id="node3" class="node">
<title>Node3</title>
<g id="a_node3"><a xlink:href="_idle__state_8h.html" target="_top" xlink:title="Clase de estado de reposo.">
<polygon fill="white" stroke="#666666" points="674.47,-261 516.47,-261 516.47,-198 674.47,-198 674.47,-261"/>
<text text-anchor="start" x="524.47" y="-249" font-family="Helvetica,sans-Serif" font-size="10.00">C:/Users/juanh/OneDrive</text>
<text text-anchor="start" x="524.47" y="-238" font-family="Helvetica,sans-Serif" font-size="10.00">/Escritorio/Facultad/Beca</text>
<text text-anchor="start" x="524.47" y="-227" font-family="Helvetica,sans-Serif" font-size="10.00">/Proyecto/LAL_Control/include</text>
<text text-anchor="start" x="524.47" y="-216" font-family="Helvetica,sans-Serif" font-size="10.00">/machine_state_pattern/machine</text>
<text text-anchor="middle" x="595.47" y="-205" font-family="Helvetica,sans-Serif" font-size="10.00">_states/Idle_state.h</text>
</a>
</g>
</g>
<!-- Node2&#45;&gt;Node3 -->
<g id="edge2" class="edge">
<title>Node2&#45;&gt;Node3</title>
<path fill="none" stroke="#63b8ff" d="M443.05,-292.21C467.43,-282.34 494.62,-271.33 519.2,-261.38"/>
<polygon fill="#63b8ff" stroke="#63b8ff" points="441.78,-288.95 433.83,-295.94 444.41,-295.44 441.78,-288.95"/>
</g>
<!-- Node4 -->
<g id="node4" class="node">
<title>Node4</title>
<g id="a_node4"><a xlink:href="_motor__control__state_8h.html" target="_top" xlink:title="Clase de estado de control del motor.">
<polygon fill="white" stroke="#666666" points="679.47,-162 521.47,-162 521.47,-99 679.47,-99 679.47,-162"/>
<text text-anchor="start" x="529.47" y="-150" font-family="Helvetica,sans-Serif" font-size="10.00">C:/Users/juanh/OneDrive</text>
<text text-anchor="start" x="529.47" y="-139" font-family="Helvetica,sans-Serif" font-size="10.00">/Escritorio/Facultad/Beca</text>
<text text-anchor="start" x="529.47" y="-128" font-family="Helvetica,sans-Serif" font-size="10.00">/Proyecto/LAL_Control/include</text>
<text text-anchor="start" x="529.47" y="-117" font-family="Helvetica,sans-Serif" font-size="10.00">/machine_state_pattern/machine</text>
<text text-anchor="middle" x="600.47" y="-106" font-family="Helvetica,sans-Serif" font-size="10.00">_states/Motor_control_state.h</text>
</a>
</g>
</g>
<!-- Node2&#45;&gt;Node4 -->
<g id="edge6" class="edge">
<title>Node2&#45;&gt;Node4</title>
<path fill="none" stroke="#63b8ff" d="M404.01,-289.01C431.37,-263.36 470.93,-227.33 507.47,-198 522.64,-185.82 539.82,-173.22 555.26,-162.31"/>
<polygon fill="#63b8ff" stroke="#63b8ff" points="401.91,-286.18 397.03,-295.58 406.71,-291.27 401.91,-286.18"/>
</g>
<!-- Node5 -->
<g id="node5" class="node">
<title>Node5</title>
<g id="a_node5"><a xlink:href="main_8h.html" target="_top" xlink:title="Archivo principal del programa.">
<polygon fill="white" stroke="#666666" points="262.97,-52 81.97,-52 81.97,-11 262.97,-11 262.97,-52"/>
<text text-anchor="start" x="89.97" y="-40" font-family="Helvetica,sans-Serif" font-size="10.00">C:/Users/juanh/OneDrive</text>
<text text-anchor="start" x="89.97" y="-29" font-family="Helvetica,sans-Serif" font-size="10.00">/Escritorio/Facultad/Beca</text>
<text text-anchor="middle" x="172.47" y="-18" font-family="Helvetica,sans-Serif" font-size="10.00">/Proyecto/LAL_Control/include/main.h</text>
</a>
</g>
</g>
<!-- Node2&#45;&gt;Node5 -->
<g id="edge8" class="edge">
<title>Node2&#45;&gt;Node5</title>
<path fill="none" stroke="#63b8ff" d="M283.33,-314.5C192.88,-301.2 57.39,-264.31 10.47,-162 -1.2,-136.55 -5.12,-122.26 10.47,-99 26.89,-74.51 54.13,-59.03 81.62,-49.25"/>
<polygon fill="#63b8ff" stroke="#63b8ff" points="282.8,-317.96 293.18,-315.87 283.76,-311.03 282.8,-317.96"/>
</g>
<!-- Node6 -->
<g id="node6" class="node">
<title>Node6</title>
<g id="a_node6"><a xlink:href="_instruction__observer_8h.html" target="_top" xlink:title="Observador de instrucciones.">
<polygon fill="white" stroke="#666666" points="502.97,-162 353.97,-162 353.97,-99 502.97,-99 502.97,-162"/>
<text text-anchor="start" x="361.97" y="-150" font-family="Helvetica,sans-Serif" font-size="10.00">C:/Users/juanh/OneDrive</text>
<text text-anchor="start" x="361.97" y="-139" font-family="Helvetica,sans-Serif" font-size="10.00">/Escritorio/Facultad/Beca</text>
<text text-anchor="start" x="361.97" y="-128" font-family="Helvetica,sans-Serif" font-size="10.00">/Proyecto/LAL_Control/include</text>
<text text-anchor="start" x="361.97" y="-117" font-family="Helvetica,sans-Serif" font-size="10.00">/observer_pattern/observers</text>
<text text-anchor="middle" x="428.47" y="-106" font-family="Helvetica,sans-Serif" font-size="10.00">/Instruction_observer.h</text>
</a>
</g>
</g>
<!-- Node2&#45;&gt;Node6 -->
<g id="edge9" class="edge">
<title>Node2&#45;&gt;Node6</title>
<path fill="none" stroke="#63b8ff" d="M380.68,-285.79C391.75,-250.05 408.5,-195.99 418.94,-162.27"/>
<polygon fill="#63b8ff" stroke="#63b8ff" points="377.37,-284.67 377.75,-295.26 384.05,-286.74 377.37,-284.67"/>
</g>
<!-- Node8 -->
<g id="node8" class="node">
<title>Node8</title>
<g id="a_node8"><a xlink:href="_moisture__observer_8h.html" target="_top" xlink:title="Observador del sensor de temperatura.">
<polygon fill="white" stroke="#666666" points="335.97,-162 186.97,-162 186.97,-99 335.97,-99 335.97,-162"/>
<text text-anchor="start" x="194.97" y="-150" font-family="Helvetica,sans-Serif" font-size="10.00">C:/Users/juanh/OneDrive</text>
<text text-anchor="start" x="194.97" y="-139" font-family="Helvetica,sans-Serif" font-size="10.00">/Escritorio/Facultad/Beca</text>
<text text-anchor="start" x="194.97" y="-128" font-family="Helvetica,sans-Serif" font-size="10.00">/Proyecto/LAL_Control/include</text>
<text text-anchor="start" x="194.97" y="-117" font-family="Helvetica,sans-Serif" font-size="10.00">/observer_pattern/observers</text>
<text text-anchor="middle" x="261.47" y="-106" font-family="Helvetica,sans-Serif" font-size="10.00">/Moisture_observer.h</text>
</a>
</g>
</g>
<!-- Node2&#45;&gt;Node8 -->
<g id="edge12" class="edge">
<title>Node2&#45;&gt;Node8</title>
<path fill="none" stroke="#63b8ff" d="M370.98,-285.55C370.45,-259.45 366.31,-224.4 350.47,-198 342.13,-184.11 329.68,-172.17 316.72,-162.41"/>
<polygon fill="#63b8ff" stroke="#63b8ff" points="367.48,-285.34 371,-295.33 374.48,-285.33 367.48,-285.34"/>
</g>
<!-- Node9 -->
<g id="node9" class="node">
<title>Node9</title>
<g id="a_node9"><a xlink:href="_system__observer_8h.html" target="_top" xlink:title="Clase observador del sistema de control.">
<polygon fill="white" stroke="#666666" points="340.97,-261 191.97,-261 191.97,-198 340.97,-198 340.97,-261"/>
<text text-anchor="start" x="199.97" y="-249" font-family="Helvetica,sans-Serif" font-size="10.00">C:/Users/juanh/OneDrive</text>
<text text-anchor="start" x="199.97" y="-238" font-family="Helvetica,sans-Serif" font-size="10.00">/Escritorio/Facultad/Beca</text>
<text text-anchor="start" x="199.97" y="-227" font-family="Helvetica,sans-Serif" font-size="10.00">/Proyecto/LAL_Control/include</text>
<text text-anchor="start" x="199.97" y="-216" font-family="Helvetica,sans-Serif" font-size="10.00">/observer_pattern/observers</text>
<text text-anchor="middle" x="266.47" y="-205" font-family="Helvetica,sans-Serif" font-size="10.00">/System_observer.h</text>
</a>
</g>
</g>
<!-- Node2&#45;&gt;Node9 -->
<g id="edge14" class="edge">
<title>Node2&#45;&gt;Node9</title>
<path fill="none" stroke="#63b8ff" d="M325.95,-289.12C315.42,-280.08 304.45,-270.31 294.81,-261.38"/>
<polygon fill="#63b8ff" stroke="#63b8ff" points="323.61,-291.73 333.5,-295.53 328.14,-286.39 323.61,-291.73"/>
</g>
<!-- Node10 -->
<g id="node10" class="node">
<title>Node10</title>
<g id="a_node10"><a xlink:href="_temperature__observer_8h.html" target="_top" xlink:title="Observador del sensor de temperatura.">
<polygon fill="white" stroke="#666666" points="168.97,-162 19.97,-162 19.97,-99 168.97,-99 168.97,-162"/>
<text text-anchor="start" x="27.97" y="-150" font-family="Helvetica,sans-Serif" font-size="10.00">C:/Users/juanh/OneDrive</text>
<text text-anchor="start" x="27.97" y="-139" font-family="Helvetica,sans-Serif" font-size="10.00">/Escritorio/Facultad/Beca</text>
<text text-anchor="start" x="27.97" y="-128" font-family="Helvetica,sans-Serif" font-size="10.00">/Proyecto/LAL_Control/include</text>
<text text-anchor="start" x="27.97" y="-117" font-family="Helvetica,sans-Serif" font-size="10.00">/observer_pattern/observers</text>
<text text-anchor="middle" x="94.47" y="-106" font-family="Helvetica,sans-Serif" font-size="10.00">/Temperature_observer.h</text>
</a>
</g>
</g>
<!-- Node2&#45;&gt;Node10 -->
<g id="edge20" class="edge">
<title>Node2&#45;&gt;Node10</title>
<path fill="none" stroke="#63b8ff" d="M283.72,-306.31C250.11,-297.13 212.68,-282.87 183.47,-261 148.86,-235.08 122.99,-191.62 108.3,-162.27"/>
<polygon fill="#63b8ff" stroke="#63b8ff" points="282.46,-309.6 293.02,-308.73 284.23,-302.83 282.46,-309.6"/>
</g>
<!-- Node3&#45;&gt;Node1 -->
<g id="edge5" class="edge">
<title>Node3&#45;&gt;Node1</title>
<path fill="none" stroke="#63b8ff" d="M550.21,-268.78C522.44,-292.13 486.07,-322.5 453.47,-349 439.04,-360.73 423.06,-373.45 408.95,-384.58"/>
<polygon fill="#63b8ff" stroke="#63b8ff" points="552.35,-271.55 557.75,-262.43 547.85,-266.19 552.35,-271.55"/>
</g>
<!-- Node3&#45;&gt;Node4 -->
<g id="edge3" class="edge">
<title>Node3&#45;&gt;Node4</title>
<path fill="none" stroke="#63b8ff" d="M590.95,-186.15C591.23,-178.2 591.78,-170.02 592.53,-162.5"/>
<polygon fill="#63b8ff" stroke="#63b8ff" points="587.45,-185.96 590.75,-196.03 594.45,-186.1 587.45,-185.96"/>
</g>
<!-- Node4&#45;&gt;Node3 -->
<g id="edge4" class="edge">
<title>Node4&#45;&gt;Node3</title>
<path fill="none" stroke="#63b8ff" d="M604.99,-173.89C604.7,-181.84 604.16,-190.02 603.41,-197.54"/>
<polygon fill="#63b8ff" stroke="#63b8ff" points="608.48,-174.08 605.18,-164.01 601.49,-173.94 608.48,-174.08"/>
</g>
<!-- Node6&#45;&gt;Node5 -->
<g id="edge10" class="edge">
<title>Node6&#45;&gt;Node5</title>
<path fill="none" stroke="#63b8ff" d="M343.15,-97.17C304.05,-82.36 258.96,-65.27 224.94,-52.38"/>
<polygon fill="#63b8ff" stroke="#63b8ff" points="341.73,-100.38 352.32,-100.65 344.21,-93.83 341.73,-100.38"/>
</g>
<!-- Node7 -->
<g id="node7" class="node">
<title>Node7</title>
<g id="a_node7"><a xlink:href="_instruction__observer_8cpp.html" target="_top" xlink:title=" ">
<polygon fill="white" stroke="#666666" points="497.97,-63 358.97,-63 358.97,0 497.97,0 497.97,-63"/>
<text text-anchor="start" x="366.97" y="-51" font-family="Helvetica,sans-Serif" font-size="10.00">C:/Users/juanh/OneDrive</text>
<text text-anchor="start" x="366.97" y="-40" font-family="Helvetica,sans-Serif" font-size="10.00">/Escritorio/Facultad/Beca</text>
<text text-anchor="start" x="366.97" y="-29" font-family="Helvetica,sans-Serif" font-size="10.00">/Proyecto/LAL_Control/src</text>
<text text-anchor="start" x="366.97" y="-18" font-family="Helvetica,sans-Serif" font-size="10.00">/observer_pattern/Instruction</text>
<text text-anchor="middle" x="428.47" y="-7" font-family="Helvetica,sans-Serif" font-size="10.00">_observer.cpp</text>
</a>
</g>
</g>
<!-- Node6&#45;&gt;Node7 -->
<g id="edge11" class="edge">
<title>Node6&#45;&gt;Node7</title>
<path fill="none" stroke="#63b8ff" d="M428.47,-87.15C428.47,-79.2 428.47,-71.02 428.47,-63.5"/>
<polygon fill="#63b8ff" stroke="#63b8ff" points="424.97,-87.03 428.47,-97.03 431.97,-87.03 424.97,-87.03"/>
</g>
<!-- Node8&#45;&gt;Node5 -->
<g id="edge13" class="edge">
<title>Node8&#45;&gt;Node5</title>
<path fill="none" stroke="#63b8ff" d="M225.41,-90.2C213.52,-77.24 200.8,-63.38 190.81,-52.49"/>
<polygon fill="#63b8ff" stroke="#63b8ff" points="222.7,-92.42 232.04,-97.43 227.86,-87.69 222.7,-92.42"/>
</g>
<!-- Node9&#45;&gt;Node2 -->
<g id="edge15" class="edge">
<title>Node9&#45;&gt;Node2</title>
<path fill="none" stroke="#63b8ff" d="M316.21,-268.76C326.95,-278.13 337.79,-287.92 346.9,-296.51"/>
<polygon fill="#63b8ff" stroke="#63b8ff" points="318.66,-266.25 308.8,-262.37 314.08,-271.55 318.66,-266.25"/>
</g>
<!-- Node9&#45;&gt;Node6 -->
<g id="edge16" class="edge">
<title>Node9&#45;&gt;Node6</title>
<path fill="none" stroke="#63b8ff" d="M328.01,-191.65C344.06,-182.04 361.21,-171.77 376.7,-162.5"/>
<polygon fill="#63b8ff" stroke="#63b8ff" points="326.25,-188.62 319.47,-196.76 329.85,-194.63 326.25,-188.62"/>
</g>
<!-- Node9&#45;&gt;Node8 -->
<g id="edge17" class="edge">
<title>Node9&#45;&gt;Node8</title>
<path fill="none" stroke="#63b8ff" d="M264.29,-186.15C263.88,-178.2 263.46,-170.02 263.07,-162.5"/>
<polygon fill="#63b8ff" stroke="#63b8ff" points="260.79,-186.22 264.8,-196.03 267.78,-185.86 260.79,-186.22"/>
</g>
<!-- Node9&#45;&gt;Node10 -->
<g id="edge18" class="edge">
<title>Node9&#45;&gt;Node10</title>
<path fill="none" stroke="#63b8ff" d="M201.62,-191.93C184.43,-182.23 166.04,-171.86 149.43,-162.5"/>
<polygon fill="#63b8ff" stroke="#63b8ff" points="199.83,-194.93 210.26,-196.8 203.27,-188.84 199.83,-194.93"/>
</g>
<!-- Node10&#45;&gt;Node5 -->
<g id="edge19" class="edge">
<title>Node10&#45;&gt;Node5</title>
<path fill="none" stroke="#63b8ff" d="M126.37,-89.83C136.7,-76.98 147.72,-63.28 156.4,-52.49"/>
<polygon fill="#63b8ff" stroke="#63b8ff" points="123.85,-87.38 120.31,-97.36 129.31,-91.76 123.85,-87.38"/>
</g>
</g>
</svg>
