<?xml version="1.0" encoding="UTF-8" standalone="no"?>
<!DOCTYPE svg PUBLIC "-//W3C//DTD SVG 1.1//EN"
 "http://www.w3.org/Graphics/SVG/1.1/DTD/svg11.dtd">
<!-- Generated by graphviz version 7.0.2 (20221119.0110)
 -->
<!-- Title: C:/Users/juanh/OneDrive/Escritorio/Facultad/Beca/Proyecto/LAL_Control/include/observer_pattern/subjects/Subject.h Pages: 1 -->
<svg width="286pt" height="126pt"
 viewBox="0.00 0.00 286.00 126.00" xmlns="http://www.w3.org/2000/svg" xmlns:xlink="http://www.w3.org/1999/xlink">
<g id="graph0" class="graph" transform="scale(1 1) rotate(0) translate(4 122)">
<title>C:/Users/juanh/OneDrive/Escritorio/Facultad/Beca/Proyecto/LAL_Control/include/observer_pattern/subjects/Subject.h</title>
<!-- Node1 -->
<g id="node1" class="node">
<title>Node1</title>
<g id="a_node1"><a xlink:title=" ">
<polygon fill="#999999" stroke="#666666" points="225.5,-118 50.5,-118 50.5,-66 225.5,-66 225.5,-118"/>
<text text-anchor="start" x="58.5" y="-106" font-family="Helvetica,sans-Serif" font-size="10.00">C:/Users/juanh/OneDrive</text>
<text text-anchor="start" x="58.5" y="-95" font-family="Helvetica,sans-Serif" font-size="10.00">/Escritorio/Facultad/Beca</text>
<text text-anchor="start" x="58.5" y="-84" font-family="Helvetica,sans-Serif" font-size="10.00">/Proyecto/LAL_Control/include</text>
<text text-anchor="middle" x="138" y="-73" font-family="Helvetica,sans-Serif" font-size="10.00">/observer_pattern/subjects/Subject.h</text>
</a>
</g>
</g>
<!-- Node2 -->
<g id="node2" class="node">
<title>Node2</title>
<g id="a_node2"><a xlink:href="_subject__interface_8h.html" target="_top" xlink:title="Clase para interfaz para implementar el sujeto.">
<polygon fill="white" stroke="#666666" points="128,-30 0,-30 0,0 128,0 128,-30"/>
<text text-anchor="start" x="8" y="-18" font-family="Helvetica,sans-Serif" font-size="10.00">observer_pattern/subjects</text>
<text text-anchor="middle" x="64" y="-7" font-family="Helvetica,sans-Serif" font-size="10.00">/Subject_interface.h</text>
</a>
</g>
</g>
<!-- Node1&#45;&gt;Node2 -->
<g id="edge1" class="edge">
<title>Node1&#45;&gt;Node2</title>
<path fill="none" stroke="#63b8ff" d="M112.95,-65.61C104.27,-56.81 94.61,-47.02 86.17,-38.47"/>
<polygon fill="#63b8ff" stroke="#63b8ff" points="88.81,-36.17 79.3,-31.5 83.83,-41.08 88.81,-36.17"/>
</g>
<!-- Node3 -->
<g id="node3" class="node">
<title>Node3</title>
<g id="a_node3"><a xlink:href="_observer__interface_8h.html" target="_top" xlink:title="Clase para interfaz para implementar el observador.">
<polygon fill="white" stroke="#666666" points="278,-30 146,-30 146,0 278,0 278,-30"/>
<text text-anchor="start" x="154" y="-18" font-family="Helvetica,sans-Serif" font-size="10.00">observer_pattern/observers</text>
<text text-anchor="middle" x="212" y="-7" font-family="Helvetica,sans-Serif" font-size="10.00">/Observer_interface.h</text>
</a>
</g>
</g>
<!-- Node1&#45;&gt;Node3 -->
<g id="edge2" class="edge">
<title>Node1&#45;&gt;Node3</title>
<path fill="none" stroke="#63b8ff" d="M163.05,-65.61C171.73,-56.81 181.39,-47.02 189.83,-38.47"/>
<polygon fill="#63b8ff" stroke="#63b8ff" points="192.17,-41.08 196.7,-31.5 187.19,-36.17 192.17,-41.08"/>
</g>
</g>
</svg>
