<?xml version="1.0" encoding="UTF-8" standalone="no"?>
<!DOCTYPE svg PUBLIC "-//W3C//DTD SVG 1.1//EN"
 "http://www.w3.org/Graphics/SVG/1.1/DTD/svg11.dtd">
<!-- Generated by graphviz version 7.0.2 (20221119.0110)
 -->
<!-- Title: C:/Users/juanh/OneDrive/Escritorio/Facultad/Beca/Proyecto/LAL_Control/include/System_observer.h Pages: 1 -->
<svg width="1584pt" height="346pt"
 viewBox="0.00 0.00 1584.00 346.00" xmlns="http://www.w3.org/2000/svg" xmlns:xlink="http://www.w3.org/1999/xlink">
<g id="graph0" class="graph" transform="scale(1 1) rotate(0) translate(4 342)">
<title>C:/Users/juanh/OneDrive/Escritorio/Facultad/Beca/Proyecto/LAL_Control/include/System_observer.h</title>
<!-- Node1 -->
<g id="node1" class="node">
<title>Node1</title>
<g id="a_node1"><a xlink:title=" ">
<polygon fill="#999999" stroke="#666666" points="790.5,-338 641.5,-338 641.5,-286 790.5,-286 790.5,-338"/>
<text text-anchor="start" x="649.5" y="-326" font-family="Helvetica,sans-Serif" font-size="10.00">C:/Users/juanh/OneDrive</text>
<text text-anchor="start" x="649.5" y="-315" font-family="Helvetica,sans-Serif" font-size="10.00">/Escritorio/Facultad/Beca</text>
<text text-anchor="start" x="649.5" y="-304" font-family="Helvetica,sans-Serif" font-size="10.00">/Proyecto/LAL_Control/include</text>
<text text-anchor="middle" x="716" y="-293" font-family="Helvetica,sans-Serif" font-size="10.00">/System_observer.h</text>
</a>
</g>
</g>
<!-- Node2 -->
<g id="node2" class="node">
<title>Node2</title>
<g id="a_node2"><a xlink:href="_observer_8h.html" target="_top" xlink:title=" ">
<polygon fill="white" stroke="#666666" points="1475.5,-195 1412.5,-195 1412.5,-176 1475.5,-176 1475.5,-195"/>
<text text-anchor="middle" x="1444" y="-183" font-family="Helvetica,sans-Serif" font-size="10.00">Observer.h</text>
</a>
</g>
</g>
<!-- Node1&#45;&gt;Node2 -->
<g id="edge1" class="edge">
<title>Node1&#45;&gt;Node2</title>
<path fill="none" stroke="#63b8ff" d="M790.88,-299.29C915.26,-279.63 1172.54,-238.11 1401.04,-195.31"/>
<polygon fill="#63b8ff" stroke="#63b8ff" points="1401.57,-198.77 1410.75,-193.49 1400.28,-191.89 1401.57,-198.77"/>
</g>
<!-- Node5 -->
<g id="node5" class="node">
<title>Node5</title>
<g id="a_node5"><a xlink:href="_control__system_8h_source.html" target="_top" xlink:title=" ">
<polygon fill="white" stroke="#666666" points="762.5,-250 669.5,-250 669.5,-231 762.5,-231 762.5,-250"/>
<text text-anchor="middle" x="716" y="-238" font-family="Helvetica,sans-Serif" font-size="10.00">Control_system.h</text>
</a>
</g>
</g>
<!-- Node1&#45;&gt;Node5 -->
<g id="edge4" class="edge">
<title>Node1&#45;&gt;Node5</title>
<path fill="none" stroke="#63b8ff" d="M709.47,-285.52C709.09,-277.57 709.21,-268.94 709.83,-261.43"/>
<polygon fill="#63b8ff" stroke="#63b8ff" points="713.27,-262.08 711.15,-251.7 706.34,-261.14 713.27,-262.08"/>
</g>
<!-- Node3 -->
<g id="node3" class="node">
<title>Node3</title>
<g id="a_node3"><a xlink:href="_subject__interface_8h_source.html" target="_top" xlink:title=" ">
<polygon fill="white" stroke="#666666" points="1576,-134.5 1476,-134.5 1476,-115.5 1576,-115.5 1576,-134.5"/>
<text text-anchor="middle" x="1526" y="-122.5" font-family="Helvetica,sans-Serif" font-size="10.00">Subject_interface.h</text>
</a>
</g>
</g>
<!-- Node2&#45;&gt;Node3 -->
<g id="edge2" class="edge">
<title>Node2&#45;&gt;Node3</title>
<path fill="none" stroke="#63b8ff" d="M1456.45,-175.62C1469.1,-166.6 1488.93,-152.45 1504.19,-141.56"/>
<polygon fill="#63b8ff" stroke="#63b8ff" points="1506.09,-144.5 1512.2,-135.85 1502.02,-138.81 1506.09,-144.5"/>
</g>
<!-- Node4 -->
<g id="node4" class="node">
<title>Node4</title>
<g id="a_node4"><a xlink:href="_observer__interface_8h.html" target="_top" xlink:title=" ">
<polygon fill="white" stroke="#666666" points="1457.5,-134.5 1352.5,-134.5 1352.5,-115.5 1457.5,-115.5 1457.5,-134.5"/>
<text text-anchor="middle" x="1405" y="-122.5" font-family="Helvetica,sans-Serif" font-size="10.00">Observer_interface.h</text>
</a>
</g>
</g>
<!-- Node2&#45;&gt;Node4 -->
<g id="edge3" class="edge">
<title>Node2&#45;&gt;Node4</title>
<path fill="none" stroke="#63b8ff" d="M1438.25,-175.87C1432.72,-167.57 1424.18,-154.78 1417.15,-144.22"/>
<polygon fill="#63b8ff" stroke="#63b8ff" points="1420.08,-142.31 1411.62,-135.93 1414.25,-146.19 1420.08,-142.31"/>
</g>
<!-- Node5&#45;&gt;Node1 -->
<g id="edge17" class="edge">
<title>Node5&#45;&gt;Node1</title>
<path fill="none" stroke="#63b8ff" d="M720.65,-250.2C721.95,-256.4 722.65,-265.21 722.74,-274.21"/>
<polygon fill="#63b8ff" stroke="#63b8ff" points="719.24,-273.94 722.56,-284 726.24,-274.07 719.24,-273.94"/>
</g>
<!-- Node6 -->
<g id="node6" class="node">
<title>Node6</title>
<g id="a_node6"><a xlink:href="_subject_8h.html" target="_top" xlink:title=" ">
<polygon fill="white" stroke="#666666" points="1394,-195 1336,-195 1336,-176 1394,-176 1394,-195"/>
<text text-anchor="middle" x="1365" y="-183" font-family="Helvetica,sans-Serif" font-size="10.00">Subject.h</text>
</a>
</g>
</g>
<!-- Node5&#45;&gt;Node6 -->
<g id="edge5" class="edge">
<title>Node5&#45;&gt;Node6</title>
<path fill="none" stroke="#63b8ff" d="M762.94,-235.67C884.84,-225.71 1209.97,-199.16 1324.44,-189.81"/>
<polygon fill="#63b8ff" stroke="#63b8ff" points="1324.59,-193.31 1334.27,-189.01 1324.02,-186.33 1324.59,-193.31"/>
</g>
<!-- Node7 -->
<g id="node7" class="node">
<title>Node7</title>
<g id="a_node7"><a xlink:href="_machine_8h.html" target="_top" xlink:title=" ">
<polygon fill="white" stroke="#666666" points="954,-74 892,-74 892,-55 954,-55 954,-74"/>
<text text-anchor="middle" x="923" y="-62" font-family="Helvetica,sans-Serif" font-size="10.00">Machine.h</text>
</a>
</g>
</g>
<!-- Node5&#45;&gt;Node7 -->
<g id="edge8" class="edge">
<title>Node5&#45;&gt;Node7</title>
<path fill="none" stroke="#63b8ff" d="M762.94,-234.6C812.84,-228.37 887.13,-215.85 906,-195 933.18,-164.97 930.71,-113.79 926.73,-85.6"/>
<polygon fill="#63b8ff" stroke="#63b8ff" points="930.21,-85.22 925.14,-75.92 923.3,-86.36 930.21,-85.22"/>
</g>
<!-- Node9 -->
<g id="node9" class="node">
<title>Node9</title>
<g id="a_node9"><a xlink:href="_display_8h.html" target="_top" xlink:title=" ">
<polygon fill="white" stroke="#666666" points="1171.5,-195 1114.5,-195 1114.5,-176 1171.5,-176 1171.5,-195"/>
<text text-anchor="middle" x="1143" y="-183" font-family="Helvetica,sans-Serif" font-size="10.00">Display.h</text>
</a>
</g>
</g>
<!-- Node5&#45;&gt;Node9 -->
<g id="edge10" class="edge">
<title>Node5&#45;&gt;Node9</title>
<path fill="none" stroke="#63b8ff" d="M762.92,-233.68C847.48,-223.18 1023.99,-201.27 1103.12,-191.45"/>
<polygon fill="#63b8ff" stroke="#63b8ff" points="1103.07,-194.98 1112.56,-190.28 1102.21,-188.04 1103.07,-194.98"/>
</g>
<!-- Node14 -->
<g id="node14" class="node">
<title>Node14</title>
<g id="a_node14"><a xlink:href="user__messages_8h.html" target="_top" xlink:title="Archivo para la configuración de interfaz con el usuario.">
<polygon fill="white" stroke="#666666" points="707,-134.5 613,-134.5 613,-115.5 707,-115.5 707,-134.5"/>
<text text-anchor="middle" x="660" y="-122.5" font-family="Helvetica,sans-Serif" font-size="10.00">user_messages.h</text>
</a>
</g>
</g>
<!-- Node5&#45;&gt;Node14 -->
<g id="edge15" class="edge">
<title>Node5&#45;&gt;Node14</title>
<path fill="none" stroke="#63b8ff" d="M711.61,-230.59C702.57,-212.28 681.72,-170.02 669.47,-145.19"/>
<polygon fill="#63b8ff" stroke="#63b8ff" points="672.61,-143.64 665.04,-136.22 666.33,-146.74 672.61,-143.64"/>
</g>
<!-- Node16 -->
<g id="node16" class="node">
<title>Node16</title>
<g id="a_node16"><a xlink:href="_temperature__sensor_8h.html" target="_top" xlink:title="Módulo de gestión de sensores de temperatura por interfaz OneWire.">
<polygon fill="white" stroke="#666666" points="224.5,-195 111.5,-195 111.5,-176 224.5,-176 224.5,-195"/>
<text text-anchor="middle" x="168" y="-183" font-family="Helvetica,sans-Serif" font-size="10.00">Temperature_sensor.h</text>
</a>
</g>
</g>
<!-- Node5&#45;&gt;Node16 -->
<g id="edge18" class="edge">
<title>Node5&#45;&gt;Node16</title>
<path fill="none" stroke="#63b8ff" d="M669.01,-235.49C583.55,-228.11 397.03,-211.61 240,-195 238.78,-194.87 237.55,-194.74 236.31,-194.61"/>
<polygon fill="#63b8ff" stroke="#63b8ff" points="236.8,-191.14 226.48,-193.52 236.03,-198.1 236.8,-191.14"/>
</g>
<!-- Node20 -->
<g id="node20" class="node">
<title>Node20</title>
<g id="a_node20"><a xlink:href="_moisture__sensor_8h_source.html" target="_top" xlink:title=" ">
<polygon fill="white" stroke="#666666" points="464.5,-195 367.5,-195 367.5,-176 464.5,-176 464.5,-195"/>
<text text-anchor="middle" x="416" y="-183" font-family="Helvetica,sans-Serif" font-size="10.00">Moisture_sensor.h</text>
</a>
</g>
</g>
<!-- Node5&#45;&gt;Node20 -->
<g id="edge22" class="edge">
<title>Node5&#45;&gt;Node20</title>
<path fill="none" stroke="#63b8ff" d="M669.12,-231.22C616.98,-222.01 532.62,-207.1 475.77,-197.06"/>
<polygon fill="#63b8ff" stroke="#63b8ff" points="476.73,-193.68 466.27,-195.38 475.51,-200.57 476.73,-193.68"/>
</g>
<!-- Node22 -->
<g id="node22" class="node">
<title>Node22</title>
<g id="a_node22"><a xlink:href="types_8h.html" target="_top" xlink:title="Archivo de definición de tipos de dato.">
<polygon fill="white" stroke="#666666" points="369.5,-134.5 320.5,-134.5 320.5,-115.5 369.5,-115.5 369.5,-134.5"/>
<text text-anchor="middle" x="345" y="-122.5" font-family="Helvetica,sans-Serif" font-size="10.00">types.h</text>
</a>
</g>
</g>
<!-- Node5&#45;&gt;Node22 -->
<g id="edge24" class="edge">
<title>Node5&#45;&gt;Node22</title>
<path fill="none" stroke="#63b8ff" d="M669.29,-240.26C582.69,-240.65 402,-236.33 358,-195 344.82,-182.62 342.55,-161.42 342.97,-145.78"/>
<polygon fill="#63b8ff" stroke="#63b8ff" points="346.43,-146.42 343.63,-136.21 339.45,-145.95 346.43,-146.42"/>
</g>
<!-- Node23 -->
<g id="node23" class="node">
<title>Node23</title>
<g id="a_node23"><a xlink:href="_buzzer_8h.html" target="_top" xlink:title=" ">
<polygon fill="white" stroke="#666666" points="607,-195 551,-195 551,-176 607,-176 607,-195"/>
<text text-anchor="middle" x="579" y="-183" font-family="Helvetica,sans-Serif" font-size="10.00">Buzzer.h</text>
</a>
</g>
</g>
<!-- Node5&#45;&gt;Node23 -->
<g id="edge25" class="edge">
<title>Node5&#45;&gt;Node23</title>
<path fill="none" stroke="#63b8ff" d="M692.76,-230.51C670.68,-221.97 637.25,-209.03 612.33,-199.4"/>
<polygon fill="#63b8ff" stroke="#63b8ff" points="613.9,-196.25 603.31,-195.9 611.37,-202.78 613.9,-196.25"/>
</g>
<!-- Node25 -->
<g id="node25" class="node">
<title>Node25</title>
<g id="a_node25"><a xlink:href="_motor_8h.html" target="_top" xlink:title=" ">
<polygon fill="white" stroke="#666666" points="533,-195 483,-195 483,-176 533,-176 533,-195"/>
<text text-anchor="middle" x="508" y="-183" font-family="Helvetica,sans-Serif" font-size="10.00">Motor.h</text>
</a>
</g>
</g>
<!-- Node5&#45;&gt;Node25 -->
<g id="edge28" class="edge">
<title>Node5&#45;&gt;Node25</title>
<path fill="none" stroke="#63b8ff" d="M680.72,-230.51C642.63,-220.81 582.3,-205.43 543.96,-195.66"/>
<polygon fill="#63b8ff" stroke="#63b8ff" points="545.31,-192.4 534.76,-193.32 543.58,-199.18 545.31,-192.4"/>
</g>
<!-- Node26 -->
<g id="node26" class="node">
<title>Node26</title>
<g id="a_node26"><a xlink:href="_dual___l_e_d_8h.html" target="_top" xlink:title=" ">
<polygon fill="white" stroke="#666666" points="311,-195 249,-195 249,-176 311,-176 311,-195"/>
<text text-anchor="middle" x="280" y="-183" font-family="Helvetica,sans-Serif" font-size="10.00">Dual_led.h</text>
</a>
</g>
</g>
<!-- Node5&#45;&gt;Node26 -->
<g id="edge31" class="edge">
<title>Node5&#45;&gt;Node26</title>
<path fill="none" stroke="#63b8ff" d="M669.21,-235.29C595.71,-228.44 448.79,-213.71 325,-195 324.17,-194.88 323.34,-194.75 322.5,-194.61"/>
<polygon fill="#63b8ff" stroke="#63b8ff" points="323.36,-191.21 312.91,-192.99 322.19,-198.11 323.36,-191.21"/>
</g>
<!-- Node27 -->
<g id="node27" class="node">
<title>Node27</title>
<g id="a_node27"><a xlink:href="_shutdown__state_8h_source.html" target="_top" xlink:title=" ">
<polygon fill="white" stroke="#666666" points="896.5,-195 801.5,-195 801.5,-176 896.5,-176 896.5,-195"/>
<text text-anchor="middle" x="849" y="-183" font-family="Helvetica,sans-Serif" font-size="10.00">Shutdown_state.h</text>
</a>
</g>
</g>
<!-- Node5&#45;&gt;Node27 -->
<g id="edge35" class="edge">
<title>Node5&#45;&gt;Node27</title>
<path fill="none" stroke="#63b8ff" d="M733.34,-230.51C753.08,-221.93 785.51,-208.92 811.09,-199.27"/>
<polygon fill="#63b8ff" stroke="#63b8ff" points="812.02,-202.66 820.16,-195.89 809.57,-196.1 812.02,-202.66"/>
</g>
<!-- Node30 -->
<g id="node30" class="node">
<title>Node30</title>
<g id="a_node30"><a xlink:href="utils_8h_source.html" target="_top" xlink:title=" ">
<polygon fill="white" stroke="#666666" points="668.5,-195 625.5,-195 625.5,-176 668.5,-176 668.5,-195"/>
<text text-anchor="middle" x="647" y="-183" font-family="Helvetica,sans-Serif" font-size="10.00">utils.h</text>
</a>
</g>
</g>
<!-- Node5&#45;&gt;Node30 -->
<g id="edge45" class="edge">
<title>Node5&#45;&gt;Node30</title>
<path fill="none" stroke="#63b8ff" d="M704.3,-230.51C694.22,-222.77 679.46,-211.43 667.44,-202.2"/>
<polygon fill="#63b8ff" stroke="#63b8ff" points="669.79,-199.6 659.73,-196.28 665.53,-205.15 669.79,-199.6"/>
</g>
<!-- Node6&#45;&gt;Node3 -->
<g id="edge6" class="edge">
<title>Node6&#45;&gt;Node3</title>
<path fill="none" stroke="#63b8ff" d="M1389.45,-175.62C1416.4,-165.82 1459.99,-149.98 1490.66,-138.84"/>
<polygon fill="#63b8ff" stroke="#63b8ff" points="1491.69,-142.19 1499.89,-135.49 1489.3,-135.61 1491.69,-142.19"/>
</g>
<!-- Node6&#45;&gt;Node4 -->
<g id="edge7" class="edge">
<title>Node6&#45;&gt;Node4</title>
<path fill="none" stroke="#63b8ff" d="M1370.9,-175.87C1376.63,-167.49 1385.51,-154.51 1392.76,-143.89"/>
<polygon fill="#63b8ff" stroke="#63b8ff" points="1395.46,-146.15 1398.22,-135.92 1389.69,-142.2 1395.46,-146.15"/>
</g>
<!-- Node8 -->
<g id="node8" class="node">
<title>Node8</title>
<g id="a_node8"><a xlink:href="_abstract__state_8h.html" target="_top" xlink:title=" ">
<polygon fill="white" stroke="#666666" points="887.5,-19 798.5,-19 798.5,0 887.5,0 887.5,-19"/>
<text text-anchor="middle" x="843" y="-7" font-family="Helvetica,sans-Serif" font-size="10.00">Abstract_state.h</text>
</a>
</g>
</g>
<!-- Node7&#45;&gt;Node8 -->
<g id="edge9" class="edge">
<title>Node7&#45;&gt;Node8</title>
<path fill="none" stroke="#63b8ff" d="M909.43,-54.51C897.52,-46.62 879.95,-34.98 865.87,-25.65"/>
<polygon fill="#63b8ff" stroke="#63b8ff" points="867.9,-22.8 857.63,-20.19 864.04,-28.63 867.9,-22.8"/>
</g>
<!-- Node10 -->
<g id="node10" class="node">
<title>Node10</title>
<g id="a_node10"><a xlink:title=" ">
<polygon fill="#e0e0e0" stroke="#999999" points="1253.5,-134.5 1208.5,-134.5 1208.5,-115.5 1253.5,-115.5 1253.5,-134.5"/>
<text text-anchor="middle" x="1231" y="-122.5" font-family="Helvetica,sans-Serif" font-size="10.00">Wire.h</text>
</a>
</g>
</g>
<!-- Node9&#45;&gt;Node10 -->
<g id="edge11" class="edge">
<title>Node9&#45;&gt;Node10</title>
<path fill="none" stroke="#63b8ff" d="M1156.37,-175.62C1170.06,-166.51 1191.62,-152.18 1208.06,-141.25"/>
<polygon fill="#63b8ff" stroke="#63b8ff" points="1209.86,-144.26 1216.25,-135.81 1205.98,-138.43 1209.86,-144.26"/>
</g>
<!-- Node11 -->
<g id="node11" class="node">
<title>Node11</title>
<g id="a_node11"><a xlink:title=" ">
<polygon fill="#e0e0e0" stroke="#999999" points="1334,-134.5 1272,-134.5 1272,-115.5 1334,-115.5 1334,-134.5"/>
<text text-anchor="middle" x="1303" y="-122.5" font-family="Helvetica,sans-Serif" font-size="10.00">hd44780.h</text>
</a>
</g>
</g>
<!-- Node9&#45;&gt;Node11 -->
<g id="edge12" class="edge">
<title>Node9&#45;&gt;Node11</title>
<path fill="none" stroke="#63b8ff" d="M1167.3,-175.62C1194.08,-165.82 1237.4,-149.98 1267.88,-138.84"/>
<polygon fill="#63b8ff" stroke="#63b8ff" points="1268.86,-142.21 1277.05,-135.49 1266.46,-135.64 1268.86,-142.21"/>
</g>
<!-- Node12 -->
<g id="node12" class="node">
<title>Node12</title>
<g id="a_node12"><a xlink:title=" ">
<polygon fill="#e0e0e0" stroke="#999999" points="1077.5,-140 952.5,-140 952.5,-110 1077.5,-110 1077.5,-140"/>
<text text-anchor="start" x="960.5" y="-128" font-family="Helvetica,sans-Serif" font-size="10.00">hd44780ioClass/hd44780</text>
<text text-anchor="middle" x="1015" y="-117" font-family="Helvetica,sans-Serif" font-size="10.00">_I2Cexp.h</text>
</a>
</g>
</g>
<!-- Node9&#45;&gt;Node12 -->
<g id="edge13" class="edge">
<title>Node9&#45;&gt;Node12</title>
<path fill="none" stroke="#63b8ff" d="M1123.56,-175.62C1105.93,-167.56 1079.35,-155.41 1056.9,-145.15"/>
<polygon fill="#63b8ff" stroke="#63b8ff" points="1058.52,-142.04 1047.97,-141.07 1055.61,-148.41 1058.52,-142.04"/>
</g>
<!-- Node13 -->
<g id="node13" class="node">
<title>Node13</title>
<g id="a_node13"><a xlink:href="display__settings_8h.html" target="_top" xlink:title="Archivo de configuración de la pantalla.">
<polygon fill="white" stroke="#666666" points="1190.5,-134.5 1095.5,-134.5 1095.5,-115.5 1190.5,-115.5 1190.5,-134.5"/>
<text text-anchor="middle" x="1143" y="-122.5" font-family="Helvetica,sans-Serif" font-size="10.00">display_settings.h</text>
</a>
</g>
</g>
<!-- Node9&#45;&gt;Node13 -->
<g id="edge14" class="edge">
<title>Node9&#45;&gt;Node13</title>
<path fill="none" stroke="#63b8ff" d="M1143,-175.87C1143,-168 1143,-156.1 1143,-145.89"/>
<polygon fill="#63b8ff" stroke="#63b8ff" points="1146.5,-146.18 1143,-136.18 1139.5,-146.18 1146.5,-146.18"/>
</g>
<!-- Node15 -->
<g id="node15" class="node">
<title>Node15</title>
<g id="a_node15"><a xlink:title=" ">
<polygon fill="#e0e0e0" stroke="#999999" points="647.5,-74 562.5,-74 562.5,-55 647.5,-55 647.5,-74"/>
<text text-anchor="middle" x="605" y="-62" font-family="Helvetica,sans-Serif" font-size="10.00">avr/pgmspace.h</text>
</a>
</g>
</g>
<!-- Node14&#45;&gt;Node15 -->
<g id="edge16" class="edge">
<title>Node14&#45;&gt;Node15</title>
<path fill="none" stroke="#63b8ff" d="M651.88,-115.37C643.76,-106.73 631.04,-93.2 620.9,-82.42"/>
<polygon fill="#63b8ff" stroke="#63b8ff" points="623.59,-80.16 614.19,-75.27 618.49,-84.95 623.59,-80.16"/>
</g>
<!-- Node17 -->
<g id="node17" class="node">
<title>Node17</title>
<g id="a_node17"><a xlink:href="system__settings_8h.html" target="_top" xlink:title="Archivo para la definición de constantes del sistema.">
<polygon fill="white" stroke="#666666" points="302.5,-134.5 205.5,-134.5 205.5,-115.5 302.5,-115.5 302.5,-134.5"/>
<text text-anchor="middle" x="254" y="-122.5" font-family="Helvetica,sans-Serif" font-size="10.00">system_settings.h</text>
</a>
</g>
</g>
<!-- Node16&#45;&gt;Node17 -->
<g id="edge19" class="edge">
<title>Node16&#45;&gt;Node17</title>
<path fill="none" stroke="#63b8ff" d="M181.06,-175.62C194.45,-166.51 215.52,-152.18 231.58,-141.25"/>
<polygon fill="#63b8ff" stroke="#63b8ff" points="233.26,-144.34 239.56,-135.82 229.33,-138.55 233.26,-144.34"/>
</g>
<!-- Node18 -->
<g id="node18" class="node">
<title>Node18</title>
<g id="a_node18"><a xlink:title=" ">
<polygon fill="#e0e0e0" stroke="#999999" points="187.5,-134.5 124.5,-134.5 124.5,-115.5 187.5,-115.5 187.5,-134.5"/>
<text text-anchor="middle" x="156" y="-122.5" font-family="Helvetica,sans-Serif" font-size="10.00">OneWire.h</text>
</a>
</g>
</g>
<!-- Node16&#45;&gt;Node18 -->
<g id="edge20" class="edge">
<title>Node16&#45;&gt;Node18</title>
<path fill="none" stroke="#63b8ff" d="M166.23,-175.87C164.62,-168 162.17,-156.1 160.08,-145.89"/>
<polygon fill="#63b8ff" stroke="#63b8ff" points="163.52,-145.24 158.08,-136.15 156.66,-146.65 163.52,-145.24"/>
</g>
<!-- Node19 -->
<g id="node19" class="node">
<title>Node19</title>
<g id="a_node19"><a xlink:title=" ">
<polygon fill="#e0e0e0" stroke="#999999" points="106,-134.5 0,-134.5 0,-115.5 106,-115.5 106,-134.5"/>
<text text-anchor="middle" x="53" y="-122.5" font-family="Helvetica,sans-Serif" font-size="10.00">DallasTemperature.h</text>
</a>
</g>
</g>
<!-- Node16&#45;&gt;Node19 -->
<g id="edge21" class="edge">
<title>Node16&#45;&gt;Node19</title>
<path fill="none" stroke="#63b8ff" d="M150.53,-175.62C132.04,-166.21 102.59,-151.22 80.88,-140.18"/>
<polygon fill="#63b8ff" stroke="#63b8ff" points="82.48,-137.07 71.98,-135.65 79.31,-143.31 82.48,-137.07"/>
</g>
<!-- Node21 -->
<g id="node21" class="node">
<title>Node21</title>
<g id="a_node21"><a xlink:title=" ">
<polygon fill="#e0e0e0" stroke="#999999" points="452,-134.5 394,-134.5 394,-115.5 452,-115.5 452,-134.5"/>
<text text-anchor="middle" x="423" y="-122.5" font-family="Helvetica,sans-Serif" font-size="10.00">Arduino.h</text>
</a>
</g>
</g>
<!-- Node20&#45;&gt;Node21 -->
<g id="edge23" class="edge">
<title>Node20&#45;&gt;Node21</title>
<path fill="none" stroke="#63b8ff" d="M417.03,-175.87C417.97,-168 419.4,-156.1 420.62,-145.89"/>
<polygon fill="#63b8ff" stroke="#63b8ff" points="424.07,-146.52 421.78,-136.17 417.12,-145.68 424.07,-146.52"/>
</g>
<!-- Node23&#45;&gt;Node21 -->
<g id="edge26" class="edge">
<title>Node23&#45;&gt;Node21</title>
<path fill="none" stroke="#63b8ff" d="M555.31,-175.62C529.31,-165.87 487.33,-150.12 457.64,-138.99"/>
<polygon fill="#63b8ff" stroke="#63b8ff" points="458.93,-135.73 448.33,-135.5 456.47,-142.29 458.93,-135.73"/>
</g>
<!-- Node24 -->
<g id="node24" class="node">
<title>Node24</title>
<g id="a_node24"><a xlink:href="port__config_8h.html" target="_top" xlink:title="Archivo de configuración para los puertos de la placa donde se implementará el sistema.">
<polygon fill="white" stroke="#666666" points="552,-134.5 480,-134.5 480,-115.5 552,-115.5 552,-134.5"/>
<text text-anchor="middle" x="516" y="-122.5" font-family="Helvetica,sans-Serif" font-size="10.00">port_config.h</text>
</a>
</g>
</g>
<!-- Node23&#45;&gt;Node24 -->
<g id="edge27" class="edge">
<title>Node23&#45;&gt;Node24</title>
<path fill="none" stroke="#63b8ff" d="M569.43,-175.62C560,-166.85 545.35,-153.25 533.77,-142.5"/>
<polygon fill="#63b8ff" stroke="#63b8ff" points="536.48,-140.24 526.77,-136 531.71,-145.37 536.48,-140.24"/>
</g>
<!-- Node25&#45;&gt;Node21 -->
<g id="edge29" class="edge">
<title>Node25&#45;&gt;Node21</title>
<path fill="none" stroke="#63b8ff" d="M495.09,-175.62C481.86,-166.51 461.03,-152.18 445.16,-141.25"/>
<polygon fill="#63b8ff" stroke="#63b8ff" points="447.5,-138.61 437.28,-135.83 443.53,-144.38 447.5,-138.61"/>
</g>
<!-- Node25&#45;&gt;Node24 -->
<g id="edge30" class="edge">
<title>Node25&#45;&gt;Node24</title>
<path fill="none" stroke="#63b8ff" d="M509.18,-175.87C510.26,-168 511.88,-156.1 513.28,-145.89"/>
<polygon fill="#63b8ff" stroke="#63b8ff" points="516.72,-146.55 514.61,-136.17 509.79,-145.6 516.72,-146.55"/>
</g>
<!-- Node26&#45;&gt;Node17 -->
<g id="edge34" class="edge">
<title>Node26&#45;&gt;Node17</title>
<path fill="none" stroke="#63b8ff" d="M276.16,-175.87C272.55,-167.75 267.03,-155.31 262.39,-144.89"/>
<polygon fill="#63b8ff" stroke="#63b8ff" points="265.73,-143.77 258.47,-136.05 259.33,-146.61 265.73,-143.77"/>
</g>
<!-- Node26&#45;&gt;Node21 -->
<g id="edge32" class="edge">
<title>Node26&#45;&gt;Node21</title>
<path fill="none" stroke="#63b8ff" d="M301.72,-175.62C325.34,-165.95 363.36,-150.4 390.53,-139.28"/>
<polygon fill="#63b8ff" stroke="#63b8ff" points="391.75,-142.57 399.68,-135.54 389.1,-136.09 391.75,-142.57"/>
</g>
<!-- Node26&#45;&gt;Node22 -->
<g id="edge33" class="edge">
<title>Node26&#45;&gt;Node22</title>
<path fill="none" stroke="#63b8ff" d="M289.87,-175.62C299.61,-166.85 314.72,-153.25 326.66,-142.5"/>
<polygon fill="#63b8ff" stroke="#63b8ff" points="328.82,-145.27 333.91,-135.98 324.14,-140.07 328.82,-145.27"/>
</g>
<!-- Node27&#45;&gt;Node5 -->
<g id="edge36" class="edge">
<title>Node27&#45;&gt;Node5</title>
<path fill="none" stroke="#63b8ff" d="M831.96,-195.36C812.36,-203.89 779.96,-216.9 754.3,-226.58"/>
<polygon fill="#63b8ff" stroke="#63b8ff" points="753.34,-223.21 745.2,-229.98 755.79,-229.76 753.34,-223.21"/>
</g>
<!-- Node27&#45;&gt;Node8 -->
<g id="edge37" class="edge">
<title>Node27&#45;&gt;Node8</title>
<path fill="none" stroke="#63b8ff" d="M848.69,-175.63C847.77,-148.87 845,-68.44 843.69,-30.59"/>
<polygon fill="#63b8ff" stroke="#63b8ff" points="847.19,-30.53 843.35,-20.66 840.2,-30.77 847.19,-30.53"/>
</g>
<!-- Node28 -->
<g id="node28" class="node">
<title>Node28</title>
<g id="a_node28"><a xlink:href="_idle__state_8h.html" target="_top" xlink:title=" ">
<polygon fill="white" stroke="#666666" points="830.5,-134.5 763.5,-134.5 763.5,-115.5 830.5,-115.5 830.5,-134.5"/>
<text text-anchor="middle" x="797" y="-122.5" font-family="Helvetica,sans-Serif" font-size="10.00">Idle_state.h</text>
</a>
</g>
</g>
<!-- Node27&#45;&gt;Node28 -->
<g id="edge38" class="edge">
<title>Node27&#45;&gt;Node28</title>
<path fill="none" stroke="#63b8ff" d="M841.33,-175.87C833.72,-167.31 821.86,-153.97 812.32,-143.24"/>
<polygon fill="#63b8ff" stroke="#63b8ff" points="814.97,-140.95 805.71,-135.8 809.74,-145.6 814.97,-140.95"/>
</g>
<!-- Node28&#45;&gt;Node5 -->
<g id="edge39" class="edge">
<title>Node28&#45;&gt;Node5</title>
<path fill="none" stroke="#63b8ff" d="M790.87,-134.99C781.83,-148.22 764.32,-173.67 749,-195 742.69,-203.79 735.55,-213.45 729.53,-221.51"/>
<polygon fill="#63b8ff" stroke="#63b8ff" points="726.76,-219.38 723.56,-229.48 732.36,-223.58 726.76,-219.38"/>
</g>
<!-- Node28&#45;&gt;Node8 -->
<g id="edge40" class="edge">
<title>Node28&#45;&gt;Node8</title>
<path fill="none" stroke="#63b8ff" d="M800.61,-115.09C808,-96.86 825,-54.91 835.09,-30.03"/>
<polygon fill="#63b8ff" stroke="#63b8ff" points="838.33,-31.35 838.84,-20.77 831.84,-28.72 838.33,-31.35"/>
</g>
<!-- Node29 -->
<g id="node29" class="node">
<title>Node29</title>
<g id="a_node29"><a xlink:href="_motor__control__state_8h_source.html" target="_top" xlink:title=" ">
<polygon fill="white" stroke="#666666" points="795.5,-74 684.5,-74 684.5,-55 795.5,-55 795.5,-74"/>
<text text-anchor="middle" x="740" y="-62" font-family="Helvetica,sans-Serif" font-size="10.00">Motor_control_state.h</text>
</a>
</g>
</g>
<!-- Node28&#45;&gt;Node29 -->
<g id="edge41" class="edge">
<title>Node28&#45;&gt;Node29</title>
<path fill="none" stroke="#63b8ff" d="M783.33,-115.12C773.36,-106.7 760.38,-93.81 751.06,-83.28"/>
<polygon fill="#63b8ff" stroke="#63b8ff" points="753.77,-81.07 744.68,-75.63 748.4,-85.55 753.77,-81.07"/>
</g>
<!-- Node29&#45;&gt;Node5 -->
<g id="edge42" class="edge">
<title>Node29&#45;&gt;Node5</title>
<path fill="none" stroke="#63b8ff" d="M738.81,-74.14C735.14,-100.72 723.97,-181.71 718.75,-219.58"/>
<polygon fill="#63b8ff" stroke="#63b8ff" points="715.33,-218.75 717.43,-229.13 722.26,-219.7 715.33,-218.75"/>
</g>
<!-- Node29&#45;&gt;Node8 -->
<g id="edge43" class="edge">
<title>Node29&#45;&gt;Node8</title>
<path fill="none" stroke="#63b8ff" d="M757.47,-54.51C773.4,-46.31 797.19,-34.07 815.64,-24.58"/>
<polygon fill="#63b8ff" stroke="#63b8ff" points="817.15,-27.74 824.44,-20.05 813.95,-21.51 817.15,-27.74"/>
</g>
<!-- Node29&#45;&gt;Node28 -->
<g id="edge44" class="edge">
<title>Node29&#45;&gt;Node28</title>
<path fill="none" stroke="#63b8ff" d="M753.41,-74.17C763.6,-82.73 777.02,-96.08 786.46,-106.8"/>
<polygon fill="#63b8ff" stroke="#63b8ff" points="783.51,-108.73 792.58,-114.2 788.9,-104.27 783.51,-108.73"/>
</g>
<!-- Node30&#45;&gt;Node14 -->
<g id="edge47" class="edge">
<title>Node30&#45;&gt;Node14</title>
<path fill="none" stroke="#63b8ff" d="M648.92,-175.87C650.67,-168 653.31,-156.1 655.58,-145.89"/>
<polygon fill="#63b8ff" stroke="#63b8ff" points="658.99,-146.67 657.75,-136.14 652.16,-145.15 658.99,-146.67"/>
</g>
<!-- Node30&#45;&gt;Node15 -->
<g id="edge46" class="edge">
<title>Node30&#45;&gt;Node15</title>
<path fill="none" stroke="#63b8ff" d="M634.09,-175.61C623.76,-167.65 610.04,-154.94 604,-140 596.96,-122.57 598.23,-100.93 600.65,-85.47"/>
<polygon fill="#63b8ff" stroke="#63b8ff" points="604.09,-86.13 602.51,-75.65 597.21,-84.82 604.09,-86.13"/>
</g>
</g>
</svg>
