<?xml version="1.0" encoding="UTF-8" standalone="no"?>
<!DOCTYPE svg PUBLIC "-//W3C//DTD SVG 1.1//EN"
 "http://www.w3.org/Graphics/SVG/1.1/DTD/svg11.dtd">
<!-- Generated by graphviz version 7.0.2 (20221119.0110)
 -->
<!-- Title: C:/Users/juanh/OneDrive/Escritorio/Facultad/Beca/Proyecto/LAL_Control/src/Temperature_sensor.cpp Pages: 1 -->
<svg width="311pt" height="170pt"
 viewBox="0.00 0.00 310.50 170.00" xmlns="http://www.w3.org/2000/svg" xmlns:xlink="http://www.w3.org/1999/xlink">
<g id="graph0" class="graph" transform="scale(1 1) rotate(0) translate(4 166)">
<title>C:/Users/juanh/OneDrive/Escritorio/Facultad/Beca/Proyecto/LAL_Control/src/Temperature_sensor.cpp</title>
<!-- Node1 -->
<g id="node1" class="node">
<title>Node1</title>
<g id="a_node1"><a xlink:title=" ">
<polygon fill="#999999" stroke="#666666" points="212,-162 81,-162 81,-110 212,-110 212,-162"/>
<text text-anchor="start" x="89" y="-150" font-family="Helvetica,sans-Serif" font-size="10.00">C:/Users/juanh/OneDrive</text>
<text text-anchor="start" x="89" y="-139" font-family="Helvetica,sans-Serif" font-size="10.00">/Escritorio/Facultad/Beca</text>
<text text-anchor="start" x="89" y="-128" font-family="Helvetica,sans-Serif" font-size="10.00">/Proyecto/LAL_Control/src</text>
<text text-anchor="middle" x="146.5" y="-117" font-family="Helvetica,sans-Serif" font-size="10.00">/Temperature_sensor.cpp</text>
</a>
</g>
</g>
<!-- Node2 -->
<g id="node2" class="node">
<title>Node2</title>
<g id="a_node2"><a xlink:href="_temperature__sensor_8h.html" target="_top" xlink:title="Módulo de gestión de sensores de temperatura por interfaz OneWire.">
<polygon fill="white" stroke="#666666" points="203,-74 90,-74 90,-55 203,-55 203,-74"/>
<text text-anchor="middle" x="146.5" y="-62" font-family="Helvetica,sans-Serif" font-size="10.00">Temperature_sensor.h</text>
</a>
</g>
</g>
<!-- Node1&#45;&gt;Node2 -->
<g id="edge1" class="edge">
<title>Node1&#45;&gt;Node2</title>
<path fill="none" stroke="#63b8ff" d="M146.5,-109.52C146.5,-101.67 146.5,-93.15 146.5,-85.71"/>
<polygon fill="#63b8ff" stroke="#63b8ff" points="150,-85.71 146.5,-75.71 143,-85.71 150,-85.71"/>
</g>
<!-- Node3 -->
<g id="node3" class="node">
<title>Node3</title>
<g id="a_node3"><a xlink:href="system__settings_8h.html" target="_top" xlink:title="Archivo para la definición de constantes del sistema.">
<polygon fill="white" stroke="#666666" points="97,-19 0,-19 0,0 97,0 97,-19"/>
<text text-anchor="middle" x="48.5" y="-7" font-family="Helvetica,sans-Serif" font-size="10.00">system_settings.h</text>
</a>
</g>
</g>
<!-- Node2&#45;&gt;Node3 -->
<g id="edge2" class="edge">
<title>Node2&#45;&gt;Node3</title>
<path fill="none" stroke="#63b8ff" d="M129.88,-54.51C114.72,-46.31 92.08,-34.07 74.53,-24.58"/>
<polygon fill="#63b8ff" stroke="#63b8ff" points="76.67,-21.76 66.21,-20.08 73.34,-27.91 76.67,-21.76"/>
</g>
<!-- Node4 -->
<g id="node4" class="node">
<title>Node4</title>
<g id="a_node4"><a xlink:title=" ">
<polygon fill="#e0e0e0" stroke="#999999" points="178,-19 115,-19 115,0 178,0 178,-19"/>
<text text-anchor="middle" x="146.5" y="-7" font-family="Helvetica,sans-Serif" font-size="10.00">OneWire.h</text>
</a>
</g>
</g>
<!-- Node2&#45;&gt;Node4 -->
<g id="edge3" class="edge">
<title>Node2&#45;&gt;Node4</title>
<path fill="none" stroke="#63b8ff" d="M146.5,-54.75C146.5,-48.27 146.5,-39.16 146.5,-30.9"/>
<polygon fill="#63b8ff" stroke="#63b8ff" points="150,-30.96 146.5,-20.96 143,-30.96 150,-30.96"/>
</g>
<!-- Node5 -->
<g id="node5" class="node">
<title>Node5</title>
<g id="a_node5"><a xlink:title=" ">
<polygon fill="#e0e0e0" stroke="#999999" points="302.5,-19 196.5,-19 196.5,0 302.5,0 302.5,-19"/>
<text text-anchor="middle" x="249.5" y="-7" font-family="Helvetica,sans-Serif" font-size="10.00">DallasTemperature.h</text>
</a>
</g>
</g>
<!-- Node2&#45;&gt;Node5 -->
<g id="edge4" class="edge">
<title>Node2&#45;&gt;Node5</title>
<path fill="none" stroke="#63b8ff" d="M163.97,-54.51C179.9,-46.31 203.69,-34.07 222.14,-24.58"/>
<polygon fill="#63b8ff" stroke="#63b8ff" points="223.65,-27.74 230.94,-20.05 220.45,-21.51 223.65,-27.74"/>
</g>
</g>
</svg>
