<?xml version="1.0" encoding="UTF-8" standalone="no"?>
<!DOCTYPE svg PUBLIC "-//W3C//DTD SVG 1.1//EN"
 "http://www.w3.org/Graphics/SVG/1.1/DTD/svg11.dtd">
<!-- Generated by graphviz version 7.0.2 (20221119.0110)
 -->
<!-- Title: Buzzer::turn_off Pages: 1 -->
<svg width="372pt" height="140pt"
 viewBox="0.00 0.00 372.00 139.50" xmlns="http://www.w3.org/2000/svg" xmlns:xlink="http://www.w3.org/1999/xlink">
<g id="graph0" class="graph" transform="scale(1 1) rotate(0) translate(4 135.5)">
<title>Buzzer::turn_off</title>
<!-- Node1 -->
<g id="node1" class="node">
<title>Node1</title>
<g id="a_node1"><a xlink:title="Apaga el buzzer.">
<polygon fill="#999999" stroke="#666666" points="364,-66.5 279,-66.5 279,-47.5 364,-47.5 364,-66.5"/>
<text text-anchor="middle" x="321.5" y="-54.5" font-family="Helvetica,sans-Serif" font-size="10.00">Buzzer::turn_off</text>
</a>
</g>
</g>
<!-- Node2 -->
<g id="node2" class="node">
<title>Node2</title>
<g id="a_node2"><a xlink:href="class_idle__state.html#aad83cf5a4d37cbb4b45b64dd6d632c53" target="_top" xlink:title="Método llamada al salir del estado. Apaga los led indicadores y el buzzer.">
<polygon fill="white" stroke="#666666" points="231.5,-131.5 151.5,-131.5 151.5,-112.5 231.5,-112.5 231.5,-131.5"/>
<text text-anchor="middle" x="191.5" y="-119.5" font-family="Helvetica,sans-Serif" font-size="10.00">Idle_state::exit</text>
</a>
</g>
</g>
<!-- Node1&#45;&gt;Node2 -->
<g id="edge1" class="edge">
<title>Node1&#45;&gt;Node2</title>
<path fill="none" stroke="#63b8ff" d="M295.98,-73.06C281.03,-82.47 261.34,-94.19 243,-103 236.24,-106.24 228.78,-109.32 221.71,-112.01"/>
<polygon fill="#63b8ff" stroke="#63b8ff" points="297.68,-76.13 304.22,-67.8 293.91,-70.23 297.68,-76.13"/>
</g>
<!-- Node4 -->
<g id="node4" class="node">
<title>Node4</title>
<g id="a_node4"><a xlink:href="class_motor__control__state.html#aad1d65bba61eca448757e07e4e7dcb2b" target="_top" xlink:title="Método que se llama al salir del estado.">
<polygon fill="white" stroke="#666666" points="243,-94 140,-94 140,-64 243,-64 243,-94"/>
<text text-anchor="start" x="148" y="-82" font-family="Helvetica,sans-Serif" font-size="10.00">Motor_control_state</text>
<text text-anchor="middle" x="191.5" y="-71" font-family="Helvetica,sans-Serif" font-size="10.00">::exit</text>
</a>
</g>
</g>
<!-- Node1&#45;&gt;Node4 -->
<g id="edge3" class="edge">
<title>Node1&#45;&gt;Node4</title>
<path fill="none" stroke="#63b8ff" d="M267.26,-66.15C259.38,-67.51 251.27,-68.9 243.44,-70.24"/>
<polygon fill="#63b8ff" stroke="#63b8ff" points="267.83,-69.6 277.1,-64.46 266.65,-62.7 267.83,-69.6"/>
</g>
<!-- Node6 -->
<g id="node6" class="node">
<title>Node6</title>
<g id="a_node6"><a xlink:href="class_buzzer.html#a7d0275af89ab487903752edc29a5bf2c" target="_top" xlink:title="Permuta el estado del led, si estaba encendido pasará a apagado y viceversa.">
<polygon fill="white" stroke="#666666" points="231.5,-45.5 151.5,-45.5 151.5,-26.5 231.5,-26.5 231.5,-45.5"/>
<text text-anchor="middle" x="191.5" y="-33.5" font-family="Helvetica,sans-Serif" font-size="10.00">Buzzer::toggle</text>
</a>
</g>
</g>
<!-- Node1&#45;&gt;Node6 -->
<g id="edge5" class="edge">
<title>Node1&#45;&gt;Node6</title>
<path fill="none" stroke="#63b8ff" d="M267.41,-48.29C255.52,-46.34 243.11,-44.3 231.9,-42.46"/>
<polygon fill="#63b8ff" stroke="#63b8ff" points="266.66,-51.71 277.09,-49.88 267.79,-44.81 266.66,-51.71"/>
</g>
<!-- Node7 -->
<g id="node7" class="node">
<title>Node7</title>
<g id="a_node7"><a xlink:href="class_motor__control__state.html#a958e3393b9937ddea35e85efdd21e342" target="_top" xlink:title="Método para actualizar el estado.">
<polygon fill="white" stroke="#666666" points="103.5,-30 0.5,-30 0.5,0 103.5,0 103.5,-30"/>
<text text-anchor="start" x="8.5" y="-18" font-family="Helvetica,sans-Serif" font-size="10.00">Motor_control_state</text>
<text text-anchor="middle" x="52" y="-7" font-family="Helvetica,sans-Serif" font-size="10.00">::update</text>
</a>
</g>
</g>
<!-- Node1&#45;&gt;Node7 -->
<g id="edge7" class="edge">
<title>Node1&#45;&gt;Node7</title>
<path fill="none" stroke="#63b8ff" d="M297.09,-41.25C282.28,-32.24 262.34,-21.81 243,-17 196.9,-5.55 142.54,-6.35 103.81,-9.24"/>
<polygon fill="#63b8ff" stroke="#63b8ff" points="294.85,-43.98 305.18,-46.36 298.6,-38.06 294.85,-43.98"/>
</g>
<!-- Node3 -->
<g id="node3" class="node">
<title>Node3</title>
<g id="a_node3"><a xlink:href="class_idle__state.html#a422b51d100fee2411f6ea972b13cc2e8" target="_top" xlink:title="Transición hacia nuevo estado.">
<polygon fill="white" stroke="#666666" points="104,-131.5 0,-131.5 0,-112.5 104,-112.5 104,-131.5"/>
<text text-anchor="middle" x="52" y="-119.5" font-family="Helvetica,sans-Serif" font-size="10.00">Idle_state::transition</text>
</a>
</g>
</g>
<!-- Node2&#45;&gt;Node3 -->
<g id="edge2" class="edge">
<title>Node2&#45;&gt;Node3</title>
<path fill="none" stroke="#63b8ff" d="M139.86,-122C128.32,-122 116.04,-122 104.47,-122"/>
<polygon fill="#63b8ff" stroke="#63b8ff" points="139.58,-125.5 149.58,-122 139.58,-118.5 139.58,-125.5"/>
</g>
<!-- Node5 -->
<g id="node5" class="node">
<title>Node5</title>
<g id="a_node5"><a xlink:href="class_motor__control__state.html#a399ab3c70b5a5d98f7b6ca5f5dfd5ecb" target="_top" xlink:title="Método para cambiar de estado.">
<polygon fill="white" stroke="#666666" points="103.5,-94 0.5,-94 0.5,-64 103.5,-64 103.5,-94"/>
<text text-anchor="start" x="8.5" y="-82" font-family="Helvetica,sans-Serif" font-size="10.00">Motor_control_state</text>
<text text-anchor="middle" x="52" y="-71" font-family="Helvetica,sans-Serif" font-size="10.00">::transition</text>
</a>
</g>
</g>
<!-- Node4&#45;&gt;Node5 -->
<g id="edge4" class="edge">
<title>Node4&#45;&gt;Node5</title>
<path fill="none" stroke="#63b8ff" d="M128.19,-79C119.96,-79 111.6,-79 103.6,-79"/>
<polygon fill="#63b8ff" stroke="#63b8ff" points="128.18,-82.5 138.18,-79 128.18,-75.5 128.18,-82.5"/>
</g>
<!-- Node6&#45;&gt;Node7 -->
<g id="edge6" class="edge">
<title>Node6&#45;&gt;Node7</title>
<path fill="none" stroke="#63b8ff" d="M139.73,-28.25C128.06,-26.46 115.64,-24.57 103.97,-22.78"/>
<polygon fill="#63b8ff" stroke="#63b8ff" points="139.19,-31.7 149.6,-29.75 140.24,-24.78 139.19,-31.7"/>
</g>
</g>
</svg>
