<?xml version="1.0" encoding="UTF-8" standalone="no"?>
<!DOCTYPE svg PUBLIC "-//W3C//DTD SVG 1.1//EN"
 "http://www.w3.org/Graphics/SVG/1.1/DTD/svg11.dtd">
<!-- Generated by graphviz version 7.0.2 (20221119.0110)
 -->
<!-- Title: Motor_control_state::enter Pages: 1 -->
<svg width="401pt" height="82pt"
 viewBox="0.00 0.00 401.00 82.00" xmlns="http://www.w3.org/2000/svg" xmlns:xlink="http://www.w3.org/1999/xlink">
<g id="graph0" class="graph" transform="scale(1 1) rotate(0) translate(4 78)">
<title>Motor_control_state::enter</title>
<!-- Node1 -->
<g id="node1" class="node">
<title>Node1</title>
<g id="a_node1"><a xlink:title="Método que se llama al ingresar al estado.">
<polygon fill="#999999" stroke="#666666" points="103,-60.5 0,-60.5 0,-30.5 103,-30.5 103,-60.5"/>
<text text-anchor="start" x="8" y="-48.5" font-family="Helvetica,sans-Serif" font-size="10.00">Motor_control_state</text>
<text text-anchor="middle" x="51.5" y="-37.5" font-family="Helvetica,sans-Serif" font-size="10.00">::enter</text>
</a>
</g>
</g>
<!-- Node2 -->
<g id="node2" class="node">
<title>Node2</title>
<g id="a_node2"><a xlink:href="class_display.html#a87d1e7bf73a1d14b5e76c9ab647a9e93" target="_top" xlink:title="Fija el el texto a actualizar, no lo imprime en pantalla. La ubicación se da con las constantes de of...">
<polygon fill="white" stroke="#666666" points="240,-74 150,-74 150,-55 240,-55 240,-74"/>
<text text-anchor="middle" x="195" y="-62" font-family="Helvetica,sans-Serif" font-size="10.00">Display::set_text</text>
</a>
</g>
</g>
<!-- Node1&#45;&gt;Node2 -->
<g id="edge1" class="edge">
<title>Node1&#45;&gt;Node2</title>
<path fill="none" stroke="#63b8ff" d="M103.19,-52.31C114.6,-53.84 126.78,-55.47 138.39,-57.03"/>
<polygon fill="#63b8ff" stroke="#63b8ff" points="137.89,-60.5 148.26,-58.36 138.82,-53.56 137.89,-60.5"/>
</g>
<!-- Node3 -->
<g id="node3" class="node">
<title>Node3</title>
<g id="a_node3"><a xlink:href="class_dual___l_e_d.html#ab1cd238e00901ca9556914a38d3a064c" target="_top" xlink:title="Enciende el LED en verde.">
<polygon fill="white" stroke="#666666" points="251,-37 139,-37 139,-18 251,-18 251,-37"/>
<text text-anchor="middle" x="195" y="-25" font-family="Helvetica,sans-Serif" font-size="10.00">Dual_LED::turn_green</text>
</a>
</g>
</g>
<!-- Node1&#45;&gt;Node3 -->
<g id="edge2" class="edge">
<title>Node1&#45;&gt;Node3</title>
<path fill="none" stroke="#63b8ff" d="M103.19,-39.05C111.14,-38.04 119.47,-36.98 127.72,-35.93"/>
<polygon fill="#63b8ff" stroke="#63b8ff" points="127.9,-39.44 137.37,-34.7 127.01,-32.49 127.9,-39.44"/>
</g>
<!-- Node4 -->
<g id="node4" class="node">
<title>Node4</title>
<g id="a_node4"><a xlink:href="class_dual___l_e_d.html#aeb163748acf071a1652c56ae1dff9d52" target="_top" xlink:title="Fija el color del led, no enciende el led,.">
<polygon fill="white" stroke="#666666" points="393,-56 287,-56 287,-37 393,-37 393,-56"/>
<text text-anchor="middle" x="340" y="-44" font-family="Helvetica,sans-Serif" font-size="10.00">Dual_LED::set_color</text>
</a>
</g>
</g>
<!-- Node3&#45;&gt;Node4 -->
<g id="edge3" class="edge">
<title>Node3&#45;&gt;Node4</title>
<path fill="none" stroke="#63b8ff" d="M251.29,-34.85C259.19,-35.9 267.38,-36.98 275.43,-38.05"/>
<polygon fill="#63b8ff" stroke="#63b8ff" points="274.8,-41.5 285.17,-39.35 275.72,-34.56 274.8,-41.5"/>
</g>
<!-- Node5 -->
<g id="node5" class="node">
<title>Node5</title>
<g id="a_node5"><a xlink:href="class_dual___l_e_d.html#a8b13294b883897eb83f91bf90a3a11cd" target="_top" xlink:title="Enciende el LED en el color actual.">
<polygon fill="white" stroke="#666666" points="389,-19 291,-19 291,0 389,0 389,-19"/>
<text text-anchor="middle" x="340" y="-7" font-family="Helvetica,sans-Serif" font-size="10.00">Dual_LED::turn_on</text>
</a>
</g>
</g>
<!-- Node3&#45;&gt;Node5 -->
<g id="edge4" class="edge">
<title>Node3&#45;&gt;Node5</title>
<path fill="none" stroke="#63b8ff" d="M251.29,-20.54C260.56,-19.37 270.22,-18.16 279.6,-16.98"/>
<polygon fill="#63b8ff" stroke="#63b8ff" points="279.86,-20.47 289.34,-15.75 278.98,-13.53 279.86,-20.47"/>
</g>
</g>
</svg>
