<?xml version="1.0" encoding="UTF-8" standalone="no"?>
<!DOCTYPE svg PUBLIC "-//W3C//DTD SVG 1.1//EN"
 "http://www.w3.org/Graphics/SVG/1.1/DTD/svg11.dtd">
<!-- Generated by graphviz version 7.0.2 (20221119.0110)
 -->
<!-- Title: Motor_control_state::update Pages: 1 -->
<svg width="404pt" height="374pt"
 viewBox="0.00 0.00 404.00 373.50" xmlns="http://www.w3.org/2000/svg" xmlns:xlink="http://www.w3.org/1999/xlink">
<g id="graph0" class="graph" transform="scale(1 1) rotate(0) translate(4 369.5)">
<title>Motor_control_state::update</title>
<!-- Node1 -->
<g id="node1" class="node">
<title>Node1</title>
<g id="a_node1"><a xlink:title="Método para actualizar el estado.">
<polygon fill="#999999" stroke="#666666" points="103,-190.5 0,-190.5 0,-160.5 103,-160.5 103,-190.5"/>
<text text-anchor="start" x="8" y="-178.5" font-family="Helvetica,sans-Serif" font-size="10.00">Motor_control_state</text>
<text text-anchor="middle" x="51.5" y="-167.5" font-family="Helvetica,sans-Serif" font-size="10.00">::update</text>
</a>
</g>
</g>
<!-- Node2 -->
<g id="node2" class="node">
<title>Node2</title>
<g id="a_node2"><a xlink:href="class_control__system.html#ab7912068a11d44b07eef3b3f56ce0598" target="_top" xlink:title="Método virtual puro para que las clases herederas implementen la actualización de observadores.">
<polygon fill="white" stroke="#666666" points="253.5,-365.5 139.5,-365.5 139.5,-335.5 253.5,-335.5 253.5,-365.5"/>
<text text-anchor="start" x="147.5" y="-353.5" font-family="Helvetica,sans-Serif" font-size="10.00">Control_system::notify</text>
<text text-anchor="middle" x="196.5" y="-342.5" font-family="Helvetica,sans-Serif" font-size="10.00">_observers</text>
</a>
</g>
</g>
<!-- Node1&#45;&gt;Node2 -->
<g id="edge1" class="edge">
<title>Node1&#45;&gt;Node2</title>
<path fill="none" stroke="#63b8ff" d="M57.55,-190.93C68.1,-220.93 95.17,-287.58 139,-326.5 139.92,-327.31 140.86,-328.1 141.84,-328.87"/>
<polygon fill="#63b8ff" stroke="#63b8ff" points="139.7,-331.64 149.96,-334.28 143.58,-325.82 139.7,-331.64"/>
</g>
<!-- Node3 -->
<g id="node3" class="node">
<title>Node3</title>
<g id="a_node3"><a xlink:href="class_display.html#a87d1e7bf73a1d14b5e76c9ab647a9e93" target="_top" xlink:title="Fija el el texto a actualizar, no lo imprime en pantalla. La ubicación se da con las constantes de of...">
<polygon fill="white" stroke="#666666" points="241.5,-317 151.5,-317 151.5,-298 241.5,-298 241.5,-317"/>
<text text-anchor="middle" x="196.5" y="-305" font-family="Helvetica,sans-Serif" font-size="10.00">Display::set_text</text>
</a>
</g>
</g>
<!-- Node1&#45;&gt;Node3 -->
<g id="edge2" class="edge">
<title>Node1&#45;&gt;Node3</title>
<path fill="none" stroke="#63b8ff" d="M61.27,-190.74C75.14,-213.64 104.16,-257.09 139,-283.5 143.66,-287.03 148.91,-290.15 154.3,-292.87"/>
<polygon fill="#63b8ff" stroke="#63b8ff" points="152.76,-296.02 163.31,-296.99 155.67,-289.65 152.76,-296.02"/>
</g>
<!-- Node4 -->
<g id="node4" class="node">
<title>Node4</title>
<g id="a_node4"><a xlink:href="class_buzzer.html#a7d0275af89ab487903752edc29a5bf2c" target="_top" xlink:title="Permuta el estado del led, si estaba encendido pasará a apagado y viceversa.">
<polygon fill="white" stroke="#666666" points="236.5,-241 156.5,-241 156.5,-222 236.5,-222 236.5,-241"/>
<text text-anchor="middle" x="196.5" y="-229" font-family="Helvetica,sans-Serif" font-size="10.00">Buzzer::toggle</text>
</a>
</g>
</g>
<!-- Node1&#45;&gt;Node4 -->
<g id="edge3" class="edge">
<title>Node1&#45;&gt;Node4</title>
<path fill="none" stroke="#63b8ff" d="M86.76,-190.9C102.55,-197.8 121.6,-205.87 139,-212.5 143.75,-214.31 148.76,-216.13 153.75,-217.88"/>
<polygon fill="#63b8ff" stroke="#63b8ff" points="152.53,-221.16 163.12,-221.1 154.8,-214.54 152.53,-221.16"/>
</g>
<!-- Node5 -->
<g id="node5" class="node">
<title>Node5</title>
<g id="a_node5"><a xlink:href="class_buzzer.html#a5809a2b7b52e74f509c31214257f3af0" target="_top" xlink:title="Apaga el buzzer.">
<polygon fill="white" stroke="#666666" points="385.5,-278 300.5,-278 300.5,-259 385.5,-259 385.5,-278"/>
<text text-anchor="middle" x="343" y="-266" font-family="Helvetica,sans-Serif" font-size="10.00">Buzzer::turn_off</text>
</a>
</g>
</g>
<!-- Node1&#45;&gt;Node5 -->
<g id="edge9" class="edge">
<title>Node1&#45;&gt;Node5</title>
<path fill="none" stroke="#63b8ff" d="M64.7,-190.74C79.96,-208.56 107.9,-237.3 139,-250.5 186.78,-270.78 246.47,-273.73 288.72,-272.55"/>
<polygon fill="#63b8ff" stroke="#63b8ff" points="288.78,-276.05 298.64,-272.17 288.51,-269.05 288.78,-276.05"/>
</g>
<!-- Node7 -->
<g id="node7" class="node">
<title>Node7</title>
<g id="a_node7"><a xlink:href="class_dual___l_e_d.html#ab1cd238e00901ca9556914a38d3a064c" target="_top" xlink:title="Enciende el LED en verde.">
<polygon fill="white" stroke="#666666" points="252.5,-204 140.5,-204 140.5,-185 252.5,-185 252.5,-204"/>
<text text-anchor="middle" x="196.5" y="-192" font-family="Helvetica,sans-Serif" font-size="10.00">Dual_LED::turn_green</text>
</a>
</g>
</g>
<!-- Node1&#45;&gt;Node7 -->
<g id="edge6" class="edge">
<title>Node1&#45;&gt;Node7</title>
<path fill="none" stroke="#63b8ff" d="M103.32,-182.25C111.69,-183.36 120.48,-184.53 129.16,-185.69"/>
<polygon fill="#63b8ff" stroke="#63b8ff" points="128.6,-189.14 138.98,-186.99 129.53,-182.2 128.6,-189.14"/>
</g>
<!-- Node10 -->
<g id="node10" class="node">
<title>Node10</title>
<g id="a_node10"><a xlink:href="class_motor.html#a9a1613b24a5dd07a8c515e82d8e0edeb" target="_top" xlink:title="Apaga el motor.">
<polygon fill="white" stroke="#666666" points="236,-93 157,-93 157,-74 236,-74 236,-93"/>
<text text-anchor="middle" x="196.5" y="-81" font-family="Helvetica,sans-Serif" font-size="10.00">Motor::turn_off</text>
</a>
</g>
</g>
<!-- Node1&#45;&gt;Node10 -->
<g id="edge10" class="edge">
<title>Node1&#45;&gt;Node10</title>
<path fill="none" stroke="#63b8ff" d="M66.72,-160.11C82.81,-143.52 110.51,-117.36 139,-101.5 141.35,-100.19 143.81,-98.96 146.34,-97.81"/>
<polygon fill="#63b8ff" stroke="#63b8ff" points="147.6,-101.07 155.54,-94.06 144.96,-94.59 147.6,-101.07"/>
</g>
<!-- Node11 -->
<g id="node11" class="node">
<title>Node11</title>
<g id="a_node11"><a xlink:href="class_motor.html#a3a871f05d0b017ff32052eb946a56f38" target="_top" xlink:title="Enciende el motor con con una duración en milisegundos duration, por defecto enciende el motor por un...">
<polygon fill="white" stroke="#666666" points="236.5,-56 156.5,-56 156.5,-37 236.5,-37 236.5,-56"/>
<text text-anchor="middle" x="196.5" y="-44" font-family="Helvetica,sans-Serif" font-size="10.00">Motor::turn_on</text>
</a>
</g>
</g>
<!-- Node1&#45;&gt;Node11 -->
<g id="edge11" class="edge">
<title>Node1&#45;&gt;Node11</title>
<path fill="none" stroke="#63b8ff" d="M60.43,-160.2C73.57,-136.3 102.12,-90.2 139,-64.5 141.09,-63.04 143.31,-61.7 145.61,-60.46"/>
<polygon fill="#63b8ff" stroke="#63b8ff" points="147.05,-63.65 154.69,-56.3 144.14,-57.28 147.05,-63.65"/>
</g>
<!-- Node12 -->
<g id="node12" class="node">
<title>Node12</title>
<g id="a_node12"><a xlink:href="class_dual___l_e_d.html#a8734a816df04661d86e3ccbf88159eb0" target="_top" xlink:title="Enciende el LED en rojo.">
<polygon fill="white" stroke="#666666" points="247,-167 146,-167 146,-148 247,-148 247,-167"/>
<text text-anchor="middle" x="196.5" y="-155" font-family="Helvetica,sans-Serif" font-size="10.00">Dual_LED::turn_red</text>
</a>
</g>
</g>
<!-- Node1&#45;&gt;Node12 -->
<g id="edge12" class="edge">
<title>Node1&#45;&gt;Node12</title>
<path fill="none" stroke="#63b8ff" d="M103.32,-169.1C113.46,-167.83 124.21,-166.47 134.64,-165.16"/>
<polygon fill="#63b8ff" stroke="#63b8ff" points="134.82,-168.67 144.3,-163.94 133.94,-161.72 134.82,-168.67"/>
</g>
<!-- Node13 -->
<g id="node13" class="node">
<title>Node13</title>
<g id="a_node13"><a xlink:href="class_dual___l_e_d.html#aabc0462521bcc08ea7f6f04642f7e89d" target="_top" xlink:title="Enciende el LED en amarillo. El comportamiento es indefinido para pines no PWM.">
<polygon fill="white" stroke="#666666" points="254,-130 139,-130 139,-111 254,-111 254,-130"/>
<text text-anchor="middle" x="196.5" y="-118" font-family="Helvetica,sans-Serif" font-size="10.00">Dual_LED::turn_yellow</text>
</a>
</g>
</g>
<!-- Node1&#45;&gt;Node13 -->
<g id="edge15" class="edge">
<title>Node1&#45;&gt;Node13</title>
<path fill="none" stroke="#63b8ff" d="M86.3,-160.15C102.15,-153.18 121.4,-145.05 139,-138.5 143.12,-136.97 147.43,-135.45 151.76,-133.98"/>
<polygon fill="#63b8ff" stroke="#63b8ff" points="152.62,-137.38 161.02,-130.92 150.42,-130.73 152.62,-137.38"/>
</g>
<!-- Node14 -->
<g id="node14" class="node">
<title>Node14</title>
<g id="a_node14"><a xlink:href="class_display.html#ad2740b779d61e461c4dcaaf34f1fcd8f" target="_top" xlink:title="Actualiza los valores en pantalla con los parámetros previamente fijados. Solo actualiza la pantalla ...">
<polygon fill="white" stroke="#666666" points="238.5,-19 154.5,-19 154.5,0 238.5,0 238.5,-19"/>
<text text-anchor="middle" x="196.5" y="-7" font-family="Helvetica,sans-Serif" font-size="10.00">Display::update</text>
</a>
</g>
</g>
<!-- Node1&#45;&gt;Node14 -->
<g id="edge18" class="edge">
<title>Node1&#45;&gt;Node14</title>
<path fill="none" stroke="#63b8ff" d="M57.33,-160.01C67.49,-129.97 93.93,-63.59 139,-27.5 140.69,-26.15 142.48,-24.9 144.34,-23.74"/>
<polygon fill="#63b8ff" stroke="#63b8ff" points="145.53,-27.07 152.82,-19.39 142.33,-20.84 145.53,-27.07"/>
</g>
<!-- Node4&#45;&gt;Node5 -->
<g id="edge4" class="edge">
<title>Node4&#45;&gt;Node5</title>
<path fill="none" stroke="#63b8ff" d="M236.22,-241.42C253.39,-245.81 273.81,-251.04 292.1,-255.72"/>
<polygon fill="#63b8ff" stroke="#63b8ff" points="291.15,-259.09 301.7,-258.18 292.88,-252.31 291.15,-259.09"/>
</g>
<!-- Node6 -->
<g id="node6" class="node">
<title>Node6</title>
<g id="a_node6"><a xlink:href="class_buzzer.html#a9ba28d9ca8b3dd80541d9a13a8b0f625" target="_top" xlink:title="Enciende el buzzer con con una duración en milisegundos duration, por defecto enciende el buzzer por ...">
<polygon fill="white" stroke="#666666" points="386,-241 300,-241 300,-222 386,-222 386,-241"/>
<text text-anchor="middle" x="343" y="-229" font-family="Helvetica,sans-Serif" font-size="10.00">Buzzer::turn_on</text>
</a>
</g>
</g>
<!-- Node4&#45;&gt;Node6 -->
<g id="edge5" class="edge">
<title>Node4&#45;&gt;Node6</title>
<path fill="none" stroke="#63b8ff" d="M236.99,-231.5C252.74,-231.5 271.12,-231.5 288.07,-231.5"/>
<polygon fill="#63b8ff" stroke="#63b8ff" points="288.01,-235 298.01,-231.5 288.01,-228 288.01,-235"/>
</g>
<!-- Node8 -->
<g id="node8" class="node">
<title>Node8</title>
<g id="a_node8"><a xlink:href="class_dual___l_e_d.html#aeb163748acf071a1652c56ae1dff9d52" target="_top" xlink:title="Fija el color del led, no enciende el led,.">
<polygon fill="white" stroke="#666666" points="396,-185 290,-185 290,-166 396,-166 396,-185"/>
<text text-anchor="middle" x="343" y="-173" font-family="Helvetica,sans-Serif" font-size="10.00">Dual_LED::set_color</text>
</a>
</g>
</g>
<!-- Node7&#45;&gt;Node8 -->
<g id="edge7" class="edge">
<title>Node7&#45;&gt;Node8</title>
<path fill="none" stroke="#63b8ff" d="M252.95,-187.21C261.27,-186.11 269.9,-184.98 278.37,-183.87"/>
<polygon fill="#63b8ff" stroke="#63b8ff" points="278.82,-187.34 288.28,-182.56 277.91,-180.4 278.82,-187.34"/>
</g>
<!-- Node9 -->
<g id="node9" class="node">
<title>Node9</title>
<g id="a_node9"><a xlink:href="class_dual___l_e_d.html#a8b13294b883897eb83f91bf90a3a11cd" target="_top" xlink:title="Enciende el LED en el color actual.">
<polygon fill="white" stroke="#666666" points="392,-148 294,-148 294,-129 392,-129 392,-148"/>
<text text-anchor="middle" x="343" y="-136" font-family="Helvetica,sans-Serif" font-size="10.00">Dual_LED::turn_on</text>
</a>
</g>
</g>
<!-- Node7&#45;&gt;Node9 -->
<g id="edge8" class="edge">
<title>Node7&#45;&gt;Node9</title>
<path fill="none" stroke="#63b8ff" d="M230.11,-184.53C238.02,-181.84 246.39,-178.76 254,-175.5 270.63,-168.37 273.4,-163.7 290,-156.5 293.18,-155.12 296.51,-153.77 299.88,-152.46"/>
<polygon fill="#63b8ff" stroke="#63b8ff" points="301.04,-155.76 309.21,-149.02 298.62,-149.2 301.04,-155.76"/>
</g>
<!-- Node12&#45;&gt;Node8 -->
<g id="edge13" class="edge">
<title>Node12&#45;&gt;Node8</title>
<path fill="none" stroke="#63b8ff" d="M247.23,-163.69C257.3,-164.95 268.02,-166.28 278.49,-167.59"/>
<polygon fill="#63b8ff" stroke="#63b8ff" points="277.86,-171.04 288.22,-168.8 278.72,-164.09 277.86,-171.04"/>
</g>
<!-- Node12&#45;&gt;Node9 -->
<g id="edge14" class="edge">
<title>Node12&#45;&gt;Node9</title>
<path fill="none" stroke="#63b8ff" d="M247.23,-150.96C258.61,-149.46 270.82,-147.86 282.57,-146.31"/>
<polygon fill="#63b8ff" stroke="#63b8ff" points="282.69,-149.83 292.14,-145.06 281.77,-142.89 282.69,-149.83"/>
</g>
<!-- Node13&#45;&gt;Node8 -->
<g id="edge16" class="edge">
<title>Node13&#45;&gt;Node8</title>
<path fill="none" stroke="#63b8ff" d="M231.57,-130.41C239.04,-132.84 246.85,-135.59 254,-138.5 270.57,-145.24 273.57,-149.42 290,-156.5 294.01,-158.23 298.23,-159.94 302.46,-161.59"/>
<polygon fill="#63b8ff" stroke="#63b8ff" points="300.88,-164.73 311.47,-164.99 303.35,-158.18 300.88,-164.73"/>
</g>
<!-- Node13&#45;&gt;Node9 -->
<g id="edge17" class="edge">
<title>Node13&#45;&gt;Node9</title>
<path fill="none" stroke="#63b8ff" d="M254.2,-127.56C263.53,-128.72 273.22,-129.93 282.62,-131.1"/>
<polygon fill="#63b8ff" stroke="#63b8ff" points="282.02,-134.56 292.38,-132.32 282.89,-127.61 282.02,-134.56"/>
</g>
</g>
</svg>
