<?xml version="1.0" encoding="UTF-8" standalone="no"?>
<!DOCTYPE svg PUBLIC "-//W3C//DTD SVG 1.1//EN"
 "http://www.w3.org/Graphics/SVG/1.1/DTD/svg11.dtd">
<!-- Generated by graphviz version 7.0.2 (20221119.0110)
 -->
<!-- Title: Dual_LED::set_color Pages: 1 -->
<svg width="404pt" height="112pt"
 viewBox="0.00 0.00 404.00 111.50" xmlns="http://www.w3.org/2000/svg" xmlns:xlink="http://www.w3.org/1999/xlink">
<g id="graph0" class="graph" transform="scale(1 1) rotate(0) translate(4 107.5)">
<title>Dual_LED::set_color</title>
<!-- Node1 -->
<g id="node1" class="node">
<title>Node1</title>
<g id="a_node1"><a xlink:title="Fija el color del led, no enciende el led,.">
<polygon fill="#999999" stroke="#666666" points="396,-66.5 290,-66.5 290,-47.5 396,-47.5 396,-66.5"/>
<text text-anchor="middle" x="343" y="-54.5" font-family="Helvetica,sans-Serif" font-size="10.00">Dual_LED::set_color</text>
</a>
</g>
</g>
<!-- Node2 -->
<g id="node2" class="node">
<title>Node2</title>
<g id="a_node2"><a xlink:href="class_dual___l_e_d.html#ab1cd238e00901ca9556914a38d3a064c" target="_top" xlink:title="Enciende el LED en verde.">
<polygon fill="white" stroke="#666666" points="252.5,-103.5 140.5,-103.5 140.5,-84.5 252.5,-84.5 252.5,-103.5"/>
<text text-anchor="middle" x="196.5" y="-91.5" font-family="Helvetica,sans-Serif" font-size="10.00">Dual_LED::turn_green</text>
</a>
</g>
</g>
<!-- Node1&#45;&gt;Node2 -->
<g id="edge1" class="edge">
<title>Node1&#45;&gt;Node2</title>
<path fill="none" stroke="#63b8ff" d="M292.21,-69.75C273.93,-74.43 253.51,-79.66 236.33,-84.06"/>
<polygon fill="#63b8ff" stroke="#63b8ff" points="292.99,-73.16 301.81,-67.29 291.25,-66.38 292.99,-73.16"/>
</g>
<!-- Node4 -->
<g id="node4" class="node">
<title>Node4</title>
<g id="a_node4"><a xlink:href="class_dual___l_e_d.html#a8734a816df04661d86e3ccbf88159eb0" target="_top" xlink:title="Enciende el LED en rojo.">
<polygon fill="white" stroke="#666666" points="247,-29.5 146,-29.5 146,-10.5 247,-10.5 247,-29.5"/>
<text text-anchor="middle" x="196.5" y="-17.5" font-family="Helvetica,sans-Serif" font-size="10.00">Dual_LED::turn_red</text>
</a>
</g>
</g>
<!-- Node1&#45;&gt;Node4 -->
<g id="edge3" class="edge">
<title>Node1&#45;&gt;Node4</title>
<path fill="none" stroke="#63b8ff" d="M292.21,-44.25C273.93,-39.57 253.51,-34.34 236.33,-29.94"/>
<polygon fill="#63b8ff" stroke="#63b8ff" points="291.25,-47.62 301.81,-46.71 292.99,-40.84 291.25,-47.62"/>
</g>
<!-- Node6 -->
<g id="node6" class="node">
<title>Node6</title>
<g id="a_node6"><a xlink:href="class_dual___l_e_d.html#aabc0462521bcc08ea7f6f04642f7e89d" target="_top" xlink:title="Enciende el LED en amarillo. El comportamiento es indefinido para pines no PWM.">
<polygon fill="white" stroke="#666666" points="254,-66.5 139,-66.5 139,-47.5 254,-47.5 254,-66.5"/>
<text text-anchor="middle" x="196.5" y="-54.5" font-family="Helvetica,sans-Serif" font-size="10.00">Dual_LED::turn_yellow</text>
</a>
</g>
</g>
<!-- Node1&#45;&gt;Node6 -->
<g id="edge6" class="edge">
<title>Node1&#45;&gt;Node6</title>
<path fill="none" stroke="#63b8ff" d="M278.34,-57C270.4,-57 262.31,-57 254.48,-57"/>
<polygon fill="#63b8ff" stroke="#63b8ff" points="278.32,-60.5 288.32,-57 278.32,-53.5 278.32,-60.5"/>
</g>
<!-- Node3 -->
<g id="node3" class="node">
<title>Node3</title>
<g id="a_node3"><a xlink:href="class_motor__control__state.html#a958e3393b9937ddea35e85efdd21e342" target="_top" xlink:title="Actualización, cambia el color del LED según el estado del motor y hace sonar la alarma....">
<polygon fill="white" stroke="#666666" points="103,-78 0,-78 0,-48 103,-48 103,-78"/>
<text text-anchor="start" x="8" y="-66" font-family="Helvetica,sans-Serif" font-size="10.00">Motor_control_state</text>
<text text-anchor="middle" x="51.5" y="-55" font-family="Helvetica,sans-Serif" font-size="10.00">::update</text>
</a>
</g>
</g>
<!-- Node2&#45;&gt;Node3 -->
<g id="edge2" class="edge">
<title>Node2&#45;&gt;Node3</title>
<path fill="none" stroke="#63b8ff" d="M138.54,-81.65C126.93,-79.14 114.78,-76.5 103.4,-74.03"/>
<polygon fill="#63b8ff" stroke="#63b8ff" points="137.47,-85 147.99,-83.7 138.96,-78.16 137.47,-85"/>
</g>
<!-- Node4&#45;&gt;Node3 -->
<g id="edge5" class="edge">
<title>Node4&#45;&gt;Node3</title>
<path fill="none" stroke="#63b8ff" d="M151.64,-33.19C136.4,-37.77 119.18,-42.95 103.42,-47.69"/>
<polygon fill="#63b8ff" stroke="#63b8ff" points="152.32,-36.64 160.88,-30.41 150.3,-29.94 152.32,-36.64"/>
</g>
<!-- Node5 -->
<g id="node5" class="node">
<title>Node5</title>
<g id="a_node5"><a xlink:href="class_motor__control__state.html#af0415304cf9bd1ac5c8de677c6156793" target="_top" xlink:title="Entrada al estado, enciende el LED de estado del motor.">
<polygon fill="white" stroke="#666666" points="103,-30 0,-30 0,0 103,0 103,-30"/>
<text text-anchor="start" x="8" y="-18" font-family="Helvetica,sans-Serif" font-size="10.00">Motor_control_state</text>
<text text-anchor="middle" x="51.5" y="-7" font-family="Helvetica,sans-Serif" font-size="10.00">::enter</text>
</a>
</g>
</g>
<!-- Node4&#45;&gt;Node5 -->
<g id="edge4" class="edge">
<title>Node4&#45;&gt;Node5</title>
<path fill="none" stroke="#63b8ff" d="M134.42,-17.86C124.11,-17.5 113.5,-17.13 103.48,-16.78"/>
<polygon fill="#63b8ff" stroke="#63b8ff" points="134.26,-21.36 144.37,-18.21 134.5,-14.36 134.26,-21.36"/>
</g>
<!-- Node6&#45;&gt;Node3 -->
<g id="edge7" class="edge">
<title>Node6&#45;&gt;Node3</title>
<path fill="none" stroke="#63b8ff" d="M127.22,-59.86C119.14,-60.2 111,-60.55 103.22,-60.87"/>
<polygon fill="#63b8ff" stroke="#63b8ff" points="127.22,-63.37 137.06,-59.45 126.92,-56.37 127.22,-63.37"/>
</g>
</g>
</svg>
