<?xml version="1.0" encoding="UTF-8" standalone="no"?>
<!DOCTYPE svg PUBLIC "-//W3C//DTD SVG 1.1//EN"
 "http://www.w3.org/Graphics/SVG/1.1/DTD/svg11.dtd">
<!-- Generated by graphviz version 7.0.2 (20221119.0110)
 -->
<!-- Title: Control_system::notify_observers Pages: 1 -->
<svg width="261pt" height="76pt"
 viewBox="0.00 0.00 261.00 75.50" xmlns="http://www.w3.org/2000/svg" xmlns:xlink="http://www.w3.org/1999/xlink">
<g id="graph0" class="graph" transform="scale(1 1) rotate(0) translate(4 71.5)">
<title>Control_system::notify_observers</title>
<!-- Node1 -->
<g id="node1" class="node">
<title>Node1</title>
<g id="a_node1"><a xlink:title="Método virtual puro para que las clases herederas implementen la actualización de observadores.">
<polygon fill="#999999" stroke="#666666" points="253,-51 139,-51 139,-21 253,-21 253,-51"/>
<text text-anchor="start" x="147" y="-39" font-family="Helvetica,sans-Serif" font-size="10.00">Control_system::notify</text>
<text text-anchor="middle" x="196" y="-28" font-family="Helvetica,sans-Serif" font-size="10.00">_observers</text>
</a>
</g>
</g>
<!-- Node2 -->
<g id="node2" class="node">
<title>Node2</title>
<g id="a_node2"><a xlink:href="class_idle__state.html#a92217c98eda8e3bd47eb3a8ff602efc2" target="_top" xlink:title="Método para actualizar el sistema cuando está en estado de reposo. Actualiza la pantalla y los observ...">
<polygon fill="white" stroke="#666666" points="98.5,-67.5 4.5,-67.5 4.5,-48.5 98.5,-48.5 98.5,-67.5"/>
<text text-anchor="middle" x="51.5" y="-55.5" font-family="Helvetica,sans-Serif" font-size="10.00">Idle_state::update</text>
</a>
</g>
</g>
<!-- Node1&#45;&gt;Node2 -->
<g id="edge1" class="edge">
<title>Node1&#45;&gt;Node2</title>
<path fill="none" stroke="#63b8ff" d="M127.39,-46.44C117.71,-47.93 107.93,-49.44 98.78,-50.85"/>
<polygon fill="#63b8ff" stroke="#63b8ff" points="127.84,-49.91 137.18,-44.93 126.77,-42.99 127.84,-49.91"/>
</g>
<!-- Node3 -->
<g id="node3" class="node">
<title>Node3</title>
<g id="a_node3"><a xlink:href="class_motor__control__state.html#a958e3393b9937ddea35e85efdd21e342" target="_top" xlink:title="Actualización, cambia el color del LED según el estado del motor y hace sonar la alarma....">
<polygon fill="white" stroke="#666666" points="103,-30 0,-30 0,0 103,0 103,-30"/>
<text text-anchor="start" x="8" y="-18" font-family="Helvetica,sans-Serif" font-size="10.00">Motor_control_state</text>
<text text-anchor="middle" x="51.5" y="-7" font-family="Helvetica,sans-Serif" font-size="10.00">::update</text>
</a>
</g>
</g>
<!-- Node1&#45;&gt;Node3 -->
<g id="edge2" class="edge">
<title>Node1&#45;&gt;Node3</title>
<path fill="none" stroke="#63b8ff" d="M127.34,-26.03C119.26,-24.84 111.11,-23.64 103.32,-22.49"/>
<polygon fill="#63b8ff" stroke="#63b8ff" points="126.78,-29.48 137.18,-27.48 127.8,-22.56 126.78,-29.48"/>
</g>
</g>
</svg>
