<?xml version="1.0" encoding="UTF-8" standalone="no"?>
<!DOCTYPE svg PUBLIC "-//W3C//DTD SVG 1.1//EN"
 "http://www.w3.org/Graphics/SVG/1.1/DTD/svg11.dtd">
<!-- Generated by graphviz version 7.0.2 (20221119.0110)
 -->
<!-- Title: Shutdown_state::transition Pages: 1 -->
<svg width="418pt" height="64pt"
 viewBox="0.00 0.00 418.00 64.00" xmlns="http://www.w3.org/2000/svg" xmlns:xlink="http://www.w3.org/1999/xlink">
<g id="graph0" class="graph" transform="scale(1 1) rotate(0) translate(4 60)">
<title>Shutdown_state::transition</title>
<!-- Node1 -->
<g id="node1" class="node">
<title>Node1</title>
<g id="a_node1"><a xlink:title="Método para cambiar de estado.">
<polygon fill="#999999" stroke="#666666" points="132,-37 0,-37 0,-18 132,-18 132,-37"/>
<text text-anchor="middle" x="66" y="-25" font-family="Helvetica,sans-Serif" font-size="10.00">Shutdown_state::transition</text>
</a>
</g>
</g>
<!-- Node2 -->
<g id="node2" class="node">
<title>Node2</title>
<g id="a_node2"><a xlink:href="class_shutdown__state.html#accbc4c856709e26453e2e23c5c1e4f8e" target="_top" xlink:title="Método que se llama al salir del estado.">
<polygon fill="white" stroke="#666666" points="276,-37 168,-37 168,-18 276,-18 276,-37"/>
<text text-anchor="middle" x="222" y="-25" font-family="Helvetica,sans-Serif" font-size="10.00">Shutdown_state::exit</text>
</a>
</g>
</g>
<!-- Node1&#45;&gt;Node2 -->
<g id="edge1" class="edge">
<title>Node1&#45;&gt;Node2</title>
<path fill="none" stroke="#63b8ff" d="M132.31,-27.5C140.24,-27.5 148.34,-27.5 156.26,-27.5"/>
<polygon fill="#63b8ff" stroke="#63b8ff" points="156.19,-31 166.19,-27.5 156.19,-24 156.19,-31"/>
</g>
<!-- Node3 -->
<g id="node3" class="node">
<title>Node3</title>
<g id="a_node3"><a xlink:href="class_display.html#ac2763dd7748bd3de2c0c24bc6d89011e" target="_top" xlink:title="Enciende la retroiluminación y limpia los caracteres de la pantalla.">
<polygon fill="white" stroke="#666666" points="404.5,-56 317.5,-56 317.5,-37 404.5,-37 404.5,-56"/>
<text text-anchor="middle" x="361" y="-44" font-family="Helvetica,sans-Serif" font-size="10.00">Display::turn_on</text>
</a>
</g>
</g>
<!-- Node2&#45;&gt;Node3 -->
<g id="edge2" class="edge">
<title>Node2&#45;&gt;Node3</title>
<path fill="none" stroke="#63b8ff" d="M276.36,-34.9C286.08,-36.25 296.23,-37.66 305.97,-39.01"/>
<polygon fill="#63b8ff" stroke="#63b8ff" points="305.28,-42.44 315.66,-40.35 306.24,-35.51 305.28,-42.44"/>
</g>
<!-- Node4 -->
<g id="node4" class="node">
<title>Node4</title>
<g id="a_node4"><a xlink:href="class_dual___l_e_d.html#a8b13294b883897eb83f91bf90a3a11cd" target="_top" xlink:title="Enciende el LED en el color actual.">
<polygon fill="white" stroke="#666666" points="410,-19 312,-19 312,0 410,0 410,-19"/>
<text text-anchor="middle" x="361" y="-7" font-family="Helvetica,sans-Serif" font-size="10.00">Dual_LED::turn_on</text>
</a>
</g>
</g>
<!-- Node2&#45;&gt;Node4 -->
<g id="edge3" class="edge">
<title>Node2&#45;&gt;Node4</title>
<path fill="none" stroke="#63b8ff" d="M276.36,-20.49C284.33,-19.44 292.58,-18.36 300.66,-17.3"/>
<polygon fill="#63b8ff" stroke="#63b8ff" points="300.96,-20.79 310.42,-16.01 300.05,-13.85 300.96,-20.79"/>
</g>
</g>
</svg>
