<?xml version="1.0" encoding="UTF-8" standalone="no"?>
<!DOCTYPE svg PUBLIC "-//W3C//DTD SVG 1.1//EN"
 "http://www.w3.org/Graphics/SVG/1.1/DTD/svg11.dtd">
<!-- Generated by graphviz version 7.0.2 (20221119.0110)
 -->
<!-- Title: System_observer Pages: 1 -->
<svg width="355pt" height="192pt"
 viewBox="0.00 0.00 354.50 192.00" xmlns="http://www.w3.org/2000/svg" xmlns:xlink="http://www.w3.org/1999/xlink">
<g id="graph0" class="graph" transform="scale(1 1) rotate(0) translate(4 188)">
<title>System_observer</title>
<!-- Node1 -->
<g id="node1" class="node">
<title>Node1</title>
<g id="a_node1"><a xlink:title="Clase interfaz para implementar observadores para sujetos de la clase Control_system.">
<polygon fill="#999999" stroke="#666666" points="214.5,-74 122.5,-74 122.5,-55 214.5,-55 214.5,-74"/>
<text text-anchor="middle" x="168.5" y="-62" font-family="Helvetica,sans-Serif" font-size="10.00">System_observer</text>
</a>
</g>
</g>
<!-- Node4 -->
<g id="node4" class="node">
<title>Node4</title>
<g id="a_node4"><a xlink:href="class_instruction__observer.html" target="_top" xlink:title="Clase heredera de System_observer, creada para observar el estado de las instrucciones.">
<polygon fill="white" stroke="#666666" points="103,-19 0,-19 0,0 103,0 103,-19"/>
<text text-anchor="middle" x="51.5" y="-7" font-family="Helvetica,sans-Serif" font-size="10.00">Instruction_observer</text>
</a>
</g>
</g>
<!-- Node1&#45;&gt;Node4 -->
<g id="edge3" class="edge">
<title>Node1&#45;&gt;Node4</title>
<path fill="none" stroke="#63b8ff" d="M138.25,-49.8C117.07,-40.2 89.39,-27.66 71.05,-19.36"/>
<polygon fill="#63b8ff" stroke="#63b8ff" points="136.72,-52.95 147.27,-53.88 139.61,-46.57 136.72,-52.95"/>
</g>
<!-- Node5 -->
<g id="node5" class="node">
<title>Node5</title>
<g id="a_node5"><a xlink:href="class_moisture__observer.html" target="_top" xlink:title="Clase heredera de System_observer, creada para observar el estado de los sensores de humedad.">
<polygon fill="white" stroke="#666666" points="216,-19 121,-19 121,0 216,0 216,-19"/>
<text text-anchor="middle" x="168.5" y="-7" font-family="Helvetica,sans-Serif" font-size="10.00">Moisture_observer</text>
</a>
</g>
</g>
<!-- Node1&#45;&gt;Node5 -->
<g id="edge4" class="edge">
<title>Node1&#45;&gt;Node5</title>
<path fill="none" stroke="#63b8ff" d="M168.5,-43.35C168.5,-35.1 168.5,-25.97 168.5,-19.44"/>
<polygon fill="#63b8ff" stroke="#63b8ff" points="165,-43.23 168.5,-53.23 172,-43.23 165,-43.23"/>
</g>
<!-- Node6 -->
<g id="node6" class="node">
<title>Node6</title>
<g id="a_node6"><a xlink:href="class_temperature__observer.html" target="_top" xlink:title="Clase heredera de System_observer, creada para observar el estado de los sensores de temperatura.">
<polygon fill="white" stroke="#666666" points="346.5,-19 234.5,-19 234.5,0 346.5,0 346.5,-19"/>
<text text-anchor="middle" x="290.5" y="-7" font-family="Helvetica,sans-Serif" font-size="10.00">Temperature_observer</text>
</a>
</g>
</g>
<!-- Node1&#45;&gt;Node6 -->
<g id="edge5" class="edge">
<title>Node1&#45;&gt;Node6</title>
<path fill="none" stroke="#63b8ff" d="M199.74,-49.93C221.86,-40.32 250.91,-27.7 270.11,-19.36"/>
<polygon fill="#63b8ff" stroke="#63b8ff" points="198.36,-46.71 190.58,-53.91 201.15,-53.13 198.36,-46.71"/>
</g>
<!-- Node2 -->
<g id="node2" class="node">
<title>Node2</title>
<g id="a_node2"><a xlink:href="class_observer.html" target="_top" xlink:title="Clase Observer, utilizada como base del observador en una implementación del patrón de diseño Observe...">
<polygon fill="white" stroke="#666666" points="196,-129 141,-129 141,-110 196,-110 196,-129"/>
<text text-anchor="middle" x="168.5" y="-117" font-family="Helvetica,sans-Serif" font-size="10.00">Observer</text>
</a>
</g>
</g>
<!-- Node2&#45;&gt;Node1 -->
<g id="edge1" class="edge">
<title>Node2&#45;&gt;Node1</title>
<path fill="none" stroke="#63b8ff" d="M168.5,-98.35C168.5,-90.1 168.5,-80.97 168.5,-74.44"/>
<polygon fill="#63b8ff" stroke="#63b8ff" points="165,-98.23 168.5,-108.23 172,-98.23 165,-98.23"/>
</g>
<!-- Node3 -->
<g id="node3" class="node">
<title>Node3</title>
<g id="a_node3"><a xlink:href="class_observer__interface.html" target="_top" xlink:title="Interfaz para implementar el patrón de diseño Observer.">
<polygon fill="white" stroke="#666666" points="217,-184 120,-184 120,-165 217,-165 217,-184"/>
<text text-anchor="middle" x="168.5" y="-172" font-family="Helvetica,sans-Serif" font-size="10.00">Observer_interface</text>
</a>
</g>
</g>
<!-- Node3&#45;&gt;Node2 -->
<g id="edge2" class="edge">
<title>Node3&#45;&gt;Node2</title>
<path fill="none" stroke="#63b8ff" d="M168.5,-153.35C168.5,-145.1 168.5,-135.97 168.5,-129.44"/>
<polygon fill="#63b8ff" stroke="#63b8ff" points="165,-153.23 168.5,-163.23 172,-153.23 165,-153.23"/>
</g>
</g>
</svg>
