<?xml version="1.0" encoding="UTF-8" standalone="no"?>
<!DOCTYPE svg PUBLIC "-//W3C//DTD SVG 1.1//EN"
 "http://www.w3.org/Graphics/SVG/1.1/DTD/svg11.dtd">
<!-- Generated by graphviz version 7.0.2 (20221119.0110)
 -->
<!-- Title: Abstract_state Pages: 1 -->
<svg width="293pt" height="82pt"
 viewBox="0.00 0.00 292.50 82.00" xmlns="http://www.w3.org/2000/svg" xmlns:xlink="http://www.w3.org/1999/xlink">
<g id="graph0" class="graph" transform="scale(1 1) rotate(0) translate(4 78)">
<title>Abstract_state</title>
<!-- Node1 -->
<g id="node1" class="node">
<title>Node1</title>
<g id="a_node1"><a xlink:title="Clase base para implementar los estados de Control_system. Cada estado se debe ocupar de su comportam...">
<polygon fill="#999999" stroke="#666666" points="168.5,-74 88.5,-74 88.5,-55 168.5,-55 168.5,-74"/>
<text text-anchor="middle" x="128.5" y="-62" font-family="Helvetica,sans-Serif" font-size="10.00">Abstract_state</text>
</a>
</g>
</g>
<!-- Node2 -->
<g id="node2" class="node">
<title>Node2</title>
<g id="a_node2"><a xlink:href="class_idle__state.html" target="_top" xlink:title="Clase para implementar el estado de reposo del sistema (Sin alarmas ni advertencias,...">
<polygon fill="white" stroke="#666666" points="59,-19 0,-19 0,0 59,0 59,-19"/>
<text text-anchor="middle" x="29.5" y="-7" font-family="Helvetica,sans-Serif" font-size="10.00">Idle_state</text>
</a>
</g>
</g>
<!-- Node1&#45;&gt;Node2 -->
<g id="edge1" class="edge">
<title>Node1&#45;&gt;Node2</title>
<path fill="none" stroke="#63b8ff" d="M101.66,-49.13C83.91,-39.63 61.2,-27.47 46.05,-19.36"/>
<polygon fill="#63b8ff" stroke="#63b8ff" points="99.9,-52.16 110.37,-53.79 103.21,-45.99 99.9,-52.16"/>
</g>
<!-- Node3 -->
<g id="node3" class="node">
<title>Node3</title>
<g id="a_node3"><a xlink:href="class_motor__control__state.html" target="_top" xlink:title=" ">
<polygon fill="white" stroke="#bfbfbf" points="180,-19 77,-19 77,0 180,0 180,-19"/>
<text text-anchor="middle" x="128.5" y="-7" font-family="Helvetica,sans-Serif" font-size="10.00">Motor_control_state</text>
</a>
</g>
</g>
<!-- Node1&#45;&gt;Node3 -->
<g id="edge2" class="edge">
<title>Node1&#45;&gt;Node3</title>
<path fill="none" stroke="#63b8ff" d="M128.5,-43.35C128.5,-35.1 128.5,-25.97 128.5,-19.44"/>
<polygon fill="#63b8ff" stroke="#63b8ff" points="125,-43.23 128.5,-53.23 132,-43.23 125,-43.23"/>
</g>
<!-- Node4 -->
<g id="node4" class="node">
<title>Node4</title>
<g id="a_node4"><a xlink:href="class_shutdown__state.html" target="_top" xlink:title=" ">
<polygon fill="white" stroke="#bfbfbf" points="284.5,-19 198.5,-19 198.5,0 284.5,0 284.5,-19"/>
<text text-anchor="middle" x="241.5" y="-7" font-family="Helvetica,sans-Serif" font-size="10.00">Shutdown_state</text>
</a>
</g>
</g>
<!-- Node1&#45;&gt;Node4 -->
<g id="edge3" class="edge">
<title>Node1&#45;&gt;Node4</title>
<path fill="none" stroke="#63b8ff" d="M157.99,-49.67C178.42,-40.09 204.99,-27.62 222.61,-19.36"/>
<polygon fill="#63b8ff" stroke="#63b8ff" points="156.61,-46.45 149.04,-53.87 159.58,-52.79 156.61,-46.45"/>
</g>
</g>
</svg>
