<?xml version="1.0" encoding="UTF-8" standalone="no"?>
<!DOCTYPE svg PUBLIC "-//W3C//DTD SVG 1.1//EN"
 "http://www.w3.org/Graphics/SVG/1.1/DTD/svg11.dtd">
<!-- Generated by graphviz version 7.0.2 (20221119.0110)
 -->
<!-- Title: C:/Users/juanh/OneDrive/Escritorio/Facultad/Beca/Proyecto/LAL_Control/include/system_settings.h Pages: 1 -->
<!--zoomable 500 -->
<svg id="main" version="1.1" xmlns="http://www.w3.org/2000/svg" xmlns:xlink="http://www.w3.org/1999/xlink" xml:space="preserve" onload="init(evt)">
<style type="text/css"><![CDATA[
.edge:hover path { stroke: red; }
.edge:hover polygon { stroke: red; fill: red; }
]]></style>
<script type="text/javascript"><![CDATA[
var edges = document.getElementsByTagName('g');
if (edges && edges.length) {
  for (var i=0;i<edges.length;i++) {
    if (edges[i].id.substr(0,4)=='edge') {
      edges[i].setAttribute('class','edge');
    }
  }
}
]]></script>
        <defs>
                <circle id="rim" cx="0" cy="0" r="7"/>
                <circle id="rim2" cx="0" cy="0" r="3.5"/>
                <g id="zoomPlus">
                        <use xlink:href="#rim" fill="#404040">
                                <set attributeName="fill" to="#808080" begin="zoomplus.mouseover" end="zoomplus.mouseout"/>
                        </use>
                        <path d="M-4,0h8M0,-4v8" fill="none" stroke="white" stroke-width="1.5" pointer-events="none"/>
                </g>
                <g id="zoomMin">
                        <use xlink:href="#rim" fill="#404040">
                                <set attributeName="fill" to="#808080" begin="zoomminus.mouseover" end="zoomminus.mouseout"/>
                        </use>
                        <path d="M-4,0h8" fill="none" stroke="white" stroke-width="1.5" pointer-events="none"/>
                </g>
                <g id="dirArrow">
                        <path fill="none" stroke="white" stroke-width="1.5" d="M0,-3.0v7 M-2.5,-0.5L0,-3.0L2.5,-0.5"/>
                </g>
               <g id="resetDef">
                       <use xlink:href="#rim2" fill="#404040">
                               <set attributeName="fill" to="#808080" begin="reset.mouseover" end="reset.mouseout"/>
                       </use>
               </g>
        </defs>

<script type="text/javascript">
var viewWidth = 897;
var viewHeight = 500;
var sectionId = 'dynsection-0';
</script>
<script xlink:href="svgpan.js"/>
<svg id="graph" class="graph">
<g id="viewport">
<title>C:/Users/juanh/OneDrive/Escritorio/Facultad/Beca/Proyecto/LAL_Control/include/system_settings.h</title>
<!-- Node1 -->
<g id="node1" class="node">
<title>Node1</title>
<g id="a_node1"><a xlink:title="Archivo para la definición de constantes del sistema.">
<polygon fill="#999999" stroke="#666666" points="644.14,-492 495.14,-492 495.14,-440 644.14,-440 644.14,-492"/>
<text text-anchor="start" x="503.14" y="-480" font-family="Helvetica,sans-Serif" font-size="10.00">C:/Users/juanh/OneDrive</text>
<text text-anchor="start" x="503.14" y="-469" font-family="Helvetica,sans-Serif" font-size="10.00">/Escritorio/Facultad/Beca</text>
<text text-anchor="start" x="503.14" y="-458" font-family="Helvetica,sans-Serif" font-size="10.00">/Proyecto/LAL_Control/include</text>
<text text-anchor="middle" x="569.64" y="-447" font-family="Helvetica,sans-Serif" font-size="10.00">/system_settings.h</text>
</a>
</g>
</g>
<!-- Node2 -->
<g id="node2" class="node">
<title>Node2</title>
<g id="a_node2"><a xlink:href="_dual___l_e_d_8h.html" target="_top" xlink:title=" ">
<polygon fill="white" stroke="#666666" points="644.14,-404 495.14,-404 495.14,-352 644.14,-352 644.14,-404"/>
<text text-anchor="start" x="503.14" y="-392" font-family="Helvetica,sans-Serif" font-size="10.00">C:/Users/juanh/OneDrive</text>
<text text-anchor="start" x="503.14" y="-381" font-family="Helvetica,sans-Serif" font-size="10.00">/Escritorio/Facultad/Beca</text>
<text text-anchor="start" x="503.14" y="-370" font-family="Helvetica,sans-Serif" font-size="10.00">/Proyecto/LAL_Control/include</text>
<text text-anchor="middle" x="569.64" y="-359" font-family="Helvetica,sans-Serif" font-size="10.00">/Dual_LED.h</text>
</a>
</g>
</g>
<!-- Node1&#45;&gt;Node2 -->
<g id="edge1" class="edge">
<title>Node1&#45;&gt;Node2</title>
<path fill="none" stroke="#63b8ff" d="M569.64,-428.26C569.64,-420.24 569.64,-411.92 569.64,-404.45"/>
<polygon fill="#63b8ff" stroke="#63b8ff" points="566.14,-428.15 569.64,-438.15 573.14,-428.15 566.14,-428.15"/>
</g>
<!-- Node8 -->
<g id="node8" class="node">
<title>Node8</title>
<g id="a_node8"><a xlink:href="main_8h_source.html" target="_top" xlink:title=" ">
<polygon fill="white" stroke="#666666" points="670.14,-46.5 489.14,-46.5 489.14,-5.5 670.14,-5.5 670.14,-46.5"/>
<text text-anchor="start" x="497.14" y="-34.5" font-family="Helvetica,sans-Serif" font-size="10.00">C:/Users/juanh/OneDrive</text>
<text text-anchor="start" x="497.14" y="-23.5" font-family="Helvetica,sans-Serif" font-size="10.00">/Escritorio/Facultad/Beca</text>
<text text-anchor="middle" x="579.64" y="-12.5" font-family="Helvetica,sans-Serif" font-size="10.00">/Proyecto/LAL_Control/include/main.h</text>
</a>
</g>
</g>
<!-- Node1&#45;&gt;Node8 -->
<g id="edge28" class="edge">
<title>Node1&#45;&gt;Node8</title>
<path fill="none" stroke="#63b8ff" d="M483.81,-456.57C325.75,-438.64 4.64,-390.04 4.64,-291 4.64,-291 4.64,-291 4.64,-201 4.64,-150.07 -13.92,-122.39 23.64,-88 61.21,-53.6 430.38,-60.26 480.64,-52 489.04,-50.62 497.76,-48.88 506.4,-46.96"/>
<polygon fill="#63b8ff" stroke="#63b8ff" points="483.07,-460.01 493.4,-457.64 483.85,-453.05 483.07,-460.01"/>
</g>
<!-- Node10 -->
<g id="node10" class="node">
<title>Node10</title>
<g id="a_node10"><a xlink:href="_moisture__observer_8h_source.html" target="_top" xlink:title=" ">
<polygon fill="white" stroke="#666666" points="722.14,-140 573.14,-140 573.14,-88 722.14,-88 722.14,-140"/>
<text text-anchor="start" x="581.14" y="-128" font-family="Helvetica,sans-Serif" font-size="10.00">C:/Users/juanh/OneDrive</text>
<text text-anchor="start" x="581.14" y="-117" font-family="Helvetica,sans-Serif" font-size="10.00">/Escritorio/Facultad/Beca</text>
<text text-anchor="start" x="581.14" y="-106" font-family="Helvetica,sans-Serif" font-size="10.00">/Proyecto/LAL_Control/include</text>
<text text-anchor="middle" x="647.64" y="-95" font-family="Helvetica,sans-Serif" font-size="10.00">/Moisture_observer.h</text>
</a>
</g>
</g>
<!-- Node1&#45;&gt;Node10 -->
<g id="edge23" class="edge">
<title>Node1&#45;&gt;Node10</title>
<path fill="none" stroke="#63b8ff" d="M623.61,-433.03C634.63,-424.65 645.37,-414.87 653.64,-404 704.25,-337.53 704.73,-310.2 719.64,-228 723.76,-205.26 729.36,-196.97 719.64,-176 713.1,-161.88 701.49,-149.84 689.49,-140.28"/>
<polygon fill="#63b8ff" stroke="#63b8ff" points="621.62,-430.15 615.57,-438.85 625.72,-435.82 621.62,-430.15"/>
</g>
<!-- Node12 -->
<g id="node12" class="node">
<title>Node12</title>
<g id="a_node12"><a xlink:href="_temperature__observer_8h.html" target="_top" xlink:title=" ">
<polygon fill="white" stroke="#666666" points="889.14,-140 740.14,-140 740.14,-88 889.14,-88 889.14,-140"/>
<text text-anchor="start" x="748.14" y="-128" font-family="Helvetica,sans-Serif" font-size="10.00">C:/Users/juanh/OneDrive</text>
<text text-anchor="start" x="748.14" y="-117" font-family="Helvetica,sans-Serif" font-size="10.00">/Escritorio/Facultad/Beca</text>
<text text-anchor="start" x="748.14" y="-106" font-family="Helvetica,sans-Serif" font-size="10.00">/Proyecto/LAL_Control/include</text>
<text text-anchor="middle" x="814.64" y="-95" font-family="Helvetica,sans-Serif" font-size="10.00">/Temperature_observer.h</text>
</a>
</g>
</g>
<!-- Node1&#45;&gt;Node12 -->
<g id="edge24" class="edge">
<title>Node1&#45;&gt;Node12</title>
<path fill="none" stroke="#63b8ff" d="M644.35,-434.15C658.62,-425.87 672.55,-415.85 683.64,-404 758.38,-324.18 795.98,-194.39 809.09,-140.11"/>
<polygon fill="#63b8ff" stroke="#63b8ff" points="642.85,-430.99 635.78,-438.88 646.23,-437.12 642.85,-430.99"/>
</g>
<!-- Node13 -->
<g id="node13" class="node">
<title>Node13</title>
<g id="a_node13"><a xlink:href="_temperature__sensor_8h.html" target="_top" xlink:title="Módulo de gestión de sensores de temperatura por interfaz OneWire.">
<polygon fill="white" stroke="#666666" points="477.14,-404 328.14,-404 328.14,-352 477.14,-352 477.14,-404"/>
<text text-anchor="start" x="336.14" y="-392" font-family="Helvetica,sans-Serif" font-size="10.00">C:/Users/juanh/OneDrive</text>
<text text-anchor="start" x="336.14" y="-381" font-family="Helvetica,sans-Serif" font-size="10.00">/Escritorio/Facultad/Beca</text>
<text text-anchor="start" x="336.14" y="-370" font-family="Helvetica,sans-Serif" font-size="10.00">/Proyecto/LAL_Control/include</text>
<text text-anchor="middle" x="402.64" y="-359" font-family="Helvetica,sans-Serif" font-size="10.00">/Temperature_sensor.h</text>
</a>
</g>
</g>
<!-- Node1&#45;&gt;Node13 -->
<g id="edge25" class="edge">
<title>Node1&#45;&gt;Node13</title>
<path fill="none" stroke="#63b8ff" d="M510.36,-434.47C491.28,-424.65 470.36,-413.87 452.07,-404.45"/>
<polygon fill="#63b8ff" stroke="#63b8ff" points="508.6,-437.5 519.09,-438.97 511.8,-431.28 508.6,-437.5"/>
</g>
<!-- Node3 -->
<g id="node3" class="node">
<title>Node3</title>
<g id="a_node3"><a xlink:href="_control__system_8h_source.html" target="_top" xlink:title=" ">
<polygon fill="white" stroke="#666666" points="569.14,-316 420.14,-316 420.14,-264 569.14,-264 569.14,-316"/>
<text text-anchor="start" x="428.14" y="-304" font-family="Helvetica,sans-Serif" font-size="10.00">C:/Users/juanh/OneDrive</text>
<text text-anchor="start" x="428.14" y="-293" font-family="Helvetica,sans-Serif" font-size="10.00">/Escritorio/Facultad/Beca</text>
<text text-anchor="start" x="428.14" y="-282" font-family="Helvetica,sans-Serif" font-size="10.00">/Proyecto/LAL_Control/include</text>
<text text-anchor="middle" x="494.64" y="-271" font-family="Helvetica,sans-Serif" font-size="10.00">/Control_system.h</text>
</a>
</g>
</g>
<!-- Node2&#45;&gt;Node3 -->
<g id="edge2" class="edge">
<title>Node2&#45;&gt;Node3</title>
<path fill="none" stroke="#63b8ff" d="M540.02,-343.04C532.3,-334.18 524.11,-324.79 516.84,-316.45"/>
<polygon fill="#63b8ff" stroke="#63b8ff" points="537.34,-345.29 546.55,-350.52 542.61,-340.68 537.34,-345.29"/>
</g>
<!-- Node4 -->
<g id="node4" class="node">
<title>Node4</title>
<g id="a_node4"><a xlink:href="_idle__state_8h.html" target="_top" xlink:title=" ">
<polygon fill="white" stroke="#666666" points="317.14,-228 168.14,-228 168.14,-176 317.14,-176 317.14,-228"/>
<text text-anchor="start" x="176.14" y="-216" font-family="Helvetica,sans-Serif" font-size="10.00">C:/Users/juanh/OneDrive</text>
<text text-anchor="start" x="176.14" y="-205" font-family="Helvetica,sans-Serif" font-size="10.00">/Escritorio/Facultad/Beca</text>
<text text-anchor="start" x="176.14" y="-194" font-family="Helvetica,sans-Serif" font-size="10.00">/Proyecto/LAL_Control/include</text>
<text text-anchor="middle" x="242.64" y="-183" font-family="Helvetica,sans-Serif" font-size="10.00">/Idle_state.h</text>
</a>
</g>
</g>
<!-- Node3&#45;&gt;Node4 -->
<g id="edge3" class="edge">
<title>Node3&#45;&gt;Node4</title>
<path fill="none" stroke="#63b8ff" d="M409.2,-259.84C379.29,-249.64 345.97,-238.26 317.03,-228.39"/>
<polygon fill="#63b8ff" stroke="#63b8ff" points="408.03,-263.14 418.62,-263.06 410.29,-256.52 408.03,-263.14"/>
</g>
<!-- Node5 -->
<g id="node5" class="node">
<title>Node5</title>
<g id="a_node5"><a xlink:href="_motor__control__state_8h_source.html" target="_top" xlink:title=" ">
<polygon fill="white" stroke="#666666" points="182.14,-140 33.14,-140 33.14,-88 182.14,-88 182.14,-140"/>
<text text-anchor="start" x="41.14" y="-128" font-family="Helvetica,sans-Serif" font-size="10.00">C:/Users/juanh/OneDrive</text>
<text text-anchor="start" x="41.14" y="-117" font-family="Helvetica,sans-Serif" font-size="10.00">/Escritorio/Facultad/Beca</text>
<text text-anchor="start" x="41.14" y="-106" font-family="Helvetica,sans-Serif" font-size="10.00">/Proyecto/LAL_Control/include</text>
<text text-anchor="middle" x="107.64" y="-95" font-family="Helvetica,sans-Serif" font-size="10.00">/Motor_control_state.h</text>
</a>
</g>
</g>
<!-- Node3&#45;&gt;Node5 -->
<g id="edge13" class="edge">
<title>Node3&#45;&gt;Node5</title>
<path fill="none" stroke="#63b8ff" d="M408.72,-263.64C297.48,-242.97 246.62,-294.07 158.64,-228 130.41,-206.8 117.42,-166.39 111.73,-140.08"/>
<polygon fill="#63b8ff" stroke="#63b8ff" points="407.69,-267 418.19,-265.56 409.09,-260.14 407.69,-267"/>
</g>
<!-- Node6 -->
<g id="node6" class="node">
<title>Node6</title>
<g id="a_node6"><a xlink:href="_shutdown__state_8h_source.html" target="_top" xlink:title=" ">
<polygon fill="white" stroke="#666666" points="349.14,-140 200.14,-140 200.14,-88 349.14,-88 349.14,-140"/>
<text text-anchor="start" x="208.14" y="-128" font-family="Helvetica,sans-Serif" font-size="10.00">C:/Users/juanh/OneDrive</text>
<text text-anchor="start" x="208.14" y="-117" font-family="Helvetica,sans-Serif" font-size="10.00">/Escritorio/Facultad/Beca</text>
<text text-anchor="start" x="208.14" y="-106" font-family="Helvetica,sans-Serif" font-size="10.00">/Proyecto/LAL_Control/include</text>
<text text-anchor="middle" x="274.64" y="-95" font-family="Helvetica,sans-Serif" font-size="10.00">/Shutdown_state.h</text>
</a>
</g>
</g>
<!-- Node3&#45;&gt;Node6 -->
<g id="edge14" class="edge">
<title>Node3&#45;&gt;Node6</title>
<path fill="none" stroke="#63b8ff" d="M448.57,-256.82C404.1,-223.2 338.43,-171.14 301.74,-140.33"/>
<polygon fill="#63b8ff" stroke="#63b8ff" points="446.42,-259.58 456.51,-262.79 450.62,-253.98 446.42,-259.58"/>
</g>
<!-- Node7 -->
<g id="node7" class="node">
<title>Node7</title>
<g id="a_node7"><a xlink:href="_instruction__observer_8h.html" target="_top" xlink:title=" ">
<polygon fill="white" stroke="#666666" points="516.14,-140 367.14,-140 367.14,-88 516.14,-88 516.14,-140"/>
<text text-anchor="start" x="375.14" y="-128" font-family="Helvetica,sans-Serif" font-size="10.00">C:/Users/juanh/OneDrive</text>
<text text-anchor="start" x="375.14" y="-117" font-family="Helvetica,sans-Serif" font-size="10.00">/Escritorio/Facultad/Beca</text>
<text text-anchor="start" x="375.14" y="-106" font-family="Helvetica,sans-Serif" font-size="10.00">/Proyecto/LAL_Control/include</text>
<text text-anchor="middle" x="441.64" y="-95" font-family="Helvetica,sans-Serif" font-size="10.00">/Instruction_observer.h</text>
</a>
</g>
</g>
<!-- Node3&#45;&gt;Node7 -->
<g id="edge8" class="edge">
<title>Node3&#45;&gt;Node7</title>
<path fill="none" stroke="#63b8ff" d="M483.66,-252.94C473.41,-219.31 458.39,-169.98 449.36,-140.33"/>
<polygon fill="#63b8ff" stroke="#63b8ff" points="480.23,-253.7 486.49,-262.25 486.93,-251.67 480.23,-253.7"/>
</g>
<!-- Node3&#45;&gt;Node8 -->
<g id="edge22" class="edge">
<title>Node3&#45;&gt;Node8</title>
<path fill="none" stroke="#63b8ff" d="M498.86,-252.55C502.01,-230.16 507.07,-201.06 514.64,-176 529.16,-127.91 554.91,-74.66 569.26,-46.67"/>
<polygon fill="#63b8ff" stroke="#63b8ff" points="495.4,-252.04 497.55,-262.42 502.34,-252.96 495.4,-252.04"/>
</g>
<!-- Node3&#45;&gt;Node10 -->
<g id="edge11" class="edge">
<title>Node3&#45;&gt;Node10</title>
<path fill="none" stroke="#63b8ff" d="M507.24,-253.41C516.96,-229.56 532.2,-198.51 552.64,-176 565.29,-162.07 581.81,-150.01 597.52,-140.37"/>
<polygon fill="#63b8ff" stroke="#63b8ff" points="504.1,-251.81 503.71,-262.4 510.62,-254.36 504.1,-251.81"/>
</g>
<!-- Node11 -->
<g id="node11" class="node">
<title>Node11</title>
<g id="a_node11"><a xlink:href="_system__observer_8h.html" target="_top" xlink:title=" ">
<polygon fill="white" stroke="#666666" points="710.14,-228 561.14,-228 561.14,-176 710.14,-176 710.14,-228"/>
<text text-anchor="start" x="569.14" y="-216" font-family="Helvetica,sans-Serif" font-size="10.00">C:/Users/juanh/OneDrive</text>
<text text-anchor="start" x="569.14" y="-205" font-family="Helvetica,sans-Serif" font-size="10.00">/Escritorio/Facultad/Beca</text>
<text text-anchor="start" x="569.14" y="-194" font-family="Helvetica,sans-Serif" font-size="10.00">/Proyecto/LAL_Control/include</text>
<text text-anchor="middle" x="635.64" y="-183" font-family="Helvetica,sans-Serif" font-size="10.00">/System_observer.h</text>
</a>
</g>
</g>
<!-- Node3&#45;&gt;Node11 -->
<g id="edge15" class="edge">
<title>Node3&#45;&gt;Node11</title>
<path fill="none" stroke="#63b8ff" d="M539.29,-257.79C554.71,-248.15 572.01,-237.66 587.68,-228.45"/>
<polygon fill="#63b8ff" stroke="#63b8ff" points="537.84,-254.57 531.25,-262.86 541.57,-260.49 537.84,-254.57"/>
</g>
<!-- Node3&#45;&gt;Node12 -->
<g id="edge21" class="edge">
<title>Node3&#45;&gt;Node12</title>
<path fill="none" stroke="#63b8ff" d="M580.71,-278.22C624.87,-269.7 677.98,-254.6 719.64,-228 754.64,-205.66 783.38,-166.34 799.78,-140.48"/>
<polygon fill="#63b8ff" stroke="#63b8ff" points="580.08,-274.78 570.88,-280.03 581.35,-281.66 580.08,-274.78"/>
</g>
<!-- Node4&#45;&gt;Node5 -->
<g id="edge4" class="edge">
<title>Node4&#45;&gt;Node5</title>
<path fill="none" stroke="#63b8ff" d="M187.13,-169.79C171.61,-160.15 155.23,-149.66 141.37,-140.45"/>
<polygon fill="#63b8ff" stroke="#63b8ff" points="185.01,-172.6 195.36,-174.87 188.69,-166.64 185.01,-172.6"/>
</g>
<!-- Node4&#45;&gt;Node6 -->
<g id="edge6" class="edge">
<title>Node4&#45;&gt;Node6</title>
<path fill="none" stroke="#63b8ff" d="M256,-165.1C259.08,-156.82 262.29,-148.18 265.17,-140.45"/>
<polygon fill="#63b8ff" stroke="#63b8ff" points="252.8,-163.65 252.6,-174.24 259.36,-166.09 252.8,-163.65"/>
</g>
<!-- Node5&#45;&gt;Node4 -->
<g id="edge5" class="edge">
<title>Node5&#45;&gt;Node4</title>
<path fill="none" stroke="#63b8ff" d="M163.35,-146.33C178.87,-155.98 195.24,-166.47 209.08,-175.66"/>
<polygon fill="#63b8ff" stroke="#63b8ff" points="165.46,-143.52 155.11,-141.25 161.78,-149.48 165.46,-143.52"/>
</g>
<!-- Node6&#45;&gt;Node3 -->
<g id="edge7" class="edge">
<title>Node6&#45;&gt;Node3</title>
<path fill="none" stroke="#63b8ff" d="M320.75,-147.21C365.24,-180.85 430.9,-232.9 467.58,-263.7"/>
<polygon fill="#63b8ff" stroke="#63b8ff" points="322.9,-144.45 312.81,-141.24 318.7,-150.05 322.9,-144.45"/>
</g>
<!-- Node7&#45;&gt;Node8 -->
<g id="edge9" class="edge">
<title>Node7&#45;&gt;Node8</title>
<path fill="none" stroke="#63b8ff" d="M491.82,-81.73C510.43,-70.13 531.02,-57.3 547.58,-46.98"/>
<polygon fill="#63b8ff" stroke="#63b8ff" points="490.22,-78.6 483.58,-86.86 493.92,-84.54 490.22,-78.6"/>
</g>
<!-- Node9 -->
<g id="node9" class="node">
<title>Node9</title>
<g id="a_node9"><a xlink:href="_instruction__observer_8cpp.html" target="_top" xlink:title=" ">
<polygon fill="white" stroke="#666666" points="471.14,-52 340.14,-52 340.14,0 471.14,0 471.14,-52"/>
<text text-anchor="start" x="348.14" y="-40" font-family="Helvetica,sans-Serif" font-size="10.00">C:/Users/juanh/OneDrive</text>
<text text-anchor="start" x="348.14" y="-29" font-family="Helvetica,sans-Serif" font-size="10.00">/Escritorio/Facultad/Beca</text>
<text text-anchor="start" x="348.14" y="-18" font-family="Helvetica,sans-Serif" font-size="10.00">/Proyecto/LAL_Control/src</text>
<text text-anchor="middle" x="405.64" y="-7" font-family="Helvetica,sans-Serif" font-size="10.00">/Instruction_observer.cpp</text>
</a>
</g>
</g>
<!-- Node7&#45;&gt;Node9 -->
<g id="edge10" class="edge">
<title>Node7&#45;&gt;Node9</title>
<path fill="none" stroke="#63b8ff" d="M426.61,-77.1C423.15,-68.82 419.53,-60.18 416.29,-52.45"/>
<polygon fill="#63b8ff" stroke="#63b8ff" points="423.36,-78.39 430.45,-86.27 429.82,-75.69 423.36,-78.39"/>
</g>
<!-- Node10&#45;&gt;Node8 -->
<g id="edge12" class="edge">
<title>Node10&#45;&gt;Node8</title>
<path fill="none" stroke="#63b8ff" d="M620.62,-78.83C612.08,-68.03 602.93,-56.45 595.44,-46.98"/>
<polygon fill="#63b8ff" stroke="#63b8ff" points="617.72,-80.8 626.67,-86.48 623.21,-76.46 617.72,-80.8"/>
</g>
<!-- Node11&#45;&gt;Node3 -->
<g id="edge16" class="edge">
<title>Node11&#45;&gt;Node3</title>
<path fill="none" stroke="#63b8ff" d="M590.8,-234.33C575.36,-243.98 558.05,-254.47 542.4,-263.66"/>
<polygon fill="#63b8ff" stroke="#63b8ff" points="592.25,-237.55 598.85,-229.26 588.52,-231.63 592.25,-237.55"/>
</g>
<!-- Node11&#45;&gt;Node7 -->
<g id="edge17" class="edge">
<title>Node11&#45;&gt;Node7</title>
<path fill="none" stroke="#63b8ff" d="M567.74,-170.9C545.27,-160.94 520.5,-149.96 498.91,-140.39"/>
<polygon fill="#63b8ff" stroke="#63b8ff" points="566.28,-174.08 576.84,-174.93 569.11,-167.68 566.28,-174.08"/>
</g>
<!-- Node11&#45;&gt;Node10 -->
<g id="edge18" class="edge">
<title>Node11&#45;&gt;Node10</title>
<path fill="none" stroke="#63b8ff" d="M640.73,-164.54C641.86,-156.43 643.03,-148.01 644.09,-140.45"/>
<polygon fill="#63b8ff" stroke="#63b8ff" points="637.3,-163.78 639.38,-174.16 644.23,-164.74 637.3,-163.78"/>
</g>
<!-- Node11&#45;&gt;Node12 -->
<g id="edge19" class="edge">
<title>Node11&#45;&gt;Node12</title>
<path fill="none" stroke="#63b8ff" d="M698.62,-170.74C719.22,-160.85 741.88,-149.96 761.66,-140.45"/>
<polygon fill="#63b8ff" stroke="#63b8ff" points="697.24,-167.52 689.74,-175.01 700.27,-173.83 697.24,-167.52"/>
</g>
<!-- Node12&#45;&gt;Node8 -->
<g id="edge20" class="edge">
<title>Node12&#45;&gt;Node8</title>
<path fill="none" stroke="#63b8ff" d="M734.51,-83.68C701.42,-71.57 663.91,-57.84 634.09,-46.93"/>
<polygon fill="#63b8ff" stroke="#63b8ff" points="733.07,-86.88 743.66,-87.03 735.48,-80.3 733.07,-86.88"/>
</g>
<!-- Node13&#45;&gt;Node3 -->
<g id="edge26" class="edge">
<title>Node13&#45;&gt;Node3</title>
<path fill="none" stroke="#63b8ff" d="M438.08,-343.87C447.82,-334.77 458.22,-325.05 467.41,-316.45"/>
<polygon fill="#63b8ff" stroke="#63b8ff" points="435.77,-341.24 430.85,-350.63 440.55,-346.36 435.77,-341.24"/>
</g>
<!-- Node14 -->
<g id="node14" class="node">
<title>Node14</title>
<g id="a_node14"><a xlink:href="_temperature__sensor_8cpp.html" target="_top" xlink:title=" ">
<polygon fill="white" stroke="#666666" points="402.14,-316 271.14,-316 271.14,-264 402.14,-264 402.14,-316"/>
<text text-anchor="start" x="279.14" y="-304" font-family="Helvetica,sans-Serif" font-size="10.00">C:/Users/juanh/OneDrive</text>
<text text-anchor="start" x="279.14" y="-293" font-family="Helvetica,sans-Serif" font-size="10.00">/Escritorio/Facultad/Beca</text>
<text text-anchor="start" x="279.14" y="-282" font-family="Helvetica,sans-Serif" font-size="10.00">/Proyecto/LAL_Control/src</text>
<text text-anchor="middle" x="336.64" y="-271" font-family="Helvetica,sans-Serif" font-size="10.00">/Temperature_sensor.cpp</text>
</a>
</g>
</g>
<!-- Node13&#45;&gt;Node14 -->
<g id="edge27" class="edge">
<title>Node13&#45;&gt;Node14</title>
<path fill="none" stroke="#63b8ff" d="M376.37,-342.76C369.63,-333.99 362.5,-324.7 356.17,-316.45"/>
<polygon fill="#63b8ff" stroke="#63b8ff" points="373.41,-344.66 382.27,-350.46 378.96,-340.4 373.41,-344.66"/>
</g>
</g>
</svg>
        <g id="navigator" transform="translate(0 0)" fill="#404254">
                <rect fill="#f2f5e9" fill-opacity="0.5" stroke="#606060" stroke-width=".5" x="0" y="0" width="60" height="60"/>
                <use id="zoomplus" xlink:href="#zoomPlus" x="17" y="9" onmousedown="handleZoom(evt,'in')"/>
                <use id="zoomminus" xlink:href="#zoomMin" x="42" y="9" onmousedown="handleZoom(evt,'out')"/>
                <use id="reset" xlink:href="#resetDef" x="30" y="36" onmousedown="handleReset()"/>
                <g id="arrowUp" xlink:href="#dirArrow" transform="translate(30 24)" onmousedown="handlePan(0,-1)">
                  <use xlink:href="#rim" fill="#404040">
                        <set attributeName="fill" to="#808080" begin="arrowUp.mouseover" end="arrowUp.mouseout"/>
                  </use>
                  <path fill="none" stroke="white" stroke-width="1.5" d="M0,-3.0v7 M-2.5,-0.5L0,-3.0L2.5,-0.5"/>
                </g>
                <g id="arrowRight" xlink:href="#dirArrow" transform="rotate(90) translate(36 -43)" onmousedown="handlePan(1,0)">
                  <use xlink:href="#rim" fill="#404040">
                        <set attributeName="fill" to="#808080" begin="arrowRight.mouseover" end="arrowRight.mouseout"/>
                  </use>
                  <path fill="none" stroke="white" stroke-width="1.5" d="M0,-3.0v7 M-2.5,-0.5L0,-3.0L2.5,-0.5"/>
                </g>
                <g id="arrowDown" xlink:href="#dirArrow" transform="rotate(180) translate(-30 -48)" onmousedown="handlePan(0,1)">
                  <use xlink:href="#rim" fill="#404040">
                        <set attributeName="fill" to="#808080" begin="arrowDown.mouseover" end="arrowDown.mouseout"/>
                  </use>
                  <path fill="none" stroke="white" stroke-width="1.5" d="M0,-3.0v7 M-2.5,-0.5L0,-3.0L2.5,-0.5"/>
                </g>
                <g id="arrowLeft" xlink:href="#dirArrow" transform="rotate(270) translate(-36 17)" onmousedown="handlePan(-1,0)">
                  <use xlink:href="#rim" fill="#404040">
                        <set attributeName="fill" to="#808080" begin="arrowLeft.mouseover" end="arrowLeft.mouseout"/>
                  </use>
                  <path fill="none" stroke="white" stroke-width="1.5" d="M0,-3.0v7 M-2.5,-0.5L0,-3.0L2.5,-0.5"/>
                </g>
        </g>
        <svg viewBox="0 0 15 15" width="100%" height="30px" preserveAspectRatio="xMaxYMin meet">
         <g id="arrow_out" transform="scale(0.3 0.3)">
          <a xlink:href="system__settings_8h__dep__incl_org.svg" target="_base">
           <rect id="button" ry="5" rx="5" y="6" x="6" height="38" width="38"
                fill="#f2f5e9" fill-opacity="0.5" stroke="#606060" stroke-width="1.0"/>
           <path id="arrow"
             d="M 11.500037,31.436501 C 11.940474,20.09759 22.043105,11.32322 32.158766,21.979434 L 37.068811,17.246167 C 37.068811,17.246167 37.088388,32 37.088388,32 L 22.160133,31.978069 C 22.160133,31.978069 26.997745,27.140456 26.997745,27.140456 C 18.528582,18.264221 13.291696,25.230495 11.500037,31.436501 z"
             style="fill:#404040;"/>
          </a>
         </g>
        </svg>
</svg>
