<?xml version="1.0" encoding="UTF-8" standalone="no"?>
<!DOCTYPE svg PUBLIC "-//W3C//DTD SVG 1.1//EN"
 "http://www.w3.org/Graphics/SVG/1.1/DTD/svg11.dtd">
<!-- Generated by graphviz version 7.0.2 (20221119.0110)
 -->
<!-- Title: C:/Users/juanh/OneDrive/Escritorio/Facultad/Beca/Proyecto/LAL_Control/include/system_settings.h Pages: 1 -->
<svg width="917pt" height="533pt"
 viewBox="0.00 0.00 917.10 533.00" xmlns="http://www.w3.org/2000/svg" xmlns:xlink="http://www.w3.org/1999/xlink">
<g id="graph0" class="graph" transform="scale(1 1) rotate(0) translate(4 529)">
<title>C:/Users/juanh/OneDrive/Escritorio/Facultad/Beca/Proyecto/LAL_Control/include/system_settings.h</title>
<!-- Node1 -->
<g id="node1" class="node">
<title>Node1</title>
<g id="a_node1"><a xlink:title="Archivo para la definición de constantes del sistema.">
<polygon fill="#999999" stroke="#666666" points="646.1,-525 497.1,-525 497.1,-473 646.1,-473 646.1,-525"/>
<text text-anchor="start" x="505.1" y="-513" font-family="Helvetica,sans-Serif" font-size="10.00">C:/Users/juanh/OneDrive</text>
<text text-anchor="start" x="505.1" y="-502" font-family="Helvetica,sans-Serif" font-size="10.00">/Escritorio/Facultad/Beca</text>
<text text-anchor="start" x="505.1" y="-491" font-family="Helvetica,sans-Serif" font-size="10.00">/Proyecto/LAL_Control/include</text>
<text text-anchor="middle" x="571.6" y="-480" font-family="Helvetica,sans-Serif" font-size="10.00">/system_settings.h</text>
</a>
</g>
</g>
<!-- Node2 -->
<g id="node2" class="node">
<title>Node2</title>
<g id="a_node2"><a xlink:href="_cooler_8h.html" target="_top" xlink:title="Controlador de ventilador de 12 volts y 5 milímteros.">
<polygon fill="white" stroke="#666666" points="563.1,-437 414.1,-437 414.1,-385 563.1,-385 563.1,-437"/>
<text text-anchor="start" x="422.1" y="-425" font-family="Helvetica,sans-Serif" font-size="10.00">C:/Users/juanh/OneDrive</text>
<text text-anchor="start" x="422.1" y="-414" font-family="Helvetica,sans-Serif" font-size="10.00">/Escritorio/Facultad/Beca</text>
<text text-anchor="start" x="422.1" y="-403" font-family="Helvetica,sans-Serif" font-size="10.00">/Proyecto/LAL_Control/include</text>
<text text-anchor="middle" x="488.6" y="-392" font-family="Helvetica,sans-Serif" font-size="10.00">/drivers/Cooler.h</text>
</a>
</g>
</g>
<!-- Node1&#45;&gt;Node2 -->
<g id="edge1" class="edge">
<title>Node1&#45;&gt;Node2</title>
<path fill="none" stroke="#63b8ff" d="M539.36,-464.59C530.65,-455.57 521.38,-445.96 513.17,-437.45"/>
<polygon fill="#63b8ff" stroke="#63b8ff" points="536.63,-466.81 546.1,-471.57 541.67,-461.95 536.63,-466.81"/>
</g>
<!-- Node7 -->
<g id="node7" class="node">
<title>Node7</title>
<g id="a_node7"><a xlink:href="main_8h.html" target="_top" xlink:title="Archivo principal del programa.">
<polygon fill="white" stroke="#666666" points="692.1,-52 511.1,-52 511.1,-11 692.1,-11 692.1,-52"/>
<text text-anchor="start" x="519.1" y="-40" font-family="Helvetica,sans-Serif" font-size="10.00">C:/Users/juanh/OneDrive</text>
<text text-anchor="start" x="519.1" y="-29" font-family="Helvetica,sans-Serif" font-size="10.00">/Escritorio/Facultad/Beca</text>
<text text-anchor="middle" x="601.6" y="-18" font-family="Helvetica,sans-Serif" font-size="10.00">/Proyecto/LAL_Control/include/main.h</text>
</a>
</g>
</g>
<!-- Node1&#45;&gt;Node7 -->
<g id="edge28" class="edge">
<title>Node1&#45;&gt;Node7</title>
<path fill="none" stroke="#63b8ff" d="M485.77,-489.57C327.71,-471.64 6.6,-423.04 6.6,-324 6.6,-324 6.6,-324 6.6,-228.5 6.6,-170.33 -16.95,-138.66 25.6,-99 64.48,-62.76 450.38,-72.89 502.6,-63 516.38,-60.39 530.96,-56.54 544.56,-52.45"/>
<polygon fill="#63b8ff" stroke="#63b8ff" points="485.03,-493.01 495.36,-490.64 485.81,-486.05 485.03,-493.01"/>
</g>
<!-- Node10 -->
<g id="node10" class="node">
<title>Node10</title>
<g id="a_node10"><a xlink:href="_moisture__observer_8h.html" target="_top" xlink:title="Observador del sensor de temperatura.">
<polygon fill="white" stroke="#666666" points="742.1,-162 593.1,-162 593.1,-99 742.1,-99 742.1,-162"/>
<text text-anchor="start" x="601.1" y="-150" font-family="Helvetica,sans-Serif" font-size="10.00">C:/Users/juanh/OneDrive</text>
<text text-anchor="start" x="601.1" y="-139" font-family="Helvetica,sans-Serif" font-size="10.00">/Escritorio/Facultad/Beca</text>
<text text-anchor="start" x="601.1" y="-128" font-family="Helvetica,sans-Serif" font-size="10.00">/Proyecto/LAL_Control/include</text>
<text text-anchor="start" x="601.1" y="-117" font-family="Helvetica,sans-Serif" font-size="10.00">/observer_pattern/observers</text>
<text text-anchor="middle" x="667.6" y="-106" font-family="Helvetica,sans-Serif" font-size="10.00">/Moisture_observer.h</text>
</a>
</g>
</g>
<!-- Node1&#45;&gt;Node10 -->
<g id="edge29" class="edge">
<title>Node1&#45;&gt;Node10</title>
<path fill="none" stroke="#63b8ff" d="M657.21,-487.56C688.4,-479.15 720.64,-464.05 739.6,-437 800.56,-350.01 782.19,-295.31 739.6,-198 733.66,-184.44 723.45,-172.41 712.55,-162.45"/>
<polygon fill="#63b8ff" stroke="#63b8ff" points="656.58,-484.11 647.71,-489.91 658.25,-490.91 656.58,-484.11"/>
</g>
<!-- Node12 -->
<g id="node12" class="node">
<title>Node12</title>
<g id="a_node12"><a xlink:href="_temperature__observer_8h.html" target="_top" xlink:title="Observador del sensor de temperatura.">
<polygon fill="white" stroke="#666666" points="909.1,-162 760.1,-162 760.1,-99 909.1,-99 909.1,-162"/>
<text text-anchor="start" x="768.1" y="-150" font-family="Helvetica,sans-Serif" font-size="10.00">C:/Users/juanh/OneDrive</text>
<text text-anchor="start" x="768.1" y="-139" font-family="Helvetica,sans-Serif" font-size="10.00">/Escritorio/Facultad/Beca</text>
<text text-anchor="start" x="768.1" y="-128" font-family="Helvetica,sans-Serif" font-size="10.00">/Proyecto/LAL_Control/include</text>
<text text-anchor="start" x="768.1" y="-117" font-family="Helvetica,sans-Serif" font-size="10.00">/observer_pattern/observers</text>
<text text-anchor="middle" x="834.6" y="-106" font-family="Helvetica,sans-Serif" font-size="10.00">/Temperature_observer.h</text>
</a>
</g>
</g>
<!-- Node1&#45;&gt;Node12 -->
<g id="edge30" class="edge">
<title>Node1&#45;&gt;Node12</title>
<path fill="none" stroke="#63b8ff" d="M657.68,-490.06C696.1,-482.24 739.04,-466.91 767.6,-437 840.73,-360.42 841.32,-223.25 837.46,-162.23"/>
<polygon fill="#63b8ff" stroke="#63b8ff" points="657.13,-486.6 647.94,-491.88 658.42,-493.48 657.13,-486.6"/>
</g>
<!-- Node13 -->
<g id="node13" class="node">
<title>Node13</title>
<g id="a_node13"><a xlink:href="_dual___l_e_d_8h.html" target="_top" xlink:title="Controlador de LED RG.">
<polygon fill="white" stroke="#666666" points="730.1,-437 581.1,-437 581.1,-385 730.1,-385 730.1,-437"/>
<text text-anchor="start" x="589.1" y="-425" font-family="Helvetica,sans-Serif" font-size="10.00">C:/Users/juanh/OneDrive</text>
<text text-anchor="start" x="589.1" y="-414" font-family="Helvetica,sans-Serif" font-size="10.00">/Escritorio/Facultad/Beca</text>
<text text-anchor="start" x="589.1" y="-403" font-family="Helvetica,sans-Serif" font-size="10.00">/Proyecto/LAL_Control/include</text>
<text text-anchor="middle" x="655.6" y="-392" font-family="Helvetica,sans-Serif" font-size="10.00">/drivers/Dual_LED.h</text>
</a>
</g>
</g>
<!-- Node1&#45;&gt;Node13 -->
<g id="edge23" class="edge">
<title>Node1&#45;&gt;Node13</title>
<path fill="none" stroke="#63b8ff" d="M604.23,-464.59C613.04,-455.57 622.43,-445.96 630.74,-437.45"/>
<polygon fill="#63b8ff" stroke="#63b8ff" points="601.89,-461.98 597.41,-471.58 606.9,-466.87 601.89,-461.98"/>
</g>
<!-- Node14 -->
<g id="node14" class="node">
<title>Node14</title>
<g id="a_node14"><a xlink:href="_temperature__sensor_8h.html" target="_top" xlink:title="Controlador para sensor de temperatura DS18B20.">
<polygon fill="white" stroke="#666666" points="396.1,-437 247.1,-437 247.1,-385 396.1,-385 396.1,-437"/>
<text text-anchor="start" x="255.1" y="-425" font-family="Helvetica,sans-Serif" font-size="10.00">C:/Users/juanh/OneDrive</text>
<text text-anchor="start" x="255.1" y="-414" font-family="Helvetica,sans-Serif" font-size="10.00">/Escritorio/Facultad/Beca</text>
<text text-anchor="start" x="255.1" y="-403" font-family="Helvetica,sans-Serif" font-size="10.00">/Proyecto/LAL_Control/include</text>
<text text-anchor="middle" x="321.6" y="-392" font-family="Helvetica,sans-Serif" font-size="10.00">/drivers/Temperature_sensor.h</text>
</a>
</g>
</g>
<!-- Node1&#45;&gt;Node14 -->
<g id="edge25" class="edge">
<title>Node1&#45;&gt;Node14</title>
<path fill="none" stroke="#63b8ff" d="M486.84,-468.84C457.17,-458.64 424.11,-447.26 395.4,-437.39"/>
<polygon fill="#63b8ff" stroke="#63b8ff" points="485.58,-472.11 496.18,-472.05 487.86,-465.49 485.58,-472.11"/>
</g>
<!-- Node3 -->
<g id="node3" class="node">
<title>Node3</title>
<g id="a_node3"><a xlink:href="_control__system_8h_source.html" target="_top" xlink:title=" ">
<polygon fill="white" stroke="#666666" points="565.1,-349 416.1,-349 416.1,-297 565.1,-297 565.1,-349"/>
<text text-anchor="start" x="424.1" y="-337" font-family="Helvetica,sans-Serif" font-size="10.00">C:/Users/juanh/OneDrive</text>
<text text-anchor="start" x="424.1" y="-326" font-family="Helvetica,sans-Serif" font-size="10.00">/Escritorio/Facultad/Beca</text>
<text text-anchor="start" x="424.1" y="-315" font-family="Helvetica,sans-Serif" font-size="10.00">/Proyecto/LAL_Control/include</text>
<text text-anchor="middle" x="490.6" y="-304" font-family="Helvetica,sans-Serif" font-size="10.00">/Control_system.h</text>
</a>
</g>
</g>
<!-- Node2&#45;&gt;Node3 -->
<g id="edge2" class="edge">
<title>Node2&#45;&gt;Node3</title>
<path fill="none" stroke="#63b8ff" d="M489.45,-373.26C489.64,-365.24 489.83,-356.92 490.01,-349.45"/>
<polygon fill="#63b8ff" stroke="#63b8ff" points="485.96,-373.07 489.22,-383.15 492.96,-373.23 485.96,-373.07"/>
</g>
<!-- Node4 -->
<g id="node4" class="node">
<title>Node4</title>
<g id="a_node4"><a xlink:href="_idle__state_8h.html" target="_top" xlink:title="Clase de estado de reposo.">
<polygon fill="white" stroke="#666666" points="351.6,-261 193.6,-261 193.6,-198 351.6,-198 351.6,-261"/>
<text text-anchor="start" x="201.6" y="-249" font-family="Helvetica,sans-Serif" font-size="10.00">C:/Users/juanh/OneDrive</text>
<text text-anchor="start" x="201.6" y="-238" font-family="Helvetica,sans-Serif" font-size="10.00">/Escritorio/Facultad/Beca</text>
<text text-anchor="start" x="201.6" y="-227" font-family="Helvetica,sans-Serif" font-size="10.00">/Proyecto/LAL_Control/include</text>
<text text-anchor="start" x="201.6" y="-216" font-family="Helvetica,sans-Serif" font-size="10.00">/machine_state_pattern/machine</text>
<text text-anchor="middle" x="272.6" y="-205" font-family="Helvetica,sans-Serif" font-size="10.00">_states/Idle_state.h</text>
</a>
</g>
</g>
<!-- Node3&#45;&gt;Node4 -->
<g id="edge3" class="edge">
<title>Node3&#45;&gt;Node4</title>
<path fill="none" stroke="#63b8ff" d="M419.31,-292.08C395.87,-282.24 369.78,-271.29 346.17,-261.38"/>
<polygon fill="#63b8ff" stroke="#63b8ff" points="417.9,-295.28 428.48,-295.93 420.61,-288.83 417.9,-295.28"/>
</g>
<!-- Node5 -->
<g id="node5" class="node">
<title>Node5</title>
<g id="a_node5"><a xlink:href="_motor__control__state_8h.html" target="_top" xlink:title="Clase de estado de control del motor.">
<polygon fill="white" stroke="#666666" points="192.6,-162 34.6,-162 34.6,-99 192.6,-99 192.6,-162"/>
<text text-anchor="start" x="42.6" y="-150" font-family="Helvetica,sans-Serif" font-size="10.00">C:/Users/juanh/OneDrive</text>
<text text-anchor="start" x="42.6" y="-139" font-family="Helvetica,sans-Serif" font-size="10.00">/Escritorio/Facultad/Beca</text>
<text text-anchor="start" x="42.6" y="-128" font-family="Helvetica,sans-Serif" font-size="10.00">/Proyecto/LAL_Control/include</text>
<text text-anchor="start" x="42.6" y="-117" font-family="Helvetica,sans-Serif" font-size="10.00">/machine_state_pattern/machine</text>
<text text-anchor="middle" x="113.6" y="-106" font-family="Helvetica,sans-Serif" font-size="10.00">_states/Motor_control_state.h</text>
</a>
</g>
</g>
<!-- Node3&#45;&gt;Node5 -->
<g id="edge8" class="edge">
<title>Node3&#45;&gt;Node5</title>
<path fill="none" stroke="#63b8ff" d="M404.62,-296.83C306.1,-277.66 263.37,-316.64 184.6,-261 151.09,-237.33 131.74,-192.66 121.93,-162.49"/>
<polygon fill="#63b8ff" stroke="#63b8ff" points="403.63,-300.2 414.14,-298.85 405.09,-293.35 403.63,-300.2"/>
</g>
<!-- Node6 -->
<g id="node6" class="node">
<title>Node6</title>
<g id="a_node6"><a xlink:href="_shutdown__state_8h.html" target="_top" xlink:title="Clase de estado de apagado del sistema.">
<polygon fill="white" stroke="#666666" points="368.6,-162 210.6,-162 210.6,-99 368.6,-99 368.6,-162"/>
<text text-anchor="start" x="218.6" y="-150" font-family="Helvetica,sans-Serif" font-size="10.00">C:/Users/juanh/OneDrive</text>
<text text-anchor="start" x="218.6" y="-139" font-family="Helvetica,sans-Serif" font-size="10.00">/Escritorio/Facultad/Beca</text>
<text text-anchor="start" x="218.6" y="-128" font-family="Helvetica,sans-Serif" font-size="10.00">/Proyecto/LAL_Control/include</text>
<text text-anchor="start" x="218.6" y="-117" font-family="Helvetica,sans-Serif" font-size="10.00">/machine_state_pattern/machine</text>
<text text-anchor="middle" x="289.6" y="-106" font-family="Helvetica,sans-Serif" font-size="10.00">_states/Shutdown_state.h</text>
</a>
</g>
</g>
<!-- Node3&#45;&gt;Node6 -->
<g id="edge9" class="edge">
<title>Node3&#45;&gt;Node6</title>
<path fill="none" stroke="#63b8ff" d="M448.86,-289.09C421.11,-264.05 384.16,-228.77 351.6,-198 339.2,-186.28 325.54,-173.46 314.09,-162.23"/>
<polygon fill="#63b8ff" stroke="#63b8ff" points="446.25,-291.45 456.04,-295.51 450.91,-286.23 446.25,-291.45"/>
</g>
<!-- Node3&#45;&gt;Node7 -->
<g id="edge10" class="edge">
<title>Node3&#45;&gt;Node7</title>
<path fill="none" stroke="#63b8ff" d="M500.12,-286.13C507.11,-261.11 517.32,-227.13 528.6,-198 534.99,-181.5 538.31,-178.12 545.6,-162 563.06,-123.39 582.5,-77.82 593.26,-52.33"/>
<polygon fill="#63b8ff" stroke="#63b8ff" points="496.82,-284.91 497.54,-295.48 503.57,-286.77 496.82,-284.91"/>
</g>
<!-- Node8 -->
<g id="node8" class="node">
<title>Node8</title>
<g id="a_node8"><a xlink:href="_instruction__observer_8h.html" target="_top" xlink:title="Observador de instrucciones.">
<polygon fill="white" stroke="#666666" points="536.1,-162 387.1,-162 387.1,-99 536.1,-99 536.1,-162"/>
<text text-anchor="start" x="395.1" y="-150" font-family="Helvetica,sans-Serif" font-size="10.00">C:/Users/juanh/OneDrive</text>
<text text-anchor="start" x="395.1" y="-139" font-family="Helvetica,sans-Serif" font-size="10.00">/Escritorio/Facultad/Beca</text>
<text text-anchor="start" x="395.1" y="-128" font-family="Helvetica,sans-Serif" font-size="10.00">/Proyecto/LAL_Control/include</text>
<text text-anchor="start" x="395.1" y="-117" font-family="Helvetica,sans-Serif" font-size="10.00">/observer_pattern/observers</text>
<text text-anchor="middle" x="461.6" y="-106" font-family="Helvetica,sans-Serif" font-size="10.00">/Instruction_observer.h</text>
</a>
</g>
</g>
<!-- Node3&#45;&gt;Node8 -->
<g id="edge11" class="edge">
<title>Node3&#45;&gt;Node8</title>
<path fill="none" stroke="#63b8ff" d="M485.02,-285.33C479.58,-249.58 471.4,-195.85 466.28,-162.27"/>
<polygon fill="#63b8ff" stroke="#63b8ff" points="481.56,-285.85 486.52,-295.21 488.48,-284.79 481.56,-285.85"/>
</g>
<!-- Node3&#45;&gt;Node10 -->
<g id="edge14" class="edge">
<title>Node3&#45;&gt;Node10</title>
<path fill="none" stroke="#63b8ff" d="M512.7,-287.16C534.4,-253.16 565.31,-205.49 572.6,-198 585.38,-184.88 601.08,-172.68 616.01,-162.41"/>
<polygon fill="#63b8ff" stroke="#63b8ff" points="509.8,-285.18 507.38,-295.5 515.71,-288.94 509.8,-285.18"/>
</g>
<!-- Node11 -->
<g id="node11" class="node">
<title>Node11</title>
<g id="a_node11"><a xlink:href="_system__observer_8h.html" target="_top" xlink:title="Clase observador del sistema de control.">
<polygon fill="white" stroke="#666666" points="730.1,-261 581.1,-261 581.1,-198 730.1,-198 730.1,-261"/>
<text text-anchor="start" x="589.1" y="-249" font-family="Helvetica,sans-Serif" font-size="10.00">C:/Users/juanh/OneDrive</text>
<text text-anchor="start" x="589.1" y="-238" font-family="Helvetica,sans-Serif" font-size="10.00">/Escritorio/Facultad/Beca</text>
<text text-anchor="start" x="589.1" y="-227" font-family="Helvetica,sans-Serif" font-size="10.00">/Proyecto/LAL_Control/include</text>
<text text-anchor="start" x="589.1" y="-216" font-family="Helvetica,sans-Serif" font-size="10.00">/observer_pattern/observers</text>
<text text-anchor="middle" x="655.6" y="-205" font-family="Helvetica,sans-Serif" font-size="10.00">/System_observer.h</text>
</a>
</g>
</g>
<!-- Node3&#45;&gt;Node11 -->
<g id="edge16" class="edge">
<title>Node3&#45;&gt;Node11</title>
<path fill="none" stroke="#63b8ff" d="M540.06,-291.01C556.86,-281.45 575.83,-270.93 593.49,-261.38"/>
<polygon fill="#63b8ff" stroke="#63b8ff" points="538.69,-287.76 531.75,-295.76 542.17,-293.83 538.69,-287.76"/>
</g>
<!-- Node3&#45;&gt;Node12 -->
<g id="edge22" class="edge">
<title>Node3&#45;&gt;Node12</title>
<path fill="none" stroke="#63b8ff" d="M576.76,-315.64C627.65,-308.46 691.35,-293.24 739.6,-261 776.58,-236.29 804.36,-192.1 820.04,-162.3"/>
<polygon fill="#63b8ff" stroke="#63b8ff" points="576.41,-312.16 566.95,-316.94 577.32,-319.1 576.41,-312.16"/>
</g>
<!-- Node4&#45;&gt;Node5 -->
<g id="edge4" class="edge">
<title>Node4&#45;&gt;Node5</title>
<path fill="none" stroke="#63b8ff" d="M205.63,-191.65C189.57,-182.04 172.82,-171.77 158.07,-162.5"/>
<polygon fill="#63b8ff" stroke="#63b8ff" points="203.83,-194.66 214.21,-196.77 207.41,-188.64 203.83,-194.66"/>
</g>
<!-- Node4&#45;&gt;Node6 -->
<g id="edge6" class="edge">
<title>Node4&#45;&gt;Node6</title>
<path fill="none" stroke="#63b8ff" d="M279.97,-186.43C281.38,-178.39 282.83,-170.11 284.17,-162.5"/>
<polygon fill="#63b8ff" stroke="#63b8ff" points="276.57,-185.6 278.29,-196.05 283.46,-186.81 276.57,-185.6"/>
</g>
<!-- Node5&#45;&gt;Node4 -->
<g id="edge5" class="edge">
<title>Node5&#45;&gt;Node4</title>
<path fill="none" stroke="#63b8ff" d="M180.64,-168.39C196.7,-178 213.44,-188.27 228.2,-197.54"/>
<polygon fill="#63b8ff" stroke="#63b8ff" points="182.44,-165.38 172.05,-163.27 178.85,-171.4 182.44,-165.38"/>
</g>
<!-- Node6&#45;&gt;Node3 -->
<g id="edge7" class="edge">
<title>Node6&#45;&gt;Node3</title>
<path fill="none" stroke="#63b8ff" d="M339.36,-169.8C349.46,-179.02 359.92,-188.85 369.6,-198 405.64,-232.07 447.06,-271.65 471.12,-296.76"/>
<polygon fill="#63b8ff" stroke="#63b8ff" points="341.87,-167.35 332.1,-163.24 337.17,-172.55 341.87,-167.35"/>
</g>
<!-- Node8&#45;&gt;Node7 -->
<g id="edge12" class="edge">
<title>Node8&#45;&gt;Node7</title>
<path fill="none" stroke="#63b8ff" d="M515.66,-92.04C535.11,-78.57 556.28,-63.9 572.75,-52.49"/>
<polygon fill="#63b8ff" stroke="#63b8ff" points="513.75,-89.11 507.53,-97.68 517.74,-94.86 513.75,-89.11"/>
</g>
<!-- Node9 -->
<g id="node9" class="node">
<title>Node9</title>
<g id="a_node9"><a xlink:href="_instruction__observer_8cpp.html" target="_top" xlink:title=" ">
<polygon fill="white" stroke="#666666" points="493.1,-63 354.1,-63 354.1,0 493.1,0 493.1,-63"/>
<text text-anchor="start" x="362.1" y="-51" font-family="Helvetica,sans-Serif" font-size="10.00">C:/Users/juanh/OneDrive</text>
<text text-anchor="start" x="362.1" y="-40" font-family="Helvetica,sans-Serif" font-size="10.00">/Escritorio/Facultad/Beca</text>
<text text-anchor="start" x="362.1" y="-29" font-family="Helvetica,sans-Serif" font-size="10.00">/Proyecto/LAL_Control/src</text>
<text text-anchor="start" x="362.1" y="-18" font-family="Helvetica,sans-Serif" font-size="10.00">/observer_pattern/Instruction</text>
<text text-anchor="middle" x="423.6" y="-7" font-family="Helvetica,sans-Serif" font-size="10.00">_observer.cpp</text>
</a>
</g>
</g>
<!-- Node8&#45;&gt;Node9 -->
<g id="edge13" class="edge">
<title>Node8&#45;&gt;Node9</title>
<path fill="none" stroke="#63b8ff" d="M445.34,-87.98C442.12,-79.77 438.8,-71.29 435.74,-63.5"/>
<polygon fill="#63b8ff" stroke="#63b8ff" points="442.01,-89.1 448.92,-97.13 448.53,-86.54 442.01,-89.1"/>
</g>
<!-- Node10&#45;&gt;Node7 -->
<g id="edge15" class="edge">
<title>Node10&#45;&gt;Node7</title>
<path fill="none" stroke="#63b8ff" d="M640.1,-89.09C631.51,-76.45 622.4,-63.07 615.2,-52.49"/>
<polygon fill="#63b8ff" stroke="#63b8ff" points="637.17,-90.99 645.68,-97.29 642.95,-87.05 637.17,-90.99"/>
</g>
<!-- Node11&#45;&gt;Node3 -->
<g id="edge17" class="edge">
<title>Node11&#45;&gt;Node3</title>
<path fill="none" stroke="#63b8ff" d="M596.72,-266.82C579.07,-276.76 559.87,-287.32 542.69,-296.51"/>
<polygon fill="#63b8ff" stroke="#63b8ff" points="598.04,-270.1 605.02,-262.13 594.59,-264.01 598.04,-270.1"/>
</g>
<!-- Node11&#45;&gt;Node8 -->
<g id="edge18" class="edge">
<title>Node11&#45;&gt;Node8</title>
<path fill="none" stroke="#63b8ff" d="M583.54,-192.47C563.84,-182.62 542.67,-172.04 523.59,-162.5"/>
<polygon fill="#63b8ff" stroke="#63b8ff" points="581.82,-195.52 592.33,-196.87 584.95,-189.26 581.82,-195.52"/>
</g>
<!-- Node11&#45;&gt;Node10 -->
<g id="edge19" class="edge">
<title>Node11&#45;&gt;Node10</title>
<path fill="none" stroke="#63b8ff" d="M660.84,-186.15C661.82,-178.2 662.83,-170.02 663.77,-162.5"/>
<polygon fill="#63b8ff" stroke="#63b8ff" points="657.37,-185.69 659.62,-196.04 664.32,-186.55 657.37,-185.69"/>
</g>
<!-- Node11&#45;&gt;Node12 -->
<g id="edge20" class="edge">
<title>Node11&#45;&gt;Node12</title>
<path fill="none" stroke="#63b8ff" d="M722.84,-192.06C740.8,-182.33 760.04,-171.91 777.4,-162.5"/>
<polygon fill="#63b8ff" stroke="#63b8ff" points="721.18,-188.98 714.06,-196.82 724.52,-195.13 721.18,-188.98"/>
</g>
<!-- Node12&#45;&gt;Node7 -->
<g id="edge21" class="edge">
<title>Node12&#45;&gt;Node7</title>
<path fill="none" stroke="#63b8ff" d="M749.9,-94.24C716.13,-80.18 678.51,-64.52 649.61,-52.49"/>
<polygon fill="#63b8ff" stroke="#63b8ff" points="748.26,-97.35 758.84,-97.96 750.95,-90.89 748.26,-97.35"/>
</g>
<!-- Node13&#45;&gt;Node3 -->
<g id="edge24" class="edge">
<title>Node13&#45;&gt;Node3</title>
<path fill="none" stroke="#63b8ff" d="M597.03,-379.47C578.18,-369.65 557.51,-358.87 539.44,-349.45"/>
<polygon fill="#63b8ff" stroke="#63b8ff" points="595.16,-382.44 605.65,-383.96 598.4,-376.24 595.16,-382.44"/>
</g>
<!-- Node14&#45;&gt;Node3 -->
<g id="edge26" class="edge">
<title>Node14&#45;&gt;Node3</title>
<path fill="none" stroke="#63b8ff" d="M381.59,-379.47C400.9,-369.65 422.07,-358.87 440.58,-349.45"/>
<polygon fill="#63b8ff" stroke="#63b8ff" points="380.07,-376.32 372.74,-383.98 383.24,-382.56 380.07,-376.32"/>
</g>
<!-- Node15 -->
<g id="node15" class="node">
<title>Node15</title>
<g id="a_node15"><a xlink:href="_temperature__sensor_8cpp.html" target="_top" xlink:title=" ">
<polygon fill="white" stroke="#666666" points="397.6,-349 239.6,-349 239.6,-297 397.6,-297 397.6,-349"/>
<text text-anchor="start" x="247.6" y="-337" font-family="Helvetica,sans-Serif" font-size="10.00">C:/Users/juanh/OneDrive</text>
<text text-anchor="start" x="247.6" y="-326" font-family="Helvetica,sans-Serif" font-size="10.00">/Escritorio/Facultad/Beca</text>
<text text-anchor="start" x="247.6" y="-315" font-family="Helvetica,sans-Serif" font-size="10.00">/Proyecto/LAL_Control/src</text>
<text text-anchor="middle" x="318.6" y="-304" font-family="Helvetica,sans-Serif" font-size="10.00">/drivers/Temperature_sensor.cpp</text>
</a>
</g>
</g>
<!-- Node14&#45;&gt;Node15 -->
<g id="edge27" class="edge">
<title>Node14&#45;&gt;Node15</title>
<path fill="none" stroke="#63b8ff" d="M320.32,-373.26C320.04,-365.24 319.75,-356.92 319.49,-349.45"/>
<polygon fill="#63b8ff" stroke="#63b8ff" points="316.82,-373.28 320.66,-383.15 323.81,-373.03 316.82,-373.28"/>
</g>
</g>
</svg>
