<?xml version="1.0" encoding="UTF-8" standalone="no"?>
<!DOCTYPE svg PUBLIC "-//W3C//DTD SVG 1.1//EN"
 "http://www.w3.org/Graphics/SVG/1.1/DTD/svg11.dtd">
<!-- Generated by graphviz version 7.0.2 (20221119.0110)
 -->
<!-- Title: C:/Users/juanh/OneDrive/Escritorio/Facultad/Beca/Proyecto/LAL_Control/include/types.h Pages: 1 -->
<svg width="864pt" height="500pt"
 viewBox="0.00 0.00 864.00 500.00" xmlns="http://www.w3.org/2000/svg" xmlns:xlink="http://www.w3.org/1999/xlink">
<g id="graph0" class="graph" transform="scale(1 1) rotate(0) translate(4 496)">
<title>C:/Users/juanh/OneDrive/Escritorio/Facultad/Beca/Proyecto/LAL_Control/include/types.h</title>
<!-- Node1 -->
<g id="node1" class="node">
<title>Node1</title>
<g id="a_node1"><a xlink:title="Archivo de definición de tipos de dato.">
<polygon fill="#999999" stroke="#666666" points="640,-492 491,-492 491,-440 640,-440 640,-492"/>
<text text-anchor="start" x="499" y="-480" font-family="Helvetica,sans-Serif" font-size="10.00">C:/Users/juanh/OneDrive</text>
<text text-anchor="start" x="499" y="-469" font-family="Helvetica,sans-Serif" font-size="10.00">/Escritorio/Facultad/Beca</text>
<text text-anchor="start" x="499" y="-458" font-family="Helvetica,sans-Serif" font-size="10.00">/Proyecto/LAL_Control/include</text>
<text text-anchor="middle" x="565.5" y="-447" font-family="Helvetica,sans-Serif" font-size="10.00">/types.h</text>
</a>
</g>
</g>
<!-- Node2 -->
<g id="node2" class="node">
<title>Node2</title>
<g id="a_node2"><a xlink:href="_control__system_8h_source.html" target="_top" xlink:title=" ">
<polygon fill="white" stroke="#666666" points="462,-316 313,-316 313,-264 462,-264 462,-316"/>
<text text-anchor="start" x="321" y="-304" font-family="Helvetica,sans-Serif" font-size="10.00">C:/Users/juanh/OneDrive</text>
<text text-anchor="start" x="321" y="-293" font-family="Helvetica,sans-Serif" font-size="10.00">/Escritorio/Facultad/Beca</text>
<text text-anchor="start" x="321" y="-282" font-family="Helvetica,sans-Serif" font-size="10.00">/Proyecto/LAL_Control/include</text>
<text text-anchor="middle" x="387.5" y="-271" font-family="Helvetica,sans-Serif" font-size="10.00">/Control_system.h</text>
</a>
</g>
</g>
<!-- Node1&#45;&gt;Node2 -->
<g id="edge1" class="edge">
<title>Node1&#45;&gt;Node2</title>
<path fill="none" stroke="#63b8ff" d="M480.18,-438.62C462.01,-429.89 444.19,-418.55 430.5,-404 407.48,-379.54 396.44,-341.52 391.4,-316.44"/>
<polygon fill="#63b8ff" stroke="#63b8ff" points="478.66,-441.77 489.21,-442.71 481.55,-435.4 478.66,-441.77"/>
</g>
<!-- Node9 -->
<g id="node9" class="node">
<title>Node9</title>
<g id="a_node9"><a xlink:href="_moisture__observer_8h_source.html" target="_top" xlink:title=" ">
<polygon fill="white" stroke="#666666" points="689,-140 540,-140 540,-88 689,-88 689,-140"/>
<text text-anchor="start" x="548" y="-128" font-family="Helvetica,sans-Serif" font-size="10.00">C:/Users/juanh/OneDrive</text>
<text text-anchor="start" x="548" y="-117" font-family="Helvetica,sans-Serif" font-size="10.00">/Escritorio/Facultad/Beca</text>
<text text-anchor="start" x="548" y="-106" font-family="Helvetica,sans-Serif" font-size="10.00">/Proyecto/LAL_Control/include</text>
<text text-anchor="middle" x="614.5" y="-95" font-family="Helvetica,sans-Serif" font-size="10.00">/Moisture_observer.h</text>
</a>
</g>
</g>
<!-- Node1&#45;&gt;Node9 -->
<g id="edge24" class="edge">
<title>Node1&#45;&gt;Node9</title>
<path fill="none" stroke="#63b8ff" d="M587.23,-429.68C591.34,-421.51 595.09,-412.67 597.5,-404 623.73,-309.57 619.86,-191.31 616.53,-140.32"/>
<polygon fill="#63b8ff" stroke="#63b8ff" points="584.27,-427.79 582.64,-438.26 590.44,-431.09 584.27,-427.79"/>
</g>
<!-- Node11 -->
<g id="node11" class="node">
<title>Node11</title>
<g id="a_node11"><a xlink:href="_temperature__observer_8h.html" target="_top" xlink:title=" ">
<polygon fill="white" stroke="#666666" points="856,-140 707,-140 707,-88 856,-88 856,-140"/>
<text text-anchor="start" x="715" y="-128" font-family="Helvetica,sans-Serif" font-size="10.00">C:/Users/juanh/OneDrive</text>
<text text-anchor="start" x="715" y="-117" font-family="Helvetica,sans-Serif" font-size="10.00">/Escritorio/Facultad/Beca</text>
<text text-anchor="start" x="715" y="-106" font-family="Helvetica,sans-Serif" font-size="10.00">/Proyecto/LAL_Control/include</text>
<text text-anchor="middle" x="781.5" y="-95" font-family="Helvetica,sans-Serif" font-size="10.00">/Temperature_observer.h</text>
</a>
</g>
</g>
<!-- Node1&#45;&gt;Node11 -->
<g id="edge25" class="edge">
<title>Node1&#45;&gt;Node11</title>
<path fill="none" stroke="#63b8ff" d="M596.34,-431.13C603.61,-422.53 611.1,-413.14 617.5,-404 682.21,-311.63 743.73,-191.8 769.19,-140.32"/>
<polygon fill="#63b8ff" stroke="#63b8ff" points="593.77,-428.75 589.89,-438.61 599.07,-433.32 593.77,-428.75"/>
</g>
<!-- Node12 -->
<g id="node12" class="node">
<title>Node12</title>
<g id="a_node12"><a xlink:href="_dual___l_e_d_8h.html" target="_top" xlink:title=" ">
<polygon fill="white" stroke="#666666" points="589,-404 440,-404 440,-352 589,-352 589,-404"/>
<text text-anchor="start" x="448" y="-392" font-family="Helvetica,sans-Serif" font-size="10.00">C:/Users/juanh/OneDrive</text>
<text text-anchor="start" x="448" y="-381" font-family="Helvetica,sans-Serif" font-size="10.00">/Escritorio/Facultad/Beca</text>
<text text-anchor="start" x="448" y="-370" font-family="Helvetica,sans-Serif" font-size="10.00">/Proyecto/LAL_Control/include</text>
<text text-anchor="middle" x="514.5" y="-359" font-family="Helvetica,sans-Serif" font-size="10.00">/Dual_LED.h</text>
</a>
</g>
</g>
<!-- Node1&#45;&gt;Node12 -->
<g id="edge22" class="edge">
<title>Node1&#45;&gt;Node12</title>
<path fill="none" stroke="#63b8ff" d="M544.7,-429.93C539.65,-421.4 534.33,-412.44 529.59,-404.45"/>
<polygon fill="#63b8ff" stroke="#63b8ff" points="541.59,-431.54 549.7,-438.36 547.61,-427.97 541.59,-431.54"/>
</g>
<!-- Node3 -->
<g id="node3" class="node">
<title>Node3</title>
<g id="a_node3"><a xlink:href="_idle__state_8h.html" target="_top" xlink:title=" ">
<polygon fill="white" stroke="#666666" points="257,-228 108,-228 108,-176 257,-176 257,-228"/>
<text text-anchor="start" x="116" y="-216" font-family="Helvetica,sans-Serif" font-size="10.00">C:/Users/juanh/OneDrive</text>
<text text-anchor="start" x="116" y="-205" font-family="Helvetica,sans-Serif" font-size="10.00">/Escritorio/Facultad/Beca</text>
<text text-anchor="start" x="116" y="-194" font-family="Helvetica,sans-Serif" font-size="10.00">/Proyecto/LAL_Control/include</text>
<text text-anchor="middle" x="182.5" y="-183" font-family="Helvetica,sans-Serif" font-size="10.00">/Idle_state.h</text>
</a>
</g>
</g>
<!-- Node2&#45;&gt;Node3 -->
<g id="edge2" class="edge">
<title>Node2&#45;&gt;Node3</title>
<path fill="none" stroke="#63b8ff" d="M316.39,-259.17C292.48,-249.14 266.04,-238.05 243.02,-228.39"/>
<polygon fill="#63b8ff" stroke="#63b8ff" points="314.85,-262.32 325.43,-262.96 317.56,-255.86 314.85,-262.32"/>
</g>
<!-- Node4 -->
<g id="node4" class="node">
<title>Node4</title>
<g id="a_node4"><a xlink:href="_motor__control__state_8h_source.html" target="_top" xlink:title=" ">
<polygon fill="white" stroke="#666666" points="149,-140 0,-140 0,-88 149,-88 149,-140"/>
<text text-anchor="start" x="8" y="-128" font-family="Helvetica,sans-Serif" font-size="10.00">C:/Users/juanh/OneDrive</text>
<text text-anchor="start" x="8" y="-117" font-family="Helvetica,sans-Serif" font-size="10.00">/Escritorio/Facultad/Beca</text>
<text text-anchor="start" x="8" y="-106" font-family="Helvetica,sans-Serif" font-size="10.00">/Proyecto/LAL_Control/include</text>
<text text-anchor="middle" x="74.5" y="-95" font-family="Helvetica,sans-Serif" font-size="10.00">/Motor_control_state.h</text>
</a>
</g>
</g>
<!-- Node2&#45;&gt;Node4 -->
<g id="edge12" class="edge">
<title>Node2&#45;&gt;Node4</title>
<path fill="none" stroke="#63b8ff" d="M301.58,-281.17C226.99,-272.58 126.67,-256.13 98.5,-228 75.51,-205.04 72.01,-165.89 72.53,-140.23"/>
<polygon fill="#63b8ff" stroke="#63b8ff" points="301.01,-284.63 311.34,-282.26 301.79,-277.67 301.01,-284.63"/>
</g>
<!-- Node5 -->
<g id="node5" class="node">
<title>Node5</title>
<g id="a_node5"><a xlink:href="_shutdown__state_8h_source.html" target="_top" xlink:title=" ">
<polygon fill="white" stroke="#666666" points="316,-140 167,-140 167,-88 316,-88 316,-140"/>
<text text-anchor="start" x="175" y="-128" font-family="Helvetica,sans-Serif" font-size="10.00">C:/Users/juanh/OneDrive</text>
<text text-anchor="start" x="175" y="-117" font-family="Helvetica,sans-Serif" font-size="10.00">/Escritorio/Facultad/Beca</text>
<text text-anchor="start" x="175" y="-106" font-family="Helvetica,sans-Serif" font-size="10.00">/Proyecto/LAL_Control/include</text>
<text text-anchor="middle" x="241.5" y="-95" font-family="Helvetica,sans-Serif" font-size="10.00">/Shutdown_state.h</text>
</a>
</g>
</g>
<!-- Node2&#45;&gt;Node5 -->
<g id="edge13" class="edge">
<title>Node2&#45;&gt;Node5</title>
<path fill="none" stroke="#63b8ff" d="M346.51,-255.46C338,-246.66 329.3,-237.08 321.5,-228 296.29,-198.63 268.98,-163.4 253.35,-140.17"/>
<polygon fill="#63b8ff" stroke="#63b8ff" points="343.99,-257.89 353.51,-262.54 348.97,-252.97 343.99,-257.89"/>
</g>
<!-- Node6 -->
<g id="node6" class="node">
<title>Node6</title>
<g id="a_node6"><a xlink:href="_instruction__observer_8h.html" target="_top" xlink:title=" ">
<polygon fill="white" stroke="#666666" points="522,-140 373,-140 373,-88 522,-88 522,-140"/>
<text text-anchor="start" x="381" y="-128" font-family="Helvetica,sans-Serif" font-size="10.00">C:/Users/juanh/OneDrive</text>
<text text-anchor="start" x="381" y="-117" font-family="Helvetica,sans-Serif" font-size="10.00">/Escritorio/Facultad/Beca</text>
<text text-anchor="start" x="381" y="-106" font-family="Helvetica,sans-Serif" font-size="10.00">/Proyecto/LAL_Control/include</text>
<text text-anchor="middle" x="447.5" y="-95" font-family="Helvetica,sans-Serif" font-size="10.00">/Instruction_observer.h</text>
</a>
</g>
</g>
<!-- Node2&#45;&gt;Node6 -->
<g id="edge7" class="edge">
<title>Node2&#45;&gt;Node6</title>
<path fill="none" stroke="#63b8ff" d="M387.26,-252.61C388.25,-229.85 391.65,-200.34 401.5,-176 406.68,-163.21 415.24,-150.75 423.58,-140.45"/>
<polygon fill="#63b8ff" stroke="#63b8ff" points="383.77,-252.22 386.99,-262.32 390.77,-252.42 383.77,-252.22"/>
</g>
<!-- Node7 -->
<g id="node7" class="node">
<title>Node7</title>
<g id="a_node7"><a xlink:href="main_8h_source.html" target="_top" xlink:title=" ">
<polygon fill="white" stroke="#666666" points="705,-46.5 524,-46.5 524,-5.5 705,-5.5 705,-46.5"/>
<text text-anchor="start" x="532" y="-34.5" font-family="Helvetica,sans-Serif" font-size="10.00">C:/Users/juanh/OneDrive</text>
<text text-anchor="start" x="532" y="-23.5" font-family="Helvetica,sans-Serif" font-size="10.00">/Escritorio/Facultad/Beca</text>
<text text-anchor="middle" x="614.5" y="-12.5" font-family="Helvetica,sans-Serif" font-size="10.00">/Proyecto/LAL_Control/include/main.h</text>
</a>
</g>
</g>
<!-- Node2&#45;&gt;Node7 -->
<g id="edge21" class="edge">
<title>Node2&#45;&gt;Node7</title>
<path fill="none" stroke="#63b8ff" d="M369.29,-253.47C349.7,-209.72 326.08,-135.39 363.5,-88 406.26,-33.85 447.48,-68.37 514.5,-52 521.19,-50.37 528.13,-48.66 535.1,-46.93"/>
<polygon fill="#63b8ff" stroke="#63b8ff" points="365.99,-254.67 373.37,-262.27 372.33,-251.72 365.99,-254.67"/>
</g>
<!-- Node2&#45;&gt;Node9 -->
<g id="edge10" class="edge">
<title>Node2&#45;&gt;Node9</title>
<path fill="none" stroke="#63b8ff" d="M473.47,-275.85C506.55,-267.05 542.56,-252.39 568.5,-228 593.34,-204.64 605.13,-165.97 610.46,-140.48"/>
<polygon fill="#63b8ff" stroke="#63b8ff" points="472.7,-272.44 463.85,-278.25 474.4,-279.23 472.7,-272.44"/>
</g>
<!-- Node10 -->
<g id="node10" class="node">
<title>Node10</title>
<g id="a_node10"><a xlink:href="_system__observer_8h.html" target="_top" xlink:title=" ">
<polygon fill="white" stroke="#666666" points="560,-228 411,-228 411,-176 560,-176 560,-228"/>
<text text-anchor="start" x="419" y="-216" font-family="Helvetica,sans-Serif" font-size="10.00">C:/Users/juanh/OneDrive</text>
<text text-anchor="start" x="419" y="-205" font-family="Helvetica,sans-Serif" font-size="10.00">/Escritorio/Facultad/Beca</text>
<text text-anchor="start" x="419" y="-194" font-family="Helvetica,sans-Serif" font-size="10.00">/Proyecto/LAL_Control/include</text>
<text text-anchor="middle" x="485.5" y="-183" font-family="Helvetica,sans-Serif" font-size="10.00">/System_observer.h</text>
</a>
</g>
</g>
<!-- Node2&#45;&gt;Node10 -->
<g id="edge14" class="edge">
<title>Node2&#45;&gt;Node10</title>
<path fill="none" stroke="#63b8ff" d="M418.36,-256.15C428.5,-246.97 439.83,-237.13 450.27,-228.45"/>
<polygon fill="#63b8ff" stroke="#63b8ff" points="416.28,-253.3 411.27,-262.64 421.01,-258.46 416.28,-253.3"/>
</g>
<!-- Node2&#45;&gt;Node11 -->
<g id="edge20" class="edge">
<title>Node2&#45;&gt;Node11</title>
<path fill="none" stroke="#63b8ff" d="M473.54,-269.78C512.56,-259.65 558.76,-245.62 598.5,-228 653.29,-203.71 711.31,-165.46 746.97,-140.3"/>
<polygon fill="#63b8ff" stroke="#63b8ff" points="472.77,-266.37 463.94,-272.23 474.5,-273.15 472.77,-266.37"/>
</g>
<!-- Node3&#45;&gt;Node4 -->
<g id="edge3" class="edge">
<title>Node3&#45;&gt;Node4</title>
<path fill="none" stroke="#63b8ff" d="M135.37,-168.7C123.31,-159.36 110.8,-149.31 100.24,-140.45"/>
<polygon fill="#63b8ff" stroke="#63b8ff" points="133.2,-171.44 143.26,-174.74 137.45,-165.88 133.2,-171.44"/>
</g>
<!-- Node3&#45;&gt;Node5 -->
<g id="edge5" class="edge">
<title>Node3&#45;&gt;Node5</title>
<path fill="none" stroke="#63b8ff" d="M206.37,-166.21C212.28,-157.6 218.5,-148.53 224.04,-140.45"/>
<polygon fill="#63b8ff" stroke="#63b8ff" points="203.51,-164.19 200.74,-174.41 209.28,-168.15 203.51,-164.19"/>
</g>
<!-- Node4&#45;&gt;Node3 -->
<g id="edge4" class="edge">
<title>Node4&#45;&gt;Node3</title>
<path fill="none" stroke="#63b8ff" d="M121.79,-147.43C133.85,-156.77 146.36,-166.82 156.9,-175.66"/>
<polygon fill="#63b8ff" stroke="#63b8ff" points="123.96,-144.68 113.89,-141.37 119.7,-150.24 123.96,-144.68"/>
</g>
<!-- Node5&#45;&gt;Node2 -->
<g id="edge6" class="edge">
<title>Node5&#45;&gt;Node2</title>
<path fill="none" stroke="#63b8ff" d="M274.56,-148.8C293.35,-171.58 317.24,-202.07 339.5,-228 349.79,-239.99 361.65,-252.83 371.18,-263.62"/>
<polygon fill="#63b8ff" stroke="#63b8ff" points="277.42,-146.77 268.33,-141.34 272.05,-151.26 277.42,-146.77"/>
</g>
<!-- Node6&#45;&gt;Node7 -->
<g id="edge8" class="edge">
<title>Node6&#45;&gt;Node7</title>
<path fill="none" stroke="#63b8ff" d="M506.68,-82.53C529.6,-70.72 555.2,-57.54 575.7,-46.98"/>
<polygon fill="#63b8ff" stroke="#63b8ff" points="505.34,-79.28 498.05,-86.97 508.54,-85.5 505.34,-79.28"/>
</g>
<!-- Node8 -->
<g id="node8" class="node">
<title>Node8</title>
<g id="a_node8"><a xlink:href="_instruction__observer_8cpp.html" target="_top" xlink:title=" ">
<polygon fill="white" stroke="#666666" points="506,-52 375,-52 375,0 506,0 506,-52"/>
<text text-anchor="start" x="383" y="-40" font-family="Helvetica,sans-Serif" font-size="10.00">C:/Users/juanh/OneDrive</text>
<text text-anchor="start" x="383" y="-29" font-family="Helvetica,sans-Serif" font-size="10.00">/Escritorio/Facultad/Beca</text>
<text text-anchor="start" x="383" y="-18" font-family="Helvetica,sans-Serif" font-size="10.00">/Proyecto/LAL_Control/src</text>
<text text-anchor="middle" x="440.5" y="-7" font-family="Helvetica,sans-Serif" font-size="10.00">/Instruction_observer.cpp</text>
</a>
</g>
</g>
<!-- Node6&#45;&gt;Node8 -->
<g id="edge9" class="edge">
<title>Node6&#45;&gt;Node8</title>
<path fill="none" stroke="#63b8ff" d="M444.51,-76.26C443.86,-68.24 443.18,-59.92 442.57,-52.45"/>
<polygon fill="#63b8ff" stroke="#63b8ff" points="441.02,-76.47 445.31,-86.15 447.99,-75.9 441.02,-76.47"/>
</g>
<!-- Node9&#45;&gt;Node7 -->
<g id="edge11" class="edge">
<title>Node9&#45;&gt;Node7</title>
<path fill="none" stroke="#63b8ff" d="M614.5,-76.23C614.5,-66.19 614.5,-55.69 614.5,-46.98"/>
<polygon fill="#63b8ff" stroke="#63b8ff" points="611,-76.15 614.5,-86.15 618,-76.15 611,-76.15"/>
</g>
<!-- Node10&#45;&gt;Node2 -->
<g id="edge15" class="edge">
<title>Node10&#45;&gt;Node2</title>
<path fill="none" stroke="#63b8ff" d="M454.51,-235.98C444.35,-245.16 433.02,-254.99 422.59,-263.66"/>
<polygon fill="#63b8ff" stroke="#63b8ff" points="456.59,-238.81 461.6,-229.48 451.86,-233.65 456.59,-238.81"/>
</g>
<!-- Node10&#45;&gt;Node6 -->
<g id="edge16" class="edge">
<title>Node10&#45;&gt;Node6</title>
<path fill="none" stroke="#63b8ff" d="M469.76,-165.37C466.06,-157.01 462.2,-148.27 458.75,-140.45"/>
<polygon fill="#63b8ff" stroke="#63b8ff" points="466.45,-166.55 473.69,-174.28 472.85,-163.72 466.45,-166.55"/>
</g>
<!-- Node10&#45;&gt;Node9 -->
<g id="edge17" class="edge">
<title>Node10&#45;&gt;Node9</title>
<path fill="none" stroke="#63b8ff" d="M532.72,-169.52C547.07,-159.95 562.65,-149.57 576.32,-140.45"/>
<polygon fill="#63b8ff" stroke="#63b8ff" points="531.14,-166.36 524.77,-174.82 535.03,-172.19 531.14,-166.36"/>
</g>
<!-- Node10&#45;&gt;Node11 -->
<g id="edge18" class="edge">
<title>Node10&#45;&gt;Node11</title>
<path fill="none" stroke="#63b8ff" d="M570.81,-176.64C609.51,-165.55 655.84,-152.19 697.5,-140 700.57,-139.1 703.7,-138.18 706.86,-137.25"/>
<polygon fill="#63b8ff" stroke="#63b8ff" points="570.22,-173.17 561.57,-179.29 572.15,-179.9 570.22,-173.17"/>
</g>
<!-- Node11&#45;&gt;Node7 -->
<g id="edge19" class="edge">
<title>Node11&#45;&gt;Node7</title>
<path fill="none" stroke="#63b8ff" d="M722.32,-82.53C699.4,-70.72 673.8,-57.54 653.3,-46.98"/>
<polygon fill="#63b8ff" stroke="#63b8ff" points="720.46,-85.5 730.95,-86.97 723.66,-79.28 720.46,-85.5"/>
</g>
<!-- Node12&#45;&gt;Node2 -->
<g id="edge23" class="edge">
<title>Node12&#45;&gt;Node2</title>
<path fill="none" stroke="#63b8ff" d="M467.6,-345.24C453.59,-335.76 438.42,-325.48 425.09,-316.45"/>
<polygon fill="#63b8ff" stroke="#63b8ff" points="465.59,-348.1 475.83,-350.81 469.51,-342.31 465.59,-348.1"/>
</g>
</g>
</svg>
