<?xml version="1.0" encoding="UTF-8" standalone="no"?>
<!DOCTYPE svg PUBLIC "-//W3C//DTD SVG 1.1//EN"
 "http://www.w3.org/Graphics/SVG/1.1/DTD/svg11.dtd">
<!-- Generated by graphviz version 7.0.2 (20221119.0110)
 -->
<!-- Title: C:/Users/juanh/OneDrive/Escritorio/Facultad/Beca/Proyecto/LAL_Control/include/Idle_state.h Pages: 1 -->
<svg width="522pt" height="500pt"
 viewBox="0.00 0.00 521.85 500.00" xmlns="http://www.w3.org/2000/svg" xmlns:xlink="http://www.w3.org/1999/xlink">
<g id="graph0" class="graph" transform="scale(1 1) rotate(0) translate(4 496)">
<title>C:/Users/juanh/OneDrive/Escritorio/Facultad/Beca/Proyecto/LAL_Control/include/Idle_state.h</title>
<!-- Node1 -->
<g id="node1" class="node">
<title>Node1</title>
<g id="a_node1"><a xlink:title=" ">
<polygon fill="#999999" stroke="#666666" points="172,-492 23,-492 23,-440 172,-440 172,-492"/>
<text text-anchor="start" x="31" y="-480" font-family="Helvetica,sans-Serif" font-size="10.00">C:/Users/juanh/OneDrive</text>
<text text-anchor="start" x="31" y="-469" font-family="Helvetica,sans-Serif" font-size="10.00">/Escritorio/Facultad/Beca</text>
<text text-anchor="start" x="31" y="-458" font-family="Helvetica,sans-Serif" font-size="10.00">/Proyecto/LAL_Control/include</text>
<text text-anchor="middle" x="97.5" y="-447" font-family="Helvetica,sans-Serif" font-size="10.00">/Idle_state.h</text>
</a>
</g>
</g>
<!-- Node2 -->
<g id="node2" class="node">
<title>Node2</title>
<g id="a_node2"><a xlink:href="_motor__control__state_8h_source.html" target="_top" xlink:title=" ">
<polygon fill="white" stroke="#666666" points="149,-228 0,-228 0,-176 149,-176 149,-228"/>
<text text-anchor="start" x="8" y="-216" font-family="Helvetica,sans-Serif" font-size="10.00">C:/Users/juanh/OneDrive</text>
<text text-anchor="start" x="8" y="-205" font-family="Helvetica,sans-Serif" font-size="10.00">/Escritorio/Facultad/Beca</text>
<text text-anchor="start" x="8" y="-194" font-family="Helvetica,sans-Serif" font-size="10.00">/Proyecto/LAL_Control/include</text>
<text text-anchor="middle" x="74.5" y="-183" font-family="Helvetica,sans-Serif" font-size="10.00">/Motor_control_state.h</text>
</a>
</g>
</g>
<!-- Node1&#45;&gt;Node2 -->
<g id="edge1" class="edge">
<title>Node1&#45;&gt;Node2</title>
<path fill="none" stroke="#63b8ff" d="M89.49,-428.81C82.01,-375 73.46,-275.2 72.53,-228.43"/>
<polygon fill="#63b8ff" stroke="#63b8ff" points="85.98,-429 90.9,-438.38 92.91,-427.98 85.98,-429"/>
</g>
<!-- Node3 -->
<g id="node3" class="node">
<title>Node3</title>
<g id="a_node3"><a xlink:href="_shutdown__state_8h_source.html" target="_top" xlink:title=" ">
<polygon fill="white" stroke="#666666" points="299,-404 150,-404 150,-352 299,-352 299,-404"/>
<text text-anchor="start" x="158" y="-392" font-family="Helvetica,sans-Serif" font-size="10.00">C:/Users/juanh/OneDrive</text>
<text text-anchor="start" x="158" y="-381" font-family="Helvetica,sans-Serif" font-size="10.00">/Escritorio/Facultad/Beca</text>
<text text-anchor="start" x="158" y="-370" font-family="Helvetica,sans-Serif" font-size="10.00">/Proyecto/LAL_Control/include</text>
<text text-anchor="middle" x="224.5" y="-359" font-family="Helvetica,sans-Serif" font-size="10.00">/Shutdown_state.h</text>
</a>
</g>
</g>
<!-- Node1&#45;&gt;Node3 -->
<g id="edge3" class="edge">
<title>Node1&#45;&gt;Node3</title>
<path fill="none" stroke="#63b8ff" d="M144.4,-433.24C158.41,-423.76 173.58,-413.48 186.91,-404.45"/>
<polygon fill="#63b8ff" stroke="#63b8ff" points="142.49,-430.31 136.17,-438.81 146.41,-436.1 142.49,-430.31"/>
</g>
<!-- Node2&#45;&gt;Node1 -->
<g id="edge2" class="edge">
<title>Node2&#45;&gt;Node1</title>
<path fill="none" stroke="#63b8ff" d="M82.56,-239.54C90.04,-293.56 98.58,-393.34 99.47,-439.88"/>
<polygon fill="#63b8ff" stroke="#63b8ff" points="86.06,-239.32 81.15,-229.93 79.14,-240.33 86.06,-239.32"/>
</g>
<!-- Node4 -->
<g id="node4" class="node">
<title>Node4</title>
<g id="a_node4"><a xlink:href="_control__system_8h_source.html" target="_top" xlink:title=" ">
<polygon fill="white" stroke="#666666" points="299,-316 150,-316 150,-264 299,-264 299,-316"/>
<text text-anchor="start" x="158" y="-304" font-family="Helvetica,sans-Serif" font-size="10.00">C:/Users/juanh/OneDrive</text>
<text text-anchor="start" x="158" y="-293" font-family="Helvetica,sans-Serif" font-size="10.00">/Escritorio/Facultad/Beca</text>
<text text-anchor="start" x="158" y="-282" font-family="Helvetica,sans-Serif" font-size="10.00">/Proyecto/LAL_Control/include</text>
<text text-anchor="middle" x="224.5" y="-271" font-family="Helvetica,sans-Serif" font-size="10.00">/Control_system.h</text>
</a>
</g>
</g>
<!-- Node3&#45;&gt;Node4 -->
<g id="edge4" class="edge">
<title>Node3&#45;&gt;Node4</title>
<path fill="none" stroke="#63b8ff" d="M217.81,-340.26C217.65,-332.24 217.8,-323.92 218.28,-316.45"/>
<polygon fill="#63b8ff" stroke="#63b8ff" points="214.31,-340.3 218.22,-350.15 221.31,-340.01 214.31,-340.3"/>
</g>
<!-- Node4&#45;&gt;Node1 -->
<g id="edge5" class="edge">
<title>Node4&#45;&gt;Node1</title>
<path fill="none" stroke="#63b8ff" d="M170.56,-323C159.55,-331.38 148.8,-341.15 140.5,-352 120.35,-378.34 108.69,-415.21 102.72,-439.58"/>
<polygon fill="#63b8ff" stroke="#63b8ff" points="172.56,-325.88 178.61,-317.18 168.46,-320.21 172.56,-325.88"/>
</g>
<!-- Node4&#45;&gt;Node2 -->
<g id="edge11" class="edge">
<title>Node4&#45;&gt;Node2</title>
<path fill="none" stroke="#63b8ff" d="M170.54,-258.06C153.6,-248.35 135.1,-237.74 118.9,-228.45"/>
<polygon fill="#63b8ff" stroke="#63b8ff" points="168.58,-260.97 178.99,-262.91 172.06,-254.9 168.58,-260.97"/>
</g>
<!-- Node4&#45;&gt;Node3 -->
<g id="edge12" class="edge">
<title>Node4&#45;&gt;Node3</title>
<path fill="none" stroke="#63b8ff" d="M231.19,-327.87C231.35,-335.89 231.19,-344.21 230.72,-351.66"/>
<polygon fill="#63b8ff" stroke="#63b8ff" points="234.69,-327.82 230.79,-317.97 227.7,-328.1 234.69,-327.82"/>
</g>
<!-- Node5 -->
<g id="node5" class="node">
<title>Node5</title>
<g id="a_node5"><a xlink:href="_instruction__observer_8h.html" target="_top" xlink:title=" ">
<polygon fill="white" stroke="#666666" points="162,-140 13,-140 13,-88 162,-88 162,-140"/>
<text text-anchor="start" x="21" y="-128" font-family="Helvetica,sans-Serif" font-size="10.00">C:/Users/juanh/OneDrive</text>
<text text-anchor="start" x="21" y="-117" font-family="Helvetica,sans-Serif" font-size="10.00">/Escritorio/Facultad/Beca</text>
<text text-anchor="start" x="21" y="-106" font-family="Helvetica,sans-Serif" font-size="10.00">/Proyecto/LAL_Control/include</text>
<text text-anchor="middle" x="87.5" y="-95" font-family="Helvetica,sans-Serif" font-size="10.00">/Instruction_observer.h</text>
</a>
</g>
</g>
<!-- Node4&#45;&gt;Node5 -->
<g id="edge6" class="edge">
<title>Node4&#45;&gt;Node5</title>
<path fill="none" stroke="#63b8ff" d="M207.26,-253.58C195.06,-230.3 177.38,-199.86 157.5,-176 146.77,-163.12 133.2,-150.64 120.88,-140.36"/>
<polygon fill="#63b8ff" stroke="#63b8ff" points="204.1,-255.07 211.78,-262.37 210.33,-251.88 204.1,-255.07"/>
</g>
<!-- Node6 -->
<g id="node6" class="node">
<title>Node6</title>
<g id="a_node6"><a xlink:href="main_8h_source.html" target="_top" xlink:title=" ">
<polygon fill="white" stroke="#666666" points="432,-46.5 251,-46.5 251,-5.5 432,-5.5 432,-46.5"/>
<text text-anchor="start" x="259" y="-34.5" font-family="Helvetica,sans-Serif" font-size="10.00">C:/Users/juanh/OneDrive</text>
<text text-anchor="start" x="259" y="-23.5" font-family="Helvetica,sans-Serif" font-size="10.00">/Escritorio/Facultad/Beca</text>
<text text-anchor="middle" x="341.5" y="-12.5" font-family="Helvetica,sans-Serif" font-size="10.00">/Proyecto/LAL_Control/include/main.h</text>
</a>
</g>
</g>
<!-- Node4&#45;&gt;Node6 -->
<g id="edge20" class="edge">
<title>Node4&#45;&gt;Node6</title>
<path fill="none" stroke="#63b8ff" d="M310.59,-274.14C381.61,-256.39 475.41,-218.56 505.5,-140 513.77,-118.42 518.69,-106.98 505.5,-88 488.51,-63.55 460.49,-48.88 432.38,-40.09"/>
<polygon fill="#63b8ff" stroke="#63b8ff" points="309.79,-270.73 300.88,-276.46 311.42,-277.54 309.79,-270.73"/>
</g>
<!-- Node8 -->
<g id="node8" class="node">
<title>Node8</title>
<g id="a_node8"><a xlink:href="_moisture__observer_8h_source.html" target="_top" xlink:title=" ">
<polygon fill="white" stroke="#666666" points="496,-140 347,-140 347,-88 496,-88 496,-140"/>
<text text-anchor="start" x="355" y="-128" font-family="Helvetica,sans-Serif" font-size="10.00">C:/Users/juanh/OneDrive</text>
<text text-anchor="start" x="355" y="-117" font-family="Helvetica,sans-Serif" font-size="10.00">/Escritorio/Facultad/Beca</text>
<text text-anchor="start" x="355" y="-106" font-family="Helvetica,sans-Serif" font-size="10.00">/Proyecto/LAL_Control/include</text>
<text text-anchor="middle" x="421.5" y="-95" font-family="Helvetica,sans-Serif" font-size="10.00">/Moisture_observer.h</text>
</a>
</g>
</g>
<!-- Node4&#45;&gt;Node8 -->
<g id="edge9" class="edge">
<title>Node4&#45;&gt;Node8</title>
<path fill="none" stroke="#63b8ff" d="M310.65,-278.55C343.96,-270.16 379.52,-255.08 402.5,-228 423.22,-203.58 425.39,-165.18 424.15,-140.04"/>
<polygon fill="#63b8ff" stroke="#63b8ff" points="309.88,-275.13 300.93,-280.8 311.47,-281.95 309.88,-275.13"/>
</g>
<!-- Node9 -->
<g id="node9" class="node">
<title>Node9</title>
<g id="a_node9"><a xlink:href="_system__observer_8h.html" target="_top" xlink:title=" ">
<polygon fill="white" stroke="#666666" points="393,-228 244,-228 244,-176 393,-176 393,-228"/>
<text text-anchor="start" x="252" y="-216" font-family="Helvetica,sans-Serif" font-size="10.00">C:/Users/juanh/OneDrive</text>
<text text-anchor="start" x="252" y="-205" font-family="Helvetica,sans-Serif" font-size="10.00">/Escritorio/Facultad/Beca</text>
<text text-anchor="start" x="252" y="-194" font-family="Helvetica,sans-Serif" font-size="10.00">/Proyecto/LAL_Control/include</text>
<text text-anchor="middle" x="318.5" y="-183" font-family="Helvetica,sans-Serif" font-size="10.00">/System_observer.h</text>
</a>
</g>
</g>
<!-- Node4&#45;&gt;Node9 -->
<g id="edge13" class="edge">
<title>Node4&#45;&gt;Node9</title>
<path fill="none" stroke="#63b8ff" d="M254.12,-255.87C263.77,-246.77 274.52,-237.05 284.45,-228.45"/>
<polygon fill="#63b8ff" stroke="#63b8ff" points="251.88,-253.17 247.07,-262.62 256.72,-258.23 251.88,-253.17"/>
</g>
<!-- Node10 -->
<g id="node10" class="node">
<title>Node10</title>
<g id="a_node10"><a xlink:href="_temperature__observer_8h.html" target="_top" xlink:title=" ">
<polygon fill="white" stroke="#666666" points="329,-140 180,-140 180,-88 329,-88 329,-140"/>
<text text-anchor="start" x="188" y="-128" font-family="Helvetica,sans-Serif" font-size="10.00">C:/Users/juanh/OneDrive</text>
<text text-anchor="start" x="188" y="-117" font-family="Helvetica,sans-Serif" font-size="10.00">/Escritorio/Facultad/Beca</text>
<text text-anchor="start" x="188" y="-106" font-family="Helvetica,sans-Serif" font-size="10.00">/Proyecto/LAL_Control/include</text>
<text text-anchor="middle" x="254.5" y="-95" font-family="Helvetica,sans-Serif" font-size="10.00">/Temperature_observer.h</text>
</a>
</g>
</g>
<!-- Node4&#45;&gt;Node10 -->
<g id="edge19" class="edge">
<title>Node4&#45;&gt;Node10</title>
<path fill="none" stroke="#63b8ff" d="M226.16,-252.35C227.64,-230.1 230.4,-201.22 235.5,-176 237.92,-164.04 241.77,-151.1 245.37,-140.22"/>
<polygon fill="#63b8ff" stroke="#63b8ff" points="222.68,-251.94 225.57,-262.14 229.67,-252.37 222.68,-251.94"/>
</g>
<!-- Node5&#45;&gt;Node6 -->
<g id="edge7" class="edge">
<title>Node5&#45;&gt;Node6</title>
<path fill="none" stroke="#63b8ff" d="M172.84,-84.1C208.86,-71.91 249.91,-58.01 282.49,-46.98"/>
<polygon fill="#63b8ff" stroke="#63b8ff" points="172.12,-80.65 163.77,-87.18 174.36,-87.28 172.12,-80.65"/>
</g>
<!-- Node7 -->
<g id="node7" class="node">
<title>Node7</title>
<g id="a_node7"><a xlink:href="_instruction__observer_8cpp.html" target="_top" xlink:title=" ">
<polygon fill="white" stroke="#666666" points="153,-52 22,-52 22,0 153,0 153,-52"/>
<text text-anchor="start" x="30" y="-40" font-family="Helvetica,sans-Serif" font-size="10.00">C:/Users/juanh/OneDrive</text>
<text text-anchor="start" x="30" y="-29" font-family="Helvetica,sans-Serif" font-size="10.00">/Escritorio/Facultad/Beca</text>
<text text-anchor="start" x="30" y="-18" font-family="Helvetica,sans-Serif" font-size="10.00">/Proyecto/LAL_Control/src</text>
<text text-anchor="middle" x="87.5" y="-7" font-family="Helvetica,sans-Serif" font-size="10.00">/Instruction_observer.cpp</text>
</a>
</g>
</g>
<!-- Node5&#45;&gt;Node7 -->
<g id="edge8" class="edge">
<title>Node5&#45;&gt;Node7</title>
<path fill="none" stroke="#63b8ff" d="M87.5,-76.26C87.5,-68.24 87.5,-59.92 87.5,-52.45"/>
<polygon fill="#63b8ff" stroke="#63b8ff" points="84,-76.15 87.5,-86.15 91,-76.15 84,-76.15"/>
</g>
<!-- Node8&#45;&gt;Node6 -->
<g id="edge10" class="edge">
<title>Node8&#45;&gt;Node6</title>
<path fill="none" stroke="#63b8ff" d="M390.32,-79.48C380.1,-68.49 369.07,-56.64 360.09,-46.98"/>
<polygon fill="#63b8ff" stroke="#63b8ff" points="387.53,-81.62 396.9,-86.55 392.65,-76.85 387.53,-81.62"/>
</g>
<!-- Node9&#45;&gt;Node4 -->
<g id="edge14" class="edge">
<title>Node9&#45;&gt;Node4</title>
<path fill="none" stroke="#63b8ff" d="M288.75,-236.25C279.09,-245.36 268.34,-255.08 258.41,-263.66"/>
<polygon fill="#63b8ff" stroke="#63b8ff" points="291,-238.94 295.81,-229.5 286.16,-233.88 291,-238.94"/>
</g>
<!-- Node9&#45;&gt;Node5 -->
<g id="edge15" class="edge">
<title>Node9&#45;&gt;Node5</title>
<path fill="none" stroke="#63b8ff" d="M239.46,-171.57C212.23,-161.44 181.99,-150.18 155.69,-140.39"/>
<polygon fill="#63b8ff" stroke="#63b8ff" points="238.12,-174.81 248.71,-175.02 240.56,-168.25 238.12,-174.81"/>
</g>
<!-- Node9&#45;&gt;Node8 -->
<g id="edge16" class="edge">
<title>Node9&#45;&gt;Node8</title>
<path fill="none" stroke="#63b8ff" d="M357.52,-168.42C368.61,-159.16 380.51,-149.22 391.01,-140.45"/>
<polygon fill="#63b8ff" stroke="#63b8ff" points="355.44,-165.6 350.01,-174.69 359.93,-170.97 355.44,-165.6"/>
</g>
<!-- Node9&#45;&gt;Node10 -->
<g id="edge17" class="edge">
<title>Node9&#45;&gt;Node10</title>
<path fill="none" stroke="#63b8ff" d="M292.82,-166.49C286.34,-157.79 279.51,-148.61 273.44,-140.45"/>
<polygon fill="#63b8ff" stroke="#63b8ff" points="289.96,-168.52 298.74,-174.45 295.58,-164.34 289.96,-168.52"/>
</g>
<!-- Node10&#45;&gt;Node6 -->
<g id="edge18" class="edge">
<title>Node10&#45;&gt;Node6</title>
<path fill="none" stroke="#63b8ff" d="M288.08,-79.8C299.29,-68.73 311.42,-56.73 321.29,-46.98"/>
<polygon fill="#63b8ff" stroke="#63b8ff" points="285.86,-77.08 281.21,-86.6 290.78,-82.06 285.86,-77.08"/>
</g>
</g>
</svg>
