<?xml version="1.0" encoding="UTF-8" standalone="no"?>
<!DOCTYPE svg PUBLIC "-//W3C//DTD SVG 1.1//EN"
 "http://www.w3.org/Graphics/SVG/1.1/DTD/svg11.dtd">
<!-- Generated by graphviz version 7.0.2 (20221119.0110)
 -->
<!-- Title: C:/Users/juanh/OneDrive/Escritorio/Facultad/Beca/Proyecto/LAL_Control/include/Observer_interface.h Pages: 1 -->
<!--zoomable 500 -->
<svg id="main" version="1.1" xmlns="http://www.w3.org/2000/svg" xmlns:xlink="http://www.w3.org/1999/xlink" xml:space="preserve" onload="init(evt)">
<style type="text/css"><![CDATA[
.edge:hover path { stroke: red; }
.edge:hover polygon { stroke: red; fill: red; }
]]></style>
<script type="text/javascript"><![CDATA[
var edges = document.getElementsByTagName('g');
if (edges && edges.length) {
  for (var i=0;i<edges.length;i++) {
    if (edges[i].id.substr(0,4)=='edge') {
      edges[i].setAttribute('class','edge');
    }
  }
}
]]></script>
        <defs>
                <circle id="rim" cx="0" cy="0" r="7"/>
                <circle id="rim2" cx="0" cy="0" r="3.5"/>
                <g id="zoomPlus">
                        <use xlink:href="#rim" fill="#404040">
                                <set attributeName="fill" to="#808080" begin="zoomplus.mouseover" end="zoomplus.mouseout"/>
                        </use>
                        <path d="M-4,0h8M0,-4v8" fill="none" stroke="white" stroke-width="1.5" pointer-events="none"/>
                </g>
                <g id="zoomMin">
                        <use xlink:href="#rim" fill="#404040">
                                <set attributeName="fill" to="#808080" begin="zoomminus.mouseover" end="zoomminus.mouseout"/>
                        </use>
                        <path d="M-4,0h8" fill="none" stroke="white" stroke-width="1.5" pointer-events="none"/>
                </g>
                <g id="dirArrow">
                        <path fill="none" stroke="white" stroke-width="1.5" d="M0,-3.0v7 M-2.5,-0.5L0,-3.0L2.5,-0.5"/>
                </g>
               <g id="resetDef">
                       <use xlink:href="#rim2" fill="#404040">
                               <set attributeName="fill" to="#808080" begin="reset.mouseover" end="reset.mouseout"/>
                       </use>
               </g>
        </defs>

<script type="text/javascript">
var viewWidth = 847;
var viewHeight = 500;
var sectionId = 'dynsection-0';
</script>
<script xlink:href="svgpan.js"/>
<svg id="graph" class="graph">
<g id="viewport">
<title>C:/Users/juanh/OneDrive/Escritorio/Facultad/Beca/Proyecto/LAL_Control/include/Observer_interface.h</title>
<!-- Node1 -->
<g id="node1" class="node">
<title>Node1</title>
<g id="a_node1"><a xlink:title=" ">
<polygon fill="#999999" stroke="#666666" points="459,-492 310,-492 310,-440 459,-440 459,-492"/>
<text text-anchor="start" x="318" y="-480" font-family="Helvetica,sans-Serif" font-size="10.00">C:/Users/juanh/OneDrive</text>
<text text-anchor="start" x="318" y="-469" font-family="Helvetica,sans-Serif" font-size="10.00">/Escritorio/Facultad/Beca</text>
<text text-anchor="start" x="318" y="-458" font-family="Helvetica,sans-Serif" font-size="10.00">/Proyecto/LAL_Control/include</text>
<text text-anchor="middle" x="384.5" y="-447" font-family="Helvetica,sans-Serif" font-size="10.00">/Observer_interface.h</text>
</a>
</g>
</g>
<!-- Node2 -->
<g id="node2" class="node">
<title>Node2</title>
<g id="a_node2"><a xlink:href="_observer_8h.html" target="_top" xlink:title=" ">
<polygon fill="white" stroke="#666666" points="376,-404 227,-404 227,-352 376,-352 376,-404"/>
<text text-anchor="start" x="235" y="-392" font-family="Helvetica,sans-Serif" font-size="10.00">C:/Users/juanh/OneDrive</text>
<text text-anchor="start" x="235" y="-381" font-family="Helvetica,sans-Serif" font-size="10.00">/Escritorio/Facultad/Beca</text>
<text text-anchor="start" x="235" y="-370" font-family="Helvetica,sans-Serif" font-size="10.00">/Proyecto/LAL_Control/include</text>
<text text-anchor="middle" x="301.5" y="-359" font-family="Helvetica,sans-Serif" font-size="10.00">/Observer.h</text>
</a>
</g>
</g>
<!-- Node1&#45;&gt;Node2 -->
<g id="edge1" class="edge">
<title>Node1&#45;&gt;Node2</title>
<path fill="none" stroke="#63b8ff" d="M352.26,-431.59C343.55,-422.57 334.28,-412.96 326.07,-404.45"/>
<polygon fill="#63b8ff" stroke="#63b8ff" points="349.53,-433.81 359,-438.57 354.57,-428.95 349.53,-433.81"/>
</g>
<!-- Node13 -->
<g id="node13" class="node">
<title>Node13</title>
<g id="a_node13"><a xlink:href="_subject_8h.html" target="_top" xlink:title=" ">
<polygon fill="white" stroke="#666666" points="543,-404 394,-404 394,-352 543,-352 543,-404"/>
<text text-anchor="start" x="402" y="-392" font-family="Helvetica,sans-Serif" font-size="10.00">C:/Users/juanh/OneDrive</text>
<text text-anchor="start" x="402" y="-381" font-family="Helvetica,sans-Serif" font-size="10.00">/Escritorio/Facultad/Beca</text>
<text text-anchor="start" x="402" y="-370" font-family="Helvetica,sans-Serif" font-size="10.00">/Proyecto/LAL_Control/include</text>
<text text-anchor="middle" x="468.5" y="-359" font-family="Helvetica,sans-Serif" font-size="10.00">/Subject.h</text>
</a>
</g>
</g>
<!-- Node1&#45;&gt;Node13 -->
<g id="edge23" class="edge">
<title>Node1&#45;&gt;Node13</title>
<path fill="none" stroke="#63b8ff" d="M417.13,-431.59C425.94,-422.57 435.33,-412.96 443.64,-404.45"/>
<polygon fill="#63b8ff" stroke="#63b8ff" points="414.79,-428.98 410.31,-438.58 419.8,-433.87 414.79,-428.98"/>
</g>
<!-- Node3 -->
<g id="node3" class="node">
<title>Node3</title>
<g id="a_node3"><a xlink:href="_system__observer_8h.html" target="_top" xlink:title=" ">
<polygon fill="white" stroke="#666666" points="376,-316 227,-316 227,-264 376,-264 376,-316"/>
<text text-anchor="start" x="235" y="-304" font-family="Helvetica,sans-Serif" font-size="10.00">C:/Users/juanh/OneDrive</text>
<text text-anchor="start" x="235" y="-293" font-family="Helvetica,sans-Serif" font-size="10.00">/Escritorio/Facultad/Beca</text>
<text text-anchor="start" x="235" y="-282" font-family="Helvetica,sans-Serif" font-size="10.00">/Proyecto/LAL_Control/include</text>
<text text-anchor="middle" x="301.5" y="-271" font-family="Helvetica,sans-Serif" font-size="10.00">/System_observer.h</text>
</a>
</g>
</g>
<!-- Node2&#45;&gt;Node3 -->
<g id="edge2" class="edge">
<title>Node2&#45;&gt;Node3</title>
<path fill="none" stroke="#63b8ff" d="M301.5,-340.26C301.5,-332.24 301.5,-323.92 301.5,-316.45"/>
<polygon fill="#63b8ff" stroke="#63b8ff" points="298,-340.15 301.5,-350.15 305,-340.15 298,-340.15"/>
</g>
<!-- Node4 -->
<g id="node4" class="node">
<title>Node4</title>
<g id="a_node4"><a xlink:href="_control__system_8h_source.html" target="_top" xlink:title=" ">
<polygon fill="white" stroke="#666666" points="586,-228 437,-228 437,-176 586,-176 586,-228"/>
<text text-anchor="start" x="445" y="-216" font-family="Helvetica,sans-Serif" font-size="10.00">C:/Users/juanh/OneDrive</text>
<text text-anchor="start" x="445" y="-205" font-family="Helvetica,sans-Serif" font-size="10.00">/Escritorio/Facultad/Beca</text>
<text text-anchor="start" x="445" y="-194" font-family="Helvetica,sans-Serif" font-size="10.00">/Proyecto/LAL_Control/include</text>
<text text-anchor="middle" x="511.5" y="-183" font-family="Helvetica,sans-Serif" font-size="10.00">/Control_system.h</text>
</a>
</g>
</g>
<!-- Node3&#45;&gt;Node4 -->
<g id="edge3" class="edge">
<title>Node3&#45;&gt;Node4</title>
<path fill="none" stroke="#63b8ff" d="M367.88,-259.17C391.92,-249.14 419.09,-238.05 443.29,-228.39"/>
<polygon fill="#63b8ff" stroke="#63b8ff" points="366.7,-255.87 358.83,-262.96 369.4,-262.33 366.7,-255.87"/>
</g>
<!-- Node8 -->
<g id="node8" class="node">
<title>Node8</title>
<g id="a_node8"><a xlink:href="_instruction__observer_8h.html" target="_top" xlink:title=" ">
<polygon fill="white" stroke="#666666" points="149,-140 0,-140 0,-88 149,-88 149,-140"/>
<text text-anchor="start" x="8" y="-128" font-family="Helvetica,sans-Serif" font-size="10.00">C:/Users/juanh/OneDrive</text>
<text text-anchor="start" x="8" y="-117" font-family="Helvetica,sans-Serif" font-size="10.00">/Escritorio/Facultad/Beca</text>
<text text-anchor="start" x="8" y="-106" font-family="Helvetica,sans-Serif" font-size="10.00">/Proyecto/LAL_Control/include</text>
<text text-anchor="middle" x="74.5" y="-95" font-family="Helvetica,sans-Serif" font-size="10.00">/Instruction_observer.h</text>
</a>
</g>
</g>
<!-- Node3&#45;&gt;Node8 -->
<g id="edge20" class="edge">
<title>Node3&#45;&gt;Node8</title>
<path fill="none" stroke="#63b8ff" d="M259.52,-256.82C215.65,-223.2 147.75,-171.14 107.55,-140.33"/>
<polygon fill="#63b8ff" stroke="#63b8ff" points="257.23,-259.47 267.29,-262.78 261.48,-253.92 257.23,-259.47"/>
</g>
<!-- Node11 -->
<g id="node11" class="node">
<title>Node11</title>
<g id="a_node11"><a xlink:href="_moisture__observer_8h_source.html" target="_top" xlink:title=" ">
<polygon fill="white" stroke="#666666" points="316,-140 167,-140 167,-88 316,-88 316,-140"/>
<text text-anchor="start" x="175" y="-128" font-family="Helvetica,sans-Serif" font-size="10.00">C:/Users/juanh/OneDrive</text>
<text text-anchor="start" x="175" y="-117" font-family="Helvetica,sans-Serif" font-size="10.00">/Escritorio/Facultad/Beca</text>
<text text-anchor="start" x="175" y="-106" font-family="Helvetica,sans-Serif" font-size="10.00">/Proyecto/LAL_Control/include</text>
<text text-anchor="middle" x="241.5" y="-95" font-family="Helvetica,sans-Serif" font-size="10.00">/Moisture_observer.h</text>
</a>
</g>
</g>
<!-- Node3&#45;&gt;Node11 -->
<g id="edge21" class="edge">
<title>Node3&#45;&gt;Node11</title>
<path fill="none" stroke="#63b8ff" d="M289.07,-252.94C277.47,-219.31 260.46,-169.98 250.24,-140.33"/>
<polygon fill="#63b8ff" stroke="#63b8ff" points="285.71,-253.96 292.28,-262.27 292.33,-251.67 285.71,-253.96"/>
</g>
<!-- Node12 -->
<g id="node12" class="node">
<title>Node12</title>
<g id="a_node12"><a xlink:href="_temperature__observer_8h.html" target="_top" xlink:title=" ">
<polygon fill="white" stroke="#666666" points="483,-140 334,-140 334,-88 483,-88 483,-140"/>
<text text-anchor="start" x="342" y="-128" font-family="Helvetica,sans-Serif" font-size="10.00">C:/Users/juanh/OneDrive</text>
<text text-anchor="start" x="342" y="-117" font-family="Helvetica,sans-Serif" font-size="10.00">/Escritorio/Facultad/Beca</text>
<text text-anchor="start" x="342" y="-106" font-family="Helvetica,sans-Serif" font-size="10.00">/Proyecto/LAL_Control/include</text>
<text text-anchor="middle" x="408.5" y="-95" font-family="Helvetica,sans-Serif" font-size="10.00">/Temperature_observer.h</text>
</a>
</g>
</g>
<!-- Node3&#45;&gt;Node12 -->
<g id="edge22" class="edge">
<title>Node3&#45;&gt;Node12</title>
<path fill="none" stroke="#63b8ff" d="M322.87,-254.25C343.56,-220.6 374.45,-170.37 392.92,-140.33"/>
<polygon fill="#63b8ff" stroke="#63b8ff" points="320.11,-252.06 317.85,-262.41 326.07,-255.72 320.11,-252.06"/>
</g>
<!-- Node4&#45;&gt;Node3 -->
<g id="edge16" class="edge">
<title>Node4&#45;&gt;Node3</title>
<path fill="none" stroke="#63b8ff" d="M445.28,-232.76C421.25,-242.79 394.09,-253.88 369.88,-263.55"/>
<polygon fill="#63b8ff" stroke="#63b8ff" points="446.46,-236.06 454.33,-228.97 443.75,-229.61 446.46,-236.06"/>
</g>
<!-- Node5 -->
<g id="node5" class="node">
<title>Node5</title>
<g id="a_node5"><a xlink:href="_idle__state_8h.html" target="_top" xlink:title=" ">
<polygon fill="white" stroke="#666666" points="727,-140 578,-140 578,-88 727,-88 727,-140"/>
<text text-anchor="start" x="586" y="-128" font-family="Helvetica,sans-Serif" font-size="10.00">C:/Users/juanh/OneDrive</text>
<text text-anchor="start" x="586" y="-117" font-family="Helvetica,sans-Serif" font-size="10.00">/Escritorio/Facultad/Beca</text>
<text text-anchor="start" x="586" y="-106" font-family="Helvetica,sans-Serif" font-size="10.00">/Proyecto/LAL_Control/include</text>
<text text-anchor="middle" x="652.5" y="-95" font-family="Helvetica,sans-Serif" font-size="10.00">/Idle_state.h</text>
</a>
</g>
</g>
<!-- Node4&#45;&gt;Node5 -->
<g id="edge4" class="edge">
<title>Node4&#45;&gt;Node5</title>
<path fill="none" stroke="#63b8ff" d="M562.67,-169.79C578.47,-160.15 595.68,-149.66 610.77,-140.45"/>
<polygon fill="#63b8ff" stroke="#63b8ff" points="561.05,-166.68 554.33,-174.87 564.69,-172.66 561.05,-166.68"/>
</g>
<!-- Node6 -->
<g id="node6" class="node">
<title>Node6</title>
<g id="a_node6"><a xlink:href="_motor__control__state_8h_source.html" target="_top" xlink:title=" ">
<polygon fill="white" stroke="#666666" points="672,-52 523,-52 523,0 672,0 672,-52"/>
<text text-anchor="start" x="531" y="-40" font-family="Helvetica,sans-Serif" font-size="10.00">C:/Users/juanh/OneDrive</text>
<text text-anchor="start" x="531" y="-29" font-family="Helvetica,sans-Serif" font-size="10.00">/Escritorio/Facultad/Beca</text>
<text text-anchor="start" x="531" y="-18" font-family="Helvetica,sans-Serif" font-size="10.00">/Proyecto/LAL_Control/include</text>
<text text-anchor="middle" x="597.5" y="-7" font-family="Helvetica,sans-Serif" font-size="10.00">/Motor_control_state.h</text>
</a>
</g>
</g>
<!-- Node4&#45;&gt;Node6 -->
<g id="edge14" class="edge">
<title>Node4&#45;&gt;Node6</title>
<path fill="none" stroke="#63b8ff" d="M529.1,-165.38C545.73,-131.74 570.26,-82.11 584.98,-52.33"/>
<polygon fill="#63b8ff" stroke="#63b8ff" points="525.97,-163.83 524.68,-174.34 532.24,-166.93 525.97,-163.83"/>
</g>
<!-- Node7 -->
<g id="node7" class="node">
<title>Node7</title>
<g id="a_node7"><a xlink:href="_shutdown__state_8h_source.html" target="_top" xlink:title=" ">
<polygon fill="white" stroke="#666666" points="839,-52 690,-52 690,0 839,0 839,-52"/>
<text text-anchor="start" x="698" y="-40" font-family="Helvetica,sans-Serif" font-size="10.00">C:/Users/juanh/OneDrive</text>
<text text-anchor="start" x="698" y="-29" font-family="Helvetica,sans-Serif" font-size="10.00">/Escritorio/Facultad/Beca</text>
<text text-anchor="start" x="698" y="-18" font-family="Helvetica,sans-Serif" font-size="10.00">/Proyecto/LAL_Control/include</text>
<text text-anchor="middle" x="764.5" y="-7" font-family="Helvetica,sans-Serif" font-size="10.00">/Shutdown_state.h</text>
</a>
</g>
</g>
<!-- Node4&#45;&gt;Node7 -->
<g id="edge15" class="edge">
<title>Node4&#45;&gt;Node7</title>
<path fill="none" stroke="#63b8ff" d="M597.65,-197.05C641.93,-190.3 693.52,-174.73 727.5,-140 750.4,-116.6 755.53,-77.56 758.49,-52.05"/>
<polygon fill="#63b8ff" stroke="#63b8ff" points="597.19,-193.57 587.77,-198.41 598.15,-200.51 597.19,-193.57"/>
</g>
<!-- Node4&#45;&gt;Node8 -->
<g id="edge9" class="edge">
<title>Node4&#45;&gt;Node8</title>
<path fill="none" stroke="#63b8ff" d="M425.45,-189.17C353.4,-178.56 248.1,-161.37 157.5,-140 154.86,-139.38 152.19,-138.72 149.49,-138.03"/>
<polygon fill="#63b8ff" stroke="#63b8ff" points="424.82,-192.62 435.22,-190.6 425.84,-185.69 424.82,-192.62"/>
</g>
<!-- Node9 -->
<g id="node9" class="node">
<title>Node9</title>
<g id="a_node9"><a xlink:href="main_8h_source.html" target="_top" xlink:title=" ">
<polygon fill="white" stroke="#666666" points="419,-46.5 238,-46.5 238,-5.5 419,-5.5 419,-46.5"/>
<text text-anchor="start" x="246" y="-34.5" font-family="Helvetica,sans-Serif" font-size="10.00">C:/Users/juanh/OneDrive</text>
<text text-anchor="start" x="246" y="-23.5" font-family="Helvetica,sans-Serif" font-size="10.00">/Escritorio/Facultad/Beca</text>
<text text-anchor="middle" x="328.5" y="-12.5" font-family="Helvetica,sans-Serif" font-size="10.00">/Proyecto/LAL_Control/include/main.h</text>
</a>
</g>
</g>
<!-- Node4&#45;&gt;Node9 -->
<g id="edge19" class="edge">
<title>Node4&#45;&gt;Node9</title>
<path fill="none" stroke="#63b8ff" d="M514.26,-164.33C514.11,-140.12 509.93,-109.09 492.5,-88 474.02,-65.64 446.5,-51.47 419.27,-42.5"/>
<polygon fill="#63b8ff" stroke="#63b8ff" points="510.76,-164.02 514.07,-174.08 517.76,-164.15 510.76,-164.02"/>
</g>
<!-- Node4&#45;&gt;Node11 -->
<g id="edge12" class="edge">
<title>Node4&#45;&gt;Node11</title>
<path fill="none" stroke="#63b8ff" d="M425.92,-173.74C390.78,-162.55 350.46,-149.71 316.5,-138.89"/>
<polygon fill="#63b8ff" stroke="#63b8ff" points="424.62,-177 435.21,-176.7 426.74,-170.33 424.62,-177"/>
</g>
<!-- Node4&#45;&gt;Node12 -->
<g id="edge17" class="edge">
<title>Node4&#45;&gt;Node12</title>
<path fill="none" stroke="#63b8ff" d="M472.48,-168.42C461.39,-159.16 449.49,-149.22 438.99,-140.45"/>
<polygon fill="#63b8ff" stroke="#63b8ff" points="470.07,-170.97 479.99,-174.69 474.56,-165.6 470.07,-170.97"/>
</g>
<!-- Node5&#45;&gt;Node6 -->
<g id="edge5" class="edge">
<title>Node5&#45;&gt;Node6</title>
<path fill="none" stroke="#63b8ff" d="M623.61,-78.21C617.87,-69.6 612.21,-60.53 607.56,-52.45"/>
<polygon fill="#63b8ff" stroke="#63b8ff" points="620.69,-80.14 629.22,-86.41 626.47,-76.18 620.69,-80.14"/>
</g>
<!-- Node5&#45;&gt;Node7 -->
<g id="edge7" class="edge">
<title>Node5&#45;&gt;Node7</title>
<path fill="none" stroke="#63b8ff" d="M694.57,-80.7C706.73,-71.36 719.82,-61.31 731.35,-52.45"/>
<polygon fill="#63b8ff" stroke="#63b8ff" points="692.5,-77.87 686.7,-86.74 696.76,-83.43 692.5,-77.87"/>
</g>
<!-- Node6&#45;&gt;Node5 -->
<g id="edge6" class="edge">
<title>Node6&#45;&gt;Node5</title>
<path fill="none" stroke="#63b8ff" d="M626.47,-61.91C632.21,-70.53 637.87,-79.6 642.51,-87.66"/>
<polygon fill="#63b8ff" stroke="#63b8ff" points="629.39,-59.98 620.86,-53.7 623.61,-63.93 629.39,-59.98"/>
</g>
<!-- Node7&#45;&gt;Node4 -->
<g id="edge8" class="edge">
<title>Node7&#45;&gt;Node4</title>
<path fill="none" stroke="#63b8ff" d="M772.17,-63.53C771.73,-88.23 765.18,-119.89 745.5,-140 704.6,-181.8 638.19,-195.85 586.47,-200.16"/>
<polygon fill="#63b8ff" stroke="#63b8ff" points="775.67,-63.49 771.96,-53.56 768.67,-63.64 775.67,-63.49"/>
</g>
<!-- Node8&#45;&gt;Node9 -->
<g id="edge10" class="edge">
<title>Node8&#45;&gt;Node9</title>
<path fill="none" stroke="#63b8ff" d="M159.84,-84.1C195.86,-71.91 236.91,-58.01 269.49,-46.98"/>
<polygon fill="#63b8ff" stroke="#63b8ff" points="159.12,-80.65 150.77,-87.18 161.36,-87.28 159.12,-80.65"/>
</g>
<!-- Node10 -->
<g id="node10" class="node">
<title>Node10</title>
<g id="a_node10"><a xlink:href="_instruction__observer_8cpp.html" target="_top" xlink:title=" ">
<polygon fill="white" stroke="#666666" points="140,-52 9,-52 9,0 140,0 140,-52"/>
<text text-anchor="start" x="17" y="-40" font-family="Helvetica,sans-Serif" font-size="10.00">C:/Users/juanh/OneDrive</text>
<text text-anchor="start" x="17" y="-29" font-family="Helvetica,sans-Serif" font-size="10.00">/Escritorio/Facultad/Beca</text>
<text text-anchor="start" x="17" y="-18" font-family="Helvetica,sans-Serif" font-size="10.00">/Proyecto/LAL_Control/src</text>
<text text-anchor="middle" x="74.5" y="-7" font-family="Helvetica,sans-Serif" font-size="10.00">/Instruction_observer.cpp</text>
</a>
</g>
</g>
<!-- Node8&#45;&gt;Node10 -->
<g id="edge11" class="edge">
<title>Node8&#45;&gt;Node10</title>
<path fill="none" stroke="#63b8ff" d="M74.5,-76.26C74.5,-68.24 74.5,-59.92 74.5,-52.45"/>
<polygon fill="#63b8ff" stroke="#63b8ff" points="71,-76.15 74.5,-86.15 78,-76.15 71,-76.15"/>
</g>
<!-- Node11&#45;&gt;Node9 -->
<g id="edge13" class="edge">
<title>Node11&#45;&gt;Node9</title>
<path fill="none" stroke="#63b8ff" d="M275.08,-79.8C286.29,-68.73 298.42,-56.73 308.29,-46.98"/>
<polygon fill="#63b8ff" stroke="#63b8ff" points="272.86,-77.08 268.21,-86.6 277.78,-82.06 272.86,-77.08"/>
</g>
<!-- Node12&#45;&gt;Node9 -->
<g id="edge18" class="edge">
<title>Node12&#45;&gt;Node9</title>
<path fill="none" stroke="#63b8ff" d="M377.32,-79.48C367.1,-68.49 356.07,-56.64 347.09,-46.98"/>
<polygon fill="#63b8ff" stroke="#63b8ff" points="374.53,-81.62 383.9,-86.55 379.65,-76.85 374.53,-81.62"/>
</g>
<!-- Node13&#45;&gt;Node4 -->
<g id="edge24" class="edge">
<title>Node13&#45;&gt;Node4</title>
<path fill="none" stroke="#63b8ff" d="M514.55,-343.96C522.66,-335.81 529.95,-326.4 534.5,-316 547.02,-287.39 535.74,-251.68 525.02,-228.16"/>
<polygon fill="#63b8ff" stroke="#63b8ff" points="512.29,-341.28 507.34,-350.65 517.05,-346.41 512.29,-341.28"/>
</g>
<!-- Node14 -->
<g id="node14" class="node">
<title>Node14</title>
<g id="a_node14"><a xlink:href="_subject_8cpp.html" target="_top" xlink:title=" ">
<polygon fill="white" stroke="#666666" points="525,-316 394,-316 394,-264 525,-264 525,-316"/>
<text text-anchor="start" x="402" y="-304" font-family="Helvetica,sans-Serif" font-size="10.00">C:/Users/juanh/OneDrive</text>
<text text-anchor="start" x="402" y="-293" font-family="Helvetica,sans-Serif" font-size="10.00">/Escritorio/Facultad/Beca</text>
<text text-anchor="start" x="402" y="-282" font-family="Helvetica,sans-Serif" font-size="10.00">/Proyecto/LAL_Control/src</text>
<text text-anchor="middle" x="459.5" y="-271" font-family="Helvetica,sans-Serif" font-size="10.00">/Subject.cpp</text>
</a>
</g>
</g>
<!-- Node13&#45;&gt;Node14 -->
<g id="edge25" class="edge">
<title>Node13&#45;&gt;Node14</title>
<path fill="none" stroke="#63b8ff" d="M464.65,-340.26C463.82,-332.24 462.95,-323.92 462.16,-316.45"/>
<polygon fill="#63b8ff" stroke="#63b8ff" points="461.17,-340.58 465.69,-350.16 468.13,-339.85 461.17,-340.58"/>
</g>
</g>
</svg>
        <g id="navigator" transform="translate(0 0)" fill="#404254">
                <rect fill="#f2f5e9" fill-opacity="0.5" stroke="#606060" stroke-width=".5" x="0" y="0" width="60" height="60"/>
                <use id="zoomplus" xlink:href="#zoomPlus" x="17" y="9" onmousedown="handleZoom(evt,'in')"/>
                <use id="zoomminus" xlink:href="#zoomMin" x="42" y="9" onmousedown="handleZoom(evt,'out')"/>
                <use id="reset" xlink:href="#resetDef" x="30" y="36" onmousedown="handleReset()"/>
                <g id="arrowUp" xlink:href="#dirArrow" transform="translate(30 24)" onmousedown="handlePan(0,-1)">
                  <use xlink:href="#rim" fill="#404040">
                        <set attributeName="fill" to="#808080" begin="arrowUp.mouseover" end="arrowUp.mouseout"/>
                  </use>
                  <path fill="none" stroke="white" stroke-width="1.5" d="M0,-3.0v7 M-2.5,-0.5L0,-3.0L2.5,-0.5"/>
                </g>
                <g id="arrowRight" xlink:href="#dirArrow" transform="rotate(90) translate(36 -43)" onmousedown="handlePan(1,0)">
                  <use xlink:href="#rim" fill="#404040">
                        <set attributeName="fill" to="#808080" begin="arrowRight.mouseover" end="arrowRight.mouseout"/>
                  </use>
                  <path fill="none" stroke="white" stroke-width="1.5" d="M0,-3.0v7 M-2.5,-0.5L0,-3.0L2.5,-0.5"/>
                </g>
                <g id="arrowDown" xlink:href="#dirArrow" transform="rotate(180) translate(-30 -48)" onmousedown="handlePan(0,1)">
                  <use xlink:href="#rim" fill="#404040">
                        <set attributeName="fill" to="#808080" begin="arrowDown.mouseover" end="arrowDown.mouseout"/>
                  </use>
                  <path fill="none" stroke="white" stroke-width="1.5" d="M0,-3.0v7 M-2.5,-0.5L0,-3.0L2.5,-0.5"/>
                </g>
                <g id="arrowLeft" xlink:href="#dirArrow" transform="rotate(270) translate(-36 17)" onmousedown="handlePan(-1,0)">
                  <use xlink:href="#rim" fill="#404040">
                        <set attributeName="fill" to="#808080" begin="arrowLeft.mouseover" end="arrowLeft.mouseout"/>
                  </use>
                  <path fill="none" stroke="white" stroke-width="1.5" d="M0,-3.0v7 M-2.5,-0.5L0,-3.0L2.5,-0.5"/>
                </g>
        </g>
        <svg viewBox="0 0 15 15" width="100%" height="30px" preserveAspectRatio="xMaxYMin meet">
         <g id="arrow_out" transform="scale(0.3 0.3)">
          <a xlink:href="_observer__interface_8h__dep__incl_org.svg" target="_base">
           <rect id="button" ry="5" rx="5" y="6" x="6" height="38" width="38"
                fill="#f2f5e9" fill-opacity="0.5" stroke="#606060" stroke-width="1.0"/>
           <path id="arrow"
             d="M 11.500037,31.436501 C 11.940474,20.09759 22.043105,11.32322 32.158766,21.979434 L 37.068811,17.246167 C 37.068811,17.246167 37.088388,32 37.088388,32 L 22.160133,31.978069 C 22.160133,31.978069 26.997745,27.140456 26.997745,27.140456 C 18.528582,18.264221 13.291696,25.230495 11.500037,31.436501 z"
             style="fill:#404040;"/>
          </a>
         </g>
        </svg>
</svg>
