<?xml version="1.0" encoding="UTF-8" standalone="no"?>
<!DOCTYPE svg PUBLIC "-//W3C//DTD SVG 1.1//EN"
 "http://www.w3.org/Graphics/SVG/1.1/DTD/svg11.dtd">
<!-- Generated by graphviz version 7.0.2 (20221119.0110)
 -->
<!-- Title: C:/Users/juanh/OneDrive/Escritorio/Facultad/Beca/Proyecto/LAL_Control/include/observer_pattern/observers/Observer.h Pages: 1 -->
<svg width="839pt" height="456pt"
 viewBox="0.00 0.00 838.50 456.00" xmlns="http://www.w3.org/2000/svg" xmlns:xlink="http://www.w3.org/1999/xlink">
<g id="graph0" class="graph" transform="scale(1 1) rotate(0) translate(4 452)">
<title>C:/Users/juanh/OneDrive/Escritorio/Facultad/Beca/Proyecto/LAL_Control/include/observer_pattern/observers/Observer.h</title>
<!-- Node1 -->
<g id="node1" class="node">
<title>Node1</title>
<g id="a_node1"><a xlink:title="Clase observador.">
<polygon fill="#999999" stroke="#666666" points="496.5,-448 347.5,-448 347.5,-385 496.5,-385 496.5,-448"/>
<text text-anchor="start" x="355.5" y="-436" font-family="Helvetica,sans-Serif" font-size="10.00">C:/Users/juanh/OneDrive</text>
<text text-anchor="start" x="355.5" y="-425" font-family="Helvetica,sans-Serif" font-size="10.00">/Escritorio/Facultad/Beca</text>
<text text-anchor="start" x="355.5" y="-414" font-family="Helvetica,sans-Serif" font-size="10.00">/Proyecto/LAL_Control/include</text>
<text text-anchor="start" x="355.5" y="-403" font-family="Helvetica,sans-Serif" font-size="10.00">/observer_pattern/observers</text>
<text text-anchor="middle" x="422" y="-392" font-family="Helvetica,sans-Serif" font-size="10.00">/Observer.h</text>
</a>
</g>
</g>
<!-- Node2 -->
<g id="node2" class="node">
<title>Node2</title>
<g id="a_node2"><a xlink:href="_system__observer_8h.html" target="_top" xlink:title="Clase observador del sistema de control.">
<polygon fill="white" stroke="#666666" points="496.5,-349 347.5,-349 347.5,-286 496.5,-286 496.5,-349"/>
<text text-anchor="start" x="355.5" y="-337" font-family="Helvetica,sans-Serif" font-size="10.00">C:/Users/juanh/OneDrive</text>
<text text-anchor="start" x="355.5" y="-326" font-family="Helvetica,sans-Serif" font-size="10.00">/Escritorio/Facultad/Beca</text>
<text text-anchor="start" x="355.5" y="-315" font-family="Helvetica,sans-Serif" font-size="10.00">/Proyecto/LAL_Control/include</text>
<text text-anchor="start" x="355.5" y="-304" font-family="Helvetica,sans-Serif" font-size="10.00">/observer_pattern/observers</text>
<text text-anchor="middle" x="422" y="-293" font-family="Helvetica,sans-Serif" font-size="10.00">/System_observer.h</text>
</a>
</g>
</g>
<!-- Node1&#45;&gt;Node2 -->
<g id="edge1" class="edge">
<title>Node1&#45;&gt;Node2</title>
<path fill="none" stroke="#63b8ff" d="M422,-373.15C422,-365.2 422,-357.02 422,-349.5"/>
<polygon fill="#63b8ff" stroke="#63b8ff" points="418.5,-373.03 422,-383.03 425.5,-373.03 418.5,-373.03"/>
</g>
<!-- Node3 -->
<g id="node3" class="node">
<title>Node3</title>
<g id="a_node3"><a xlink:href="_control__system_8h_source.html" target="_top" xlink:title=" ">
<polygon fill="white" stroke="#666666" points="393.5,-250 244.5,-250 244.5,-198 393.5,-198 393.5,-250"/>
<text text-anchor="start" x="252.5" y="-238" font-family="Helvetica,sans-Serif" font-size="10.00">C:/Users/juanh/OneDrive</text>
<text text-anchor="start" x="252.5" y="-227" font-family="Helvetica,sans-Serif" font-size="10.00">/Escritorio/Facultad/Beca</text>
<text text-anchor="start" x="252.5" y="-216" font-family="Helvetica,sans-Serif" font-size="10.00">/Proyecto/LAL_Control/include</text>
<text text-anchor="middle" x="319" y="-205" font-family="Helvetica,sans-Serif" font-size="10.00">/Control_system.h</text>
</a>
</g>
</g>
<!-- Node2&#45;&gt;Node3 -->
<g id="edge2" class="edge">
<title>Node2&#45;&gt;Node3</title>
<path fill="none" stroke="#63b8ff" d="M372.16,-278.15C361.44,-268.81 350.64,-259.05 341.55,-250.47"/>
<polygon fill="#63b8ff" stroke="#63b8ff" points="369.7,-280.65 379.56,-284.53 374.27,-275.35 369.7,-280.65"/>
</g>
<!-- Node8 -->
<g id="node8" class="node">
<title>Node8</title>
<g id="a_node8"><a xlink:href="_instruction__observer_8h.html" target="_top" xlink:title="Observador de instrucciones.">
<polygon fill="white" stroke="#666666" points="496.5,-162 347.5,-162 347.5,-99 496.5,-99 496.5,-162"/>
<text text-anchor="start" x="355.5" y="-150" font-family="Helvetica,sans-Serif" font-size="10.00">C:/Users/juanh/OneDrive</text>
<text text-anchor="start" x="355.5" y="-139" font-family="Helvetica,sans-Serif" font-size="10.00">/Escritorio/Facultad/Beca</text>
<text text-anchor="start" x="355.5" y="-128" font-family="Helvetica,sans-Serif" font-size="10.00">/Proyecto/LAL_Control/include</text>
<text text-anchor="start" x="355.5" y="-117" font-family="Helvetica,sans-Serif" font-size="10.00">/observer_pattern/observers</text>
<text text-anchor="middle" x="422" y="-106" font-family="Helvetica,sans-Serif" font-size="10.00">/Instruction_observer.h</text>
</a>
</g>
</g>
<!-- Node2&#45;&gt;Node8 -->
<g id="edge19" class="edge">
<title>Node2&#45;&gt;Node8</title>
<path fill="none" stroke="#63b8ff" d="M422,-274.06C422,-239.94 422,-192.82 422,-162.26"/>
<polygon fill="#63b8ff" stroke="#63b8ff" points="418.5,-274.02 422,-284.02 425.5,-274.02 418.5,-274.02"/>
</g>
<!-- Node10 -->
<g id="node10" class="node">
<title>Node10</title>
<g id="a_node10"><a xlink:href="_moisture__observer_8h.html" target="_top" xlink:title="Observador del sensor de temperatura.">
<polygon fill="white" stroke="#666666" points="663.5,-162 514.5,-162 514.5,-99 663.5,-99 663.5,-162"/>
<text text-anchor="start" x="522.5" y="-150" font-family="Helvetica,sans-Serif" font-size="10.00">C:/Users/juanh/OneDrive</text>
<text text-anchor="start" x="522.5" y="-139" font-family="Helvetica,sans-Serif" font-size="10.00">/Escritorio/Facultad/Beca</text>
<text text-anchor="start" x="522.5" y="-128" font-family="Helvetica,sans-Serif" font-size="10.00">/Proyecto/LAL_Control/include</text>
<text text-anchor="start" x="522.5" y="-117" font-family="Helvetica,sans-Serif" font-size="10.00">/observer_pattern/observers</text>
<text text-anchor="middle" x="589" y="-106" font-family="Helvetica,sans-Serif" font-size="10.00">/Moisture_observer.h</text>
</a>
</g>
</g>
<!-- Node2&#45;&gt;Node10 -->
<g id="edge20" class="edge">
<title>Node2&#45;&gt;Node10</title>
<path fill="none" stroke="#63b8ff" d="M457.52,-277.15C488.5,-242.84 532.8,-193.76 561.24,-162.26"/>
<polygon fill="#63b8ff" stroke="#63b8ff" points="455.07,-274.64 450.97,-284.41 460.27,-279.33 455.07,-274.64"/>
</g>
<!-- Node11 -->
<g id="node11" class="node">
<title>Node11</title>
<g id="a_node11"><a xlink:href="_temperature__observer_8h.html" target="_top" xlink:title="Observador del sensor de temperatura.">
<polygon fill="white" stroke="#666666" points="830.5,-162 681.5,-162 681.5,-99 830.5,-99 830.5,-162"/>
<text text-anchor="start" x="689.5" y="-150" font-family="Helvetica,sans-Serif" font-size="10.00">C:/Users/juanh/OneDrive</text>
<text text-anchor="start" x="689.5" y="-139" font-family="Helvetica,sans-Serif" font-size="10.00">/Escritorio/Facultad/Beca</text>
<text text-anchor="start" x="689.5" y="-128" font-family="Helvetica,sans-Serif" font-size="10.00">/Proyecto/LAL_Control/include</text>
<text text-anchor="start" x="689.5" y="-117" font-family="Helvetica,sans-Serif" font-size="10.00">/observer_pattern/observers</text>
<text text-anchor="middle" x="756" y="-106" font-family="Helvetica,sans-Serif" font-size="10.00">/Temperature_observer.h</text>
</a>
</g>
</g>
<!-- Node2&#45;&gt;Node11 -->
<g id="edge21" class="edge">
<title>Node2&#45;&gt;Node11</title>
<path fill="none" stroke="#63b8ff" d="M487.97,-279.96C549.97,-245.62 641.74,-194.79 700.19,-162.41"/>
<polygon fill="#63b8ff" stroke="#63b8ff" points="486.28,-276.89 479.23,-284.8 489.67,-283.02 486.28,-276.89"/>
</g>
<!-- Node3&#45;&gt;Node2 -->
<g id="edge16" class="edge">
<title>Node3&#45;&gt;Node2</title>
<path fill="none" stroke="#63b8ff" d="M362.48,-257.84C372.98,-266.86 383.93,-276.61 393.56,-285.52"/>
<polygon fill="#63b8ff" stroke="#63b8ff" points="364.84,-255.26 354.95,-251.45 360.31,-260.59 364.84,-255.26"/>
</g>
<!-- Node4 -->
<g id="node4" class="node">
<title>Node4</title>
<g id="a_node4"><a xlink:href="_idle__state_8h.html" target="_top" xlink:title="Clase de estado de reposo.">
<polygon fill="white" stroke="#666666" points="235,-162 77,-162 77,-99 235,-99 235,-162"/>
<text text-anchor="start" x="85" y="-150" font-family="Helvetica,sans-Serif" font-size="10.00">C:/Users/juanh/OneDrive</text>
<text text-anchor="start" x="85" y="-139" font-family="Helvetica,sans-Serif" font-size="10.00">/Escritorio/Facultad/Beca</text>
<text text-anchor="start" x="85" y="-128" font-family="Helvetica,sans-Serif" font-size="10.00">/Proyecto/LAL_Control/include</text>
<text text-anchor="start" x="85" y="-117" font-family="Helvetica,sans-Serif" font-size="10.00">/machine_state_pattern/machine</text>
<text text-anchor="middle" x="156" y="-106" font-family="Helvetica,sans-Serif" font-size="10.00">_states/Idle_state.h</text>
</a>
</g>
</g>
<!-- Node3&#45;&gt;Node4 -->
<g id="edge3" class="edge">
<title>Node3&#45;&gt;Node4</title>
<path fill="none" stroke="#63b8ff" d="M263.79,-192.01C246.77,-182.45 228.02,-171.93 211.01,-162.38"/>
<polygon fill="#63b8ff" stroke="#63b8ff" points="261.84,-194.93 272.28,-196.77 265.27,-188.82 261.84,-194.93"/>
</g>
<!-- Node5 -->
<g id="node5" class="node">
<title>Node5</title>
<g id="a_node5"><a xlink:href="_motor__control__state_8h.html" target="_top" xlink:title="Clase de estado de control del motor.">
<polygon fill="white" stroke="#666666" points="158,-63 0,-63 0,0 158,0 158,-63"/>
<text text-anchor="start" x="8" y="-51" font-family="Helvetica,sans-Serif" font-size="10.00">C:/Users/juanh/OneDrive</text>
<text text-anchor="start" x="8" y="-40" font-family="Helvetica,sans-Serif" font-size="10.00">/Escritorio/Facultad/Beca</text>
<text text-anchor="start" x="8" y="-29" font-family="Helvetica,sans-Serif" font-size="10.00">/Proyecto/LAL_Control/include</text>
<text text-anchor="start" x="8" y="-18" font-family="Helvetica,sans-Serif" font-size="10.00">/machine_state_pattern/machine</text>
<text text-anchor="middle" x="79" y="-7" font-family="Helvetica,sans-Serif" font-size="10.00">_states/Motor_control_state.h</text>
</a>
</g>
</g>
<!-- Node3&#45;&gt;Node5 -->
<g id="edge8" class="edge">
<title>Node3&#45;&gt;Node5</title>
<path fill="none" stroke="#63b8ff" d="M232.84,-213.41C168.54,-204.27 88.43,-187.98 68,-162 46.18,-134.24 55.15,-92.02 65.42,-63.4"/>
<polygon fill="#63b8ff" stroke="#63b8ff" points="232.35,-216.87 242.74,-214.77 233.31,-209.94 232.35,-216.87"/>
</g>
<!-- Node6 -->
<g id="node6" class="node">
<title>Node6</title>
<g id="a_node6"><a xlink:href="_shutdown__state_8h.html" target="_top" xlink:title="Clase de estado de apagado del sistema.">
<polygon fill="white" stroke="#666666" points="334,-63 176,-63 176,0 334,0 334,-63"/>
<text text-anchor="start" x="184" y="-51" font-family="Helvetica,sans-Serif" font-size="10.00">C:/Users/juanh/OneDrive</text>
<text text-anchor="start" x="184" y="-40" font-family="Helvetica,sans-Serif" font-size="10.00">/Escritorio/Facultad/Beca</text>
<text text-anchor="start" x="184" y="-29" font-family="Helvetica,sans-Serif" font-size="10.00">/Proyecto/LAL_Control/include</text>
<text text-anchor="start" x="184" y="-18" font-family="Helvetica,sans-Serif" font-size="10.00">/machine_state_pattern/machine</text>
<text text-anchor="middle" x="255" y="-7" font-family="Helvetica,sans-Serif" font-size="10.00">_states/Shutdown_state.h</text>
</a>
</g>
</g>
<!-- Node3&#45;&gt;Node6 -->
<g id="edge9" class="edge">
<title>Node3&#45;&gt;Node6</title>
<path fill="none" stroke="#63b8ff" d="M301.58,-187.25C287.7,-151.52 269.52,-97.14 260.21,-63.27"/>
<polygon fill="#63b8ff" stroke="#63b8ff" points="298.23,-188.3 305.18,-196.3 304.74,-185.71 298.23,-188.3"/>
</g>
<!-- Node7 -->
<g id="node7" class="node">
<title>Node7</title>
<g id="a_node7"><a xlink:href="main_8h.html" target="_top" xlink:title="Archivo principal del programa.">
<polygon fill="white" stroke="#666666" points="690.5,-52 509.5,-52 509.5,-11 690.5,-11 690.5,-52"/>
<text text-anchor="start" x="517.5" y="-40" font-family="Helvetica,sans-Serif" font-size="10.00">C:/Users/juanh/OneDrive</text>
<text text-anchor="start" x="517.5" y="-29" font-family="Helvetica,sans-Serif" font-size="10.00">/Escritorio/Facultad/Beca</text>
<text text-anchor="middle" x="600" y="-18" font-family="Helvetica,sans-Serif" font-size="10.00">/Proyecto/LAL_Control/include/main.h</text>
</a>
</g>
</g>
<!-- Node3&#45;&gt;Node7 -->
<g id="edge10" class="edge">
<title>Node3&#45;&gt;Node7</title>
<path fill="none" stroke="#63b8ff" d="M314.46,-186.43C313.18,-158.91 316.39,-122.1 338,-99 388.39,-45.14 428.67,-81.77 500,-63 512.11,-59.81 524.96,-56.13 537.27,-52.44"/>
<polygon fill="#63b8ff" stroke="#63b8ff" points="310.94,-186.35 315.13,-196.08 317.93,-185.86 310.94,-186.35"/>
</g>
<!-- Node3&#45;&gt;Node8 -->
<g id="edge11" class="edge">
<title>Node3&#45;&gt;Node8</title>
<path fill="none" stroke="#63b8ff" d="M356.01,-190.12C366.19,-181.08 377.19,-171.31 387.24,-162.38"/>
<polygon fill="#63b8ff" stroke="#63b8ff" points="353.97,-187.25 348.82,-196.51 358.62,-192.48 353.97,-187.25"/>
</g>
<!-- Node3&#45;&gt;Node10 -->
<g id="edge14" class="edge">
<title>Node3&#45;&gt;Node10</title>
<path fill="none" stroke="#63b8ff" d="M404.4,-195.61C436.07,-185.29 472.24,-173.31 505,-162 508.08,-160.94 511.22,-159.84 514.39,-158.73"/>
<polygon fill="#63b8ff" stroke="#63b8ff" points="403.71,-192.16 395.29,-198.58 405.88,-198.81 403.71,-192.16"/>
</g>
<!-- Node3&#45;&gt;Node11 -->
<g id="edge17" class="edge">
<title>Node3&#45;&gt;Node11</title>
<path fill="none" stroke="#63b8ff" d="M405.13,-212.46C477.18,-202.62 582.28,-185.84 672,-162 675,-161.2 678.04,-160.34 681.1,-159.44"/>
<polygon fill="#63b8ff" stroke="#63b8ff" points="404.8,-208.98 395.36,-213.78 405.74,-215.91 404.8,-208.98"/>
</g>
<!-- Node4&#45;&gt;Node5 -->
<g id="edge4" class="edge">
<title>Node4&#45;&gt;Node5</title>
<path fill="none" stroke="#63b8ff" d="M117.93,-89.92C110.74,-81.11 103.53,-71.9 97.26,-63.5"/>
<polygon fill="#63b8ff" stroke="#63b8ff" points="115.04,-91.91 124.12,-97.38 120.43,-87.45 115.04,-91.91"/>
</g>
<!-- Node4&#45;&gt;Node6 -->
<g id="edge6" class="edge">
<title>Node4&#45;&gt;Node6</title>
<path fill="none" stroke="#63b8ff" d="M195.56,-90.74C204.8,-81.69 214.52,-72.16 223.36,-63.5"/>
<polygon fill="#63b8ff" stroke="#63b8ff" points="193.37,-87.98 188.68,-97.48 198.27,-92.98 193.37,-87.98"/>
</g>
<!-- Node5&#45;&gt;Node4 -->
<g id="edge5" class="edge">
<title>Node5&#45;&gt;Node4</title>
<path fill="none" stroke="#63b8ff" d="M117.1,-72.12C124.3,-80.93 131.51,-90.14 137.77,-98.54"/>
<polygon fill="#63b8ff" stroke="#63b8ff" points="119.99,-70.13 110.91,-64.66 114.6,-74.59 119.99,-70.13"/>
</g>
<!-- Node6&#45;&gt;Node3 -->
<g id="edge7" class="edge">
<title>Node6&#45;&gt;Node3</title>
<path fill="none" stroke="#63b8ff" d="M274.59,-73.91C288.95,-111.62 306.94,-166.11 315.26,-197.7"/>
<polygon fill="#63b8ff" stroke="#63b8ff" points="277.89,-72.73 271.01,-64.68 271.37,-75.27 277.89,-72.73"/>
</g>
<!-- Node8&#45;&gt;Node7 -->
<g id="edge12" class="edge">
<title>Node8&#45;&gt;Node7</title>
<path fill="none" stroke="#63b8ff" d="M488.72,-93.14C513.98,-79.37 541.81,-64.21 563.32,-52.49"/>
<polygon fill="#63b8ff" stroke="#63b8ff" points="487.24,-89.96 480.14,-97.82 490.59,-96.11 487.24,-89.96"/>
</g>
<!-- Node9 -->
<g id="node9" class="node">
<title>Node9</title>
<g id="a_node9"><a xlink:href="_instruction__observer_8cpp.html" target="_top" xlink:title=" ">
<polygon fill="white" stroke="#666666" points="491.5,-63 352.5,-63 352.5,0 491.5,0 491.5,-63"/>
<text text-anchor="start" x="360.5" y="-51" font-family="Helvetica,sans-Serif" font-size="10.00">C:/Users/juanh/OneDrive</text>
<text text-anchor="start" x="360.5" y="-40" font-family="Helvetica,sans-Serif" font-size="10.00">/Escritorio/Facultad/Beca</text>
<text text-anchor="start" x="360.5" y="-29" font-family="Helvetica,sans-Serif" font-size="10.00">/Proyecto/LAL_Control/src</text>
<text text-anchor="start" x="360.5" y="-18" font-family="Helvetica,sans-Serif" font-size="10.00">/observer_pattern/Instruction</text>
<text text-anchor="middle" x="422" y="-7" font-family="Helvetica,sans-Serif" font-size="10.00">_observer.cpp</text>
</a>
</g>
</g>
<!-- Node8&#45;&gt;Node9 -->
<g id="edge13" class="edge">
<title>Node8&#45;&gt;Node9</title>
<path fill="none" stroke="#63b8ff" d="M422,-87.15C422,-79.2 422,-71.02 422,-63.5"/>
<polygon fill="#63b8ff" stroke="#63b8ff" points="418.5,-87.03 422,-97.03 425.5,-87.03 418.5,-87.03"/>
</g>
<!-- Node10&#45;&gt;Node7 -->
<g id="edge15" class="edge">
<title>Node10&#45;&gt;Node7</title>
<path fill="none" stroke="#63b8ff" d="M593.79,-87.22C595.16,-75.15 596.59,-62.55 597.73,-52.49"/>
<polygon fill="#63b8ff" stroke="#63b8ff" points="590.33,-86.71 592.68,-97.04 597.29,-87.5 590.33,-86.71"/>
</g>
<!-- Node11&#45;&gt;Node7 -->
<g id="edge18" class="edge">
<title>Node11&#45;&gt;Node7</title>
<path fill="none" stroke="#63b8ff" d="M696.65,-92.59C674.74,-78.97 650.75,-64.05 632.15,-52.49"/>
<polygon fill="#63b8ff" stroke="#63b8ff" points="694.59,-95.43 704.93,-97.74 698.28,-89.49 694.59,-95.43"/>
</g>
</g>
</svg>
