<?xml version="1.0" encoding="UTF-8" standalone="no"?>
<!DOCTYPE svg PUBLIC "-//W3C//DTD SVG 1.1//EN"
 "http://www.w3.org/Graphics/SVG/1.1/DTD/svg11.dtd">
<!-- Generated by graphviz version 7.0.2 (20221119.0110)
 -->
<!-- Title: C:/Users/juanh/OneDrive/Escritorio/Facultad/Beca/Proyecto/LAL_Control/include/Observer.h Pages: 1 -->
<svg width="816pt" height="412pt"
 viewBox="0.00 0.00 816.00 412.00" xmlns="http://www.w3.org/2000/svg" xmlns:xlink="http://www.w3.org/1999/xlink">
<g id="graph0" class="graph" transform="scale(1 1) rotate(0) translate(4 408)">
<title>C:/Users/juanh/OneDrive/Escritorio/Facultad/Beca/Proyecto/LAL_Control/include/Observer.h</title>
<!-- Node1 -->
<g id="node1" class="node">
<title>Node1</title>
<g id="a_node1"><a xlink:title=" ">
<polygon fill="#999999" stroke="#666666" points="474,-404 325,-404 325,-352 474,-352 474,-404"/>
<text text-anchor="start" x="333" y="-392" font-family="Helvetica,sans-Serif" font-size="10.00">C:/Users/juanh/OneDrive</text>
<text text-anchor="start" x="333" y="-381" font-family="Helvetica,sans-Serif" font-size="10.00">/Escritorio/Facultad/Beca</text>
<text text-anchor="start" x="333" y="-370" font-family="Helvetica,sans-Serif" font-size="10.00">/Proyecto/LAL_Control/include</text>
<text text-anchor="middle" x="399.5" y="-359" font-family="Helvetica,sans-Serif" font-size="10.00">/Observer.h</text>
</a>
</g>
</g>
<!-- Node2 -->
<g id="node2" class="node">
<title>Node2</title>
<g id="a_node2"><a xlink:href="_system__observer_8h.html" target="_top" xlink:title=" ">
<polygon fill="white" stroke="#666666" points="474,-316 325,-316 325,-264 474,-264 474,-316"/>
<text text-anchor="start" x="333" y="-304" font-family="Helvetica,sans-Serif" font-size="10.00">C:/Users/juanh/OneDrive</text>
<text text-anchor="start" x="333" y="-293" font-family="Helvetica,sans-Serif" font-size="10.00">/Escritorio/Facultad/Beca</text>
<text text-anchor="start" x="333" y="-282" font-family="Helvetica,sans-Serif" font-size="10.00">/Proyecto/LAL_Control/include</text>
<text text-anchor="middle" x="399.5" y="-271" font-family="Helvetica,sans-Serif" font-size="10.00">/System_observer.h</text>
</a>
</g>
</g>
<!-- Node1&#45;&gt;Node2 -->
<g id="edge1" class="edge">
<title>Node1&#45;&gt;Node2</title>
<path fill="none" stroke="#63b8ff" d="M399.5,-340.26C399.5,-332.24 399.5,-323.92 399.5,-316.45"/>
<polygon fill="#63b8ff" stroke="#63b8ff" points="396,-340.15 399.5,-350.15 403,-340.15 396,-340.15"/>
</g>
<!-- Node3 -->
<g id="node3" class="node">
<title>Node3</title>
<g id="a_node3"><a xlink:href="_control__system_8h_source.html" target="_top" xlink:title=" ">
<polygon fill="white" stroke="#666666" points="371,-228 222,-228 222,-176 371,-176 371,-228"/>
<text text-anchor="start" x="230" y="-216" font-family="Helvetica,sans-Serif" font-size="10.00">C:/Users/juanh/OneDrive</text>
<text text-anchor="start" x="230" y="-205" font-family="Helvetica,sans-Serif" font-size="10.00">/Escritorio/Facultad/Beca</text>
<text text-anchor="start" x="230" y="-194" font-family="Helvetica,sans-Serif" font-size="10.00">/Proyecto/LAL_Control/include</text>
<text text-anchor="middle" x="296.5" y="-183" font-family="Helvetica,sans-Serif" font-size="10.00">/Control_system.h</text>
</a>
</g>
</g>
<!-- Node2&#45;&gt;Node3 -->
<g id="edge2" class="edge">
<title>Node2&#45;&gt;Node3</title>
<path fill="none" stroke="#63b8ff" d="M354.25,-256.7C342.73,-247.36 330.81,-237.31 320.76,-228.45"/>
<polygon fill="#63b8ff" stroke="#63b8ff" points="351.77,-259.19 361.76,-262.72 356.14,-253.73 351.77,-259.19"/>
</g>
<!-- Node7 -->
<g id="node7" class="node">
<title>Node7</title>
<g id="a_node7"><a xlink:href="_instruction__observer_8h.html" target="_top" xlink:title=" ">
<polygon fill="white" stroke="#666666" points="474,-140 325,-140 325,-88 474,-88 474,-140"/>
<text text-anchor="start" x="333" y="-128" font-family="Helvetica,sans-Serif" font-size="10.00">C:/Users/juanh/OneDrive</text>
<text text-anchor="start" x="333" y="-117" font-family="Helvetica,sans-Serif" font-size="10.00">/Escritorio/Facultad/Beca</text>
<text text-anchor="start" x="333" y="-106" font-family="Helvetica,sans-Serif" font-size="10.00">/Proyecto/LAL_Control/include</text>
<text text-anchor="middle" x="399.5" y="-95" font-family="Helvetica,sans-Serif" font-size="10.00">/Instruction_observer.h</text>
</a>
</g>
</g>
<!-- Node2&#45;&gt;Node7 -->
<g id="edge19" class="edge">
<title>Node2&#45;&gt;Node7</title>
<path fill="none" stroke="#63b8ff" d="M399.5,-252.5C399.5,-218.88 399.5,-169.85 399.5,-140.33"/>
<polygon fill="#63b8ff" stroke="#63b8ff" points="396,-252.19 399.5,-262.19 403,-252.19 396,-252.19"/>
</g>
<!-- Node10 -->
<g id="node10" class="node">
<title>Node10</title>
<g id="a_node10"><a xlink:href="_moisture__observer_8h_source.html" target="_top" xlink:title=" ">
<polygon fill="white" stroke="#666666" points="641,-140 492,-140 492,-88 641,-88 641,-140"/>
<text text-anchor="start" x="500" y="-128" font-family="Helvetica,sans-Serif" font-size="10.00">C:/Users/juanh/OneDrive</text>
<text text-anchor="start" x="500" y="-117" font-family="Helvetica,sans-Serif" font-size="10.00">/Escritorio/Facultad/Beca</text>
<text text-anchor="start" x="500" y="-106" font-family="Helvetica,sans-Serif" font-size="10.00">/Proyecto/LAL_Control/include</text>
<text text-anchor="middle" x="566.5" y="-95" font-family="Helvetica,sans-Serif" font-size="10.00">/Moisture_observer.h</text>
</a>
</g>
</g>
<!-- Node2&#45;&gt;Node10 -->
<g id="edge20" class="edge">
<title>Node2&#45;&gt;Node10</title>
<path fill="none" stroke="#63b8ff" d="M431.61,-255.54C463.91,-221.89 512.99,-170.76 542.19,-140.33"/>
<polygon fill="#63b8ff" stroke="#63b8ff" points="429.23,-252.97 424.83,-262.61 434.28,-257.82 429.23,-252.97"/>
</g>
<!-- Node11 -->
<g id="node11" class="node">
<title>Node11</title>
<g id="a_node11"><a xlink:href="_temperature__observer_8h.html" target="_top" xlink:title=" ">
<polygon fill="white" stroke="#666666" points="808,-140 659,-140 659,-88 808,-88 808,-140"/>
<text text-anchor="start" x="667" y="-128" font-family="Helvetica,sans-Serif" font-size="10.00">C:/Users/juanh/OneDrive</text>
<text text-anchor="start" x="667" y="-117" font-family="Helvetica,sans-Serif" font-size="10.00">/Escritorio/Facultad/Beca</text>
<text text-anchor="start" x="667" y="-106" font-family="Helvetica,sans-Serif" font-size="10.00">/Proyecto/LAL_Control/include</text>
<text text-anchor="middle" x="733.5" y="-95" font-family="Helvetica,sans-Serif" font-size="10.00">/Temperature_observer.h</text>
</a>
</g>
</g>
<!-- Node2&#45;&gt;Node11 -->
<g id="edge21" class="edge">
<title>Node2&#45;&gt;Node11</title>
<path fill="none" stroke="#63b8ff" d="M458.42,-258.31C522.77,-224.78 624.67,-171.7 684.72,-140.41"/>
<polygon fill="#63b8ff" stroke="#63b8ff" points="457.02,-255.09 449.77,-262.81 460.25,-261.3 457.02,-255.09"/>
</g>
<!-- Node3&#45;&gt;Node2 -->
<g id="edge15" class="edge">
<title>Node3&#45;&gt;Node2</title>
<path fill="none" stroke="#63b8ff" d="M341.9,-235.43C353.42,-244.77 365.34,-254.82 375.37,-263.66"/>
<polygon fill="#63b8ff" stroke="#63b8ff" points="344.38,-232.93 334.39,-229.4 340,-238.39 344.38,-232.93"/>
</g>
<!-- Node4 -->
<g id="node4" class="node">
<title>Node4</title>
<g id="a_node4"><a xlink:href="_idle__state_8h.html" target="_top" xlink:title=" ">
<polygon fill="white" stroke="#666666" points="212,-140 63,-140 63,-88 212,-88 212,-140"/>
<text text-anchor="start" x="71" y="-128" font-family="Helvetica,sans-Serif" font-size="10.00">C:/Users/juanh/OneDrive</text>
<text text-anchor="start" x="71" y="-117" font-family="Helvetica,sans-Serif" font-size="10.00">/Escritorio/Facultad/Beca</text>
<text text-anchor="start" x="71" y="-106" font-family="Helvetica,sans-Serif" font-size="10.00">/Proyecto/LAL_Control/include</text>
<text text-anchor="middle" x="137.5" y="-95" font-family="Helvetica,sans-Serif" font-size="10.00">/Idle_state.h</text>
</a>
</g>
</g>
<!-- Node3&#45;&gt;Node4 -->
<g id="edge3" class="edge">
<title>Node3&#45;&gt;Node4</title>
<path fill="none" stroke="#63b8ff" d="M239.55,-170.2C221.53,-160.45 201.81,-149.79 184.56,-140.45"/>
<polygon fill="#63b8ff" stroke="#63b8ff" points="237.86,-173.26 248.32,-174.94 241.19,-167.11 237.86,-173.26"/>
</g>
<!-- Node5 -->
<g id="node5" class="node">
<title>Node5</title>
<g id="a_node5"><a xlink:href="_motor__control__state_8h_source.html" target="_top" xlink:title=" ">
<polygon fill="white" stroke="#666666" points="149,-52 0,-52 0,0 149,0 149,-52"/>
<text text-anchor="start" x="8" y="-40" font-family="Helvetica,sans-Serif" font-size="10.00">C:/Users/juanh/OneDrive</text>
<text text-anchor="start" x="8" y="-29" font-family="Helvetica,sans-Serif" font-size="10.00">/Escritorio/Facultad/Beca</text>
<text text-anchor="start" x="8" y="-18" font-family="Helvetica,sans-Serif" font-size="10.00">/Proyecto/LAL_Control/include</text>
<text text-anchor="middle" x="74.5" y="-7" font-family="Helvetica,sans-Serif" font-size="10.00">/Motor_control_state.h</text>
</a>
</g>
</g>
<!-- Node3&#45;&gt;Node5 -->
<g id="edge13" class="edge">
<title>Node3&#45;&gt;Node5</title>
<path fill="none" stroke="#63b8ff" d="M210.27,-190.61C148.5,-181.18 72.92,-164.9 53.5,-140 33.86,-114.83 46.98,-76.98 59.57,-52.13"/>
<polygon fill="#63b8ff" stroke="#63b8ff" points="209.73,-194.06 220.13,-192.07 210.75,-187.14 209.73,-194.06"/>
</g>
<!-- Node6 -->
<g id="node6" class="node">
<title>Node6</title>
<g id="a_node6"><a xlink:href="_shutdown__state_8h_source.html" target="_top" xlink:title=" ">
<polygon fill="white" stroke="#666666" points="316,-52 167,-52 167,0 316,0 316,-52"/>
<text text-anchor="start" x="175" y="-40" font-family="Helvetica,sans-Serif" font-size="10.00">C:/Users/juanh/OneDrive</text>
<text text-anchor="start" x="175" y="-29" font-family="Helvetica,sans-Serif" font-size="10.00">/Escritorio/Facultad/Beca</text>
<text text-anchor="start" x="175" y="-18" font-family="Helvetica,sans-Serif" font-size="10.00">/Proyecto/LAL_Control/include</text>
<text text-anchor="middle" x="241.5" y="-7" font-family="Helvetica,sans-Serif" font-size="10.00">/Shutdown_state.h</text>
</a>
</g>
</g>
<!-- Node3&#45;&gt;Node6 -->
<g id="edge14" class="edge">
<title>Node3&#45;&gt;Node6</title>
<path fill="none" stroke="#63b8ff" d="M279.51,-164.94C267.14,-131.31 251.77,-81.98 244.58,-52.33"/>
<polygon fill="#63b8ff" stroke="#63b8ff" points="276.23,-166.17 283.04,-174.28 282.78,-163.69 276.23,-166.17"/>
</g>
<!-- Node3&#45;&gt;Node7 -->
<g id="edge8" class="edge">
<title>Node3&#45;&gt;Node7</title>
<path fill="none" stroke="#63b8ff" d="M335.52,-168.42C346.61,-159.16 358.51,-149.22 369.01,-140.45"/>
<polygon fill="#63b8ff" stroke="#63b8ff" points="333.44,-165.6 328.01,-174.69 337.93,-170.97 333.44,-165.6"/>
</g>
<!-- Node8 -->
<g id="node8" class="node">
<title>Node8</title>
<g id="a_node8"><a xlink:href="main_8h_source.html" target="_top" xlink:title=" ">
<polygon fill="white" stroke="#666666" points="664,-46.5 483,-46.5 483,-5.5 664,-5.5 664,-46.5"/>
<text text-anchor="start" x="491" y="-34.5" font-family="Helvetica,sans-Serif" font-size="10.00">C:/Users/juanh/OneDrive</text>
<text text-anchor="start" x="491" y="-23.5" font-family="Helvetica,sans-Serif" font-size="10.00">/Escritorio/Facultad/Beca</text>
<text text-anchor="middle" x="573.5" y="-12.5" font-family="Helvetica,sans-Serif" font-size="10.00">/Proyecto/LAL_Control/include/main.h</text>
</a>
</g>
</g>
<!-- Node3&#45;&gt;Node8 -->
<g id="edge18" class="edge">
<title>Node3&#45;&gt;Node8</title>
<path fill="none" stroke="#63b8ff" d="M292.88,-164.48C292.53,-139.79 296.49,-108.14 315.5,-88 364.94,-35.63 403.45,-68.73 473.5,-52 480.29,-50.38 487.33,-48.67 494.39,-46.94"/>
<polygon fill="#63b8ff" stroke="#63b8ff" points="289.39,-164.6 293.29,-174.45 296.38,-164.31 289.39,-164.6"/>
</g>
<!-- Node3&#45;&gt;Node10 -->
<g id="edge11" class="edge">
<title>Node3&#45;&gt;Node10</title>
<path fill="none" stroke="#63b8ff" d="M382.08,-173.74C417.22,-162.55 457.54,-149.71 491.5,-138.89"/>
<polygon fill="#63b8ff" stroke="#63b8ff" points="381.26,-170.33 372.79,-176.7 383.38,-177 381.26,-170.33"/>
</g>
<!-- Node3&#45;&gt;Node11 -->
<g id="edge16" class="edge">
<title>Node3&#45;&gt;Node11</title>
<path fill="none" stroke="#63b8ff" d="M382.55,-189.17C454.6,-178.56 559.9,-161.37 650.5,-140 653.14,-139.38 655.81,-138.72 658.51,-138.03"/>
<polygon fill="#63b8ff" stroke="#63b8ff" points="382.16,-185.69 372.78,-190.6 383.18,-192.62 382.16,-185.69"/>
</g>
<!-- Node4&#45;&gt;Node5 -->
<g id="edge4" class="edge">
<title>Node4&#45;&gt;Node5</title>
<path fill="none" stroke="#63b8ff" d="M105.8,-78.76C99.11,-69.99 92.44,-60.7 86.92,-52.45"/>
<polygon fill="#63b8ff" stroke="#63b8ff" points="102.89,-80.73 111.79,-86.47 108.41,-76.43 102.89,-80.73"/>
</g>
<!-- Node4&#45;&gt;Node6 -->
<g id="edge6" class="edge">
<title>Node4&#45;&gt;Node6</title>
<path fill="none" stroke="#63b8ff" d="M176.9,-80.42C188.09,-71.16 200.12,-61.22 210.72,-52.45"/>
<polygon fill="#63b8ff" stroke="#63b8ff" points="174.78,-77.63 169.31,-86.7 179.24,-83.02 174.78,-77.63"/>
</g>
<!-- Node5&#45;&gt;Node4 -->
<g id="edge5" class="edge">
<title>Node5&#45;&gt;Node4</title>
<path fill="none" stroke="#63b8ff" d="M106.3,-61.36C112.98,-70.14 119.65,-79.43 125.15,-87.66"/>
<polygon fill="#63b8ff" stroke="#63b8ff" points="109.2,-59.39 100.3,-53.65 103.68,-63.69 109.2,-59.39"/>
</g>
<!-- Node6&#45;&gt;Node3 -->
<g id="edge7" class="edge">
<title>Node6&#45;&gt;Node3</title>
<path fill="none" stroke="#63b8ff" d="M258.5,-63.09C270.88,-96.74 286.24,-146.06 293.43,-175.7"/>
<polygon fill="#63b8ff" stroke="#63b8ff" points="261.78,-61.86 254.97,-53.75 255.23,-64.34 261.78,-61.86"/>
</g>
<!-- Node7&#45;&gt;Node8 -->
<g id="edge9" class="edge">
<title>Node7&#45;&gt;Node8</title>
<path fill="none" stroke="#63b8ff" d="M460.84,-82.68C484.8,-70.84 511.62,-57.59 533.08,-46.98"/>
<polygon fill="#63b8ff" stroke="#63b8ff" points="459.54,-79.42 452.12,-86.99 462.64,-85.7 459.54,-79.42"/>
</g>
<!-- Node9 -->
<g id="node9" class="node">
<title>Node9</title>
<g id="a_node9"><a xlink:href="_instruction__observer_8cpp.html" target="_top" xlink:title=" ">
<polygon fill="white" stroke="#666666" points="465,-52 334,-52 334,0 465,0 465,-52"/>
<text text-anchor="start" x="342" y="-40" font-family="Helvetica,sans-Serif" font-size="10.00">C:/Users/juanh/OneDrive</text>
<text text-anchor="start" x="342" y="-29" font-family="Helvetica,sans-Serif" font-size="10.00">/Escritorio/Facultad/Beca</text>
<text text-anchor="start" x="342" y="-18" font-family="Helvetica,sans-Serif" font-size="10.00">/Proyecto/LAL_Control/src</text>
<text text-anchor="middle" x="399.5" y="-7" font-family="Helvetica,sans-Serif" font-size="10.00">/Instruction_observer.cpp</text>
</a>
</g>
</g>
<!-- Node7&#45;&gt;Node9 -->
<g id="edge10" class="edge">
<title>Node7&#45;&gt;Node9</title>
<path fill="none" stroke="#63b8ff" d="M399.5,-76.26C399.5,-68.24 399.5,-59.92 399.5,-52.45"/>
<polygon fill="#63b8ff" stroke="#63b8ff" points="396,-76.15 399.5,-86.15 403,-76.15 396,-76.15"/>
</g>
<!-- Node10&#45;&gt;Node8 -->
<g id="edge12" class="edge">
<title>Node10&#45;&gt;Node8</title>
<path fill="none" stroke="#63b8ff" d="M569.49,-76.23C570.31,-66.19 571.16,-55.69 571.87,-46.98"/>
<polygon fill="#63b8ff" stroke="#63b8ff" points="566.01,-75.9 568.69,-86.15 572.98,-76.47 566.01,-75.9"/>
</g>
<!-- Node11&#45;&gt;Node8 -->
<g id="edge17" class="edge">
<title>Node11&#45;&gt;Node8</title>
<path fill="none" stroke="#63b8ff" d="M676.51,-82.37C654.62,-70.6 630.23,-57.49 610.67,-46.98"/>
<polygon fill="#63b8ff" stroke="#63b8ff" points="674.56,-85.29 685.03,-86.95 677.88,-79.13 674.56,-85.29"/>
</g>
</g>
</svg>
