<?xml version="1.0" encoding="UTF-8" standalone="no"?>
<!DOCTYPE svg PUBLIC "-//W3C//DTD SVG 1.1//EN"
 "http://www.w3.org/Graphics/SVG/1.1/DTD/svg11.dtd">
<!-- Generated by graphviz version 7.0.2 (20221119.0110)
 -->
<!-- Title: C:/Users/juanh/OneDrive/Escritorio/Facultad/Beca/Proyecto/LAL_Control/include/Temperature_observer.h Pages: 1 -->
<!--zoomable 401 -->
<svg id="main" version="1.1" xmlns="http://www.w3.org/2000/svg" xmlns:xlink="http://www.w3.org/1999/xlink" xml:space="preserve" onload="init(evt)">
<style type="text/css"><![CDATA[
.edge:hover path { stroke: red; }
.edge:hover polygon { stroke: red; fill: red; }
]]></style>
<script type="text/javascript"><![CDATA[
var edges = document.getElementsByTagName('g');
if (edges && edges.length) {
  for (var i=0;i<edges.length;i++) {
    if (edges[i].id.substr(0,4)=='edge') {
      edges[i].setAttribute('class','edge');
    }
  }
}
]]></script>
        <defs>
                <circle id="rim" cx="0" cy="0" r="7"/>
                <circle id="rim2" cx="0" cy="0" r="3.5"/>
                <g id="zoomPlus">
                        <use xlink:href="#rim" fill="#404040">
                                <set attributeName="fill" to="#808080" begin="zoomplus.mouseover" end="zoomplus.mouseout"/>
                        </use>
                        <path d="M-4,0h8M0,-4v8" fill="none" stroke="white" stroke-width="1.5" pointer-events="none"/>
                </g>
                <g id="zoomMin">
                        <use xlink:href="#rim" fill="#404040">
                                <set attributeName="fill" to="#808080" begin="zoomminus.mouseover" end="zoomminus.mouseout"/>
                        </use>
                        <path d="M-4,0h8" fill="none" stroke="white" stroke-width="1.5" pointer-events="none"/>
                </g>
                <g id="dirArrow">
                        <path fill="none" stroke="white" stroke-width="1.5" d="M0,-3.0v7 M-2.5,-0.5L0,-3.0L2.5,-0.5"/>
                </g>
               <g id="resetDef">
                       <use xlink:href="#rim2" fill="#404040">
                               <set attributeName="fill" to="#808080" begin="reset.mouseover" end="reset.mouseout"/>
                       </use>
               </g>
        </defs>

<script type="text/javascript">
var viewWidth = 1618;
var viewHeight = 401;
var sectionId = 'dynsection-0';
</script>
<script xlink:href="svgpan.js"/>
<svg id="graph" class="graph">
<g id="viewport">
<title>C:/Users/juanh/OneDrive/Escritorio/Facultad/Beca/Proyecto/LAL_Control/include/Temperature_observer.h</title>
<!-- Node1 -->
<g id="node1" class="node">
<title>Node1</title>
<g id="a_node1"><a xlink:title=" ">
<polygon fill="#999999" stroke="#666666" points="514,-393 365,-393 365,-341 514,-341 514,-393"/>
<text text-anchor="start" x="373" y="-381" font-family="Helvetica,sans-Serif" font-size="10.00">C:/Users/juanh/OneDrive</text>
<text text-anchor="start" x="373" y="-370" font-family="Helvetica,sans-Serif" font-size="10.00">/Escritorio/Facultad/Beca</text>
<text text-anchor="start" x="373" y="-359" font-family="Helvetica,sans-Serif" font-size="10.00">/Proyecto/LAL_Control/include</text>
<text text-anchor="middle" x="439.5" y="-348" font-family="Helvetica,sans-Serif" font-size="10.00">/Temperature_observer.h</text>
</a>
</g>
</g>
<!-- Node2 -->
<g id="node2" class="node">
<title>Node2</title>
<g id="a_node2"><a xlink:href="_system__observer_8h.html" target="_top" xlink:title=" ">
<polygon fill="white" stroke="#666666" points="807.5,-305 707.5,-305 707.5,-286 807.5,-286 807.5,-305"/>
<text text-anchor="middle" x="757.5" y="-293" font-family="Helvetica,sans-Serif" font-size="10.00">System_observer.h</text>
</a>
</g>
</g>
<!-- Node1&#45;&gt;Node2 -->
<g id="edge1" class="edge">
<title>Node1&#45;&gt;Node2</title>
<path fill="none" stroke="#63b8ff" d="M514.46,-349.62C573.31,-336.76 653.71,-319.18 705.62,-307.84"/>
<polygon fill="#63b8ff" stroke="#63b8ff" points="706.07,-311.32 715.09,-305.77 704.58,-304.48 706.07,-311.32"/>
</g>
<!-- Node6 -->
<g id="node6" class="node">
<title>Node6</title>
<g id="a_node6"><a xlink:href="_control__system_8h_source.html" target="_top" xlink:title=" ">
<polygon fill="white" stroke="#666666" points="882,-250 789,-250 789,-231 882,-231 882,-250"/>
<text text-anchor="middle" x="835.5" y="-238" font-family="Helvetica,sans-Serif" font-size="10.00">Control_system.h</text>
</a>
</g>
</g>
<!-- Node1&#45;&gt;Node6 -->
<g id="edge50" class="edge">
<title>Node1&#45;&gt;Node6</title>
<path fill="none" stroke="#63b8ff" d="M514.09,-363.13C610.9,-357.88 772.64,-343.48 816.5,-305 828.81,-294.2 833.3,-275.78 834.87,-261.56"/>
<polygon fill="#63b8ff" stroke="#63b8ff" points="838.34,-262.15 835.51,-251.94 831.35,-261.68 838.34,-262.15"/>
</g>
<!-- Node18 -->
<g id="node18" class="node">
<title>Node18</title>
<g id="a_node18"><a xlink:href="system__settings_8h.html" target="_top" xlink:title="Archivo para la definición de constantes del sistema.">
<polygon fill="white" stroke="#666666" points="303,-134.5 206,-134.5 206,-115.5 303,-115.5 303,-134.5"/>
<text text-anchor="middle" x="254.5" y="-122.5" font-family="Helvetica,sans-Serif" font-size="10.00">system_settings.h</text>
</a>
</g>
</g>
<!-- Node1&#45;&gt;Node18 -->
<g id="edge51" class="edge">
<title>Node1&#45;&gt;Node18</title>
<path fill="none" stroke="#63b8ff" d="M408.61,-340.77C396.69,-330.31 383.34,-317.67 372.5,-305 326.42,-251.12 283.59,-178.33 264.68,-144.59"/>
<polygon fill="#63b8ff" stroke="#63b8ff" points="267.86,-143.1 259.95,-136.06 261.73,-146.5 267.86,-143.1"/>
</g>
<!-- Node22 -->
<g id="node22" class="node">
<title>Node22</title>
<g id="a_node22"><a xlink:title=" ">
<polygon fill="#e0e0e0" stroke="#999999" points="527.5,-134.5 469.5,-134.5 469.5,-115.5 527.5,-115.5 527.5,-134.5"/>
<text text-anchor="middle" x="498.5" y="-122.5" font-family="Helvetica,sans-Serif" font-size="10.00">Arduino.h</text>
</a>
</g>
</g>
<!-- Node1&#45;&gt;Node22 -->
<g id="edge49" class="edge">
<title>Node1&#45;&gt;Node22</title>
<path fill="none" stroke="#63b8ff" d="M437.59,-340.63C435.73,-303.14 435.91,-231.41 458.5,-176 463.54,-163.65 472.64,-151.89 480.89,-142.88"/>
<polygon fill="#63b8ff" stroke="#63b8ff" points="483.16,-145.57 487.62,-135.96 478.14,-140.69 483.16,-145.57"/>
</g>
<!-- Node23 -->
<g id="node23" class="node">
<title>Node23</title>
<g id="a_node23"><a xlink:href="types_8h.html" target="_top" xlink:title="Archivo de definición de tipos de dato.">
<polygon fill="white" stroke="#666666" points="370,-134.5 321,-134.5 321,-115.5 370,-115.5 370,-134.5"/>
<text text-anchor="middle" x="345.5" y="-122.5" font-family="Helvetica,sans-Serif" font-size="10.00">types.h</text>
</a>
</g>
</g>
<!-- Node1&#45;&gt;Node23 -->
<g id="edge52" class="edge">
<title>Node1&#45;&gt;Node23</title>
<path fill="none" stroke="#63b8ff" d="M416.33,-340.56C389.38,-309.09 346.42,-252.57 329.5,-195 324.57,-178.22 330.05,-158.8 335.9,-144.84"/>
<polygon fill="#63b8ff" stroke="#63b8ff" points="338.99,-146.5 340.04,-135.95 332.65,-143.54 338.99,-146.5"/>
</g>
<!-- Node3 -->
<g id="node3" class="node">
<title>Node3</title>
<g id="a_node3"><a xlink:href="_observer_8h.html" target="_top" xlink:title=" ">
<polygon fill="white" stroke="#666666" points="789,-195 726,-195 726,-176 789,-176 789,-195"/>
<text text-anchor="middle" x="757.5" y="-183" font-family="Helvetica,sans-Serif" font-size="10.00">Observer.h</text>
</a>
</g>
</g>
<!-- Node2&#45;&gt;Node3 -->
<g id="edge2" class="edge">
<title>Node2&#45;&gt;Node3</title>
<path fill="none" stroke="#63b8ff" d="M757.5,-285.66C757.5,-268.57 757.5,-230.61 757.5,-206.92"/>
<polygon fill="#63b8ff" stroke="#63b8ff" points="761,-206.97 757.5,-196.97 754,-206.97 761,-206.97"/>
</g>
<!-- Node2&#45;&gt;Node6 -->
<g id="edge5" class="edge">
<title>Node2&#45;&gt;Node6</title>
<path fill="none" stroke="#63b8ff" d="M765.51,-285.51C775.67,-277.47 792.94,-265.53 807.89,-256.11"/>
<polygon fill="#63b8ff" stroke="#63b8ff" points="809.29,-259.36 815.98,-251.15 805.63,-253.39 809.29,-259.36"/>
</g>
<!-- Node4 -->
<g id="node4" class="node">
<title>Node4</title>
<g id="a_node4"><a xlink:href="_subject__interface_8h_source.html" target="_top" xlink:title=" ">
<polygon fill="white" stroke="#666666" points="735.5,-134.5 635.5,-134.5 635.5,-115.5 735.5,-115.5 735.5,-134.5"/>
<text text-anchor="middle" x="685.5" y="-122.5" font-family="Helvetica,sans-Serif" font-size="10.00">Subject_interface.h</text>
</a>
</g>
</g>
<!-- Node3&#45;&gt;Node4 -->
<g id="edge3" class="edge">
<title>Node3&#45;&gt;Node4</title>
<path fill="none" stroke="#63b8ff" d="M746.56,-175.62C735.68,-166.77 718.71,-152.98 705.42,-142.19"/>
<polygon fill="#63b8ff" stroke="#63b8ff" points="707.68,-139.51 697.71,-135.92 703.27,-144.95 707.68,-139.51"/>
</g>
<!-- Node5 -->
<g id="node5" class="node">
<title>Node5</title>
<g id="a_node5"><a xlink:href="_observer__interface_8h.html" target="_top" xlink:title=" ">
<polygon fill="white" stroke="#666666" points="859,-134.5 754,-134.5 754,-115.5 859,-115.5 859,-134.5"/>
<text text-anchor="middle" x="806.5" y="-122.5" font-family="Helvetica,sans-Serif" font-size="10.00">Observer_interface.h</text>
</a>
</g>
</g>
<!-- Node3&#45;&gt;Node5 -->
<g id="edge4" class="edge">
<title>Node3&#45;&gt;Node5</title>
<path fill="none" stroke="#63b8ff" d="M764.73,-175.87C771.9,-167.31 783.07,-153.97 792.06,-143.24"/>
<polygon fill="#63b8ff" stroke="#63b8ff" points="794.53,-145.74 798.27,-135.83 789.16,-141.25 794.53,-145.74"/>
</g>
<!-- Node6&#45;&gt;Node2 -->
<g id="edge18" class="edge">
<title>Node6&#45;&gt;Node2</title>
<path fill="none" stroke="#63b8ff" d="M827.65,-250.36C817.58,-258.36 800.33,-270.29 785.36,-279.73"/>
<polygon fill="#63b8ff" stroke="#63b8ff" points="783.93,-276.5 777.24,-284.72 787.59,-282.47 783.93,-276.5"/>
</g>
<!-- Node7 -->
<g id="node7" class="node">
<title>Node7</title>
<g id="a_node7"><a xlink:href="_subject_8h.html" target="_top" xlink:title=" ">
<polygon fill="white" stroke="#666666" points="865.5,-195 807.5,-195 807.5,-176 865.5,-176 865.5,-195"/>
<text text-anchor="middle" x="836.5" y="-183" font-family="Helvetica,sans-Serif" font-size="10.00">Subject.h</text>
</a>
</g>
</g>
<!-- Node6&#45;&gt;Node7 -->
<g id="edge6" class="edge">
<title>Node6&#45;&gt;Node7</title>
<path fill="none" stroke="#63b8ff" d="M835.67,-230.75C835.79,-224.27 835.96,-215.16 836.12,-206.9"/>
<polygon fill="#63b8ff" stroke="#63b8ff" points="839.61,-207.02 836.3,-196.96 832.61,-206.89 839.61,-207.02"/>
</g>
<!-- Node8 -->
<g id="node8" class="node">
<title>Node8</title>
<g id="a_node8"><a xlink:href="_machine_8h.html" target="_top" xlink:title=" ">
<polygon fill="white" stroke="#666666" points="1230.5,-74 1168.5,-74 1168.5,-55 1230.5,-55 1230.5,-74"/>
<text text-anchor="middle" x="1199.5" y="-62" font-family="Helvetica,sans-Serif" font-size="10.00">Machine.h</text>
</a>
</g>
</g>
<!-- Node6&#45;&gt;Node8 -->
<g id="edge9" class="edge">
<title>Node6&#45;&gt;Node8</title>
<path fill="none" stroke="#63b8ff" d="M882.3,-238.27C958.37,-235.38 1104.4,-225.87 1144.5,-195 1179.57,-168 1192.55,-114.35 1197.14,-85.3"/>
<polygon fill="#63b8ff" stroke="#63b8ff" points="1200.57,-86.07 1198.46,-75.68 1193.63,-85.11 1200.57,-86.07"/>
</g>
<!-- Node10 -->
<g id="node10" class="node">
<title>Node10</title>
<g id="a_node10"><a xlink:href="_display_8h.html" target="_top" xlink:title=" ">
<polygon fill="white" stroke="#666666" points="1447,-195 1390,-195 1390,-176 1447,-176 1447,-195"/>
<text text-anchor="middle" x="1418.5" y="-183" font-family="Helvetica,sans-Serif" font-size="10.00">Display.h</text>
</a>
</g>
</g>
<!-- Node6&#45;&gt;Node10 -->
<g id="edge11" class="edge">
<title>Node6&#45;&gt;Node10</title>
<path fill="none" stroke="#63b8ff" d="M882.22,-235.25C993.71,-225.12 1273.77,-199.66 1378.32,-190.15"/>
<polygon fill="#63b8ff" stroke="#63b8ff" points="1378.45,-193.66 1388.09,-189.26 1377.82,-186.68 1378.45,-193.66"/>
</g>
<!-- Node15 -->
<g id="node15" class="node">
<title>Node15</title>
<g id="a_node15"><a xlink:href="user__messages_8h.html" target="_top" xlink:title="Archivo para la configuración de interfaz con el usuario.">
<polygon fill="white" stroke="#666666" points="1009.5,-134.5 915.5,-134.5 915.5,-115.5 1009.5,-115.5 1009.5,-134.5"/>
<text text-anchor="middle" x="962.5" y="-122.5" font-family="Helvetica,sans-Serif" font-size="10.00">user_messages.h</text>
</a>
</g>
</g>
<!-- Node6&#45;&gt;Node15 -->
<g id="edge16" class="edge">
<title>Node6&#45;&gt;Node15</title>
<path fill="none" stroke="#63b8ff" d="M873.35,-230.61C894.39,-223.94 919.64,-212.81 936.5,-195 949.29,-181.49 955.94,-161.09 959.29,-145.97"/>
<polygon fill="#63b8ff" stroke="#63b8ff" points="962.71,-146.74 961.12,-136.26 955.83,-145.44 962.71,-146.74"/>
</g>
<!-- Node17 -->
<g id="node17" class="node">
<title>Node17</title>
<g id="a_node17"><a xlink:href="_temperature__sensor_8h.html" target="_top" xlink:title="Módulo de gestión de sensores de temperatura por interfaz OneWire.">
<polygon fill="white" stroke="#666666" points="208,-195 95,-195 95,-176 208,-176 208,-195"/>
<text text-anchor="middle" x="151.5" y="-183" font-family="Helvetica,sans-Serif" font-size="10.00">Temperature_sensor.h</text>
</a>
</g>
</g>
<!-- Node6&#45;&gt;Node17 -->
<g id="edge19" class="edge">
<title>Node6&#45;&gt;Node17</title>
<path fill="none" stroke="#63b8ff" d="M788.76,-235.88C670.38,-226.71 358.34,-202.53 219.63,-191.78"/>
<polygon fill="#63b8ff" stroke="#63b8ff" points="220.1,-188.31 209.86,-191.02 219.56,-195.28 220.1,-188.31"/>
</g>
<!-- Node21 -->
<g id="node21" class="node">
<title>Node21</title>
<g id="a_node21"><a xlink:href="_moisture__sensor_8h_source.html" target="_top" xlink:title=" ">
<polygon fill="white" stroke="#666666" points="565,-195 468,-195 468,-176 565,-176 565,-195"/>
<text text-anchor="middle" x="516.5" y="-183" font-family="Helvetica,sans-Serif" font-size="10.00">Moisture_sensor.h</text>
</a>
</g>
</g>
<!-- Node6&#45;&gt;Node21 -->
<g id="edge23" class="edge">
<title>Node6&#45;&gt;Node21</title>
<path fill="none" stroke="#63b8ff" d="M788.77,-231.74C732.57,-222.4 638.11,-206.7 576.54,-196.48"/>
<polygon fill="#63b8ff" stroke="#63b8ff" points="577.38,-193.07 566.94,-194.88 576.23,-199.97 577.38,-193.07"/>
</g>
<!-- Node6&#45;&gt;Node23 -->
<g id="edge25" class="edge">
<title>Node6&#45;&gt;Node23</title>
<path fill="none" stroke="#63b8ff" d="M788.8,-238.81C671.27,-236.58 370.41,-227.72 340.5,-195 328.49,-181.86 332.06,-160.81 337.2,-145.41"/>
<polygon fill="#63b8ff" stroke="#63b8ff" points="340.35,-146.96 340.66,-136.37 333.82,-144.46 340.35,-146.96"/>
</g>
<!-- Node24 -->
<g id="node24" class="node">
<title>Node24</title>
<g id="a_node24"><a xlink:href="_buzzer_8h.html" target="_top" xlink:title=" ">
<polygon fill="white" stroke="#666666" points="707.5,-195 651.5,-195 651.5,-176 707.5,-176 707.5,-195"/>
<text text-anchor="middle" x="679.5" y="-183" font-family="Helvetica,sans-Serif" font-size="10.00">Buzzer.h</text>
</a>
</g>
</g>
<!-- Node6&#45;&gt;Node24 -->
<g id="edge26" class="edge">
<title>Node6&#45;&gt;Node24</title>
<path fill="none" stroke="#63b8ff" d="M809.04,-230.51C783.64,-221.88 745.03,-208.76 716.58,-199.1"/>
<polygon fill="#63b8ff" stroke="#63b8ff" points="717.86,-195.84 707.27,-195.93 715.61,-202.46 717.86,-195.84"/>
</g>
<!-- Node26 -->
<g id="node26" class="node">
<title>Node26</title>
<g id="a_node26"><a xlink:href="_motor_8h.html" target="_top" xlink:title=" ">
<polygon fill="white" stroke="#666666" points="633.5,-195 583.5,-195 583.5,-176 633.5,-176 633.5,-195"/>
<text text-anchor="middle" x="608.5" y="-183" font-family="Helvetica,sans-Serif" font-size="10.00">Motor.h</text>
</a>
</g>
</g>
<!-- Node6&#45;&gt;Node26 -->
<g id="edge29" class="edge">
<title>Node6&#45;&gt;Node26</title>
<path fill="none" stroke="#63b8ff" d="M795.53,-230.51C758.83,-222.2 702.65,-209.37 644.92,-195.55"/>
<polygon fill="#63b8ff" stroke="#63b8ff" points="645.75,-192.15 635.21,-193.22 644.12,-198.96 645.75,-192.15"/>
</g>
<!-- Node27 -->
<g id="node27" class="node">
<title>Node27</title>
<g id="a_node27"><a xlink:href="_dual___l_e_d_8h.html" target="_top" xlink:title=" ">
<polygon fill="white" stroke="#666666" points="411.5,-195 349.5,-195 349.5,-176 411.5,-176 411.5,-195"/>
<text text-anchor="middle" x="380.5" y="-183" font-family="Helvetica,sans-Serif" font-size="10.00">Dual_led.h</text>
</a>
</g>
</g>
<!-- Node6&#45;&gt;Node27 -->
<g id="edge32" class="edge">
<title>Node6&#45;&gt;Node27</title>
<path fill="none" stroke="#63b8ff" d="M788.52,-234.03C699.72,-223.68 508.5,-201.41 423.15,-191.47"/>
<polygon fill="#63b8ff" stroke="#63b8ff" points="423.67,-188.01 413.33,-190.32 422.86,-194.96 423.67,-188.01"/>
</g>
<!-- Node28 -->
<g id="node28" class="node">
<title>Node28</title>
<g id="a_node28"><a xlink:href="_shutdown__state_8h_source.html" target="_top" xlink:title=" ">
<polygon fill="white" stroke="#666666" points="1117,-195 1022,-195 1022,-176 1117,-176 1117,-195"/>
<text text-anchor="middle" x="1069.5" y="-183" font-family="Helvetica,sans-Serif" font-size="10.00">Shutdown_state.h</text>
</a>
</g>
</g>
<!-- Node6&#45;&gt;Node28 -->
<g id="edge36" class="edge">
<title>Node6&#45;&gt;Node28</title>
<path fill="none" stroke="#63b8ff" d="M869.98,-230.51C907.88,-221.5 969.11,-207.6 1013.81,-197.83"/>
<polygon fill="#63b8ff" stroke="#63b8ff" points="1014.29,-201.31 1023.31,-195.77 1012.8,-194.47 1014.29,-201.31"/>
</g>
<!-- Node31 -->
<g id="node31" class="node">
<title>Node31</title>
<g id="a_node31"><a xlink:href="utils_8h_source.html" target="_top" xlink:title=" ">
<polygon fill="white" stroke="#666666" points="927,-195 884,-195 884,-176 927,-176 927,-195"/>
<text text-anchor="middle" x="905.5" y="-183" font-family="Helvetica,sans-Serif" font-size="10.00">utils.h</text>
</a>
</g>
</g>
<!-- Node6&#45;&gt;Node31 -->
<g id="edge46" class="edge">
<title>Node6&#45;&gt;Node31</title>
<path fill="none" stroke="#63b8ff" d="M847.37,-230.51C857.59,-222.77 872.57,-211.43 884.76,-202.2"/>
<polygon fill="#63b8ff" stroke="#63b8ff" points="886.73,-205.1 892.59,-196.27 882.51,-199.52 886.73,-205.1"/>
</g>
<!-- Node7&#45;&gt;Node4 -->
<g id="edge7" class="edge">
<title>Node7&#45;&gt;Node4</title>
<path fill="none" stroke="#63b8ff" d="M813.57,-175.62C788.4,-165.87 747.77,-150.12 719.02,-138.99"/>
<polygon fill="#63b8ff" stroke="#63b8ff" points="720.65,-135.86 710.06,-135.52 718.12,-142.39 720.65,-135.86"/>
</g>
<!-- Node7&#45;&gt;Node5 -->
<g id="edge8" class="edge">
<title>Node7&#45;&gt;Node5</title>
<path fill="none" stroke="#63b8ff" d="M832.07,-175.87C827.91,-167.75 821.53,-155.31 816.18,-144.89"/>
<polygon fill="#63b8ff" stroke="#63b8ff" points="819.31,-143.32 811.64,-136.01 813.08,-146.51 819.31,-143.32"/>
</g>
<!-- Node9 -->
<g id="node9" class="node">
<title>Node9</title>
<g id="a_node9"><a xlink:href="_abstract__state_8h.html" target="_top" xlink:title=" ">
<polygon fill="white" stroke="#666666" points="1143,-19 1054,-19 1054,0 1143,0 1143,-19"/>
<text text-anchor="middle" x="1098.5" y="-7" font-family="Helvetica,sans-Serif" font-size="10.00">Abstract_state.h</text>
</a>
</g>
</g>
<!-- Node8&#45;&gt;Node9 -->
<g id="edge10" class="edge">
<title>Node8&#45;&gt;Node9</title>
<path fill="none" stroke="#63b8ff" d="M1182.37,-54.51C1166.75,-46.31 1143.42,-34.07 1125.33,-24.58"/>
<polygon fill="#63b8ff" stroke="#63b8ff" points="1127.2,-21.61 1116.72,-20.06 1123.95,-27.81 1127.2,-21.61"/>
</g>
<!-- Node11 -->
<g id="node11" class="node">
<title>Node11</title>
<g id="a_node11"><a xlink:title=" ">
<polygon fill="#e0e0e0" stroke="#999999" points="1529,-134.5 1484,-134.5 1484,-115.5 1529,-115.5 1529,-134.5"/>
<text text-anchor="middle" x="1506.5" y="-122.5" font-family="Helvetica,sans-Serif" font-size="10.00">Wire.h</text>
</a>
</g>
</g>
<!-- Node10&#45;&gt;Node11 -->
<g id="edge12" class="edge">
<title>Node10&#45;&gt;Node11</title>
<path fill="none" stroke="#63b8ff" d="M1431.87,-175.62C1445.56,-166.51 1467.12,-152.18 1483.56,-141.25"/>
<polygon fill="#63b8ff" stroke="#63b8ff" points="1485.36,-144.26 1491.75,-135.81 1481.48,-138.43 1485.36,-144.26"/>
</g>
<!-- Node12 -->
<g id="node12" class="node">
<title>Node12</title>
<g id="a_node12"><a xlink:title=" ">
<polygon fill="#e0e0e0" stroke="#999999" points="1609.5,-134.5 1547.5,-134.5 1547.5,-115.5 1609.5,-115.5 1609.5,-134.5"/>
<text text-anchor="middle" x="1578.5" y="-122.5" font-family="Helvetica,sans-Serif" font-size="10.00">hd44780.h</text>
</a>
</g>
</g>
<!-- Node10&#45;&gt;Node12 -->
<g id="edge13" class="edge">
<title>Node10&#45;&gt;Node12</title>
<path fill="none" stroke="#63b8ff" d="M1442.8,-175.62C1469.58,-165.82 1512.9,-149.98 1543.38,-138.84"/>
<polygon fill="#63b8ff" stroke="#63b8ff" points="1544.36,-142.21 1552.55,-135.49 1541.96,-135.64 1544.36,-142.21"/>
</g>
<!-- Node13 -->
<g id="node13" class="node">
<title>Node13</title>
<g id="a_node13"><a xlink:title=" ">
<polygon fill="#e0e0e0" stroke="#999999" points="1353,-140 1228,-140 1228,-110 1353,-110 1353,-140"/>
<text text-anchor="start" x="1236" y="-128" font-family="Helvetica,sans-Serif" font-size="10.00">hd44780ioClass/hd44780</text>
<text text-anchor="middle" x="1290.5" y="-117" font-family="Helvetica,sans-Serif" font-size="10.00">_I2Cexp.h</text>
</a>
</g>
</g>
<!-- Node10&#45;&gt;Node13 -->
<g id="edge14" class="edge">
<title>Node10&#45;&gt;Node13</title>
<path fill="none" stroke="#63b8ff" d="M1399.06,-175.62C1381.43,-167.56 1354.85,-155.41 1332.4,-145.15"/>
<polygon fill="#63b8ff" stroke="#63b8ff" points="1334.02,-142.04 1323.47,-141.07 1331.11,-148.41 1334.02,-142.04"/>
</g>
<!-- Node14 -->
<g id="node14" class="node">
<title>Node14</title>
<g id="a_node14"><a xlink:href="display__settings_8h.html" target="_top" xlink:title="Archivo de configuración de la pantalla.">
<polygon fill="white" stroke="#666666" points="1466,-134.5 1371,-134.5 1371,-115.5 1466,-115.5 1466,-134.5"/>
<text text-anchor="middle" x="1418.5" y="-122.5" font-family="Helvetica,sans-Serif" font-size="10.00">display_settings.h</text>
</a>
</g>
</g>
<!-- Node10&#45;&gt;Node14 -->
<g id="edge15" class="edge">
<title>Node10&#45;&gt;Node14</title>
<path fill="none" stroke="#63b8ff" d="M1418.5,-175.87C1418.5,-168 1418.5,-156.1 1418.5,-145.89"/>
<polygon fill="#63b8ff" stroke="#63b8ff" points="1422,-146.18 1418.5,-136.18 1415,-146.18 1422,-146.18"/>
</g>
<!-- Node16 -->
<g id="node16" class="node">
<title>Node16</title>
<g id="a_node16"><a xlink:title=" ">
<polygon fill="#e0e0e0" stroke="#999999" points="937,-74 852,-74 852,-55 937,-55 937,-74"/>
<text text-anchor="middle" x="894.5" y="-62" font-family="Helvetica,sans-Serif" font-size="10.00">avr/pgmspace.h</text>
</a>
</g>
</g>
<!-- Node15&#45;&gt;Node16 -->
<g id="edge17" class="edge">
<title>Node15&#45;&gt;Node16</title>
<path fill="none" stroke="#63b8ff" d="M952.17,-115.12C941.89,-106.27 925.87,-92.48 913.32,-81.69"/>
<polygon fill="#63b8ff" stroke="#63b8ff" points="915.94,-79.32 906.07,-75.46 911.37,-84.63 915.94,-79.32"/>
</g>
<!-- Node17&#45;&gt;Node18 -->
<g id="edge20" class="edge">
<title>Node17&#45;&gt;Node18</title>
<path fill="none" stroke="#63b8ff" d="M167.14,-175.62C183.48,-166.34 209.37,-151.63 228.73,-140.64"/>
<polygon fill="#63b8ff" stroke="#63b8ff" points="230.43,-143.7 237.39,-135.72 226.97,-137.61 230.43,-143.7"/>
</g>
<!-- Node19 -->
<g id="node19" class="node">
<title>Node19</title>
<g id="a_node19"><a xlink:title=" ">
<polygon fill="#e0e0e0" stroke="#999999" points="63,-134.5 0,-134.5 0,-115.5 63,-115.5 63,-134.5"/>
<text text-anchor="middle" x="31.5" y="-122.5" font-family="Helvetica,sans-Serif" font-size="10.00">OneWire.h</text>
</a>
</g>
</g>
<!-- Node17&#45;&gt;Node19 -->
<g id="edge21" class="edge">
<title>Node17&#45;&gt;Node19</title>
<path fill="none" stroke="#63b8ff" d="M133.27,-175.62C113.8,-166.12 82.68,-150.95 59.97,-139.88"/>
<polygon fill="#63b8ff" stroke="#63b8ff" points="61.78,-136.87 51.26,-135.63 58.71,-143.16 61.78,-136.87"/>
</g>
<!-- Node20 -->
<g id="node20" class="node">
<title>Node20</title>
<g id="a_node20"><a xlink:title=" ">
<polygon fill="#e0e0e0" stroke="#999999" points="187.5,-134.5 81.5,-134.5 81.5,-115.5 187.5,-115.5 187.5,-134.5"/>
<text text-anchor="middle" x="134.5" y="-122.5" font-family="Helvetica,sans-Serif" font-size="10.00">DallasTemperature.h</text>
</a>
</g>
</g>
<!-- Node17&#45;&gt;Node20 -->
<g id="edge22" class="edge">
<title>Node17&#45;&gt;Node20</title>
<path fill="none" stroke="#63b8ff" d="M148.99,-175.87C146.68,-167.92 143.17,-155.83 140.18,-145.55"/>
<polygon fill="#63b8ff" stroke="#63b8ff" points="143.59,-144.75 137.44,-136.12 136.87,-146.7 143.59,-144.75"/>
</g>
<!-- Node21&#45;&gt;Node22 -->
<g id="edge24" class="edge">
<title>Node21&#45;&gt;Node22</title>
<path fill="none" stroke="#63b8ff" d="M513.84,-175.87C511.4,-167.92 507.68,-155.83 504.52,-145.55"/>
<polygon fill="#63b8ff" stroke="#63b8ff" points="507.9,-144.64 501.61,-136.11 501.21,-146.7 507.9,-144.64"/>
</g>
<!-- Node24&#45;&gt;Node22 -->
<g id="edge27" class="edge">
<title>Node24&#45;&gt;Node22</title>
<path fill="none" stroke="#63b8ff" d="M651.14,-176.14C622.19,-167.5 576.02,-153.42 536.5,-140 535.33,-139.6 534.15,-139.2 532.96,-138.78"/>
<polygon fill="#63b8ff" stroke="#63b8ff" points="534.17,-135.5 523.58,-135.43 531.82,-142.09 534.17,-135.5"/>
</g>
<!-- Node25 -->
<g id="node25" class="node">
<title>Node25</title>
<g id="a_node25"><a xlink:href="port__config_8h.html" target="_top" xlink:title="Archivo de configuración para los puertos de la placa donde se implementará el sistema.">
<polygon fill="white" stroke="#666666" points="617.5,-134.5 545.5,-134.5 545.5,-115.5 617.5,-115.5 617.5,-134.5"/>
<text text-anchor="middle" x="581.5" y="-122.5" font-family="Helvetica,sans-Serif" font-size="10.00">port_config.h</text>
</a>
</g>
</g>
<!-- Node24&#45;&gt;Node25 -->
<g id="edge28" class="edge">
<title>Node24&#45;&gt;Node25</title>
<path fill="none" stroke="#63b8ff" d="M664.62,-175.62C649.15,-166.38 624.67,-151.77 606.28,-140.79"/>
<polygon fill="#63b8ff" stroke="#63b8ff" points="608.2,-137.86 597.82,-135.74 604.62,-143.88 608.2,-137.86"/>
</g>
<!-- Node26&#45;&gt;Node22 -->
<g id="edge30" class="edge">
<title>Node26&#45;&gt;Node22</title>
<path fill="none" stroke="#63b8ff" d="M591.79,-175.62C574.19,-166.25 546.19,-151.36 525.45,-140.33"/>
<polygon fill="#63b8ff" stroke="#63b8ff" points="527.17,-137.28 516.7,-135.68 523.89,-143.46 527.17,-137.28"/>
</g>
<!-- Node26&#45;&gt;Node25 -->
<g id="edge31" class="edge">
<title>Node26&#45;&gt;Node25</title>
<path fill="none" stroke="#63b8ff" d="M604.52,-175.87C600.77,-167.75 595.03,-155.31 590.22,-144.89"/>
<polygon fill="#63b8ff" stroke="#63b8ff" points="593.5,-143.65 586.13,-136.04 587.15,-146.59 593.5,-143.65"/>
</g>
<!-- Node27&#45;&gt;Node18 -->
<g id="edge35" class="edge">
<title>Node27&#45;&gt;Node18</title>
<path fill="none" stroke="#63b8ff" d="M361.36,-175.62C340.83,-166.08 307.94,-150.81 284.07,-139.73"/>
<polygon fill="#63b8ff" stroke="#63b8ff" points="285.73,-136.64 275.19,-135.61 282.79,-142.99 285.73,-136.64"/>
</g>
<!-- Node27&#45;&gt;Node22 -->
<g id="edge33" class="edge">
<title>Node27&#45;&gt;Node22</title>
<path fill="none" stroke="#63b8ff" d="M398.42,-175.62C417.48,-166.17 447.9,-151.09 470.2,-140.03"/>
<polygon fill="#63b8ff" stroke="#63b8ff" points="471.65,-143.22 479.05,-135.64 468.54,-136.95 471.65,-143.22"/>
</g>
<!-- Node27&#45;&gt;Node23 -->
<g id="edge34" class="edge">
<title>Node27&#45;&gt;Node23</title>
<path fill="none" stroke="#63b8ff" d="M375.34,-175.87C370.37,-167.57 362.72,-154.78 356.4,-144.22"/>
<polygon fill="#63b8ff" stroke="#63b8ff" points="359.6,-142.75 351.46,-135.97 353.59,-146.34 359.6,-142.75"/>
</g>
<!-- Node28&#45;&gt;Node6 -->
<g id="edge37" class="edge">
<title>Node28&#45;&gt;Node6</title>
<path fill="none" stroke="#63b8ff" d="M1035.21,-195.45C997.39,-204.44 936.16,-218.34 891.41,-228.12"/>
<polygon fill="#63b8ff" stroke="#63b8ff" points="890.92,-224.64 881.89,-230.19 892.41,-231.48 890.92,-224.64"/>
</g>
<!-- Node28&#45;&gt;Node9 -->
<g id="edge38" class="edge">
<title>Node28&#45;&gt;Node9</title>
<path fill="none" stroke="#63b8ff" d="M1078.24,-175.73C1086.19,-167.26 1097.7,-153.74 1104.5,-140 1117.93,-112.85 1117.69,-104.05 1121.5,-74 1122.56,-65.62 1123.5,-63.21 1121.5,-55 1119.29,-45.93 1114.89,-36.63 1110.52,-28.9"/>
<polygon fill="#63b8ff" stroke="#63b8ff" points="1113.59,-27.21 1105.39,-20.49 1107.61,-30.85 1113.59,-27.21"/>
</g>
<!-- Node29 -->
<g id="node29" class="node">
<title>Node29</title>
<g id="a_node29"><a xlink:href="_idle__state_8h.html" target="_top" xlink:title=" ">
<polygon fill="white" stroke="#666666" points="1095,-134.5 1028,-134.5 1028,-115.5 1095,-115.5 1095,-134.5"/>
<text text-anchor="middle" x="1061.5" y="-122.5" font-family="Helvetica,sans-Serif" font-size="10.00">Idle_state.h</text>
</a>
</g>
</g>
<!-- Node28&#45;&gt;Node29 -->
<g id="edge39" class="edge">
<title>Node28&#45;&gt;Node29</title>
<path fill="none" stroke="#63b8ff" d="M1068.32,-175.87C1067.24,-168 1065.62,-156.1 1064.22,-145.89"/>
<polygon fill="#63b8ff" stroke="#63b8ff" points="1067.71,-145.6 1062.89,-136.17 1060.78,-146.55 1067.71,-145.6"/>
</g>
<!-- Node29&#45;&gt;Node6 -->
<g id="edge40" class="edge">
<title>Node29&#45;&gt;Node6</title>
<path fill="none" stroke="#63b8ff" d="M1050.07,-134.79C1031.32,-148.89 992.53,-176.84 956.5,-195 930.79,-207.96 900.37,-219.13 876.46,-227.04"/>
<polygon fill="#63b8ff" stroke="#63b8ff" points="875.51,-223.67 867.08,-230.08 877.67,-230.33 875.51,-223.67"/>
</g>
<!-- Node29&#45;&gt;Node9 -->
<g id="edge41" class="edge">
<title>Node29&#45;&gt;Node9</title>
<path fill="none" stroke="#63b8ff" d="M1040.22,-115.06C1014.36,-102.87 976.09,-79.69 992.5,-55 1003.96,-37.76 1023.53,-27.19 1042.77,-20.7"/>
<polygon fill="#63b8ff" stroke="#63b8ff" points="1043.65,-24.09 1052.22,-17.86 1041.64,-17.39 1043.65,-24.09"/>
</g>
<!-- Node30 -->
<g id="node30" class="node">
<title>Node30</title>
<g id="a_node30"><a xlink:href="_motor__control__state_8h_source.html" target="_top" xlink:title=" ">
<polygon fill="white" stroke="#666666" points="1112,-74 1001,-74 1001,-55 1112,-55 1112,-74"/>
<text text-anchor="middle" x="1056.5" y="-62" font-family="Helvetica,sans-Serif" font-size="10.00">Motor_control_state.h</text>
</a>
</g>
</g>
<!-- Node29&#45;&gt;Node30 -->
<g id="edge42" class="edge">
<title>Node29&#45;&gt;Node30</title>
<path fill="none" stroke="#63b8ff" d="M1055.81,-115.37C1053.44,-107.5 1051.93,-95.6 1051.77,-85.39"/>
<polygon fill="#63b8ff" stroke="#63b8ff" points="1055.25,-85.83 1052.21,-75.68 1048.26,-85.51 1055.25,-85.83"/>
</g>
<!-- Node30&#45;&gt;Node6 -->
<g id="edge43" class="edge">
<title>Node30&#45;&gt;Node6</title>
<path fill="none" stroke="#63b8ff" d="M1068.2,-74.46C1095.85,-96.7 1160.47,-155.45 1126.5,-195 1097.09,-229.25 969.66,-237.42 893.53,-239.2"/>
<polygon fill="#63b8ff" stroke="#63b8ff" points="893.67,-235.69 883.74,-239.39 893.81,-242.69 893.67,-235.69"/>
</g>
<!-- Node30&#45;&gt;Node9 -->
<g id="edge44" class="edge">
<title>Node30&#45;&gt;Node9</title>
<path fill="none" stroke="#63b8ff" d="M1063.44,-54.75C1069.12,-47.58 1077.34,-37.2 1084.39,-28.3"/>
<polygon fill="#63b8ff" stroke="#63b8ff" points="1087.01,-30.64 1090.47,-20.63 1081.52,-26.29 1087.01,-30.64"/>
</g>
<!-- Node30&#45;&gt;Node29 -->
<g id="edge45" class="edge">
<title>Node30&#45;&gt;Node29</title>
<path fill="none" stroke="#63b8ff" d="M1062.2,-74.17C1064.57,-82.04 1066.08,-93.95 1066.23,-104.16"/>
<polygon fill="#63b8ff" stroke="#63b8ff" points="1062.75,-103.71 1065.79,-113.86 1069.74,-104.03 1062.75,-103.71"/>
</g>
<!-- Node31&#45;&gt;Node15 -->
<g id="edge48" class="edge">
<title>Node31&#45;&gt;Node15</title>
<path fill="none" stroke="#63b8ff" d="M913.91,-175.87C922.41,-167.14 935.77,-153.43 946.33,-142.59"/>
<polygon fill="#63b8ff" stroke="#63b8ff" points="948.53,-145.36 953,-135.75 943.51,-140.47 948.53,-145.36"/>
</g>
<!-- Node31&#45;&gt;Node16 -->
<g id="edge47" class="edge">
<title>Node31&#45;&gt;Node16</title>
<path fill="none" stroke="#63b8ff" d="M904.67,-175.56C902.91,-156.51 898.76,-111.56 896.34,-85.37"/>
<polygon fill="#63b8ff" stroke="#63b8ff" points="899.85,-85.37 895.45,-75.73 892.88,-86.01 899.85,-85.37"/>
</g>
</g>
</svg>
        <g id="navigator" transform="translate(0 0)" fill="#404254">
                <rect fill="#f2f5e9" fill-opacity="0.5" stroke="#606060" stroke-width=".5" x="0" y="0" width="60" height="60"/>
                <use id="zoomplus" xlink:href="#zoomPlus" x="17" y="9" onmousedown="handleZoom(evt,'in')"/>
                <use id="zoomminus" xlink:href="#zoomMin" x="42" y="9" onmousedown="handleZoom(evt,'out')"/>
                <use id="reset" xlink:href="#resetDef" x="30" y="36" onmousedown="handleReset()"/>
                <g id="arrowUp" xlink:href="#dirArrow" transform="translate(30 24)" onmousedown="handlePan(0,-1)">
                  <use xlink:href="#rim" fill="#404040">
                        <set attributeName="fill" to="#808080" begin="arrowUp.mouseover" end="arrowUp.mouseout"/>
                  </use>
                  <path fill="none" stroke="white" stroke-width="1.5" d="M0,-3.0v7 M-2.5,-0.5L0,-3.0L2.5,-0.5"/>
                </g>
                <g id="arrowRight" xlink:href="#dirArrow" transform="rotate(90) translate(36 -43)" onmousedown="handlePan(1,0)">
                  <use xlink:href="#rim" fill="#404040">
                        <set attributeName="fill" to="#808080" begin="arrowRight.mouseover" end="arrowRight.mouseout"/>
                  </use>
                  <path fill="none" stroke="white" stroke-width="1.5" d="M0,-3.0v7 M-2.5,-0.5L0,-3.0L2.5,-0.5"/>
                </g>
                <g id="arrowDown" xlink:href="#dirArrow" transform="rotate(180) translate(-30 -48)" onmousedown="handlePan(0,1)">
                  <use xlink:href="#rim" fill="#404040">
                        <set attributeName="fill" to="#808080" begin="arrowDown.mouseover" end="arrowDown.mouseout"/>
                  </use>
                  <path fill="none" stroke="white" stroke-width="1.5" d="M0,-3.0v7 M-2.5,-0.5L0,-3.0L2.5,-0.5"/>
                </g>
                <g id="arrowLeft" xlink:href="#dirArrow" transform="rotate(270) translate(-36 17)" onmousedown="handlePan(-1,0)">
                  <use xlink:href="#rim" fill="#404040">
                        <set attributeName="fill" to="#808080" begin="arrowLeft.mouseover" end="arrowLeft.mouseout"/>
                  </use>
                  <path fill="none" stroke="white" stroke-width="1.5" d="M0,-3.0v7 M-2.5,-0.5L0,-3.0L2.5,-0.5"/>
                </g>
        </g>
        <svg viewBox="0 0 15 15" width="100%" height="30px" preserveAspectRatio="xMaxYMin meet">
         <g id="arrow_out" transform="scale(0.3 0.3)">
          <a xlink:href="_temperature__observer_8h__incl_org.svg" target="_base">
           <rect id="button" ry="5" rx="5" y="6" x="6" height="38" width="38"
                fill="#f2f5e9" fill-opacity="0.5" stroke="#606060" stroke-width="1.0"/>
           <path id="arrow"
             d="M 11.500037,31.436501 C 11.940474,20.09759 22.043105,11.32322 32.158766,21.979434 L 37.068811,17.246167 C 37.068811,17.246167 37.088388,32 37.088388,32 L 22.160133,31.978069 C 22.160133,31.978069 26.997745,27.140456 26.997745,27.140456 C 18.528582,18.264221 13.291696,25.230495 11.500037,31.436501 z"
             style="fill:#404040;"/>
          </a>
         </g>
        </svg>
</svg>
