<?xml version="1.0" encoding="UTF-8" standalone="no"?>
<!DOCTYPE svg PUBLIC "-//W3C//DTD SVG 1.1//EN"
 "http://www.w3.org/Graphics/SVG/1.1/DTD/svg11.dtd">
<!-- Generated by graphviz version 7.0.2 (20221119.0110)
 -->
<!-- Title: C:/Users/juanh/OneDrive/Escritorio/Facultad/Beca/Proyecto/LAL_Control/include/observer_pattern/observers/Temperature_observer.h Pages: 1 -->
<!--zoomable 500 -->
<svg id="main" version="1.1" xmlns="http://www.w3.org/2000/svg" xmlns:xlink="http://www.w3.org/1999/xlink" xml:space="preserve" onload="init(evt)">
<style type="text/css"><![CDATA[
.edge:hover path { stroke: red; }
.edge:hover polygon { stroke: red; fill: red; }
]]></style>
<script type="text/javascript"><![CDATA[
var edges = document.getElementsByTagName('g');
if (edges && edges.length) {
  for (var i=0;i<edges.length;i++) {
    if (edges[i].id.substr(0,4)=='edge') {
      edges[i].setAttribute('class','edge');
    }
  }
}
]]></script>
        <defs>
                <circle id="rim" cx="0" cy="0" r="7"/>
                <circle id="rim2" cx="0" cy="0" r="3.5"/>
                <g id="zoomPlus">
                        <use xlink:href="#rim" fill="#404040">
                                <set attributeName="fill" to="#808080" begin="zoomplus.mouseover" end="zoomplus.mouseout"/>
                        </use>
                        <path d="M-4,0h8M0,-4v8" fill="none" stroke="white" stroke-width="1.5" pointer-events="none"/>
                </g>
                <g id="zoomMin">
                        <use xlink:href="#rim" fill="#404040">
                                <set attributeName="fill" to="#808080" begin="zoomminus.mouseover" end="zoomminus.mouseout"/>
                        </use>
                        <path d="M-4,0h8" fill="none" stroke="white" stroke-width="1.5" pointer-events="none"/>
                </g>
                <g id="dirArrow">
                        <path fill="none" stroke="white" stroke-width="1.5" d="M0,-3.0v7 M-2.5,-0.5L0,-3.0L2.5,-0.5"/>
                </g>
               <g id="resetDef">
                       <use xlink:href="#rim2" fill="#404040">
                               <set attributeName="fill" to="#808080" begin="reset.mouseover" end="reset.mouseout"/>
                       </use>
               </g>
        </defs>

<script type="text/javascript">
var viewWidth = 1635;
var viewHeight = 500;
var sectionId = 'dynsection-0';
</script>
<script xlink:href="svgpan.js"/>
<svg id="graph" class="graph">
<g id="viewport">
<title>C:/Users/juanh/OneDrive/Escritorio/Facultad/Beca/Proyecto/LAL_Control/include/observer_pattern/observers/Temperature_observer.h</title>
<!-- Node1 -->
<g id="node1" class="node">
<title>Node1</title>
<g id="a_node1"><a xlink:title="Observador del sensor de temperatura.">
<polygon fill="#999999" stroke="#666666" points="1178.5,-492 1029.5,-492 1029.5,-429 1178.5,-429 1178.5,-492"/>
<text text-anchor="start" x="1037.5" y="-480" font-family="Helvetica,sans-Serif" font-size="10.00">C:/Users/juanh/OneDrive</text>
<text text-anchor="start" x="1037.5" y="-469" font-family="Helvetica,sans-Serif" font-size="10.00">/Escritorio/Facultad/Beca</text>
<text text-anchor="start" x="1037.5" y="-458" font-family="Helvetica,sans-Serif" font-size="10.00">/Proyecto/LAL_Control/include</text>
<text text-anchor="start" x="1037.5" y="-447" font-family="Helvetica,sans-Serif" font-size="10.00">/observer_pattern/observers</text>
<text text-anchor="middle" x="1104" y="-436" font-family="Helvetica,sans-Serif" font-size="10.00">/Temperature_observer.h</text>
</a>
</g>
</g>
<!-- Node2 -->
<g id="node2" class="node">
<title>Node2</title>
<g id="a_node2"><a xlink:href="_system__observer_8h.html" target="_top" xlink:title="Clase observador del sistema de control.">
<polygon fill="white" stroke="#666666" points="932,-393 800,-393 800,-363 932,-363 932,-393"/>
<text text-anchor="start" x="808" y="-381" font-family="Helvetica,sans-Serif" font-size="10.00">observer_pattern/observers</text>
<text text-anchor="middle" x="866" y="-370" font-family="Helvetica,sans-Serif" font-size="10.00">/System_observer.h</text>
</a>
</g>
</g>
<!-- Node1&#45;&gt;Node2 -->
<g id="edge1" class="edge">
<title>Node1&#45;&gt;Node2</title>
<path fill="none" stroke="#63b8ff" d="M1029.02,-434.14C993.4,-422.09 951.65,-407.97 919.32,-397.03"/>
<polygon fill="#63b8ff" stroke="#63b8ff" points="920.76,-393.83 910.17,-393.94 918.52,-400.46 920.76,-393.83"/>
</g>
<!-- Node6 -->
<g id="node6" class="node">
<title>Node6</title>
<g id="a_node6"><a xlink:href="_control__system_8h_source.html" target="_top" xlink:title=" ">
<polygon fill="white" stroke="#666666" points="912.5,-327 819.5,-327 819.5,-308 912.5,-308 912.5,-327"/>
<text text-anchor="middle" x="866" y="-315" font-family="Helvetica,sans-Serif" font-size="10.00">Control_system.h</text>
</a>
</g>
</g>
<!-- Node1&#45;&gt;Node6 -->
<g id="edge50" class="edge">
<title>Node1&#45;&gt;Node6</title>
<path fill="none" stroke="#63b8ff" d="M1051.77,-428.56C1001.86,-398.99 928.8,-355.7 890.89,-333.24"/>
<polygon fill="#63b8ff" stroke="#63b8ff" points="892.86,-330.35 882.48,-328.26 889.3,-336.37 892.86,-330.35"/>
</g>
<!-- Node18 -->
<g id="node18" class="node">
<title>Node18</title>
<g id="a_node18"><a xlink:href="system__settings_8h.html" target="_top" xlink:title="Archivo para la definición de constantes del sistema.">
<polygon fill="white" stroke="#666666" points="1367.5,-184 1270.5,-184 1270.5,-165 1367.5,-165 1367.5,-184"/>
<text text-anchor="middle" x="1319" y="-172" font-family="Helvetica,sans-Serif" font-size="10.00">system_settings.h</text>
</a>
</g>
</g>
<!-- Node1&#45;&gt;Node18 -->
<g id="edge51" class="edge">
<title>Node1&#45;&gt;Node18</title>
<path fill="none" stroke="#63b8ff" d="M1096.48,-428.74C1086.67,-380.57 1075.85,-287.05 1123,-231 1163.8,-182.49 1200.26,-213.11 1261,-195 1268.17,-192.86 1275.78,-190.43 1283.04,-188.02"/>
<polygon fill="#63b8ff" stroke="#63b8ff" points="1283.92,-191.42 1292.28,-184.91 1281.68,-184.78 1283.92,-191.42"/>
</g>
<!-- Node22 -->
<g id="node22" class="node">
<title>Node22</title>
<g id="a_node22"><a xlink:title=" ">
<polygon fill="#e0e0e0" stroke="#999999" points="1453,-184 1395,-184 1395,-165 1453,-165 1453,-184"/>
<text text-anchor="middle" x="1424" y="-172" font-family="Helvetica,sans-Serif" font-size="10.00">Arduino.h</text>
</a>
</g>
</g>
<!-- Node1&#45;&gt;Node22 -->
<g id="edge49" class="edge">
<title>Node1&#45;&gt;Node22</title>
<path fill="none" stroke="#63b8ff" d="M1178.88,-455.12C1289.05,-444.17 1491.63,-405.88 1583,-272 1593.27,-256.95 1593.65,-245.78 1583,-231 1553.42,-189.95 1522.64,-212.04 1475,-195 1469.2,-192.93 1463.05,-190.65 1457.12,-188.4"/>
<polygon fill="#63b8ff" stroke="#63b8ff" points="1458.77,-185.29 1448.18,-184.99 1456.28,-191.83 1458.77,-185.29"/>
</g>
<!-- Node23 -->
<g id="node23" class="node">
<title>Node23</title>
<g id="a_node23"><a xlink:href="types_8h.html" target="_top" xlink:title="Archivo de definición de tipos de dato.">
<polygon fill="white" stroke="#666666" points="1626.5,-184 1577.5,-184 1577.5,-165 1626.5,-165 1626.5,-184"/>
<text text-anchor="middle" x="1602" y="-172" font-family="Helvetica,sans-Serif" font-size="10.00">types.h</text>
</a>
</g>
</g>
<!-- Node1&#45;&gt;Node23 -->
<g id="edge52" class="edge">
<title>Node1&#45;&gt;Node23</title>
<path fill="none" stroke="#63b8ff" d="M1178.68,-456.15C1255.01,-450.44 1375.56,-434.95 1471,-393 1543.26,-361.24 1574.9,-346.49 1601,-272 1609.82,-246.84 1608.06,-215.67 1605.46,-195.68"/>
<polygon fill="#63b8ff" stroke="#63b8ff" points="1608.93,-195.2 1603.97,-185.84 1602.01,-196.25 1608.93,-195.2"/>
</g>
<!-- Node3 -->
<g id="node3" class="node">
<title>Node3</title>
<g id="a_node3"><a xlink:href="_observer_8h.html" target="_top" xlink:title="Clase observador.">
<polygon fill="white" stroke="#666666" points="322,-266.5 190,-266.5 190,-236.5 322,-236.5 322,-266.5"/>
<text text-anchor="start" x="198" y="-254.5" font-family="Helvetica,sans-Serif" font-size="10.00">observer_pattern/observers</text>
<text text-anchor="middle" x="256" y="-243.5" font-family="Helvetica,sans-Serif" font-size="10.00">/Observer.h</text>
</a>
</g>
</g>
<!-- Node2&#45;&gt;Node3 -->
<g id="edge2" class="edge">
<title>Node2&#45;&gt;Node3</title>
<path fill="none" stroke="#63b8ff" d="M799.84,-365.35C698.51,-347.2 498.96,-310.28 331,-272 327.7,-271.25 324.32,-270.45 320.91,-269.63"/>
<polygon fill="#63b8ff" stroke="#63b8ff" points="322,-266.3 311.45,-267.31 320.33,-273.1 322,-266.3"/>
</g>
<!-- Node2&#45;&gt;Node6 -->
<g id="edge5" class="edge">
<title>Node2&#45;&gt;Node6</title>
<path fill="none" stroke="#63b8ff" d="M860.08,-362.54C859.19,-355.26 859.01,-346.31 859.57,-338.39"/>
<polygon fill="#63b8ff" stroke="#63b8ff" points="863.01,-339.05 860.84,-328.68 856.07,-338.14 863.01,-339.05"/>
</g>
<!-- Node4 -->
<g id="node4" class="node">
<title>Node4</title>
<g id="a_node4"><a xlink:href="_subject__interface_8h.html" target="_top" xlink:title="Clase para interfaz para implementar el sujeto.">
<polygon fill="white" stroke="#666666" points="468,-189.5 340,-189.5 340,-159.5 468,-159.5 468,-189.5"/>
<text text-anchor="start" x="348" y="-177.5" font-family="Helvetica,sans-Serif" font-size="10.00">observer_pattern/subjects</text>
<text text-anchor="middle" x="404" y="-166.5" font-family="Helvetica,sans-Serif" font-size="10.00">/Subject_interface.h</text>
</a>
</g>
</g>
<!-- Node3&#45;&gt;Node4 -->
<g id="edge3" class="edge">
<title>Node3&#45;&gt;Node4</title>
<path fill="none" stroke="#63b8ff" d="M284.54,-236.04C307.57,-224.37 340.2,-207.83 365.54,-194.99"/>
<polygon fill="#63b8ff" stroke="#63b8ff" points="366.86,-198.24 374.2,-190.6 363.7,-192 366.86,-198.24"/>
</g>
<!-- Node5 -->
<g id="node5" class="node">
<title>Node5</title>
<g id="a_node5"><a xlink:href="_observer__interface_8h.html" target="_top" xlink:title="Clase para interfaz para implementar el observador.">
<polygon fill="white" stroke="#666666" points="322,-189.5 190,-189.5 190,-159.5 322,-159.5 322,-189.5"/>
<text text-anchor="start" x="198" y="-177.5" font-family="Helvetica,sans-Serif" font-size="10.00">observer_pattern/observers</text>
<text text-anchor="middle" x="256" y="-166.5" font-family="Helvetica,sans-Serif" font-size="10.00">/Observer_interface.h</text>
</a>
</g>
</g>
<!-- Node3&#45;&gt;Node5 -->
<g id="edge4" class="edge">
<title>Node3&#45;&gt;Node5</title>
<path fill="none" stroke="#63b8ff" d="M256,-236.04C256,-226.18 256,-212.86 256,-201.22"/>
<polygon fill="#63b8ff" stroke="#63b8ff" points="259.5,-201.43 256,-191.43 252.5,-201.43 259.5,-201.43"/>
</g>
<!-- Node6&#45;&gt;Node2 -->
<g id="edge18" class="edge">
<title>Node6&#45;&gt;Node2</title>
<path fill="none" stroke="#63b8ff" d="M870.96,-327.18C872.34,-333.58 872.92,-342.65 872.71,-351.3"/>
<polygon fill="#63b8ff" stroke="#63b8ff" points="869.23,-350.81 872.02,-361.03 876.21,-351.3 869.23,-350.81"/>
</g>
<!-- Node7 -->
<g id="node7" class="node">
<title>Node7</title>
<g id="a_node7"><a xlink:href="_subject_8h.html" target="_top" xlink:title=" ">
<polygon fill="white" stroke="#666666" points="468,-266.5 340,-266.5 340,-236.5 468,-236.5 468,-266.5"/>
<text text-anchor="start" x="348" y="-254.5" font-family="Helvetica,sans-Serif" font-size="10.00">observer_pattern/subjects</text>
<text text-anchor="middle" x="404" y="-243.5" font-family="Helvetica,sans-Serif" font-size="10.00">/Subject.h</text>
</a>
</g>
</g>
<!-- Node6&#45;&gt;Node7 -->
<g id="edge6" class="edge">
<title>Node6&#45;&gt;Node7</title>
<path fill="none" stroke="#63b8ff" d="M819.01,-313.03C746.35,-307.22 602.5,-293.95 482,-272 477.72,-271.22 473.32,-270.34 468.91,-269.4"/>
<polygon fill="#63b8ff" stroke="#63b8ff" points="469.93,-266.04 459.41,-267.28 468.4,-272.87 469.93,-266.04"/>
</g>
<!-- Node8 -->
<g id="node8" class="node">
<title>Node8</title>
<g id="a_node8"><a xlink:href="_machine_8h.html" target="_top" xlink:title="Clase de máquina abstracta.">
<polygon fill="white" stroke="#666666" points="480,-112.5 364,-112.5 364,-82.5 480,-82.5 480,-112.5"/>
<text text-anchor="start" x="372" y="-100.5" font-family="Helvetica,sans-Serif" font-size="10.00">machine_state_pattern</text>
<text text-anchor="middle" x="422" y="-89.5" font-family="Helvetica,sans-Serif" font-size="10.00">/Machine.h</text>
</a>
</g>
</g>
<!-- Node6&#45;&gt;Node8 -->
<g id="edge9" class="edge">
<title>Node6&#45;&gt;Node8</title>
<path fill="none" stroke="#63b8ff" d="M819.26,-313.68C773.24,-309.4 701.91,-298.7 646,-272 597.58,-248.87 593.11,-230.65 553,-195 533.26,-177.46 530.83,-170.23 510,-154 493.48,-141.13 473.88,-128.53 457.37,-118.6"/>
<polygon fill="#63b8ff" stroke="#63b8ff" points="459.24,-115.64 448.85,-113.55 455.67,-121.66 459.24,-115.64"/>
</g>
<!-- Node10 -->
<g id="node10" class="node">
<title>Node10</title>
<g id="a_node10"><a xlink:href="_display_8h.html" target="_top" xlink:title="Controlador de LCD hd44780 por interfaz I2C.">
<polygon fill="white" stroke="#666666" points="743,-261 655,-261 655,-242 743,-242 743,-261"/>
<text text-anchor="middle" x="699" y="-249" font-family="Helvetica,sans-Serif" font-size="10.00">drivers/Display.h</text>
</a>
</g>
</g>
<!-- Node6&#45;&gt;Node10 -->
<g id="edge11" class="edge">
<title>Node6&#45;&gt;Node10</title>
<path fill="none" stroke="#63b8ff" d="M842.78,-307.6C814.19,-296.65 765.43,-277.96 732.72,-265.42"/>
<polygon fill="#63b8ff" stroke="#63b8ff" points="734.3,-262.28 723.71,-261.97 731.79,-268.81 734.3,-262.28"/>
</g>
<!-- Node15 -->
<g id="node15" class="node">
<title>Node15</title>
<g id="a_node15"><a xlink:href="user__messages_8h.html" target="_top" xlink:title="Archivo para la configuración de interfaz con el usuario.">
<polygon fill="white" stroke="#666666" points="855,-261 761,-261 761,-242 855,-242 855,-261"/>
<text text-anchor="middle" x="808" y="-249" font-family="Helvetica,sans-Serif" font-size="10.00">user_messages.h</text>
</a>
</g>
</g>
<!-- Node6&#45;&gt;Node15 -->
<g id="edge16" class="edge">
<title>Node6&#45;&gt;Node15</title>
<path fill="none" stroke="#63b8ff" d="M857.94,-307.6C849.11,-297.86 834.73,-282 823.67,-269.79"/>
<polygon fill="#63b8ff" stroke="#63b8ff" points="826.32,-267.5 817.01,-262.44 821.13,-272.21 826.32,-267.5"/>
</g>
<!-- Node17 -->
<g id="node17" class="node">
<title>Node17</title>
<g id="a_node17"><a xlink:href="_temperature__sensor_8h.html" target="_top" xlink:title="Controlador para sensor de temperatura DS18B20.">
<polygon fill="white" stroke="#666666" points="974.5,-266.5 873.5,-266.5 873.5,-236.5 974.5,-236.5 974.5,-266.5"/>
<text text-anchor="start" x="881.5" y="-254.5" font-family="Helvetica,sans-Serif" font-size="10.00">drivers/Temperature</text>
<text text-anchor="middle" x="924" y="-243.5" font-family="Helvetica,sans-Serif" font-size="10.00">_sensor.h</text>
</a>
</g>
</g>
<!-- Node6&#45;&gt;Node17 -->
<g id="edge19" class="edge">
<title>Node6&#45;&gt;Node17</title>
<path fill="none" stroke="#63b8ff" d="M874.06,-307.6C881.63,-299.25 893.26,-286.42 903.4,-275.23"/>
<polygon fill="#63b8ff" stroke="#63b8ff" points="905.96,-277.62 910.08,-267.85 900.78,-272.91 905.96,-277.62"/>
</g>
<!-- Node21 -->
<g id="node21" class="node">
<title>Node21</title>
<g id="a_node21"><a xlink:href="_moisture__sensor_8h.html" target="_top" xlink:title="Controlador de sensor de humedad analógico.">
<polygon fill="white" stroke="#666666" points="1260,-261 1132,-261 1132,-242 1260,-242 1260,-261"/>
<text text-anchor="middle" x="1196" y="-249" font-family="Helvetica,sans-Serif" font-size="10.00">drivers/Moisture_sensor.h</text>
</a>
</g>
</g>
<!-- Node6&#45;&gt;Node21 -->
<g id="edge23" class="edge">
<title>Node6&#45;&gt;Node21</title>
<path fill="none" stroke="#63b8ff" d="M912.23,-307.53C971.55,-296.03 1074.44,-276.07 1138.68,-263.62"/>
<polygon fill="#63b8ff" stroke="#63b8ff" points="1139.18,-267.09 1148.33,-261.75 1137.85,-260.21 1139.18,-267.09"/>
</g>
<!-- Node6&#45;&gt;Node23 -->
<g id="edge25" class="edge">
<title>Node6&#45;&gt;Node23</title>
<path fill="none" stroke="#63b8ff" d="M912.98,-316.85C1064.4,-317.52 1532.74,-316.01 1583,-272 1604.37,-253.29 1605.99,-218.15 1604.5,-195.83"/>
<polygon fill="#63b8ff" stroke="#63b8ff" points="1607.99,-195.51 1603.54,-185.9 1601.02,-196.19 1607.99,-195.51"/>
</g>
<!-- Node24 -->
<g id="node24" class="node">
<title>Node24</title>
<g id="a_node24"><a xlink:href="_buzzer_8h.html" target="_top" xlink:title="Controlador de Buzzer de 12 milimetros.">
<polygon fill="white" stroke="#666666" points="1476,-261 1390,-261 1390,-242 1476,-242 1476,-261"/>
<text text-anchor="middle" x="1433" y="-249" font-family="Helvetica,sans-Serif" font-size="10.00">drivers/Buzzer.h</text>
</a>
</g>
</g>
<!-- Node6&#45;&gt;Node24 -->
<g id="edge26" class="edge">
<title>Node6&#45;&gt;Node24</title>
<path fill="none" stroke="#63b8ff" d="M912.7,-316.58C1003.74,-315.85 1210.84,-309.73 1380,-272 1387.22,-270.39 1394.79,-268.03 1401.88,-265.51"/>
<polygon fill="#63b8ff" stroke="#63b8ff" points="1402.96,-268.84 1411.08,-262.03 1400.48,-262.3 1402.96,-268.84"/>
</g>
<!-- Node26 -->
<g id="node26" class="node">
<title>Node26</title>
<g id="a_node26"><a xlink:href="_motor_8h.html" target="_top" xlink:title="Controlador de motor de 220 VAC.">
<polygon fill="white" stroke="#666666" points="1574,-261 1494,-261 1494,-242 1574,-242 1574,-261"/>
<text text-anchor="middle" x="1534" y="-249" font-family="Helvetica,sans-Serif" font-size="10.00">drivers/Motor.h</text>
</a>
</g>
</g>
<!-- Node6&#45;&gt;Node26 -->
<g id="edge29" class="edge">
<title>Node6&#45;&gt;Node26</title>
<path fill="none" stroke="#63b8ff" d="M912.95,-314.99C1037.86,-310.66 1376.17,-296.94 1485,-272 1491.63,-270.48 1498.54,-268.2 1505.01,-265.73"/>
<polygon fill="#63b8ff" stroke="#63b8ff" points="1506.03,-269.09 1513.95,-262.06 1503.37,-262.62 1506.03,-269.09"/>
</g>
<!-- Node27 -->
<g id="node27" class="node">
<title>Node27</title>
<g id="a_node27"><a xlink:href="_dual___l_e_d_8h.html" target="_top" xlink:title="Controlador de LED RG.">
<polygon fill="white" stroke="#666666" points="1371.5,-261 1278.5,-261 1278.5,-242 1371.5,-242 1371.5,-261"/>
<text text-anchor="middle" x="1325" y="-249" font-family="Helvetica,sans-Serif" font-size="10.00">drivers/Dual_led.h</text>
</a>
</g>
</g>
<!-- Node6&#45;&gt;Node27 -->
<g id="edge32" class="edge">
<title>Node6&#45;&gt;Node27</title>
<path fill="none" stroke="#63b8ff" d="M912.8,-314.75C988.5,-311.15 1142.16,-300.7 1269,-272 1276.69,-270.26 1284.79,-267.82 1292.37,-265.24"/>
<polygon fill="#63b8ff" stroke="#63b8ff" points="1293.32,-268.62 1301.56,-261.96 1290.97,-262.03 1293.32,-268.62"/>
</g>
<!-- Node28 -->
<g id="node28" class="node">
<title>Node28</title>
<g id="a_node28"><a xlink:href="_cooler_8h.html" target="_top" xlink:title="Controlador de ventilador de 12 volts y 5 milímteros.">
<polygon fill="white" stroke="#666666" points="1075.5,-261 992.5,-261 992.5,-242 1075.5,-242 1075.5,-261"/>
<text text-anchor="middle" x="1034" y="-249" font-family="Helvetica,sans-Serif" font-size="10.00">drivers/Cooler.h</text>
</a>
</g>
</g>
<!-- Node6&#45;&gt;Node28 -->
<g id="edge36" class="edge">
<title>Node6&#45;&gt;Node28</title>
<path fill="none" stroke="#63b8ff" d="M889.31,-307.65C912.93,-298.68 950.51,-284.39 983,-272 988.51,-269.9 994.34,-267.67 1000.03,-265.5"/>
<polygon fill="#63b8ff" stroke="#63b8ff" points="1001.14,-268.82 1009.23,-261.98 998.64,-262.28 1001.14,-268.82"/>
</g>
<!-- Node29 -->
<g id="node29" class="node">
<title>Node29</title>
<g id="a_node29"><a xlink:href="_shutdown__state_8h.html" target="_top" xlink:title="Clase de estado de apagado del sistema.">
<polygon fill="white" stroke="#666666" points="134,-272 0,-272 0,-231 134,-231 134,-272"/>
<text text-anchor="start" x="8" y="-260" font-family="Helvetica,sans-Serif" font-size="10.00">machine_state_pattern</text>
<text text-anchor="start" x="8" y="-249" font-family="Helvetica,sans-Serif" font-size="10.00">/machine_states/Shutdown</text>
<text text-anchor="middle" x="67" y="-238" font-family="Helvetica,sans-Serif" font-size="10.00">_state.h</text>
</a>
</g>
</g>
<!-- Node6&#45;&gt;Node29 -->
<g id="edge39" class="edge">
<title>Node6&#45;&gt;Node29</title>
<path fill="none" stroke="#63b8ff" d="M819.34,-316.44C704.95,-315.75 402.16,-310.37 145.28,-272.88"/>
<polygon fill="#63b8ff" stroke="#63b8ff" points="146.14,-269.47 135.74,-271.47 145.12,-276.4 146.14,-269.47"/>
</g>
<!-- Node7&#45;&gt;Node4 -->
<g id="edge7" class="edge">
<title>Node7&#45;&gt;Node4</title>
<path fill="none" stroke="#63b8ff" d="M404,-236.04C404,-226.18 404,-212.86 404,-201.22"/>
<polygon fill="#63b8ff" stroke="#63b8ff" points="407.5,-201.43 404,-191.43 400.5,-201.43 407.5,-201.43"/>
</g>
<!-- Node7&#45;&gt;Node5 -->
<g id="edge8" class="edge">
<title>Node7&#45;&gt;Node5</title>
<path fill="none" stroke="#63b8ff" d="M375.46,-236.04C352.43,-224.37 319.8,-207.83 294.46,-194.99"/>
<polygon fill="#63b8ff" stroke="#63b8ff" points="296.3,-192 285.8,-190.6 293.14,-198.24 296.3,-192"/>
</g>
<!-- Node9 -->
<g id="node9" class="node">
<title>Node9</title>
<g id="a_node9"><a xlink:href="_abstract__state_8h.html" target="_top" xlink:title="Clase de estado abstracta.">
<polygon fill="white" stroke="#666666" points="197,-41 69,-41 69,0 197,0 197,-41"/>
<text text-anchor="start" x="77" y="-29" font-family="Helvetica,sans-Serif" font-size="10.00">machine_state_pattern</text>
<text text-anchor="start" x="77" y="-18" font-family="Helvetica,sans-Serif" font-size="10.00">/machine_states/Abstract</text>
<text text-anchor="middle" x="133" y="-7" font-family="Helvetica,sans-Serif" font-size="10.00">_state.h</text>
</a>
</g>
</g>
<!-- Node8&#45;&gt;Node9 -->
<g id="edge10" class="edge">
<title>Node8&#45;&gt;Node9</title>
<path fill="none" stroke="#63b8ff" d="M366.28,-82.04C321.37,-70.38 257.78,-53.88 208.34,-41.05"/>
<polygon fill="#63b8ff" stroke="#63b8ff" points="209.4,-37.71 198.84,-38.59 207.64,-44.49 209.4,-37.71"/>
</g>
<!-- Node11 -->
<g id="node11" class="node">
<title>Node11</title>
<g id="a_node11"><a xlink:title=" ">
<polygon fill="#e0e0e0" stroke="#999999" points="943.5,-184 898.5,-184 898.5,-165 943.5,-165 943.5,-184"/>
<text text-anchor="middle" x="921" y="-172" font-family="Helvetica,sans-Serif" font-size="10.00">Wire.h</text>
</a>
</g>
</g>
<!-- Node10&#45;&gt;Node11 -->
<g id="edge12" class="edge">
<title>Node10&#45;&gt;Node11</title>
<path fill="none" stroke="#63b8ff" d="M721.79,-241.57C731.09,-238.07 741.99,-234.15 752,-231 812.05,-212.11 831.07,-219.64 889,-195 892.25,-193.62 895.56,-191.95 898.75,-190.17"/>
<polygon fill="#63b8ff" stroke="#63b8ff" points="900.33,-193.31 907.08,-185.14 896.71,-187.31 900.33,-193.31"/>
</g>
<!-- Node12 -->
<g id="node12" class="node">
<title>Node12</title>
<g id="a_node12"><a xlink:title=" ">
<polygon fill="#e0e0e0" stroke="#999999" points="624,-184 562,-184 562,-165 624,-165 624,-184"/>
<text text-anchor="middle" x="593" y="-172" font-family="Helvetica,sans-Serif" font-size="10.00">hd44780.h</text>
</a>
</g>
</g>
<!-- Node10&#45;&gt;Node12 -->
<g id="edge13" class="edge">
<title>Node10&#45;&gt;Node12</title>
<path fill="none" stroke="#63b8ff" d="M686.42,-241.6C668.81,-229.14 636.54,-206.31 614.93,-191.01"/>
<polygon fill="#63b8ff" stroke="#63b8ff" points="616.98,-188.18 606.8,-185.26 612.94,-193.89 616.98,-188.18"/>
</g>
<!-- Node13 -->
<g id="node13" class="node">
<title>Node13</title>
<g id="a_node13"><a xlink:title=" ">
<polygon fill="#e0e0e0" stroke="#999999" points="767.5,-189.5 642.5,-189.5 642.5,-159.5 767.5,-159.5 767.5,-189.5"/>
<text text-anchor="start" x="650.5" y="-177.5" font-family="Helvetica,sans-Serif" font-size="10.00">hd44780ioClass/hd44780</text>
<text text-anchor="middle" x="705" y="-166.5" font-family="Helvetica,sans-Serif" font-size="10.00">_I2Cexp.h</text>
</a>
</g>
</g>
<!-- Node10&#45;&gt;Node13 -->
<g id="edge14" class="edge">
<title>Node10&#45;&gt;Node13</title>
<path fill="none" stroke="#63b8ff" d="M699.71,-241.6C700.5,-231.7 701.82,-215.24 702.94,-201.23"/>
<polygon fill="#63b8ff" stroke="#63b8ff" points="706.43,-201.52 703.74,-191.27 699.45,-200.96 706.43,-201.52"/>
</g>
<!-- Node14 -->
<g id="node14" class="node">
<title>Node14</title>
<g id="a_node14"><a xlink:href="display__settings_8h.html" target="_top" xlink:title="Archivo de configuración de la pantalla.">
<polygon fill="white" stroke="#666666" points="880.5,-184 785.5,-184 785.5,-165 880.5,-165 880.5,-184"/>
<text text-anchor="middle" x="833" y="-172" font-family="Helvetica,sans-Serif" font-size="10.00">display_settings.h</text>
</a>
</g>
</g>
<!-- Node10&#45;&gt;Node14 -->
<g id="edge15" class="edge">
<title>Node10&#45;&gt;Node14</title>
<path fill="none" stroke="#63b8ff" d="M714.9,-241.6C737.67,-228.86 779.81,-205.27 807.12,-189.99"/>
<polygon fill="#63b8ff" stroke="#63b8ff" points="808.79,-193.06 815.8,-185.13 805.37,-186.96 808.79,-193.06"/>
</g>
<!-- Node16 -->
<g id="node16" class="node">
<title>Node16</title>
<g id="a_node16"><a xlink:title=" ">
<polygon fill="#e0e0e0" stroke="#999999" points="1046.5,-184 961.5,-184 961.5,-165 1046.5,-165 1046.5,-184"/>
<text text-anchor="middle" x="1004" y="-172" font-family="Helvetica,sans-Serif" font-size="10.00">avr/pgmspace.h</text>
</a>
</g>
</g>
<!-- Node15&#45;&gt;Node16 -->
<g id="edge17" class="edge">
<title>Node15&#45;&gt;Node16</title>
<path fill="none" stroke="#63b8ff" d="M831.25,-241.6C865.66,-228.44 930.33,-203.69 970.04,-188.49"/>
<polygon fill="#63b8ff" stroke="#63b8ff" points="971.27,-191.77 979.36,-184.93 968.77,-185.23 971.27,-191.77"/>
</g>
<!-- Node17&#45;&gt;Node18 -->
<g id="edge20" class="edge">
<title>Node17&#45;&gt;Node18</title>
<path fill="none" stroke="#63b8ff" d="M964.34,-236.04C970.53,-234.15 976.9,-232.39 983,-231 1104.47,-203.33 1139.6,-222.99 1261,-195 1268.95,-193.17 1277.35,-190.68 1285.22,-188.09"/>
<polygon fill="#63b8ff" stroke="#63b8ff" points="1286.12,-191.48 1294.44,-184.92 1283.85,-184.86 1286.12,-191.48"/>
</g>
<!-- Node19 -->
<g id="node19" class="node">
<title>Node19</title>
<g id="a_node19"><a xlink:title=" ">
<polygon fill="#e0e0e0" stroke="#999999" points="1252.5,-184 1189.5,-184 1189.5,-165 1252.5,-165 1252.5,-184"/>
<text text-anchor="middle" x="1221" y="-172" font-family="Helvetica,sans-Serif" font-size="10.00">OneWire.h</text>
</a>
</g>
</g>
<!-- Node17&#45;&gt;Node19 -->
<g id="edge21" class="edge">
<title>Node17&#45;&gt;Node19</title>
<path fill="none" stroke="#63b8ff" d="M965.37,-236.03C971.25,-234.21 977.25,-232.47 983,-231 1069.24,-208.98 1095.3,-222.35 1180,-195 1184.73,-193.47 1189.61,-191.52 1194.28,-189.44"/>
<polygon fill="#63b8ff" stroke="#63b8ff" points="1195.76,-192.61 1203.28,-185.15 1192.75,-186.29 1195.76,-192.61"/>
</g>
<!-- Node20 -->
<g id="node20" class="node">
<title>Node20</title>
<g id="a_node20"><a xlink:title=" ">
<polygon fill="#e0e0e0" stroke="#999999" points="1171,-184 1065,-184 1065,-165 1171,-165 1171,-184"/>
<text text-anchor="middle" x="1118" y="-172" font-family="Helvetica,sans-Serif" font-size="10.00">DallasTemperature.h</text>
</a>
</g>
</g>
<!-- Node17&#45;&gt;Node20 -->
<g id="edge22" class="edge">
<title>Node17&#45;&gt;Node20</title>
<path fill="none" stroke="#63b8ff" d="M961.41,-236.04C997.07,-222.25 1050.29,-201.68 1084.58,-188.42"/>
<polygon fill="#63b8ff" stroke="#63b8ff" points="1085.52,-191.81 1093.58,-184.94 1082.99,-185.28 1085.52,-191.81"/>
</g>
<!-- Node21&#45;&gt;Node22 -->
<g id="edge24" class="edge">
<title>Node21&#45;&gt;Node22</title>
<path fill="none" stroke="#63b8ff" d="M1228.14,-241.5C1264.36,-231.15 1324.87,-213.23 1376,-195 1381.47,-193.05 1387.24,-190.84 1392.8,-188.63"/>
<polygon fill="#63b8ff" stroke="#63b8ff" points="1393.77,-192.01 1401.72,-185.01 1391.14,-185.53 1393.77,-192.01"/>
</g>
<!-- Node24&#45;&gt;Node22 -->
<g id="edge27" class="edge">
<title>Node24&#45;&gt;Node22</title>
<path fill="none" stroke="#63b8ff" d="M1431.93,-241.6C1430.58,-230.33 1428.21,-210.55 1426.41,-195.56"/>
<polygon fill="#63b8ff" stroke="#63b8ff" points="1429.91,-195.4 1425.25,-185.89 1422.96,-196.23 1429.91,-195.4"/>
</g>
<!-- Node25 -->
<g id="node25" class="node">
<title>Node25</title>
<g id="a_node25"><a xlink:href="port__config_8h.html" target="_top" xlink:title="Archivo de configuración para los puertos de la placa donde se implementará el sistema.">
<polygon fill="white" stroke="#666666" points="1556,-184 1484,-184 1484,-165 1556,-165 1556,-184"/>
<text text-anchor="middle" x="1520" y="-172" font-family="Helvetica,sans-Serif" font-size="10.00">port_config.h</text>
</a>
</g>
</g>
<!-- Node24&#45;&gt;Node25 -->
<g id="edge28" class="edge">
<title>Node24&#45;&gt;Node25</title>
<path fill="none" stroke="#63b8ff" d="M1443.32,-241.6C1457.58,-229.31 1483.55,-206.92 1501.28,-191.64"/>
<polygon fill="#63b8ff" stroke="#63b8ff" points="1503.26,-194.56 1508.55,-185.37 1498.69,-189.25 1503.26,-194.56"/>
</g>
<!-- Node26&#45;&gt;Node22 -->
<g id="edge30" class="edge">
<title>Node26&#45;&gt;Node22</title>
<path fill="none" stroke="#63b8ff" d="M1520.95,-241.6C1502.59,-229.08 1468.88,-206.1 1446.45,-190.81"/>
<polygon fill="#63b8ff" stroke="#63b8ff" points="1448.52,-187.98 1438.28,-185.24 1444.57,-193.76 1448.52,-187.98"/>
</g>
<!-- Node26&#45;&gt;Node25 -->
<g id="edge31" class="edge">
<title>Node26&#45;&gt;Node25</title>
<path fill="none" stroke="#63b8ff" d="M1532.34,-241.6C1530.23,-230.33 1526.54,-210.55 1523.74,-195.56"/>
<polygon fill="#63b8ff" stroke="#63b8ff" points="1527.21,-195.06 1521.94,-185.87 1520.33,-196.35 1527.21,-195.06"/>
</g>
<!-- Node27&#45;&gt;Node18 -->
<g id="edge35" class="edge">
<title>Node27&#45;&gt;Node18</title>
<path fill="none" stroke="#63b8ff" d="M1324.29,-241.6C1323.39,-230.33 1321.8,-210.55 1320.6,-195.56"/>
<polygon fill="#63b8ff" stroke="#63b8ff" points="1324.12,-195.58 1319.83,-185.9 1317.14,-196.14 1324.12,-195.58"/>
</g>
<!-- Node27&#45;&gt;Node22 -->
<g id="edge33" class="edge">
<title>Node27&#45;&gt;Node22</title>
<path fill="none" stroke="#63b8ff" d="M1336.75,-241.6C1353.12,-229.2 1383.06,-206.51 1403.25,-191.22"/>
<polygon fill="#63b8ff" stroke="#63b8ff" points="1405.21,-194.13 1411.06,-185.3 1400.98,-188.55 1405.21,-194.13"/>
</g>
<!-- Node27&#45;&gt;Node23 -->
<g id="edge34" class="edge">
<title>Node27&#45;&gt;Node23</title>
<path fill="none" stroke="#63b8ff" d="M1348.2,-241.59C1358.19,-237.97 1370.07,-233.96 1381,-231 1461.44,-209.24 1486.42,-222.72 1565,-195 1569.27,-193.49 1573.65,-191.57 1577.84,-189.51"/>
<polygon fill="#63b8ff" stroke="#63b8ff" points="1579.14,-192.78 1586.34,-185.01 1575.87,-186.59 1579.14,-192.78"/>
</g>
<!-- Node28&#45;&gt;Node18 -->
<g id="edge38" class="edge">
<title>Node28&#45;&gt;Node18</title>
<path fill="none" stroke="#63b8ff" d="M1057.49,-241.57C1067.43,-237.99 1079.19,-234.01 1090,-231 1164.83,-210.19 1186.06,-215.41 1261,-195 1268.35,-193 1276.14,-190.59 1283.53,-188.15"/>
<polygon fill="#63b8ff" stroke="#63b8ff" points="1284.57,-191.5 1292.92,-184.98 1282.33,-184.87 1284.57,-191.5"/>
</g>
<!-- Node28&#45;&gt;Node22 -->
<g id="edge37" class="edge">
<title>Node28&#45;&gt;Node22</title>
<path fill="none" stroke="#63b8ff" d="M1071.99,-241.53C1087.72,-237.98 1106.19,-234.03 1123,-231 1234.77,-210.83 1266.35,-224.59 1376,-195 1382.19,-193.33 1388.65,-191.08 1394.75,-188.7"/>
<polygon fill="#63b8ff" stroke="#63b8ff" points="1395.91,-192.01 1403.82,-184.95 1393.24,-185.54 1395.91,-192.01"/>
</g>
<!-- Node29&#45;&gt;Node6 -->
<g id="edge40" class="edge">
<title>Node29&#45;&gt;Node6</title>
<path fill="none" stroke="#63b8ff" d="M134.09,-267.79C141.8,-269.42 149.56,-270.88 157,-272 397.19,-308.07 686.81,-315.02 808.2,-316.28"/>
<polygon fill="#63b8ff" stroke="#63b8ff" points="807.87,-319.77 817.9,-316.37 807.93,-312.77 807.87,-319.77"/>
</g>
<!-- Node29&#45;&gt;Node9 -->
<g id="edge41" class="edge">
<title>Node29&#45;&gt;Node9</title>
<path fill="none" stroke="#63b8ff" d="M57.24,-230.67C48.86,-210.99 39.28,-180.08 47,-154 58.79,-114.19 86.71,-75.12 107.57,-49.84"/>
<polygon fill="#63b8ff" stroke="#63b8ff" points="110.13,-52.23 113.91,-42.33 104.78,-47.72 110.13,-52.23"/>
</g>
<!-- Node30 -->
<g id="node30" class="node">
<title>Node30</title>
<g id="a_node30"><a xlink:href="_idle__state_8h.html" target="_top" xlink:title="Clase de estado de reposo.">
<polygon fill="white" stroke="#666666" points="172,-195 56,-195 56,-154 172,-154 172,-195"/>
<text text-anchor="start" x="64" y="-183" font-family="Helvetica,sans-Serif" font-size="10.00">machine_state_pattern</text>
<text text-anchor="start" x="64" y="-172" font-family="Helvetica,sans-Serif" font-size="10.00">/machine_states/Idle</text>
<text text-anchor="middle" x="114" y="-161" font-family="Helvetica,sans-Serif" font-size="10.00">_state.h</text>
</a>
</g>
</g>
<!-- Node29&#45;&gt;Node30 -->
<g id="edge42" class="edge">
<title>Node29&#45;&gt;Node30</title>
<path fill="none" stroke="#63b8ff" d="M79.35,-230.79C84.27,-222.93 90.05,-213.71 95.46,-205.08"/>
<polygon fill="#63b8ff" stroke="#63b8ff" points="98.42,-206.95 100.77,-196.62 92.49,-203.23 98.42,-206.95"/>
</g>
<!-- Node30&#45;&gt;Node6 -->
<g id="edge43" class="edge">
<title>Node30&#45;&gt;Node6</title>
<path fill="none" stroke="#63b8ff" d="M124.96,-195.29C139.57,-220.87 165.37,-263.17 181,-272 234.9,-302.46 652.63,-312.79 808.03,-315.6"/>
<polygon fill="#63b8ff" stroke="#63b8ff" points="807.62,-319.09 817.68,-315.77 807.74,-312.1 807.62,-319.09"/>
</g>
<!-- Node30&#45;&gt;Node9 -->
<g id="edge44" class="edge">
<title>Node30&#45;&gt;Node9</title>
<path fill="none" stroke="#63b8ff" d="M110.06,-153.69C106.83,-134.02 103.59,-103.12 109,-77 110.76,-68.52 113.87,-59.74 117.29,-51.74"/>
<polygon fill="#63b8ff" stroke="#63b8ff" points="120.41,-53.33 121.41,-42.78 114.05,-50.4 120.41,-53.33"/>
</g>
<!-- Node31 -->
<g id="node31" class="node">
<title>Node31</title>
<g id="a_node31"><a xlink:href="_motor__control__state_8h.html" target="_top" xlink:title="Clase de estado de control del motor.">
<polygon fill="white" stroke="#666666" points="234,-118 118,-118 118,-77 234,-77 234,-118"/>
<text text-anchor="start" x="126" y="-106" font-family="Helvetica,sans-Serif" font-size="10.00">machine_state_pattern</text>
<text text-anchor="start" x="126" y="-95" font-family="Helvetica,sans-Serif" font-size="10.00">/machine_states/Motor</text>
<text text-anchor="middle" x="176" y="-84" font-family="Helvetica,sans-Serif" font-size="10.00">_control_state.h</text>
</a>
</g>
</g>
<!-- Node30&#45;&gt;Node31 -->
<g id="edge45" class="edge">
<title>Node30&#45;&gt;Node31</title>
<path fill="none" stroke="#63b8ff" d="M124.27,-153.79C130.39,-145.51 138.31,-135.71 146.14,-126.68"/>
<polygon fill="#63b8ff" stroke="#63b8ff" points="148.53,-129.26 152.56,-119.46 143.3,-124.61 148.53,-129.26"/>
</g>
<!-- Node31&#45;&gt;Node6 -->
<g id="edge46" class="edge">
<title>Node31&#45;&gt;Node6</title>
<path fill="none" stroke="#63b8ff" d="M234.37,-104.39C309.99,-112.85 436.89,-130.08 477,-154 497.09,-165.98 494.37,-177.59 510,-195 542.33,-231.01 543.89,-250 587,-272 624.61,-291.19 737.82,-304.69 807.94,-311.48"/>
<polygon fill="#63b8ff" stroke="#63b8ff" points="807.43,-314.95 817.72,-312.41 808.09,-307.98 807.43,-314.95"/>
</g>
<!-- Node31&#45;&gt;Node9 -->
<g id="edge47" class="edge">
<title>Node31&#45;&gt;Node9</title>
<path fill="none" stroke="#63b8ff" d="M164.7,-76.79C160.2,-68.93 154.91,-59.71 149.96,-51.08"/>
<polygon fill="#63b8ff" stroke="#63b8ff" points="153.13,-49.58 145.12,-42.65 147.06,-53.06 153.13,-49.58"/>
</g>
<!-- Node31&#45;&gt;Node30 -->
<g id="edge48" class="edge">
<title>Node31&#45;&gt;Node30</title>
<path fill="none" stroke="#63b8ff" d="M165.64,-118.33C159.5,-126.64 151.57,-136.44 143.74,-145.46"/>
<polygon fill="#63b8ff" stroke="#63b8ff" points="141.36,-142.87 137.32,-152.66 146.58,-147.52 141.36,-142.87"/>
</g>
</g>
</svg>
        <g id="navigator" transform="translate(0 0)" fill="#404254">
                <rect fill="#f2f5e9" fill-opacity="0.5" stroke="#606060" stroke-width=".5" x="0" y="0" width="60" height="60"/>
                <use id="zoomplus" xlink:href="#zoomPlus" x="17" y="9" onmousedown="handleZoom(evt,'in')"/>
                <use id="zoomminus" xlink:href="#zoomMin" x="42" y="9" onmousedown="handleZoom(evt,'out')"/>
                <use id="reset" xlink:href="#resetDef" x="30" y="36" onmousedown="handleReset()"/>
                <g id="arrowUp" xlink:href="#dirArrow" transform="translate(30 24)" onmousedown="handlePan(0,-1)">
                  <use xlink:href="#rim" fill="#404040">
                        <set attributeName="fill" to="#808080" begin="arrowUp.mouseover" end="arrowUp.mouseout"/>
                  </use>
                  <path fill="none" stroke="white" stroke-width="1.5" d="M0,-3.0v7 M-2.5,-0.5L0,-3.0L2.5,-0.5"/>
                </g>
                <g id="arrowRight" xlink:href="#dirArrow" transform="rotate(90) translate(36 -43)" onmousedown="handlePan(1,0)">
                  <use xlink:href="#rim" fill="#404040">
                        <set attributeName="fill" to="#808080" begin="arrowRight.mouseover" end="arrowRight.mouseout"/>
                  </use>
                  <path fill="none" stroke="white" stroke-width="1.5" d="M0,-3.0v7 M-2.5,-0.5L0,-3.0L2.5,-0.5"/>
                </g>
                <g id="arrowDown" xlink:href="#dirArrow" transform="rotate(180) translate(-30 -48)" onmousedown="handlePan(0,1)">
                  <use xlink:href="#rim" fill="#404040">
                        <set attributeName="fill" to="#808080" begin="arrowDown.mouseover" end="arrowDown.mouseout"/>
                  </use>
                  <path fill="none" stroke="white" stroke-width="1.5" d="M0,-3.0v7 M-2.5,-0.5L0,-3.0L2.5,-0.5"/>
                </g>
                <g id="arrowLeft" xlink:href="#dirArrow" transform="rotate(270) translate(-36 17)" onmousedown="handlePan(-1,0)">
                  <use xlink:href="#rim" fill="#404040">
                        <set attributeName="fill" to="#808080" begin="arrowLeft.mouseover" end="arrowLeft.mouseout"/>
                  </use>
                  <path fill="none" stroke="white" stroke-width="1.5" d="M0,-3.0v7 M-2.5,-0.5L0,-3.0L2.5,-0.5"/>
                </g>
        </g>
        <svg viewBox="0 0 15 15" width="100%" height="30px" preserveAspectRatio="xMaxYMin meet">
         <g id="arrow_out" transform="scale(0.3 0.3)">
          <a xlink:href="_temperature__observer_8h__incl_org.svg" target="_base">
           <rect id="button" ry="5" rx="5" y="6" x="6" height="38" width="38"
                fill="#f2f5e9" fill-opacity="0.5" stroke="#606060" stroke-width="1.0"/>
           <path id="arrow"
             d="M 11.500037,31.436501 C 11.940474,20.09759 22.043105,11.32322 32.158766,21.979434 L 37.068811,17.246167 C 37.068811,17.246167 37.088388,32 37.088388,32 L 22.160133,31.978069 C 22.160133,31.978069 26.997745,27.140456 26.997745,27.140456 C 18.528582,18.264221 13.291696,25.230495 11.500037,31.436501 z"
             style="fill:#404040;"/>
          </a>
         </g>
        </svg>
</svg>
