<?xml version="1.0" encoding="UTF-8" standalone="no"?>
<!DOCTYPE svg PUBLIC "-//W3C//DTD SVG 1.1//EN"
 "http://www.w3.org/Graphics/SVG/1.1/DTD/svg11.dtd">
<!-- Generated by graphviz version 7.0.2 (20221119.0110)
 -->
<!-- Title: Display::update Pages: 1 -->
<svg width="231pt" height="76pt"
 viewBox="0.00 0.00 231.00 75.50" xmlns="http://www.w3.org/2000/svg" xmlns:xlink="http://www.w3.org/1999/xlink">
<g id="graph0" class="graph" transform="scale(1 1) rotate(0) translate(4 71.5)">
<title>Display::update</title>
<!-- Node1 -->
<g id="node1" class="node">
<title>Node1</title>
<g id="a_node1"><a xlink:title="Actualiza los valores en pantalla con los parámetros previamente fijados. Solo actualiza la pantalla ...">
<polygon fill="#999999" stroke="#666666" points="223,-45.5 139,-45.5 139,-26.5 223,-26.5 223,-45.5"/>
<text text-anchor="middle" x="181" y="-33.5" font-family="Helvetica,sans-Serif" font-size="10.00">Display::update</text>
</a>
</g>
</g>
<!-- Node2 -->
<g id="node2" class="node">
<title>Node2</title>
<g id="a_node2"><a xlink:href="class_idle__state.html#a92217c98eda8e3bd47eb3a8ff602efc2" target="_top" xlink:title="Método para actualizar el sistema cuando está en estado de reposo. Actualiza la pantalla y los observ...">
<polygon fill="white" stroke="#666666" points="98.5,-67.5 4.5,-67.5 4.5,-48.5 98.5,-48.5 98.5,-67.5"/>
<text text-anchor="middle" x="51.5" y="-55.5" font-family="Helvetica,sans-Serif" font-size="10.00">Idle_state::update</text>
</a>
</g>
</g>
<!-- Node1&#45;&gt;Node2 -->
<g id="edge1" class="edge">
<title>Node1&#45;&gt;Node2</title>
<path fill="none" stroke="#63b8ff" d="M127.35,-45.08C117.95,-46.71 108.21,-48.39 98.99,-49.98"/>
<polygon fill="#63b8ff" stroke="#63b8ff" points="127.85,-48.55 137.11,-43.4 126.66,-41.65 127.85,-48.55"/>
</g>
<!-- Node3 -->
<g id="node3" class="node">
<title>Node3</title>
<g id="a_node3"><a xlink:href="class_motor__control__state.html#a958e3393b9937ddea35e85efdd21e342" target="_top" xlink:title="Actualización, cambia el color del LED según el estado del motor y hace sonar la alarma....">
<polygon fill="white" stroke="#666666" points="103,-30 0,-30 0,0 103,0 103,-30"/>
<text text-anchor="start" x="8" y="-18" font-family="Helvetica,sans-Serif" font-size="10.00">Motor_control_state</text>
<text text-anchor="middle" x="51.5" y="-7" font-family="Helvetica,sans-Serif" font-size="10.00">::update</text>
</a>
</g>
</g>
<!-- Node1&#45;&gt;Node3 -->
<g id="edge2" class="edge">
<title>Node1&#45;&gt;Node3</title>
<path fill="none" stroke="#63b8ff" d="M127.3,-27.32C119.43,-26.02 111.33,-24.69 103.5,-23.4"/>
<polygon fill="#63b8ff" stroke="#63b8ff" points="126.68,-30.76 137.11,-28.94 127.81,-23.86 126.68,-30.76"/>
</g>
</g>
</svg>
