<?xml version="1.0" encoding="UTF-8" standalone="no"?>
<!DOCTYPE svg PUBLIC "-//W3C//DTD SVG 1.1//EN"
 "http://www.w3.org/Graphics/SVG/1.1/DTD/svg11.dtd">
<!-- Generated by graphviz version 7.0.2 (20221119.0110)
 -->
<!-- Title: Dual_LED::turn_on Pages: 1 -->
<svg width="425pt" height="179pt"
 viewBox="0.00 0.00 425.00 179.00" xmlns="http://www.w3.org/2000/svg" xmlns:xlink="http://www.w3.org/1999/xlink">
<g id="graph0" class="graph" transform="scale(1 1) rotate(0) translate(4 175)">
<title>Dual_LED::turn_on</title>
<!-- Node1 -->
<g id="node1" class="node">
<title>Node1</title>
<g id="a_node1"><a xlink:title="Enciende el LED en el color actual.">
<polygon fill="#999999" stroke="#666666" points="417,-93 319,-93 319,-74 417,-74 417,-93"/>
<text text-anchor="middle" x="368" y="-81" font-family="Helvetica,sans-Serif" font-size="10.00">Dual_LED::turn_on</text>
</a>
</g>
</g>
<!-- Node2 -->
<g id="node2" class="node">
<title>Node2</title>
<g id="a_node2"><a xlink:href="class_shutdown__state.html#accbc4c856709e26453e2e23c5c1e4f8e" target="_top" xlink:title="Método que se llama al salir del estado.">
<polygon fill="white" stroke="#666666" points="279.5,-170 171.5,-170 171.5,-151 279.5,-151 279.5,-170"/>
<text text-anchor="middle" x="225.5" y="-158" font-family="Helvetica,sans-Serif" font-size="10.00">Shutdown_state::exit</text>
</a>
</g>
</g>
<!-- Node1&#45;&gt;Node2 -->
<g id="edge1" class="edge">
<title>Node1&#45;&gt;Node2</title>
<path fill="none" stroke="#63b8ff" d="M345.38,-99.95C328.9,-111.98 305.32,-128.11 283,-139.5 274.89,-143.64 265.77,-147.39 257.26,-150.54"/>
<polygon fill="#63b8ff" stroke="#63b8ff" points="347.03,-103.08 352.98,-94.32 342.86,-97.46 347.03,-103.08"/>
</g>
<!-- Node4 -->
<g id="node4" class="node">
<title>Node4</title>
<g id="a_node4"><a xlink:href="class_dual___l_e_d.html#ac56cb66fdbb2a682a90091f2f9a0d385" target="_top" xlink:title="Permuta el estado del LED.">
<polygon fill="white" stroke="#666666" points="271.5,-130 179.5,-130 179.5,-111 271.5,-111 271.5,-130"/>
<text text-anchor="middle" x="225.5" y="-118" font-family="Helvetica,sans-Serif" font-size="10.00">Dual_LED::toggle</text>
</a>
</g>
</g>
<!-- Node1&#45;&gt;Node4 -->
<g id="edge3" class="edge">
<title>Node1&#45;&gt;Node4</title>
<path fill="none" stroke="#63b8ff" d="M318.34,-96.31C300.63,-100.98 280.88,-106.18 264.26,-110.56"/>
<polygon fill="#63b8ff" stroke="#63b8ff" points="319.11,-99.73 327.88,-93.8 317.32,-92.96 319.11,-99.73"/>
</g>
<!-- Node5 -->
<g id="node5" class="node">
<title>Node5</title>
<g id="a_node5"><a xlink:href="class_dual___l_e_d.html#ab1cd238e00901ca9556914a38d3a064c" target="_top" xlink:title="Enciende el LED en verde.">
<polygon fill="white" stroke="#666666" points="281.5,-93 169.5,-93 169.5,-74 281.5,-74 281.5,-93"/>
<text text-anchor="middle" x="225.5" y="-81" font-family="Helvetica,sans-Serif" font-size="10.00">Dual_LED::turn_green</text>
</a>
</g>
</g>
<!-- Node1&#45;&gt;Node5 -->
<g id="edge4" class="edge">
<title>Node1&#45;&gt;Node5</title>
<path fill="none" stroke="#63b8ff" d="M307.26,-83.5C298.78,-83.5 290.09,-83.5 281.7,-83.5"/>
<polygon fill="#63b8ff" stroke="#63b8ff" points="307.13,-87 317.13,-83.5 307.13,-80 307.13,-87"/>
</g>
<!-- Node9 -->
<g id="node9" class="node">
<title>Node9</title>
<g id="a_node9"><a xlink:href="class_dual___l_e_d.html#a8734a816df04661d86e3ccbf88159eb0" target="_top" xlink:title="Enciende el LED en rojo.">
<polygon fill="white" stroke="#666666" points="276,-56 175,-56 175,-37 276,-37 276,-56"/>
<text text-anchor="middle" x="225.5" y="-44" font-family="Helvetica,sans-Serif" font-size="10.00">Dual_LED::turn_red</text>
</a>
</g>
</g>
<!-- Node1&#45;&gt;Node9 -->
<g id="edge8" class="edge">
<title>Node1&#45;&gt;Node9</title>
<path fill="none" stroke="#63b8ff" d="M318.34,-70.69C300.63,-66.02 280.88,-60.82 264.26,-56.44"/>
<polygon fill="#63b8ff" stroke="#63b8ff" points="317.32,-74.04 327.88,-73.2 319.11,-67.27 317.32,-74.04"/>
</g>
<!-- Node10 -->
<g id="node10" class="node">
<title>Node10</title>
<g id="a_node10"><a xlink:href="class_dual___l_e_d.html#aabc0462521bcc08ea7f6f04642f7e89d" target="_top" xlink:title="Enciende el LED en amarillo. El comportamiento es indefinido para pines no PWM.">
<polygon fill="white" stroke="#666666" points="283,-19 168,-19 168,0 283,0 283,-19"/>
<text text-anchor="middle" x="225.5" y="-7" font-family="Helvetica,sans-Serif" font-size="10.00">Dual_LED::turn_yellow</text>
</a>
</g>
</g>
<!-- Node1&#45;&gt;Node10 -->
<g id="edge10" class="edge">
<title>Node1&#45;&gt;Node10</title>
<path fill="none" stroke="#63b8ff" d="M345.82,-66.95C329.41,-54.74 305.71,-38.42 283,-27.5 276.69,-24.47 269.75,-21.77 262.95,-19.46"/>
<polygon fill="#63b8ff" stroke="#63b8ff" points="343.29,-69.42 353.37,-72.67 347.52,-63.84 343.29,-69.42"/>
</g>
<!-- Node3 -->
<g id="node3" class="node">
<title>Node3</title>
<g id="a_node3"><a xlink:href="class_shutdown__state.html#ae02b2fd80173aa50afcd73faba01b9be" target="_top" xlink:title="Método para cambiar de estado.">
<polygon fill="white" stroke="#666666" points="132,-171 0,-171 0,-152 132,-152 132,-171"/>
<text text-anchor="middle" x="66" y="-159" font-family="Helvetica,sans-Serif" font-size="10.00">Shutdown_state::transition</text>
</a>
</g>
</g>
<!-- Node2&#45;&gt;Node3 -->
<g id="edge2" class="edge">
<title>Node2&#45;&gt;Node3</title>
<path fill="none" stroke="#63b8ff" d="M159.84,-160.91C150.74,-160.97 141.39,-161.03 132.28,-161.09"/>
<polygon fill="#63b8ff" stroke="#63b8ff" points="159.69,-164.41 169.66,-160.85 159.64,-157.41 159.69,-164.41"/>
</g>
<!-- Node6 -->
<g id="node6" class="node">
<title>Node6</title>
<g id="a_node6"><a xlink:href="class_idle__state.html#ad6d70e591dd39da724656a4261013e4f" target="_top" xlink:title="Método llamado al ingresar al estado. Actualiza la pantalla con el paso del procedimiento actual.">
<polygon fill="white" stroke="#666666" points="109,-134 23,-134 23,-115 109,-115 109,-134"/>
<text text-anchor="middle" x="66" y="-122" font-family="Helvetica,sans-Serif" font-size="10.00">Idle_state::enter</text>
</a>
</g>
</g>
<!-- Node5&#45;&gt;Node6 -->
<g id="edge5" class="edge">
<title>Node5&#45;&gt;Node6</title>
<path fill="none" stroke="#63b8ff" d="M175.3,-96.31C152.74,-102.18 126.38,-109.04 105.32,-114.52"/>
<polygon fill="#63b8ff" stroke="#63b8ff" points="176.11,-99.71 184.91,-93.81 174.35,-92.94 176.11,-99.71"/>
</g>
<!-- Node7 -->
<g id="node7" class="node">
<title>Node7</title>
<g id="a_node7"><a xlink:href="class_motor__control__state.html#af0415304cf9bd1ac5c8de677c6156793" target="_top" xlink:title="Método que se llama al ingresar al estado.">
<polygon fill="white" stroke="#666666" points="117.5,-96.5 14.5,-96.5 14.5,-66.5 117.5,-66.5 117.5,-96.5"/>
<text text-anchor="start" x="22.5" y="-84.5" font-family="Helvetica,sans-Serif" font-size="10.00">Motor_control_state</text>
<text text-anchor="middle" x="66" y="-73.5" font-family="Helvetica,sans-Serif" font-size="10.00">::enter</text>
</a>
</g>
</g>
<!-- Node5&#45;&gt;Node7 -->
<g id="edge6" class="edge">
<title>Node5&#45;&gt;Node7</title>
<path fill="none" stroke="#63b8ff" d="M158.22,-82.66C144.71,-82.49 130.7,-82.31 117.83,-82.15"/>
<polygon fill="#63b8ff" stroke="#63b8ff" points="157.86,-86.15 167.9,-82.78 157.95,-79.15 157.86,-86.15"/>
</g>
<!-- Node8 -->
<g id="node8" class="node">
<title>Node8</title>
<g id="a_node8"><a xlink:href="class_motor__control__state.html#a958e3393b9937ddea35e85efdd21e342" target="_top" xlink:title="Método para actualizar el estado.">
<polygon fill="white" stroke="#666666" points="117.5,-48.5 14.5,-48.5 14.5,-18.5 117.5,-18.5 117.5,-48.5"/>
<text text-anchor="start" x="22.5" y="-36.5" font-family="Helvetica,sans-Serif" font-size="10.00">Motor_control_state</text>
<text text-anchor="middle" x="66" y="-25.5" font-family="Helvetica,sans-Serif" font-size="10.00">::update</text>
</a>
</g>
</g>
<!-- Node5&#45;&gt;Node8 -->
<g id="edge7" class="edge">
<title>Node5&#45;&gt;Node8</title>
<path fill="none" stroke="#63b8ff" d="M182.13,-70.05C161.68,-63.56 137.04,-55.73 115.81,-49"/>
<polygon fill="#63b8ff" stroke="#63b8ff" points="180.97,-73.35 191.56,-73.04 183.09,-66.68 180.97,-73.35"/>
</g>
<!-- Node9&#45;&gt;Node8 -->
<g id="edge9" class="edge">
<title>Node9&#45;&gt;Node8</title>
<path fill="none" stroke="#63b8ff" d="M163.37,-41.45C148.32,-40.21 132.37,-38.9 117.86,-37.7"/>
<polygon fill="#63b8ff" stroke="#63b8ff" points="162.9,-44.93 173.16,-42.26 163.48,-37.95 162.9,-44.93"/>
</g>
<!-- Node10&#45;&gt;Node8 -->
<g id="edge11" class="edge">
<title>Node10&#45;&gt;Node8</title>
<path fill="none" stroke="#63b8ff" d="M156.39,-19.88C143.43,-21.85 130.07,-23.89 117.77,-25.76"/>
<polygon fill="#63b8ff" stroke="#63b8ff" points="156.78,-23.36 166.14,-18.39 155.73,-16.44 156.78,-23.36"/>
</g>
</g>
</svg>
