<?xml version="1.0" encoding="UTF-8" standalone="no"?>
<!DOCTYPE svg PUBLIC "-//W3C//DTD SVG 1.1//EN"
 "http://www.w3.org/Graphics/SVG/1.1/DTD/svg11.dtd">
<!-- Generated by graphviz version 7.0.2 (20221119.0110)
 -->
<!-- Title: Motor::turn_off Pages: 1 -->
<svg width="237pt" height="76pt"
 viewBox="0.00 0.00 237.00 75.50" xmlns="http://www.w3.org/2000/svg" xmlns:xlink="http://www.w3.org/1999/xlink">
<g id="graph0" class="graph" transform="scale(1 1) rotate(0) translate(4 71.5)">
<title>Motor::turn_off</title>
<!-- Node1 -->
<g id="node1" class="node">
<title>Node1</title>
<g id="a_node1"><a xlink:title="Apaga el motor.">
<polygon fill="#999999" stroke="#666666" points="229,-45.5 150,-45.5 150,-26.5 229,-26.5 229,-45.5"/>
<text text-anchor="middle" x="189.5" y="-33.5" font-family="Helvetica,sans-Serif" font-size="10.00">Motor::turn_off</text>
</a>
</g>
</g>
<!-- Node2 -->
<g id="node2" class="node">
<title>Node2</title>
<g id="a_node2"><a xlink:href="class_shutdown__state.html#a2756e0a67cb9371a3c8d722b2a661efa" target="_top" xlink:title="Entrada al estado, apaga los LEDS, la pantalla y apaga el motor.">
<polygon fill="white" stroke="#666666" points="114,-67.5 0,-67.5 0,-48.5 114,-48.5 114,-67.5"/>
<text text-anchor="middle" x="57" y="-55.5" font-family="Helvetica,sans-Serif" font-size="10.00">Shutdown_state::enter</text>
</a>
</g>
</g>
<!-- Node1&#45;&gt;Node2 -->
<g id="edge1" class="edge">
<title>Node1&#45;&gt;Node2</title>
<path fill="none" stroke="#63b8ff" d="M138.41,-44.44C130.52,-45.77 122.31,-47.16 114.28,-48.51"/>
<polygon fill="#63b8ff" stroke="#63b8ff" points="138.93,-47.91 148.21,-42.79 137.76,-41 138.93,-47.91"/>
</g>
<!-- Node3 -->
<g id="node3" class="node">
<title>Node3</title>
<g id="a_node3"><a xlink:href="class_motor__control__state.html#a958e3393b9937ddea35e85efdd21e342" target="_top" xlink:title="Actualización, cambia el color del LED según el estado del motor y hace sonar la alarma....">
<polygon fill="white" stroke="#666666" points="108.5,-30 5.5,-30 5.5,0 108.5,0 108.5,-30"/>
<text text-anchor="start" x="13.5" y="-18" font-family="Helvetica,sans-Serif" font-size="10.00">Motor_control_state</text>
<text text-anchor="middle" x="57" y="-7" font-family="Helvetica,sans-Serif" font-size="10.00">::update</text>
</a>
</g>
</g>
<!-- Node1&#45;&gt;Node3 -->
<g id="edge2" class="edge">
<title>Node1&#45;&gt;Node3</title>
<path fill="none" stroke="#63b8ff" d="M138.59,-27.97C128.89,-26.41 118.72,-24.77 108.99,-23.2"/>
<polygon fill="#63b8ff" stroke="#63b8ff" points="137.78,-31.38 148.2,-29.52 138.89,-24.47 137.78,-31.38"/>
</g>
</g>
</svg>
