<?xml version="1.0" encoding="UTF-8" standalone="no"?>
<!DOCTYPE svg PUBLIC "-//W3C//DTD SVG 1.1//EN"
 "http://www.w3.org/Graphics/SVG/1.1/DTD/svg11.dtd">
<!-- Generated by graphviz version 7.0.2 (20221119.0110)
 -->
<!-- Title: Idle_state::enter Pages: 1 -->
<svg width="384pt" height="82pt"
 viewBox="0.00 0.00 384.00 82.00" xmlns="http://www.w3.org/2000/svg" xmlns:xlink="http://www.w3.org/1999/xlink">
<g id="graph0" class="graph" transform="scale(1 1) rotate(0) translate(4 78)">
<title>Idle_state::enter</title>
<!-- Node1 -->
<g id="node1" class="node">
<title>Node1</title>
<g id="a_node1"><a xlink:title="Método llamado al ingresar al estado. Actualiza la pantalla con el paso del procedimiento actual.">
<polygon fill="#999999" stroke="#666666" points="86,-55 0,-55 0,-36 86,-36 86,-55"/>
<text text-anchor="middle" x="43" y="-43" font-family="Helvetica,sans-Serif" font-size="10.00">Idle_state::enter</text>
</a>
</g>
</g>
<!-- Node2 -->
<g id="node2" class="node">
<title>Node2</title>
<g id="a_node2"><a xlink:href="class_display.html#a87d1e7bf73a1d14b5e76c9ab647a9e93" target="_top" xlink:title="Fija el el texto a actualizar, no lo imprime en pantalla. La ubicación se da con las constantes de of...">
<polygon fill="white" stroke="#666666" points="223,-74 133,-74 133,-55 223,-55 223,-74"/>
<text text-anchor="middle" x="178" y="-62" font-family="Helvetica,sans-Serif" font-size="10.00">Display::set_text</text>
</a>
</g>
</g>
<!-- Node1&#45;&gt;Node2 -->
<g id="edge1" class="edge">
<title>Node1&#45;&gt;Node2</title>
<path fill="none" stroke="#63b8ff" d="M86.45,-51.56C97.62,-53.16 109.85,-54.91 121.6,-56.59"/>
<polygon fill="#63b8ff" stroke="#63b8ff" points="120.77,-60 131.17,-57.95 121.76,-53.07 120.77,-60"/>
</g>
<!-- Node3 -->
<g id="node3" class="node">
<title>Node3</title>
<g id="a_node3"><a xlink:href="class_dual___l_e_d.html#ab1cd238e00901ca9556914a38d3a064c" target="_top" xlink:title="Enciende el LED en verde.">
<polygon fill="white" stroke="#666666" points="234,-37 122,-37 122,-18 234,-18 234,-37"/>
<text text-anchor="middle" x="178" y="-25" font-family="Helvetica,sans-Serif" font-size="10.00">Dual_LED::turn_green</text>
</a>
</g>
</g>
<!-- Node1&#45;&gt;Node3 -->
<g id="edge2" class="edge">
<title>Node1&#45;&gt;Node3</title>
<path fill="none" stroke="#63b8ff" d="M86.45,-39.76C94.18,-38.71 102.42,-37.59 110.65,-36.48"/>
<polygon fill="#63b8ff" stroke="#63b8ff" points="110.89,-39.98 120.33,-35.17 109.95,-33.04 110.89,-39.98"/>
</g>
<!-- Node4 -->
<g id="node4" class="node">
<title>Node4</title>
<g id="a_node4"><a xlink:href="class_dual___l_e_d.html#aeb163748acf071a1652c56ae1dff9d52" target="_top" xlink:title="Fija el color del led, no enciende el led,.">
<polygon fill="white" stroke="#666666" points="376,-56 270,-56 270,-37 376,-37 376,-56"/>
<text text-anchor="middle" x="323" y="-44" font-family="Helvetica,sans-Serif" font-size="10.00">Dual_LED::set_color</text>
</a>
</g>
</g>
<!-- Node3&#45;&gt;Node4 -->
<g id="edge3" class="edge">
<title>Node3&#45;&gt;Node4</title>
<path fill="none" stroke="#63b8ff" d="M234.29,-34.85C242.19,-35.9 250.38,-36.98 258.43,-38.05"/>
<polygon fill="#63b8ff" stroke="#63b8ff" points="257.8,-41.5 268.17,-39.35 258.72,-34.56 257.8,-41.5"/>
</g>
<!-- Node5 -->
<g id="node5" class="node">
<title>Node5</title>
<g id="a_node5"><a xlink:href="class_dual___l_e_d.html#a8b13294b883897eb83f91bf90a3a11cd" target="_top" xlink:title="Enciende el LED en el color actual.">
<polygon fill="white" stroke="#666666" points="372,-19 274,-19 274,0 372,0 372,-19"/>
<text text-anchor="middle" x="323" y="-7" font-family="Helvetica,sans-Serif" font-size="10.00">Dual_LED::turn_on</text>
</a>
</g>
</g>
<!-- Node3&#45;&gt;Node5 -->
<g id="edge4" class="edge">
<title>Node3&#45;&gt;Node5</title>
<path fill="none" stroke="#63b8ff" d="M234.29,-20.54C243.56,-19.37 253.22,-18.16 262.6,-16.98"/>
<polygon fill="#63b8ff" stroke="#63b8ff" points="262.86,-20.47 272.34,-15.75 261.98,-13.53 262.86,-20.47"/>
</g>
</g>
</svg>
