<?xml version="1.0" encoding="UTF-8" standalone="no"?>
<!DOCTYPE svg PUBLIC "-//W3C//DTD SVG 1.1//EN"
 "http://www.w3.org/Graphics/SVG/1.1/DTD/svg11.dtd">
<!-- Generated by graphviz version 7.0.2 (20221119.0110)
 -->
<!-- Title: Display::set_text Pages: 1 -->
<svg width="237pt" height="162pt"
 viewBox="0.00 0.00 237.00 161.50" xmlns="http://www.w3.org/2000/svg" xmlns:xlink="http://www.w3.org/1999/xlink">
<g id="graph0" class="graph" transform="scale(1 1) rotate(0) translate(4 157.5)">
<title>Display::set_text</title>
<!-- Node1 -->
<g id="node1" class="node">
<title>Node1</title>
<g id="a_node1"><a xlink:title="Fija el el texto a actualizar, no lo imprime en pantalla. La ubicación se da con las constantes de of...">
<polygon fill="#999999" stroke="#666666" points="229,-88.5 139,-88.5 139,-69.5 229,-69.5 229,-88.5"/>
<text text-anchor="middle" x="184" y="-76.5" font-family="Helvetica,sans-Serif" font-size="10.00">Display::set_text</text>
</a>
</g>
</g>
<!-- Node2 -->
<g id="node2" class="node">
<title>Node2</title>
<g id="a_node2"><a xlink:href="class_idle__state.html#ad6d70e591dd39da724656a4261013e4f" target="_top" xlink:title="Método llamado al ingresar al estado. Actualiza la pantalla con el paso del procedimiento actual.">
<polygon fill="white" stroke="#666666" points="94.5,-153.5 8.5,-153.5 8.5,-134.5 94.5,-134.5 94.5,-153.5"/>
<text text-anchor="middle" x="51.5" y="-141.5" font-family="Helvetica,sans-Serif" font-size="10.00">Idle_state::enter</text>
</a>
</g>
</g>
<!-- Node1&#45;&gt;Node2 -->
<g id="edge1" class="edge">
<title>Node1&#45;&gt;Node2</title>
<path fill="none" stroke="#63b8ff" d="M158.07,-94.73C142.56,-104.16 122.02,-116.03 103,-125 96.14,-128.24 88.56,-131.33 81.41,-134.04"/>
<polygon fill="#63b8ff" stroke="#63b8ff" points="159.5,-97.96 166.18,-89.73 155.83,-92 159.5,-97.96"/>
</g>
<!-- Node3 -->
<g id="node3" class="node">
<title>Node3</title>
<g id="a_node3"><a xlink:href="class_motor__control__state.html#af0415304cf9bd1ac5c8de677c6156793" target="_top" xlink:title="Método que se llama al ingresar al estado.">
<polygon fill="white" stroke="#666666" points="103,-116 0,-116 0,-86 103,-86 103,-116"/>
<text text-anchor="start" x="8" y="-104" font-family="Helvetica,sans-Serif" font-size="10.00">Motor_control_state</text>
<text text-anchor="middle" x="51.5" y="-93" font-family="Helvetica,sans-Serif" font-size="10.00">::enter</text>
</a>
</g>
</g>
<!-- Node1&#45;&gt;Node3 -->
<g id="edge2" class="edge">
<title>Node1&#45;&gt;Node3</title>
<path fill="none" stroke="#63b8ff" d="M127.63,-88.33C119.59,-89.69 111.34,-91.08 103.39,-92.42"/>
<polygon fill="#63b8ff" stroke="#63b8ff" points="128.05,-91.81 137.33,-86.7 126.88,-84.91 128.05,-91.81"/>
</g>
<!-- Node4 -->
<g id="node4" class="node">
<title>Node4</title>
<g id="a_node4"><a xlink:href="class_idle__state.html#a92217c98eda8e3bd47eb3a8ff602efc2" target="_top" xlink:title="Método para actualizar el sistema cuando está en estado de reposo. Actualiza la pantalla y los observ...">
<polygon fill="white" stroke="#666666" points="98.5,-67.5 4.5,-67.5 4.5,-48.5 98.5,-48.5 98.5,-67.5"/>
<text text-anchor="middle" x="51.5" y="-55.5" font-family="Helvetica,sans-Serif" font-size="10.00">Idle_state::update</text>
</a>
</g>
</g>
<!-- Node1&#45;&gt;Node4 -->
<g id="edge3" class="edge">
<title>Node1&#45;&gt;Node4</title>
<path fill="none" stroke="#63b8ff" d="M127.72,-70.1C118.11,-68.56 108.21,-66.96 98.87,-65.46"/>
<polygon fill="#63b8ff" stroke="#63b8ff" points="126.9,-73.52 137.32,-71.65 128.01,-66.61 126.9,-73.52"/>
</g>
<!-- Node5 -->
<g id="node5" class="node">
<title>Node5</title>
<g id="a_node5"><a xlink:href="class_motor__control__state.html#a958e3393b9937ddea35e85efdd21e342" target="_top" xlink:title="Método para actualizar el estado.">
<polygon fill="white" stroke="#666666" points="103,-30 0,-30 0,0 103,0 103,-30"/>
<text text-anchor="start" x="8" y="-18" font-family="Helvetica,sans-Serif" font-size="10.00">Motor_control_state</text>
<text text-anchor="middle" x="51.5" y="-7" font-family="Helvetica,sans-Serif" font-size="10.00">::update</text>
</a>
</g>
</g>
<!-- Node1&#45;&gt;Node5 -->
<g id="edge4" class="edge">
<title>Node1&#45;&gt;Node5</title>
<path fill="none" stroke="#63b8ff" d="M152.49,-64.04C131.88,-53.93 104.73,-40.61 83.92,-30.41"/>
<polygon fill="#63b8ff" stroke="#63b8ff" points="150.73,-67.07 161.25,-68.33 153.81,-60.79 150.73,-67.07"/>
</g>
</g>
</svg>
