<?xml version="1.0" encoding="UTF-8" standalone="no"?>
<!DOCTYPE svg PUBLIC "-//W3C//DTD SVG 1.1//EN"
 "http://www.w3.org/Graphics/SVG/1.1/DTD/svg11.dtd">
<!-- Generated by graphviz version 7.0.2 (20221119.0110)
 -->
<!-- Title: Dual_LED::turn_off Pages: 1 -->
<svg width="396pt" height="150pt"
 viewBox="0.00 0.00 396.00 150.00" xmlns="http://www.w3.org/2000/svg" xmlns:xlink="http://www.w3.org/1999/xlink">
<g id="graph0" class="graph" transform="scale(1 1) rotate(0) translate(4 146)">
<title>Dual_LED::turn_off</title>
<!-- Node1 -->
<g id="node1" class="node">
<title>Node1</title>
<g id="a_node1"><a xlink:title="Apaga el LED.">
<polygon fill="#999999" stroke="#666666" points="388,-83 290,-83 290,-64 388,-64 388,-83"/>
<text text-anchor="middle" x="339" y="-71" font-family="Helvetica,sans-Serif" font-size="10.00">Dual_LED::turn_off</text>
</a>
</g>
</g>
<!-- Node2 -->
<g id="node2" class="node">
<title>Node2</title>
<g id="a_node2"><a xlink:href="class_shutdown__state.html#a2756e0a67cb9371a3c8d722b2a661efa" target="_top" xlink:title="Método que se llama al ingresar al estado.">
<polygon fill="white" stroke="#666666" points="254,-142 140,-142 140,-123 254,-123 254,-142"/>
<text text-anchor="middle" x="197" y="-130" font-family="Helvetica,sans-Serif" font-size="10.00">Shutdown_state::enter</text>
</a>
</g>
</g>
<!-- Node1&#45;&gt;Node2 -->
<g id="edge1" class="edge">
<title>Node1&#45;&gt;Node2</title>
<path fill="none" stroke="#63b8ff" d="M309.82,-88.51C293.72,-96.76 273.02,-106.85 254,-114.5 246.89,-117.36 239.15,-120.09 231.74,-122.52"/>
<polygon fill="#63b8ff" stroke="#63b8ff" points="311.06,-91.81 318.32,-84.09 307.83,-85.6 311.06,-91.81"/>
</g>
<!-- Node3 -->
<g id="node3" class="node">
<title>Node3</title>
<g id="a_node3"><a xlink:href="class_idle__state.html#aad83cf5a4d37cbb4b45b64dd6d632c53" target="_top" xlink:title="Método llamada al salir del estado. Apaga los led indicadores y el buzzer.">
<polygon fill="white" stroke="#666666" points="237,-105 157,-105 157,-86 237,-86 237,-105"/>
<text text-anchor="middle" x="197" y="-93" font-family="Helvetica,sans-Serif" font-size="10.00">Idle_state::exit</text>
</a>
</g>
</g>
<!-- Node1&#45;&gt;Node3 -->
<g id="edge2" class="edge">
<title>Node1&#45;&gt;Node3</title>
<path fill="none" stroke="#63b8ff" d="M278.8,-82.8C264.84,-85 250.29,-87.28 237.45,-89.3"/>
<polygon fill="#63b8ff" stroke="#63b8ff" points="278.99,-86.32 288.32,-81.31 277.9,-79.4 278.99,-86.32"/>
</g>
<!-- Node5 -->
<g id="node5" class="node">
<title>Node5</title>
<g id="a_node5"><a xlink:href="class_motor__control__state.html#aad1d65bba61eca448757e07e4e7dcb2b" target="_top" xlink:title="Método que se llama al salir del estado.">
<polygon fill="white" stroke="#666666" points="248.5,-67.5 145.5,-67.5 145.5,-37.5 248.5,-37.5 248.5,-67.5"/>
<text text-anchor="start" x="153.5" y="-55.5" font-family="Helvetica,sans-Serif" font-size="10.00">Motor_control_state</text>
<text text-anchor="middle" x="197" y="-44.5" font-family="Helvetica,sans-Serif" font-size="10.00">::exit</text>
</a>
</g>
</g>
<!-- Node1&#45;&gt;Node5 -->
<g id="edge4" class="edge">
<title>Node1&#45;&gt;Node5</title>
<path fill="none" stroke="#63b8ff" d="M278.7,-64.61C268.7,-63.11 258.41,-61.56 248.65,-60.1"/>
<polygon fill="#63b8ff" stroke="#63b8ff" points="277.91,-68.03 288.32,-66.05 278.95,-61.1 277.91,-68.03"/>
</g>
<!-- Node7 -->
<g id="node7" class="node">
<title>Node7</title>
<g id="a_node7"><a xlink:href="class_dual___l_e_d.html#ac56cb66fdbb2a682a90091f2f9a0d385" target="_top" xlink:title="Permuta el estado del LED.">
<polygon fill="white" stroke="#666666" points="243,-19 151,-19 151,0 243,0 243,-19"/>
<text text-anchor="middle" x="197" y="-7" font-family="Helvetica,sans-Serif" font-size="10.00">Dual_LED::toggle</text>
</a>
</g>
</g>
<!-- Node1&#45;&gt;Node7 -->
<g id="edge6" class="edge">
<title>Node1&#45;&gt;Node7</title>
<path fill="none" stroke="#63b8ff" d="M311.48,-57.84C295.22,-48.61 273.79,-37.09 254,-28.5 246.47,-25.23 238.17,-22.15 230.33,-19.46"/>
<polygon fill="#63b8ff" stroke="#63b8ff" points="309.63,-60.81 320.04,-62.77 313.12,-54.75 309.63,-60.81"/>
</g>
<!-- Node4 -->
<g id="node4" class="node">
<title>Node4</title>
<g id="a_node4"><a xlink:href="class_idle__state.html#a422b51d100fee2411f6ea972b13cc2e8" target="_top" xlink:title="Transición hacia nuevo estado.">
<polygon fill="white" stroke="#666666" points="104,-105 0,-105 0,-86 104,-86 104,-105"/>
<text text-anchor="middle" x="52" y="-93" font-family="Helvetica,sans-Serif" font-size="10.00">Idle_state::transition</text>
</a>
</g>
</g>
<!-- Node3&#45;&gt;Node4 -->
<g id="edge3" class="edge">
<title>Node3&#45;&gt;Node4</title>
<path fill="none" stroke="#63b8ff" d="M145.22,-95.5C131.97,-95.5 117.67,-95.5 104.39,-95.5"/>
<polygon fill="#63b8ff" stroke="#63b8ff" points="145.03,-99 155.03,-95.5 145.03,-92 145.03,-99"/>
</g>
<!-- Node6 -->
<g id="node6" class="node">
<title>Node6</title>
<g id="a_node6"><a xlink:href="class_motor__control__state.html#a399ab3c70b5a5d98f7b6ca5f5dfd5ecb" target="_top" xlink:title="Método para cambiar de estado.">
<polygon fill="white" stroke="#666666" points="103.5,-67.5 0.5,-67.5 0.5,-37.5 103.5,-37.5 103.5,-67.5"/>
<text text-anchor="start" x="8.5" y="-55.5" font-family="Helvetica,sans-Serif" font-size="10.00">Motor_control_state</text>
<text text-anchor="middle" x="52" y="-44.5" font-family="Helvetica,sans-Serif" font-size="10.00">::transition</text>
</a>
</g>
</g>
<!-- Node5&#45;&gt;Node6 -->
<g id="edge5" class="edge">
<title>Node5&#45;&gt;Node6</title>
<path fill="none" stroke="#63b8ff" d="M133.92,-52.5C123.81,-52.5 113.45,-52.5 103.66,-52.5"/>
<polygon fill="#63b8ff" stroke="#63b8ff" points="133.67,-56 143.67,-52.5 133.67,-49 133.67,-56"/>
</g>
</g>
</svg>
