<?xml version="1.0" encoding="UTF-8" standalone="no"?>
<!DOCTYPE svg PUBLIC "-//W3C//DTD SVG 1.1//EN"
 "http://www.w3.org/Graphics/SVG/1.1/DTD/svg11.dtd">
<!-- Generated by graphviz version 7.0.2 (20221119.0110)
 -->
<!-- Title: Dual_LED::set_color Pages: 1 -->
<svg width="404pt" height="144pt"
 viewBox="0.00 0.00 404.00 144.00" xmlns="http://www.w3.org/2000/svg" xmlns:xlink="http://www.w3.org/1999/xlink">
<g id="graph0" class="graph" transform="scale(1 1) rotate(0) translate(4 140)">
<title>Dual_LED::set_color</title>
<!-- Node1 -->
<g id="node1" class="node">
<title>Node1</title>
<g id="a_node1"><a xlink:title="Fija el color del led, no enciende el led,.">
<polygon fill="#999999" stroke="#666666" points="396,-56 290,-56 290,-37 396,-37 396,-56"/>
<text text-anchor="middle" x="343" y="-44" font-family="Helvetica,sans-Serif" font-size="10.00">Dual_LED::set_color</text>
</a>
</g>
</g>
<!-- Node2 -->
<g id="node2" class="node">
<title>Node2</title>
<g id="a_node2"><a xlink:href="class_dual___l_e_d.html#ab1cd238e00901ca9556914a38d3a064c" target="_top" xlink:title="Enciende el LED en verde.">
<polygon fill="white" stroke="#666666" points="252.5,-93 140.5,-93 140.5,-74 252.5,-74 252.5,-93"/>
<text text-anchor="middle" x="196.5" y="-81" font-family="Helvetica,sans-Serif" font-size="10.00">Dual_LED::turn_green</text>
</a>
</g>
</g>
<!-- Node1&#45;&gt;Node2 -->
<g id="edge1" class="edge">
<title>Node1&#45;&gt;Node2</title>
<path fill="none" stroke="#63b8ff" d="M292.21,-59.25C273.93,-63.93 253.51,-69.16 236.33,-73.56"/>
<polygon fill="#63b8ff" stroke="#63b8ff" points="292.99,-62.66 301.81,-56.79 291.25,-55.88 292.99,-62.66"/>
</g>
<!-- Node6 -->
<g id="node6" class="node">
<title>Node6</title>
<g id="a_node6"><a xlink:href="class_dual___l_e_d.html#a8734a816df04661d86e3ccbf88159eb0" target="_top" xlink:title="Enciende el LED en rojo.">
<polygon fill="white" stroke="#666666" points="247,-56 146,-56 146,-37 247,-37 247,-56"/>
<text text-anchor="middle" x="196.5" y="-44" font-family="Helvetica,sans-Serif" font-size="10.00">Dual_LED::turn_red</text>
</a>
</g>
</g>
<!-- Node1&#45;&gt;Node6 -->
<g id="edge5" class="edge">
<title>Node1&#45;&gt;Node6</title>
<path fill="none" stroke="#63b8ff" d="M278.57,-46.5C268.05,-46.5 257.29,-46.5 247.18,-46.5"/>
<polygon fill="#63b8ff" stroke="#63b8ff" points="278.32,-50 288.32,-46.5 278.32,-43 278.32,-50"/>
</g>
<!-- Node7 -->
<g id="node7" class="node">
<title>Node7</title>
<g id="a_node7"><a xlink:href="class_dual___l_e_d.html#aabc0462521bcc08ea7f6f04642f7e89d" target="_top" xlink:title="Enciende el LED en amarillo. El comportamiento es indefinido para pines no PWM.">
<polygon fill="white" stroke="#666666" points="254,-19 139,-19 139,0 254,0 254,-19"/>
<text text-anchor="middle" x="196.5" y="-7" font-family="Helvetica,sans-Serif" font-size="10.00">Dual_LED::turn_yellow</text>
</a>
</g>
</g>
<!-- Node1&#45;&gt;Node7 -->
<g id="edge7" class="edge">
<title>Node1&#45;&gt;Node7</title>
<path fill="none" stroke="#63b8ff" d="M292.21,-33.75C273.93,-29.07 253.51,-23.84 236.33,-19.44"/>
<polygon fill="#63b8ff" stroke="#63b8ff" points="291.25,-37.12 301.81,-36.21 292.99,-30.34 291.25,-37.12"/>
</g>
<!-- Node3 -->
<g id="node3" class="node">
<title>Node3</title>
<g id="a_node3"><a xlink:href="class_idle__state.html#ad6d70e591dd39da724656a4261013e4f" target="_top" xlink:title="Método llamado al ingresar al estado. Actualiza la pantalla con el paso del procedimiento actual.">
<polygon fill="white" stroke="#666666" points="94.5,-136 8.5,-136 8.5,-117 94.5,-117 94.5,-136"/>
<text text-anchor="middle" x="51.5" y="-124" font-family="Helvetica,sans-Serif" font-size="10.00">Idle_state::enter</text>
</a>
</g>
</g>
<!-- Node2&#45;&gt;Node3 -->
<g id="edge2" class="edge">
<title>Node2&#45;&gt;Node3</title>
<path fill="none" stroke="#63b8ff" d="M151.59,-96.7C130.29,-103.11 105.13,-110.68 85.49,-116.58"/>
<polygon fill="#63b8ff" stroke="#63b8ff" points="152.32,-100.14 160.88,-93.91 150.3,-93.44 152.32,-100.14"/>
</g>
<!-- Node4 -->
<g id="node4" class="node">
<title>Node4</title>
<g id="a_node4"><a xlink:href="class_motor__control__state.html#af0415304cf9bd1ac5c8de677c6156793" target="_top" xlink:title="Método que se llama al ingresar al estado.">
<polygon fill="white" stroke="#666666" points="103,-98.5 0,-98.5 0,-68.5 103,-68.5 103,-98.5"/>
<text text-anchor="start" x="8" y="-86.5" font-family="Helvetica,sans-Serif" font-size="10.00">Motor_control_state</text>
<text text-anchor="middle" x="51.5" y="-75.5" font-family="Helvetica,sans-Serif" font-size="10.00">::enter</text>
</a>
</g>
</g>
<!-- Node2&#45;&gt;Node4 -->
<g id="edge3" class="edge">
<title>Node2&#45;&gt;Node4</title>
<path fill="none" stroke="#63b8ff" d="M128.72,-83.5C120.22,-83.5 111.63,-83.5 103.43,-83.5"/>
<polygon fill="#63b8ff" stroke="#63b8ff" points="128.7,-87 138.7,-83.5 128.7,-80 128.7,-87"/>
</g>
<!-- Node5 -->
<g id="node5" class="node">
<title>Node5</title>
<g id="a_node5"><a xlink:href="class_motor__control__state.html#a958e3393b9937ddea35e85efdd21e342" target="_top" xlink:title="Método para actualizar el estado.">
<polygon fill="white" stroke="#666666" points="103,-50.5 0,-50.5 0,-20.5 103,-20.5 103,-50.5"/>
<text text-anchor="start" x="8" y="-38.5" font-family="Helvetica,sans-Serif" font-size="10.00">Motor_control_state</text>
<text text-anchor="middle" x="51.5" y="-27.5" font-family="Helvetica,sans-Serif" font-size="10.00">::update</text>
</a>
</g>
</g>
<!-- Node2&#45;&gt;Node5 -->
<g id="edge4" class="edge">
<title>Node2&#45;&gt;Node5</title>
<path fill="none" stroke="#63b8ff" d="M152.93,-70.06C148.22,-68.54 143.51,-67 139,-65.5 125.12,-60.88 110.05,-55.71 96.43,-50.98"/>
<polygon fill="#63b8ff" stroke="#63b8ff" points="151.75,-73.36 162.34,-73.09 153.89,-66.7 151.75,-73.36"/>
</g>
<!-- Node6&#45;&gt;Node5 -->
<g id="edge6" class="edge">
<title>Node6&#45;&gt;Node5</title>
<path fill="none" stroke="#63b8ff" d="M134.42,-41.8C124.11,-41.01 113.5,-40.19 103.48,-39.42"/>
<polygon fill="#63b8ff" stroke="#63b8ff" points="134.14,-45.29 144.38,-42.57 134.68,-38.31 134.14,-45.29"/>
</g>
<!-- Node7&#45;&gt;Node5 -->
<g id="edge8" class="edge">
<title>Node7&#45;&gt;Node5</title>
<path fill="none" stroke="#63b8ff" d="M129.54,-21.49C120.7,-23.1 111.76,-24.73 103.24,-26.27"/>
<polygon fill="#63b8ff" stroke="#63b8ff" points="129.92,-24.98 139.13,-19.75 128.67,-18.09 129.92,-24.98"/>
</g>
</g>
</svg>
