<?xml version="1.0" encoding="UTF-8" standalone="no"?>
<!DOCTYPE svg PUBLIC "-//W3C//DTD SVG 1.1//EN"
 "http://www.w3.org/Graphics/SVG/1.1/DTD/svg11.dtd">
<!-- Generated by graphviz version 7.0.2 (20221119.0110)
 -->
<!-- Title: Idle_state::transition Pages: 1 -->
<svg width="362pt" height="64pt"
 viewBox="0.00 0.00 362.00 64.00" xmlns="http://www.w3.org/2000/svg" xmlns:xlink="http://www.w3.org/1999/xlink">
<g id="graph0" class="graph" transform="scale(1 1) rotate(0) translate(4 60)">
<title>Idle_state::transition</title>
<!-- Node1 -->
<g id="node1" class="node">
<title>Node1</title>
<g id="a_node1"><a xlink:title="Transición hacia nuevo estado.">
<polygon fill="#999999" stroke="#666666" points="104,-37 0,-37 0,-18 104,-18 104,-37"/>
<text text-anchor="middle" x="52" y="-25" font-family="Helvetica,sans-Serif" font-size="10.00">Idle_state::transition</text>
</a>
</g>
</g>
<!-- Node2 -->
<g id="node2" class="node">
<title>Node2</title>
<g id="a_node2"><a xlink:href="class_idle__state.html#aad83cf5a4d37cbb4b45b64dd6d632c53" target="_top" xlink:title="Método llamada al salir del estado. Apaga los led indicadores y el buzzer.">
<polygon fill="white" stroke="#666666" points="220,-37 140,-37 140,-18 220,-18 220,-37"/>
<text text-anchor="middle" x="180" y="-25" font-family="Helvetica,sans-Serif" font-size="10.00">Idle_state::exit</text>
</a>
</g>
</g>
<!-- Node1&#45;&gt;Node2 -->
<g id="edge1" class="edge">
<title>Node1&#45;&gt;Node2</title>
<path fill="none" stroke="#63b8ff" d="M104.25,-27.5C112.21,-27.5 120.44,-27.5 128.39,-27.5"/>
<polygon fill="#63b8ff" stroke="#63b8ff" points="128.27,-31 138.27,-27.5 128.27,-24 128.27,-31"/>
</g>
<!-- Node3 -->
<g id="node3" class="node">
<title>Node3</title>
<g id="a_node3"><a xlink:href="class_buzzer.html#a5809a2b7b52e74f509c31214257f3af0" target="_top" xlink:title="Apaga el buzzer.">
<polygon fill="white" stroke="#666666" points="347.5,-56 262.5,-56 262.5,-37 347.5,-37 347.5,-56"/>
<text text-anchor="middle" x="305" y="-44" font-family="Helvetica,sans-Serif" font-size="10.00">Buzzer::turn_off</text>
</a>
</g>
</g>
<!-- Node2&#45;&gt;Node3 -->
<g id="edge2" class="edge">
<title>Node2&#45;&gt;Node3</title>
<path fill="none" stroke="#63b8ff" d="M220.26,-33.56C229.96,-35.06 240.52,-36.69 250.77,-38.28"/>
<polygon fill="#63b8ff" stroke="#63b8ff" points="250.23,-41.74 260.65,-39.8 251.3,-34.82 250.23,-41.74"/>
</g>
<!-- Node4 -->
<g id="node4" class="node">
<title>Node4</title>
<g id="a_node4"><a xlink:href="class_dual___l_e_d.html#a4226b64f8b1c00f3e4c649a8be2e64c9" target="_top" xlink:title="Apaga el LED.">
<polygon fill="white" stroke="#666666" points="354,-19 256,-19 256,0 354,0 354,-19"/>
<text text-anchor="middle" x="305" y="-7" font-family="Helvetica,sans-Serif" font-size="10.00">Dual_LED::turn_off</text>
</a>
</g>
</g>
<!-- Node2&#45;&gt;Node4 -->
<g id="edge3" class="edge">
<title>Node2&#45;&gt;Node4</title>
<path fill="none" stroke="#63b8ff" d="M220.26,-21.76C227.99,-20.62 236.27,-19.41 244.49,-18.21"/>
<polygon fill="#63b8ff" stroke="#63b8ff" points="244.74,-21.71 254.13,-16.8 243.73,-14.78 244.74,-21.71"/>
</g>
</g>
</svg>
