<?xml version="1.0" encoding="UTF-8" standalone="no"?>
<!DOCTYPE svg PUBLIC "-//W3C//DTD SVG 1.1//EN"
 "http://www.w3.org/Graphics/SVG/1.1/DTD/svg11.dtd">
<!-- Generated by graphviz version 7.0.2 (20221119.0110)
 -->
<!-- Title: Dual_LED::turn_red Pages: 1 -->
<svg width="248pt" height="86pt"
 viewBox="0.00 0.00 248.00 86.00" xmlns="http://www.w3.org/2000/svg" xmlns:xlink="http://www.w3.org/1999/xlink">
<g id="graph0" class="graph" transform="scale(1 1) rotate(0) translate(4 82)">
<title>Dual_LED::turn_red</title>
<!-- Node1 -->
<g id="node1" class="node">
<title>Node1</title>
<g id="a_node1"><a xlink:title="Enciende el LED en rojo.">
<polygon fill="#999999" stroke="#666666" points="240,-48.5 139,-48.5 139,-29.5 240,-29.5 240,-48.5"/>
<text text-anchor="middle" x="189.5" y="-36.5" font-family="Helvetica,sans-Serif" font-size="10.00">Dual_LED::turn_red</text>
</a>
</g>
</g>
<!-- Node2 -->
<g id="node2" class="node">
<title>Node2</title>
<g id="a_node2"><a xlink:href="class_motor__control__state.html#af0415304cf9bd1ac5c8de677c6156793" target="_top" xlink:title="Entrada al estado, enciende el LED de estado del motor.">
<polygon fill="white" stroke="#666666" points="103,-78 0,-78 0,-48 103,-48 103,-78"/>
<text text-anchor="start" x="8" y="-66" font-family="Helvetica,sans-Serif" font-size="10.00">Motor_control_state</text>
<text text-anchor="middle" x="51.5" y="-55" font-family="Helvetica,sans-Serif" font-size="10.00">::enter</text>
</a>
</g>
</g>
<!-- Node1&#45;&gt;Node2 -->
<g id="edge1" class="edge">
<title>Node1&#45;&gt;Node2</title>
<path fill="none" stroke="#63b8ff" d="M127.38,-49.79C119.32,-51.21 111.13,-52.65 103.27,-54.04"/>
<polygon fill="#63b8ff" stroke="#63b8ff" points="127.9,-53.25 137.14,-48.06 126.68,-46.35 127.9,-53.25"/>
</g>
<!-- Node3 -->
<g id="node3" class="node">
<title>Node3</title>
<g id="a_node3"><a xlink:href="class_motor__control__state.html#a958e3393b9937ddea35e85efdd21e342" target="_top" xlink:title="Actualización, cambia el color del LED según el estado del motor y hace sonar la alarma....">
<polygon fill="white" stroke="#666666" points="103,-30 0,-30 0,0 103,0 103,-30"/>
<text text-anchor="start" x="8" y="-18" font-family="Helvetica,sans-Serif" font-size="10.00">Motor_control_state</text>
<text text-anchor="middle" x="51.5" y="-7" font-family="Helvetica,sans-Serif" font-size="10.00">::update</text>
</a>
</g>
</g>
<!-- Node1&#45;&gt;Node3 -->
<g id="edge2" class="edge">
<title>Node1&#45;&gt;Node3</title>
<path fill="none" stroke="#63b8ff" d="M127.38,-28.21C119.32,-26.79 111.13,-25.35 103.27,-23.96"/>
<polygon fill="#63b8ff" stroke="#63b8ff" points="126.68,-31.65 137.14,-29.94 127.9,-24.75 126.68,-31.65"/>
</g>
</g>
</svg>
