<?xml version="1.0" encoding="UTF-8" standalone="no"?>
<!DOCTYPE svg PUBLIC "-//W3C//DTD SVG 1.1//EN"
 "http://www.w3.org/Graphics/SVG/1.1/DTD/svg11.dtd">
<!-- Generated by graphviz version 7.0.2 (20221119.0110)
 -->
<!-- Title: C:/Users/juanh/OneDrive/Escritorio/Facultad/Beca/Proyecto/LAL_Control/include/display_settings.h Pages: 1 -->
<svg width="864pt" height="500pt"
 viewBox="0.00 0.00 864.00 500.00" xmlns="http://www.w3.org/2000/svg" xmlns:xlink="http://www.w3.org/1999/xlink">
<g id="graph0" class="graph" transform="scale(1 1) rotate(0) translate(4 496)">
<title>C:/Users/juanh/OneDrive/Escritorio/Facultad/Beca/Proyecto/LAL_Control/include/display_settings.h</title>
<!-- Node1 -->
<g id="node1" class="node">
<title>Node1</title>
<g id="a_node1"><a xlink:title="Archivo de configuración de la pantalla.">
<polygon fill="#999999" stroke="#666666" points="596,-492 447,-492 447,-440 596,-440 596,-492"/>
<text text-anchor="start" x="455" y="-480" font-family="Helvetica,sans-Serif" font-size="10.00">C:/Users/juanh/OneDrive</text>
<text text-anchor="start" x="455" y="-469" font-family="Helvetica,sans-Serif" font-size="10.00">/Escritorio/Facultad/Beca</text>
<text text-anchor="start" x="455" y="-458" font-family="Helvetica,sans-Serif" font-size="10.00">/Proyecto/LAL_Control/include</text>
<text text-anchor="middle" x="521.5" y="-447" font-family="Helvetica,sans-Serif" font-size="10.00">/display_settings.h</text>
</a>
</g>
</g>
<!-- Node2 -->
<g id="node2" class="node">
<title>Node2</title>
<g id="a_node2"><a xlink:href="_display_8h.html" target="_top" xlink:title=" ">
<polygon fill="white" stroke="#666666" points="596,-404 447,-404 447,-352 596,-352 596,-404"/>
<text text-anchor="start" x="455" y="-392" font-family="Helvetica,sans-Serif" font-size="10.00">C:/Users/juanh/OneDrive</text>
<text text-anchor="start" x="455" y="-381" font-family="Helvetica,sans-Serif" font-size="10.00">/Escritorio/Facultad/Beca</text>
<text text-anchor="start" x="455" y="-370" font-family="Helvetica,sans-Serif" font-size="10.00">/Proyecto/LAL_Control/include</text>
<text text-anchor="middle" x="521.5" y="-359" font-family="Helvetica,sans-Serif" font-size="10.00">/Display.h</text>
</a>
</g>
</g>
<!-- Node1&#45;&gt;Node2 -->
<g id="edge1" class="edge">
<title>Node1&#45;&gt;Node2</title>
<path fill="none" stroke="#63b8ff" d="M521.5,-428.26C521.5,-420.24 521.5,-411.92 521.5,-404.45"/>
<polygon fill="#63b8ff" stroke="#63b8ff" points="518,-428.15 521.5,-438.15 525,-428.15 518,-428.15"/>
</g>
<!-- Node3 -->
<g id="node3" class="node">
<title>Node3</title>
<g id="a_node3"><a xlink:href="_control__system_8h_source.html" target="_top" xlink:title=" ">
<polygon fill="white" stroke="#666666" points="517,-316 368,-316 368,-264 517,-264 517,-316"/>
<text text-anchor="start" x="376" y="-304" font-family="Helvetica,sans-Serif" font-size="10.00">C:/Users/juanh/OneDrive</text>
<text text-anchor="start" x="376" y="-293" font-family="Helvetica,sans-Serif" font-size="10.00">/Escritorio/Facultad/Beca</text>
<text text-anchor="start" x="376" y="-282" font-family="Helvetica,sans-Serif" font-size="10.00">/Proyecto/LAL_Control/include</text>
<text text-anchor="middle" x="442.5" y="-271" font-family="Helvetica,sans-Serif" font-size="10.00">/Control_system.h</text>
</a>
</g>
</g>
<!-- Node2&#45;&gt;Node3 -->
<g id="edge2" class="edge">
<title>Node2&#45;&gt;Node3</title>
<path fill="none" stroke="#63b8ff" d="M490.56,-343.32C482.35,-334.38 473.62,-324.87 465.88,-316.45"/>
<polygon fill="#63b8ff" stroke="#63b8ff" points="487.86,-345.55 497.2,-350.55 493.01,-340.82 487.86,-345.55"/>
</g>
<!-- Node13 -->
<g id="node13" class="node">
<title>Node13</title>
<g id="a_node13"><a xlink:href="_display_8cpp.html" target="_top" xlink:title=" ">
<polygon fill="white" stroke="#666666" points="666,-316 535,-316 535,-264 666,-264 666,-316"/>
<text text-anchor="start" x="543" y="-304" font-family="Helvetica,sans-Serif" font-size="10.00">C:/Users/juanh/OneDrive</text>
<text text-anchor="start" x="543" y="-293" font-family="Helvetica,sans-Serif" font-size="10.00">/Escritorio/Facultad/Beca</text>
<text text-anchor="start" x="543" y="-282" font-family="Helvetica,sans-Serif" font-size="10.00">/Proyecto/LAL_Control/src</text>
<text text-anchor="middle" x="600.5" y="-271" font-family="Helvetica,sans-Serif" font-size="10.00">/Display.cpp</text>
</a>
</g>
</g>
<!-- Node2&#45;&gt;Node13 -->
<g id="edge23" class="edge">
<title>Node2&#45;&gt;Node13</title>
<path fill="none" stroke="#63b8ff" d="M552.44,-343.32C560.65,-334.38 569.38,-324.87 577.12,-316.45"/>
<polygon fill="#63b8ff" stroke="#63b8ff" points="549.99,-340.82 545.8,-350.55 555.14,-345.55 549.99,-340.82"/>
</g>
<!-- Node4 -->
<g id="node4" class="node">
<title>Node4</title>
<g id="a_node4"><a xlink:href="_idle__state_8h.html" target="_top" xlink:title=" ">
<polygon fill="white" stroke="#666666" points="300,-228 151,-228 151,-176 300,-176 300,-228"/>
<text text-anchor="start" x="159" y="-216" font-family="Helvetica,sans-Serif" font-size="10.00">C:/Users/juanh/OneDrive</text>
<text text-anchor="start" x="159" y="-205" font-family="Helvetica,sans-Serif" font-size="10.00">/Escritorio/Facultad/Beca</text>
<text text-anchor="start" x="159" y="-194" font-family="Helvetica,sans-Serif" font-size="10.00">/Proyecto/LAL_Control/include</text>
<text text-anchor="middle" x="225.5" y="-183" font-family="Helvetica,sans-Serif" font-size="10.00">/Idle_state.h</text>
</a>
</g>
</g>
<!-- Node3&#45;&gt;Node4 -->
<g id="edge3" class="edge">
<title>Node3&#45;&gt;Node4</title>
<path fill="none" stroke="#63b8ff" d="M367.57,-259.3C342.17,-249.24 314.04,-238.09 289.56,-228.39"/>
<polygon fill="#63b8ff" stroke="#63b8ff" points="366.28,-262.56 376.87,-262.99 368.86,-256.05 366.28,-262.56"/>
</g>
<!-- Node5 -->
<g id="node5" class="node">
<title>Node5</title>
<g id="a_node5"><a xlink:href="_motor__control__state_8h_source.html" target="_top" xlink:title=" ">
<polygon fill="white" stroke="#666666" points="149,-140 0,-140 0,-88 149,-88 149,-140"/>
<text text-anchor="start" x="8" y="-128" font-family="Helvetica,sans-Serif" font-size="10.00">C:/Users/juanh/OneDrive</text>
<text text-anchor="start" x="8" y="-117" font-family="Helvetica,sans-Serif" font-size="10.00">/Escritorio/Facultad/Beca</text>
<text text-anchor="start" x="8" y="-106" font-family="Helvetica,sans-Serif" font-size="10.00">/Proyecto/LAL_Control/include</text>
<text text-anchor="middle" x="74.5" y="-95" font-family="Helvetica,sans-Serif" font-size="10.00">/Motor_control_state.h</text>
</a>
</g>
</g>
<!-- Node3&#45;&gt;Node5 -->
<g id="edge13" class="edge">
<title>Node3&#45;&gt;Node5</title>
<path fill="none" stroke="#63b8ff" d="M356.57,-279.43C280.18,-269.54 175.47,-252.14 141.5,-228 111.2,-206.47 92.32,-166.54 82.6,-140.38"/>
<polygon fill="#63b8ff" stroke="#63b8ff" points="355.76,-282.86 366.13,-280.65 356.65,-275.92 355.76,-282.86"/>
</g>
<!-- Node6 -->
<g id="node6" class="node">
<title>Node6</title>
<g id="a_node6"><a xlink:href="_shutdown__state_8h_source.html" target="_top" xlink:title=" ">
<polygon fill="white" stroke="#666666" points="316,-140 167,-140 167,-88 316,-88 316,-140"/>
<text text-anchor="start" x="175" y="-128" font-family="Helvetica,sans-Serif" font-size="10.00">C:/Users/juanh/OneDrive</text>
<text text-anchor="start" x="175" y="-117" font-family="Helvetica,sans-Serif" font-size="10.00">/Escritorio/Facultad/Beca</text>
<text text-anchor="start" x="175" y="-106" font-family="Helvetica,sans-Serif" font-size="10.00">/Proyecto/LAL_Control/include</text>
<text text-anchor="middle" x="241.5" y="-95" font-family="Helvetica,sans-Serif" font-size="10.00">/Shutdown_state.h</text>
</a>
</g>
</g>
<!-- Node3&#45;&gt;Node6 -->
<g id="edge14" class="edge">
<title>Node3&#45;&gt;Node6</title>
<path fill="none" stroke="#63b8ff" d="M399.69,-256.61C358.89,-222.98 299.09,-171.08 265.83,-140.33"/>
<polygon fill="#63b8ff" stroke="#63b8ff" points="397.22,-259.11 407.17,-262.74 401.66,-253.69 397.22,-259.11"/>
</g>
<!-- Node7 -->
<g id="node7" class="node">
<title>Node7</title>
<g id="a_node7"><a xlink:href="_instruction__observer_8h.html" target="_top" xlink:title=" ">
<polygon fill="white" stroke="#666666" points="483,-140 334,-140 334,-88 483,-88 483,-140"/>
<text text-anchor="start" x="342" y="-128" font-family="Helvetica,sans-Serif" font-size="10.00">C:/Users/juanh/OneDrive</text>
<text text-anchor="start" x="342" y="-117" font-family="Helvetica,sans-Serif" font-size="10.00">/Escritorio/Facultad/Beca</text>
<text text-anchor="start" x="342" y="-106" font-family="Helvetica,sans-Serif" font-size="10.00">/Proyecto/LAL_Control/include</text>
<text text-anchor="middle" x="408.5" y="-95" font-family="Helvetica,sans-Serif" font-size="10.00">/Instruction_observer.h</text>
</a>
</g>
</g>
<!-- Node3&#45;&gt;Node7 -->
<g id="edge8" class="edge">
<title>Node3&#45;&gt;Node7</title>
<path fill="none" stroke="#63b8ff" d="M435.37,-252.5C428.8,-218.88 419.22,-169.85 413.45,-140.33"/>
<polygon fill="#63b8ff" stroke="#63b8ff" points="431.91,-253.07 437.27,-262.21 438.78,-251.73 431.91,-253.07"/>
</g>
<!-- Node8 -->
<g id="node8" class="node">
<title>Node8</title>
<g id="a_node8"><a xlink:href="main_8h_source.html" target="_top" xlink:title=" ">
<polygon fill="white" stroke="#666666" points="689,-46.5 508,-46.5 508,-5.5 689,-5.5 689,-46.5"/>
<text text-anchor="start" x="516" y="-34.5" font-family="Helvetica,sans-Serif" font-size="10.00">C:/Users/juanh/OneDrive</text>
<text text-anchor="start" x="516" y="-23.5" font-family="Helvetica,sans-Serif" font-size="10.00">/Escritorio/Facultad/Beca</text>
<text text-anchor="middle" x="598.5" y="-12.5" font-family="Helvetica,sans-Serif" font-size="10.00">/Proyecto/LAL_Control/include/main.h</text>
</a>
</g>
</g>
<!-- Node3&#45;&gt;Node8 -->
<g id="edge22" class="edge">
<title>Node3&#45;&gt;Node8</title>
<path fill="none" stroke="#63b8ff" d="M453.12,-252.87C466.65,-210.67 492.87,-140.03 530.5,-88 541.84,-72.32 557.81,-57.73 571.43,-46.76"/>
<polygon fill="#63b8ff" stroke="#63b8ff" points="449.82,-251.69 450.17,-262.28 456.5,-253.78 449.82,-251.69"/>
</g>
<!-- Node10 -->
<g id="node10" class="node">
<title>Node10</title>
<g id="a_node10"><a xlink:href="_moisture__observer_8h_source.html" target="_top" xlink:title=" ">
<polygon fill="white" stroke="#666666" points="689,-140 540,-140 540,-88 689,-88 689,-140"/>
<text text-anchor="start" x="548" y="-128" font-family="Helvetica,sans-Serif" font-size="10.00">C:/Users/juanh/OneDrive</text>
<text text-anchor="start" x="548" y="-117" font-family="Helvetica,sans-Serif" font-size="10.00">/Escritorio/Facultad/Beca</text>
<text text-anchor="start" x="548" y="-106" font-family="Helvetica,sans-Serif" font-size="10.00">/Proyecto/LAL_Control/include</text>
<text text-anchor="middle" x="614.5" y="-95" font-family="Helvetica,sans-Serif" font-size="10.00">/Moisture_observer.h</text>
</a>
</g>
</g>
<!-- Node3&#45;&gt;Node10 -->
<g id="edge11" class="edge">
<title>Node3&#45;&gt;Node10</title>
<path fill="none" stroke="#63b8ff" d="M528.03,-263.69C597.55,-249.27 637.95,-280.38 679.5,-228 693.86,-209.89 688.68,-197.21 679.5,-176 673.54,-162.22 662.76,-150.13 651.67,-140.42"/>
<polygon fill="#63b8ff" stroke="#63b8ff" points="527.49,-260.22 518.57,-265.94 529.1,-267.04 527.49,-260.22"/>
</g>
<!-- Node11 -->
<g id="node11" class="node">
<title>Node11</title>
<g id="a_node11"><a xlink:href="_system__observer_8h.html" target="_top" xlink:title=" ">
<polygon fill="white" stroke="#666666" points="671,-228 522,-228 522,-176 671,-176 671,-228"/>
<text text-anchor="start" x="530" y="-216" font-family="Helvetica,sans-Serif" font-size="10.00">C:/Users/juanh/OneDrive</text>
<text text-anchor="start" x="530" y="-205" font-family="Helvetica,sans-Serif" font-size="10.00">/Escritorio/Facultad/Beca</text>
<text text-anchor="start" x="530" y="-194" font-family="Helvetica,sans-Serif" font-size="10.00">/Proyecto/LAL_Control/include</text>
<text text-anchor="middle" x="596.5" y="-183" font-family="Helvetica,sans-Serif" font-size="10.00">/System_observer.h</text>
</a>
</g>
</g>
<!-- Node3&#45;&gt;Node11 -->
<g id="edge15" class="edge">
<title>Node3&#45;&gt;Node11</title>
<path fill="none" stroke="#63b8ff" d="M491.39,-258.06C508.39,-248.35 527.47,-237.74 544.7,-228.45"/>
<polygon fill="#63b8ff" stroke="#63b8ff" points="489.89,-254.89 482.97,-262.91 493.38,-260.96 489.89,-254.89"/>
</g>
<!-- Node12 -->
<g id="node12" class="node">
<title>Node12</title>
<g id="a_node12"><a xlink:href="_temperature__observer_8h.html" target="_top" xlink:title=" ">
<polygon fill="white" stroke="#666666" points="856,-140 707,-140 707,-88 856,-88 856,-140"/>
<text text-anchor="start" x="715" y="-128" font-family="Helvetica,sans-Serif" font-size="10.00">C:/Users/juanh/OneDrive</text>
<text text-anchor="start" x="715" y="-117" font-family="Helvetica,sans-Serif" font-size="10.00">/Escritorio/Facultad/Beca</text>
<text text-anchor="start" x="715" y="-106" font-family="Helvetica,sans-Serif" font-size="10.00">/Proyecto/LAL_Control/include</text>
<text text-anchor="middle" x="781.5" y="-95" font-family="Helvetica,sans-Serif" font-size="10.00">/Temperature_observer.h</text>
</a>
</g>
</g>
<!-- Node3&#45;&gt;Node12 -->
<g id="edge21" class="edge">
<title>Node3&#45;&gt;Node12</title>
<path fill="none" stroke="#63b8ff" d="M528.15,-263.58C604.46,-246.84 635.4,-268.55 698.5,-228 731.88,-206.55 756.4,-166.6 769.81,-140.41"/>
<polygon fill="#63b8ff" stroke="#63b8ff" points="527.47,-260.14 518.54,-265.85 529.08,-266.95 527.47,-260.14"/>
</g>
<!-- Node4&#45;&gt;Node5 -->
<g id="edge4" class="edge">
<title>Node4&#45;&gt;Node5</title>
<path fill="none" stroke="#63b8ff" d="M165.16,-170.34C147.56,-160.55 128.84,-149.83 112.97,-140.45"/>
<polygon fill="#63b8ff" stroke="#63b8ff" points="163.03,-173.15 173.47,-174.93 166.41,-167.03 163.03,-173.15"/>
</g>
<!-- Node4&#45;&gt;Node6 -->
<g id="edge6" class="edge">
<title>Node4&#45;&gt;Node6</title>
<path fill="none" stroke="#63b8ff" d="M232.28,-164.54C233.79,-156.43 235.36,-148.01 236.76,-140.45"/>
<polygon fill="#63b8ff" stroke="#63b8ff" points="228.88,-163.7 230.49,-174.17 235.76,-164.98 228.88,-163.7"/>
</g>
<!-- Node5&#45;&gt;Node4 -->
<g id="edge5" class="edge">
<title>Node5&#45;&gt;Node4</title>
<path fill="none" stroke="#63b8ff" d="M135.06,-145.79C152.66,-155.58 171.38,-166.3 187.23,-175.66"/>
<polygon fill="#63b8ff" stroke="#63b8ff" points="137.18,-142.96 126.74,-141.19 133.8,-149.09 137.18,-142.96"/>
</g>
<!-- Node6&#45;&gt;Node3 -->
<g id="edge7" class="edge">
<title>Node6&#45;&gt;Node3</title>
<path fill="none" stroke="#63b8ff" d="M284.35,-147.43C325.16,-181.07 384.96,-232.96 418.2,-263.7"/>
<polygon fill="#63b8ff" stroke="#63b8ff" points="286.82,-144.92 276.86,-141.29 282.38,-150.34 286.82,-144.92"/>
</g>
<!-- Node7&#45;&gt;Node8 -->
<g id="edge9" class="edge">
<title>Node7&#45;&gt;Node8</title>
<path fill="none" stroke="#63b8ff" d="M475.03,-82.89C501.35,-70.97 530.89,-57.6 554.47,-46.93"/>
<polygon fill="#63b8ff" stroke="#63b8ff" points="473.78,-79.61 466.11,-86.92 476.67,-85.99 473.78,-79.61"/>
</g>
<!-- Node9 -->
<g id="node9" class="node">
<title>Node9</title>
<g id="a_node9"><a xlink:href="_instruction__observer_8cpp.html" target="_top" xlink:title=" ">
<polygon fill="white" stroke="#666666" points="474,-52 343,-52 343,0 474,0 474,-52"/>
<text text-anchor="start" x="351" y="-40" font-family="Helvetica,sans-Serif" font-size="10.00">C:/Users/juanh/OneDrive</text>
<text text-anchor="start" x="351" y="-29" font-family="Helvetica,sans-Serif" font-size="10.00">/Escritorio/Facultad/Beca</text>
<text text-anchor="start" x="351" y="-18" font-family="Helvetica,sans-Serif" font-size="10.00">/Proyecto/LAL_Control/src</text>
<text text-anchor="middle" x="408.5" y="-7" font-family="Helvetica,sans-Serif" font-size="10.00">/Instruction_observer.cpp</text>
</a>
</g>
</g>
<!-- Node7&#45;&gt;Node9 -->
<g id="edge10" class="edge">
<title>Node7&#45;&gt;Node9</title>
<path fill="none" stroke="#63b8ff" d="M408.5,-76.26C408.5,-68.24 408.5,-59.92 408.5,-52.45"/>
<polygon fill="#63b8ff" stroke="#63b8ff" points="405,-76.15 408.5,-86.15 412,-76.15 405,-76.15"/>
</g>
<!-- Node10&#45;&gt;Node8 -->
<g id="edge12" class="edge">
<title>Node10&#45;&gt;Node8</title>
<path fill="none" stroke="#63b8ff" d="M607.72,-76.55C605.83,-66.42 603.86,-55.79 602.22,-46.98"/>
<polygon fill="#63b8ff" stroke="#63b8ff" points="604.24,-76.98 609.51,-86.17 611.12,-75.7 604.24,-76.98"/>
</g>
<!-- Node11&#45;&gt;Node3 -->
<g id="edge16" class="edge">
<title>Node11&#45;&gt;Node3</title>
<path fill="none" stroke="#63b8ff" d="M547.4,-234.06C530.38,-243.78 511.29,-254.38 494.09,-263.66"/>
<polygon fill="#63b8ff" stroke="#63b8ff" points="548.91,-237.23 555.83,-229.21 545.42,-231.16 548.91,-237.23"/>
</g>
<!-- Node11&#45;&gt;Node7 -->
<g id="edge17" class="edge">
<title>Node11&#45;&gt;Node7</title>
<path fill="none" stroke="#63b8ff" d="M530.4,-170.76C508.71,-160.84 484.83,-149.92 464,-140.39"/>
<polygon fill="#63b8ff" stroke="#63b8ff" points="528.93,-173.94 539.48,-174.92 531.84,-167.57 528.93,-173.94"/>
</g>
<!-- Node11&#45;&gt;Node10 -->
<g id="edge18" class="edge">
<title>Node11&#45;&gt;Node10</title>
<path fill="none" stroke="#63b8ff" d="M604.13,-164.54C605.83,-156.43 607.59,-148.01 609.17,-140.45"/>
<polygon fill="#63b8ff" stroke="#63b8ff" points="600.74,-163.68 602.11,-174.18 607.59,-165.11 600.74,-163.68"/>
</g>
<!-- Node11&#45;&gt;Node12 -->
<g id="edge19" class="edge">
<title>Node11&#45;&gt;Node12</title>
<path fill="none" stroke="#63b8ff" d="M661.54,-170.76C682.89,-160.84 706.39,-149.92 726.89,-140.39"/>
<polygon fill="#63b8ff" stroke="#63b8ff" points="660.22,-167.52 652.63,-174.91 663.17,-173.87 660.22,-167.52"/>
</g>
<!-- Node12&#45;&gt;Node8 -->
<g id="edge20" class="edge">
<title>Node12&#45;&gt;Node8</title>
<path fill="none" stroke="#63b8ff" d="M717.33,-82.84C692.04,-70.96 663.68,-57.63 641.02,-46.98"/>
<polygon fill="#63b8ff" stroke="#63b8ff" points="715.67,-85.93 726.21,-87.02 718.65,-79.6 715.67,-85.93"/>
</g>
</g>
</svg>
