<?xml version="1.0" encoding="UTF-8" standalone="no"?>
<!DOCTYPE svg PUBLIC "-//W3C//DTD SVG 1.1//EN"
 "http://www.w3.org/Graphics/SVG/1.1/DTD/svg11.dtd">
<!-- Generated by graphviz version 7.0.2 (20221119.0110)
 -->
<!-- Title: Graphical Class Hierarchy Pages: 1 -->
<svg width="227pt" height="101pt"
 viewBox="0.00 0.00 227.00 101.00" xmlns="http://www.w3.org/2000/svg" xmlns:xlink="http://www.w3.org/1999/xlink">
<g id="graph0" class="graph" transform="scale(1 1) rotate(0) translate(4 97)">
<title>Graphical Class Hierarchy</title>
<!-- Node0 -->
<g id="node1" class="node">
<title>Node0</title>
<g id="a_node1"><a xlink:href="class_abstract__state.html" target="_top" xlink:title="Clase base para implementar los estados de Control_system. Cada estado se debe ocupar de su comportam...">
<polygon fill="white" stroke="#666666" points="80,-56 0,-56 0,-37 80,-37 80,-56"/>
<text text-anchor="middle" x="40" y="-44" font-family="Helvetica,sans-Serif" font-size="10.00">Abstract_state</text>
</a>
</g>
</g>
<!-- Node1 -->
<g id="node2" class="node">
<title>Node1</title>
<g id="a_node2"><a xlink:href="class_idle__state.html" target="_top" xlink:title="Clase para implementar el estado de reposo del sistema (Sin alarmas ni advertencias,...">
<polygon fill="white" stroke="#666666" points="197,-93 138,-93 138,-74 197,-74 197,-93"/>
<text text-anchor="middle" x="167.5" y="-81" font-family="Helvetica,sans-Serif" font-size="10.00">Idle_state</text>
</a>
</g>
</g>
<!-- Node0&#45;&gt;Node1 -->
<g id="edge1" class="edge">
<title>Node0&#45;&gt;Node1</title>
<path fill="none" stroke="#63b8ff" d="M85.2,-59.53C102.7,-64.69 122.31,-70.47 137.88,-75.06"/>
<polygon fill="#63b8ff" stroke="#63b8ff" points="86.67,-56.31 76.08,-56.84 84.69,-63.03 86.67,-56.31"/>
</g>
<!-- Node2 -->
<g id="node3" class="node">
<title>Node2</title>
<g id="a_node3"><a xlink:href="class_motor__control__state.html" target="_top" xlink:title=" ">
<polygon fill="white" stroke="#666666" points="219,-56 116,-56 116,-37 219,-37 219,-56"/>
<text text-anchor="middle" x="167.5" y="-44" font-family="Helvetica,sans-Serif" font-size="10.00">Motor_control_state</text>
</a>
</g>
</g>
<!-- Node0&#45;&gt;Node2 -->
<g id="edge2" class="edge">
<title>Node0&#45;&gt;Node2</title>
<path fill="none" stroke="#63b8ff" d="M91.72,-46.5C99.64,-46.5 107.82,-46.5 115.75,-46.5"/>
<polygon fill="#63b8ff" stroke="#63b8ff" points="91.88,-43 81.88,-46.5 91.88,-50 91.88,-43"/>
</g>
<!-- Node3 -->
<g id="node4" class="node">
<title>Node3</title>
<g id="a_node4"><a xlink:href="class_shutdown__state.html" target="_top" xlink:title=" ">
<polygon fill="white" stroke="#666666" points="210.5,-19 124.5,-19 124.5,0 210.5,0 210.5,-19"/>
<text text-anchor="middle" x="167.5" y="-7" font-family="Helvetica,sans-Serif" font-size="10.00">Shutdown_state</text>
</a>
</g>
</g>
<!-- Node0&#45;&gt;Node3 -->
<g id="edge3" class="edge">
<title>Node0&#45;&gt;Node3</title>
<path fill="none" stroke="#63b8ff" d="M85.59,-33.35C101.12,-28.78 118.27,-23.72 132.78,-19.44"/>
<polygon fill="#63b8ff" stroke="#63b8ff" points="84.69,-29.97 76.08,-36.16 86.67,-36.69 84.69,-29.97"/>
</g>
</g>
</svg>
