<?xml version="1.0" encoding="UTF-8" standalone="no"?>
<!DOCTYPE svg PUBLIC "-//W3C//DTD SVG 1.1//EN"
 "http://www.w3.org/Graphics/SVG/1.1/DTD/svg11.dtd">
<!-- Generated by graphviz version 7.0.2 (20221119.0110)
 -->
<!-- Title: C:/Users/juanh/OneDrive/Escritorio/Facultad/Beca/Proyecto/LAL_Control/include/main.h Pages: 1 -->
<svg width="1851pt" height="478pt"
 viewBox="0.00 0.00 1850.83 478.00" xmlns="http://www.w3.org/2000/svg" xmlns:xlink="http://www.w3.org/1999/xlink">
<g id="graph0" class="graph" transform="scale(1 1) rotate(0) translate(4 474)">
<title>C:/Users/juanh/OneDrive/Escritorio/Facultad/Beca/Proyecto/LAL_Control/include/main.h</title>
<!-- Node1 -->
<g id="node1" class="node">
<title>Node1</title>
<g id="a_node1"><a xlink:title="Archivo principal del programa.">
<polygon fill="#999999" stroke="#666666" points="1256.5,-470 1075.5,-470 1075.5,-429 1256.5,-429 1256.5,-470"/>
<text text-anchor="start" x="1083.5" y="-458" font-family="Helvetica,sans-Serif" font-size="10.00">C:/Users/juanh/OneDrive</text>
<text text-anchor="start" x="1083.5" y="-447" font-family="Helvetica,sans-Serif" font-size="10.00">/Escritorio/Facultad/Beca</text>
<text text-anchor="middle" x="1166" y="-436" font-family="Helvetica,sans-Serif" font-size="10.00">/Proyecto/LAL_Control/include/main.h</text>
</a>
</g>
</g>
<!-- Node2 -->
<g id="node2" class="node">
<title>Node2</title>
<g id="a_node2"><a xlink:title=" ">
<polygon fill="#e0e0e0" stroke="#999999" points="1651,-184 1593,-184 1593,-165 1651,-165 1651,-184"/>
<text text-anchor="middle" x="1622" y="-172" font-family="Helvetica,sans-Serif" font-size="10.00">Arduino.h</text>
</a>
</g>
</g>
<!-- Node1&#45;&gt;Node2 -->
<g id="edge1" class="edge">
<title>Node1&#45;&gt;Node2</title>
<path fill="none" stroke="#63b8ff" d="M1256.85,-445.84C1421.21,-438.87 1757.51,-414.08 1828,-327 1847.62,-302.76 1852.79,-277.07 1804,-231 1756.04,-185.7 1721.75,-218.21 1660,-195 1655.94,-193.48 1651.76,-191.63 1647.72,-189.69"/>
<polygon fill="#63b8ff" stroke="#63b8ff" points="1649.38,-186.61 1638.88,-185.18 1646.2,-192.84 1649.38,-186.61"/>
</g>
<!-- Node3 -->
<g id="node3" class="node">
<title>Node3</title>
<g id="a_node3"><a xlink:href="_control__system_8h_source.html" target="_top" xlink:title=" ">
<polygon fill="white" stroke="#666666" points="910.5,-327 817.5,-327 817.5,-308 910.5,-308 910.5,-327"/>
<text text-anchor="middle" x="864" y="-315" font-family="Helvetica,sans-Serif" font-size="10.00">Control_system.h</text>
</a>
</g>
</g>
<!-- Node1&#45;&gt;Node3 -->
<g id="edge2" class="edge">
<title>Node1&#45;&gt;Node3</title>
<path fill="none" stroke="#63b8ff" d="M1075.19,-437.29C1032.51,-429.28 982.1,-415.74 941,-393 927.23,-385.38 898.03,-355.29 879.8,-335.76"/>
<polygon fill="#63b8ff" stroke="#63b8ff" points="882.47,-333.48 873.11,-328.52 877.33,-338.23 882.47,-333.48"/>
</g>
<!-- Node19 -->
<g id="node19" class="node">
<title>Node19</title>
<g id="a_node19"><a xlink:href="system__settings_8h.html" target="_top" xlink:title="Archivo para la definición de constantes del sistema.">
<polygon fill="white" stroke="#666666" points="1395.5,-184 1298.5,-184 1298.5,-165 1395.5,-165 1395.5,-184"/>
<text text-anchor="middle" x="1347" y="-172" font-family="Helvetica,sans-Serif" font-size="10.00">system_settings.h</text>
</a>
</g>
</g>
<!-- Node1&#45;&gt;Node19 -->
<g id="edge50" class="edge">
<title>Node1&#45;&gt;Node19</title>
<path fill="none" stroke="#63b8ff" d="M1197.32,-428.64C1211.5,-418.85 1227.95,-406.3 1241,-393 1287.2,-345.9 1300.63,-332.48 1327,-272 1337.88,-247.04 1342.96,-215.82 1345.25,-195.77"/>
<polygon fill="#63b8ff" stroke="#63b8ff" points="1348.73,-196.19 1346.23,-185.89 1341.76,-195.5 1348.73,-196.19"/>
</g>
<!-- Node32 -->
<g id="node32" class="node">
<title>Node32</title>
<g id="a_node32"><a xlink:href="interrupts_8h.html" target="_top" xlink:title="Configuración de interrupciones.">
<polygon fill="white" stroke="#666666" points="1818.5,-327 1753.5,-327 1753.5,-308 1818.5,-308 1818.5,-327"/>
<text text-anchor="middle" x="1786" y="-315" font-family="Helvetica,sans-Serif" font-size="10.00">interrupts.h</text>
</a>
</g>
</g>
<!-- Node1&#45;&gt;Node32 -->
<g id="edge51" class="edge">
<title>Node1&#45;&gt;Node32</title>
<path fill="none" stroke="#63b8ff" d="M1256.82,-429.46C1392.06,-401.1 1641.24,-348.85 1742,-327.73"/>
<polygon fill="#63b8ff" stroke="#63b8ff" points="1742.71,-331.15 1751.77,-325.68 1741.27,-324.3 1742.71,-331.15"/>
</g>
<!-- Node33 -->
<g id="node33" class="node">
<title>Node33</title>
<g id="a_node33"><a xlink:href="_instruction__observer_8h.html" target="_top" xlink:title="Observador de instrucciones.">
<polygon fill="white" stroke="#666666" points="894,-393 762,-393 762,-363 894,-363 894,-393"/>
<text text-anchor="start" x="770" y="-381" font-family="Helvetica,sans-Serif" font-size="10.00">observer_pattern/observers</text>
<text text-anchor="middle" x="828" y="-370" font-family="Helvetica,sans-Serif" font-size="10.00">/Instruction_observer.h</text>
</a>
</g>
</g>
<!-- Node1&#45;&gt;Node33 -->
<g id="edge53" class="edge">
<title>Node1&#45;&gt;Node33</title>
<path fill="none" stroke="#63b8ff" d="M1075.42,-429.88C1022.43,-418.98 956.22,-405.36 905.62,-394.96"/>
<polygon fill="#63b8ff" stroke="#63b8ff" points="906.41,-391.55 895.91,-392.96 905,-398.41 906.41,-391.55"/>
</g>
<!-- Node34 -->
<g id="node34" class="node">
<title>Node34</title>
<g id="a_node34"><a xlink:href="_temperature__observer_8h.html" target="_top" xlink:title="Observador del sensor de temperatura.">
<polygon fill="white" stroke="#666666" points="1082,-393 950,-393 950,-363 1082,-363 1082,-393"/>
<text text-anchor="start" x="958" y="-381" font-family="Helvetica,sans-Serif" font-size="10.00">observer_pattern/observers</text>
<text text-anchor="middle" x="1016" y="-370" font-family="Helvetica,sans-Serif" font-size="10.00">/Temperature_observer.h</text>
</a>
</g>
</g>
<!-- Node1&#45;&gt;Node34 -->
<g id="edge56" class="edge">
<title>Node1&#45;&gt;Node34</title>
<path fill="none" stroke="#63b8ff" d="M1123.02,-428.58C1102.37,-419.02 1077.75,-407.61 1057.33,-398.15"/>
<polygon fill="#63b8ff" stroke="#63b8ff" points="1058.99,-395.06 1048.45,-394.03 1056.05,-401.41 1058.99,-395.06"/>
</g>
<!-- Node35 -->
<g id="node35" class="node">
<title>Node35</title>
<g id="a_node35"><a xlink:href="_moisture__observer_8h.html" target="_top" xlink:title="Observador del sensor de temperatura.">
<polygon fill="white" stroke="#666666" points="1232,-393 1100,-393 1100,-363 1232,-363 1232,-393"/>
<text text-anchor="start" x="1108" y="-381" font-family="Helvetica,sans-Serif" font-size="10.00">observer_pattern/observers</text>
<text text-anchor="middle" x="1166" y="-370" font-family="Helvetica,sans-Serif" font-size="10.00">/Moisture_observer.h</text>
</a>
</g>
</g>
<!-- Node1&#45;&gt;Node35 -->
<g id="edge62" class="edge">
<title>Node1&#45;&gt;Node35</title>
<path fill="none" stroke="#63b8ff" d="M1166,-428.77C1166,-421.31 1166,-412.7 1166,-404.77"/>
<polygon fill="#63b8ff" stroke="#63b8ff" points="1169.5,-404.99 1166,-394.99 1162.5,-404.99 1169.5,-404.99"/>
</g>
<!-- Node4 -->
<g id="node4" class="node">
<title>Node4</title>
<g id="a_node4"><a xlink:href="_subject_8h.html" target="_top" xlink:title=" ">
<polygon fill="white" stroke="#666666" points="1797,-189.5 1669,-189.5 1669,-159.5 1797,-159.5 1797,-189.5"/>
<text text-anchor="start" x="1677" y="-177.5" font-family="Helvetica,sans-Serif" font-size="10.00">observer_pattern/subjects</text>
<text text-anchor="middle" x="1733" y="-166.5" font-family="Helvetica,sans-Serif" font-size="10.00">/Subject.h</text>
</a>
</g>
</g>
<!-- Node3&#45;&gt;Node4 -->
<g id="edge3" class="edge">
<title>Node3&#45;&gt;Node4</title>
<path fill="none" stroke="#63b8ff" d="M910.81,-315.63C1084.48,-312.2 1683.47,-298.47 1714,-272 1733.81,-254.82 1736.69,-223.53 1735.82,-201.24"/>
<polygon fill="#63b8ff" stroke="#63b8ff" points="1739.33,-201.17 1735.15,-191.43 1732.34,-201.65 1739.33,-201.17"/>
</g>
<!-- Node7 -->
<g id="node7" class="node">
<title>Node7</title>
<g id="a_node7"><a xlink:href="_machine_8h.html" target="_top" xlink:title="Clase de máquina abstracta.">
<polygon fill="white" stroke="#666666" points="144,-112.5 28,-112.5 28,-82.5 144,-82.5 144,-112.5"/>
<text text-anchor="start" x="36" y="-100.5" font-family="Helvetica,sans-Serif" font-size="10.00">machine_state_pattern</text>
<text text-anchor="middle" x="86" y="-89.5" font-family="Helvetica,sans-Serif" font-size="10.00">/Machine.h</text>
</a>
</g>
</g>
<!-- Node3&#45;&gt;Node7 -->
<g id="edge6" class="edge">
<title>Node3&#45;&gt;Node7</title>
<path fill="none" stroke="#63b8ff" d="M817.09,-314.34C672.75,-307.55 243.33,-286.26 217,-272 155.4,-238.64 114.26,-162.44 96.29,-123.07"/>
<polygon fill="#63b8ff" stroke="#63b8ff" points="99.6,-121.9 92.36,-114.17 93.2,-124.73 99.6,-121.9"/>
</g>
<!-- Node9 -->
<g id="node9" class="node">
<title>Node9</title>
<g id="a_node9"><a xlink:href="_display_8h.html" target="_top" xlink:title="Controlador de LCD hd44780 por interfaz I2C.">
<polygon fill="white" stroke="#666666" points="683,-261 595,-261 595,-242 683,-242 683,-261"/>
<text text-anchor="middle" x="639" y="-249" font-family="Helvetica,sans-Serif" font-size="10.00">drivers/Display.h</text>
</a>
</g>
</g>
<!-- Node3&#45;&gt;Node9 -->
<g id="edge8" class="edge">
<title>Node3&#45;&gt;Node9</title>
<path fill="none" stroke="#63b8ff" d="M824.75,-307.52C789.68,-299.22 737.04,-286.08 692,-272 685.59,-270 678.81,-267.67 672.32,-265.33"/>
<polygon fill="#63b8ff" stroke="#63b8ff" points="673.8,-262.15 663.21,-261.97 671.38,-268.71 673.8,-262.15"/>
</g>
<!-- Node14 -->
<g id="node14" class="node">
<title>Node14</title>
<g id="a_node14"><a xlink:href="user__messages_8h.html" target="_top" xlink:title="Archivo para la configuración de interfaz con el usuario.">
<polygon fill="white" stroke="#666666" points="795,-261 701,-261 701,-242 795,-242 795,-261"/>
<text text-anchor="middle" x="748" y="-249" font-family="Helvetica,sans-Serif" font-size="10.00">user_messages.h</text>
</a>
</g>
</g>
<!-- Node3&#45;&gt;Node14 -->
<g id="edge13" class="edge">
<title>Node3&#45;&gt;Node14</title>
<path fill="none" stroke="#63b8ff" d="M847.87,-307.6C828.74,-297.05 796.59,-279.31 773.95,-266.82"/>
<polygon fill="#63b8ff" stroke="#63b8ff" points="775.76,-263.82 765.32,-262.05 772.38,-269.95 775.76,-263.82"/>
</g>
<!-- Node16 -->
<g id="node16" class="node">
<title>Node16</title>
<g id="a_node16"><a xlink:href="_system__observer_8h.html" target="_top" xlink:title="Clase observador del sistema de control.">
<polygon fill="white" stroke="#666666" points="132,-266.5 0,-266.5 0,-236.5 132,-236.5 132,-266.5"/>
<text text-anchor="start" x="8" y="-254.5" font-family="Helvetica,sans-Serif" font-size="10.00">observer_pattern/observers</text>
<text text-anchor="middle" x="66" y="-243.5" font-family="Helvetica,sans-Serif" font-size="10.00">/System_observer.h</text>
</a>
</g>
</g>
<!-- Node3&#45;&gt;Node16 -->
<g id="edge15" class="edge">
<title>Node3&#45;&gt;Node16</title>
<path fill="none" stroke="#63b8ff" d="M817.03,-313.59C792.67,-311.9 762.66,-309.75 736,-308 469.87,-290.5 400.73,-311.74 137,-272 132.01,-271.25 126.89,-270.33 121.77,-269.32"/>
<polygon fill="#63b8ff" stroke="#63b8ff" points="122.64,-265.92 112.13,-267.26 121.18,-272.77 122.64,-265.92"/>
</g>
<!-- Node18 -->
<g id="node18" class="node">
<title>Node18</title>
<g id="a_node18"><a xlink:href="_temperature__sensor_8h.html" target="_top" xlink:title="Controlador para sensor de temperatura DS18B20.">
<polygon fill="white" stroke="#666666" points="914.5,-266.5 813.5,-266.5 813.5,-236.5 914.5,-236.5 914.5,-266.5"/>
<text text-anchor="start" x="821.5" y="-254.5" font-family="Helvetica,sans-Serif" font-size="10.00">drivers/Temperature</text>
<text text-anchor="middle" x="864" y="-243.5" font-family="Helvetica,sans-Serif" font-size="10.00">_sensor.h</text>
</a>
</g>
</g>
<!-- Node3&#45;&gt;Node18 -->
<g id="edge20" class="edge">
<title>Node3&#45;&gt;Node18</title>
<path fill="none" stroke="#63b8ff" d="M864,-307.6C864,-299.91 864,-288.42 864,-277.92"/>
<polygon fill="#63b8ff" stroke="#63b8ff" points="867.5,-278.25 864,-268.25 860.5,-278.25 867.5,-278.25"/>
</g>
<!-- Node22 -->
<g id="node22" class="node">
<title>Node22</title>
<g id="a_node22"><a xlink:href="_moisture__sensor_8h.html" target="_top" xlink:title="Controlador de sensor de humedad analógico.">
<polygon fill="white" stroke="#666666" points="1705,-261 1577,-261 1577,-242 1705,-242 1705,-261"/>
<text text-anchor="middle" x="1641" y="-249" font-family="Helvetica,sans-Serif" font-size="10.00">drivers/Moisture_sensor.h</text>
</a>
</g>
</g>
<!-- Node3&#45;&gt;Node22 -->
<g id="edge24" class="edge">
<title>Node3&#45;&gt;Node22</title>
<path fill="none" stroke="#63b8ff" d="M910.76,-314.75C1046.79,-309.48 1440.79,-292.8 1568,-272 1579.15,-270.18 1591.05,-267.38 1601.94,-264.46"/>
<polygon fill="#63b8ff" stroke="#63b8ff" points="1602.71,-267.88 1611.4,-261.82 1600.83,-261.14 1602.71,-267.88"/>
</g>
<!-- Node23 -->
<g id="node23" class="node">
<title>Node23</title>
<g id="a_node23"><a xlink:href="types_8h.html" target="_top" xlink:title="Archivo de definición de tipos de dato.">
<polygon fill="white" stroke="#666666" points="1280.5,-184 1231.5,-184 1231.5,-165 1280.5,-165 1280.5,-184"/>
<text text-anchor="middle" x="1256" y="-172" font-family="Helvetica,sans-Serif" font-size="10.00">types.h</text>
</a>
</g>
</g>
<!-- Node3&#45;&gt;Node23 -->
<g id="edge26" class="edge">
<title>Node3&#45;&gt;Node23</title>
<path fill="none" stroke="#63b8ff" d="M876.49,-307.66C888.64,-298.93 907.47,-285.03 923,-272 943.48,-254.82 942.88,-242.51 967,-231 1070.3,-181.71 1113.74,-232.14 1222,-195 1225.85,-193.68 1229.76,-191.91 1233.48,-189.98"/>
<polygon fill="#63b8ff" stroke="#63b8ff" points="1235.08,-193.1 1242,-185.07 1231.59,-187.03 1235.08,-193.1"/>
</g>
<!-- Node24 -->
<g id="node24" class="node">
<title>Node24</title>
<g id="a_node24"><a xlink:href="_buzzer_8h.html" target="_top" xlink:title="Controlador de Buzzer de 12 milimetros.">
<polygon fill="white" stroke="#666666" points="1461,-261 1375,-261 1375,-242 1461,-242 1461,-261"/>
<text text-anchor="middle" x="1418" y="-249" font-family="Helvetica,sans-Serif" font-size="10.00">drivers/Buzzer.h</text>
</a>
</g>
</g>
<!-- Node3&#45;&gt;Node24 -->
<g id="edge27" class="edge">
<title>Node3&#45;&gt;Node24</title>
<path fill="none" stroke="#63b8ff" d="M910.88,-313.79C994.73,-308.54 1175.77,-295.39 1327,-272 1340.97,-269.84 1356.02,-266.88 1369.78,-263.91"/>
<polygon fill="#63b8ff" stroke="#63b8ff" points="1370.5,-267.34 1379.51,-261.77 1368.99,-260.51 1370.5,-267.34"/>
</g>
<!-- Node26 -->
<g id="node26" class="node">
<title>Node26</title>
<g id="a_node26"><a xlink:href="_motor_8h.html" target="_top" xlink:title="Controlador de motor de 220 VAC.">
<polygon fill="white" stroke="#666666" points="1559,-261 1479,-261 1479,-242 1559,-242 1559,-261"/>
<text text-anchor="middle" x="1519" y="-249" font-family="Helvetica,sans-Serif" font-size="10.00">drivers/Motor.h</text>
</a>
</g>
</g>
<!-- Node3&#45;&gt;Node26 -->
<g id="edge30" class="edge">
<title>Node3&#45;&gt;Node26</title>
<path fill="none" stroke="#63b8ff" d="M910.86,-314.91C1033.85,-310.43 1363.72,-296.44 1470,-272 1476.63,-270.48 1483.54,-268.19 1490.01,-265.72"/>
<polygon fill="#63b8ff" stroke="#63b8ff" points="1491.03,-269.09 1498.95,-262.06 1488.37,-262.61 1491.03,-269.09"/>
</g>
<!-- Node27 -->
<g id="node27" class="node">
<title>Node27</title>
<g id="a_node27"><a xlink:href="_dual___l_e_d_8h.html" target="_top" xlink:title="Controlador de LED RG.">
<polygon fill="white" stroke="#666666" points="1140.5,-261 1047.5,-261 1047.5,-242 1140.5,-242 1140.5,-261"/>
<text text-anchor="middle" x="1094" y="-249" font-family="Helvetica,sans-Serif" font-size="10.00">drivers/Dual_led.h</text>
</a>
</g>
</g>
<!-- Node3&#45;&gt;Node27 -->
<g id="edge33" class="edge">
<title>Node3&#45;&gt;Node27</title>
<path fill="none" stroke="#63b8ff" d="M895.98,-307.6C936.38,-296.36 1006.03,-276.98 1051.04,-264.45"/>
<polygon fill="#63b8ff" stroke="#63b8ff" points="1051.77,-267.88 1060.46,-261.83 1049.89,-261.14 1051.77,-267.88"/>
</g>
<!-- Node28 -->
<g id="node28" class="node">
<title>Node28</title>
<g id="a_node28"><a xlink:href="_cooler_8h.html" target="_top" xlink:title="Controlador de ventilador de 12 volts y 5 milímteros.">
<polygon fill="white" stroke="#666666" points="1318.5,-261 1235.5,-261 1235.5,-242 1318.5,-242 1318.5,-261"/>
<text text-anchor="middle" x="1277" y="-249" font-family="Helvetica,sans-Serif" font-size="10.00">drivers/Cooler.h</text>
</a>
</g>
</g>
<!-- Node3&#45;&gt;Node28 -->
<g id="edge37" class="edge">
<title>Node3&#45;&gt;Node28</title>
<path fill="none" stroke="#63b8ff" d="M910.97,-309.22C988.51,-297.21 1142.78,-273.3 1224.06,-260.7"/>
<polygon fill="#63b8ff" stroke="#63b8ff" points="1224.19,-264.23 1233.54,-259.24 1223.12,-257.31 1224.19,-264.23"/>
</g>
<!-- Node29 -->
<g id="node29" class="node">
<title>Node29</title>
<g id="a_node29"><a xlink:href="_shutdown__state_8h.html" target="_top" xlink:title="Clase de estado de apagado del sistema.">
<polygon fill="white" stroke="#666666" points="551,-272 417,-272 417,-231 551,-231 551,-272"/>
<text text-anchor="start" x="425" y="-260" font-family="Helvetica,sans-Serif" font-size="10.00">machine_state_pattern</text>
<text text-anchor="start" x="425" y="-249" font-family="Helvetica,sans-Serif" font-size="10.00">/machine_states/Shutdown</text>
<text text-anchor="middle" x="484" y="-238" font-family="Helvetica,sans-Serif" font-size="10.00">_state.h</text>
</a>
</g>
</g>
<!-- Node3&#45;&gt;Node29 -->
<g id="edge40" class="edge">
<title>Node3&#45;&gt;Node29</title>
<path fill="none" stroke="#63b8ff" d="M817.3,-310.4C760.22,-302.16 661.25,-286.79 577,-272 572.17,-271.15 567.23,-270.27 562.24,-269.36"/>
<polygon fill="#63b8ff" stroke="#63b8ff" points="563.27,-265.99 552.8,-267.61 562,-272.87 563.27,-265.99"/>
</g>
<!-- Node5 -->
<g id="node5" class="node">
<title>Node5</title>
<g id="a_node5"><a xlink:href="_subject__interface_8h.html" target="_top" xlink:title="Clase para interfaz para implementar el sujeto.">
<polygon fill="white" stroke="#666666" points="1524,-112.5 1396,-112.5 1396,-82.5 1524,-82.5 1524,-112.5"/>
<text text-anchor="start" x="1404" y="-100.5" font-family="Helvetica,sans-Serif" font-size="10.00">observer_pattern/subjects</text>
<text text-anchor="middle" x="1460" y="-89.5" font-family="Helvetica,sans-Serif" font-size="10.00">/Subject_interface.h</text>
</a>
</g>
</g>
<!-- Node4&#45;&gt;Node5 -->
<g id="edge4" class="edge">
<title>Node4&#45;&gt;Node5</title>
<path fill="none" stroke="#63b8ff" d="M1680.36,-159.04C1635.51,-146.72 1570.95,-128.98 1523.29,-115.89"/>
<polygon fill="#63b8ff" stroke="#63b8ff" points="1524.5,-112.59 1513.94,-113.32 1522.65,-119.34 1524.5,-112.59"/>
</g>
<!-- Node6 -->
<g id="node6" class="node">
<title>Node6</title>
<g id="a_node6"><a xlink:href="_observer__interface_8h.html" target="_top" xlink:title="Clase para interfaz para implementar el observador.">
<polygon fill="white" stroke="#666666" points="1087,-112.5 955,-112.5 955,-82.5 1087,-82.5 1087,-112.5"/>
<text text-anchor="start" x="963" y="-100.5" font-family="Helvetica,sans-Serif" font-size="10.00">observer_pattern/observers</text>
<text text-anchor="middle" x="1021" y="-89.5" font-family="Helvetica,sans-Serif" font-size="10.00">/Observer_interface.h</text>
</a>
</g>
</g>
<!-- Node4&#45;&gt;Node6 -->
<g id="edge5" class="edge">
<title>Node4&#45;&gt;Node6</title>
<path fill="none" stroke="#63b8ff" d="M1683.39,-159.01C1675.61,-157.1 1667.62,-155.34 1660,-154 1459.45,-118.78 1219.39,-105.56 1098.58,-100.88"/>
<polygon fill="#63b8ff" stroke="#63b8ff" points="1098.9,-97.39 1088.78,-100.51 1098.64,-104.38 1098.9,-97.39"/>
</g>
<!-- Node8 -->
<g id="node8" class="node">
<title>Node8</title>
<g id="a_node8"><a xlink:href="_abstract__state_8h.html" target="_top" xlink:title="Clase de estado abstracta.">
<polygon fill="white" stroke="#666666" points="327,-41 199,-41 199,0 327,0 327,-41"/>
<text text-anchor="start" x="207" y="-29" font-family="Helvetica,sans-Serif" font-size="10.00">machine_state_pattern</text>
<text text-anchor="start" x="207" y="-18" font-family="Helvetica,sans-Serif" font-size="10.00">/machine_states/Abstract</text>
<text text-anchor="middle" x="263" y="-7" font-family="Helvetica,sans-Serif" font-size="10.00">_state.h</text>
</a>
</g>
</g>
<!-- Node7&#45;&gt;Node8 -->
<g id="edge7" class="edge">
<title>Node7&#45;&gt;Node8</title>
<path fill="none" stroke="#63b8ff" d="M120.13,-82.04C144.27,-71.81 177.22,-57.85 205.39,-45.91"/>
<polygon fill="#63b8ff" stroke="#63b8ff" points="206.69,-49.16 214.54,-42.04 203.96,-42.71 206.69,-49.16"/>
</g>
<!-- Node10 -->
<g id="node10" class="node">
<title>Node10</title>
<g id="a_node10"><a xlink:title=" ">
<polygon fill="#e0e0e0" stroke="#999999" points="567.5,-184 522.5,-184 522.5,-165 567.5,-165 567.5,-184"/>
<text text-anchor="middle" x="545" y="-172" font-family="Helvetica,sans-Serif" font-size="10.00">Wire.h</text>
</a>
</g>
</g>
<!-- Node9&#45;&gt;Node10 -->
<g id="edge9" class="edge">
<title>Node9&#45;&gt;Node10</title>
<path fill="none" stroke="#63b8ff" d="M627.85,-241.6C612.37,-229.25 584.13,-206.72 564.97,-191.43"/>
<polygon fill="#63b8ff" stroke="#63b8ff" points="567.32,-188.83 557.32,-185.33 562.95,-194.3 567.32,-188.83"/>
</g>
<!-- Node11 -->
<g id="node11" class="node">
<title>Node11</title>
<g id="a_node11"><a xlink:title=" ">
<polygon fill="#e0e0e0" stroke="#999999" points="648,-184 586,-184 586,-165 648,-165 648,-184"/>
<text text-anchor="middle" x="617" y="-172" font-family="Helvetica,sans-Serif" font-size="10.00">hd44780.h</text>
</a>
</g>
</g>
<!-- Node9&#45;&gt;Node11 -->
<g id="edge10" class="edge">
<title>Node9&#45;&gt;Node11</title>
<path fill="none" stroke="#63b8ff" d="M636.39,-241.6C633.05,-230.21 627.17,-210.16 622.75,-195.11"/>
<polygon fill="#63b8ff" stroke="#63b8ff" points="626.21,-194.45 620.03,-185.84 619.49,-196.42 626.21,-194.45"/>
</g>
<!-- Node12 -->
<g id="node12" class="node">
<title>Node12</title>
<g id="a_node12"><a xlink:title=" ">
<polygon fill="#e0e0e0" stroke="#999999" points="791.5,-189.5 666.5,-189.5 666.5,-159.5 791.5,-159.5 791.5,-189.5"/>
<text text-anchor="start" x="674.5" y="-177.5" font-family="Helvetica,sans-Serif" font-size="10.00">hd44780ioClass/hd44780</text>
<text text-anchor="middle" x="729" y="-166.5" font-family="Helvetica,sans-Serif" font-size="10.00">_I2Cexp.h</text>
</a>
</g>
</g>
<!-- Node9&#45;&gt;Node12 -->
<g id="edge11" class="edge">
<title>Node9&#45;&gt;Node12</title>
<path fill="none" stroke="#63b8ff" d="M649.68,-241.6C662.76,-230.7 685.38,-211.85 703.12,-197.06"/>
<polygon fill="#63b8ff" stroke="#63b8ff" points="705.28,-199.83 710.72,-190.73 700.8,-194.45 705.28,-199.83"/>
</g>
<!-- Node13 -->
<g id="node13" class="node">
<title>Node13</title>
<g id="a_node13"><a xlink:href="display__settings_8h.html" target="_top" xlink:title="Archivo de configuración de la pantalla.">
<polygon fill="white" stroke="#666666" points="904.5,-184 809.5,-184 809.5,-165 904.5,-165 904.5,-184"/>
<text text-anchor="middle" x="857" y="-172" font-family="Helvetica,sans-Serif" font-size="10.00">display_settings.h</text>
</a>
</g>
</g>
<!-- Node9&#45;&gt;Node13 -->
<g id="edge12" class="edge">
<title>Node9&#45;&gt;Node13</title>
<path fill="none" stroke="#63b8ff" d="M662.95,-241.51C672.03,-238.15 682.47,-234.34 692,-231 739.75,-214.26 752.06,-211.19 800,-195 806.47,-192.81 813.36,-190.47 820.02,-188.2"/>
<polygon fill="#63b8ff" stroke="#63b8ff" points="821.15,-191.51 829.48,-184.96 818.88,-184.89 821.15,-191.51"/>
</g>
<!-- Node15 -->
<g id="node15" class="node">
<title>Node15</title>
<g id="a_node15"><a xlink:title=" ">
<polygon fill="#e0e0e0" stroke="#999999" points="1007.5,-184 922.5,-184 922.5,-165 1007.5,-165 1007.5,-184"/>
<text text-anchor="middle" x="965" y="-172" font-family="Helvetica,sans-Serif" font-size="10.00">avr/pgmspace.h</text>
</a>
</g>
</g>
<!-- Node14&#45;&gt;Node15 -->
<g id="edge14" class="edge">
<title>Node14&#45;&gt;Node15</title>
<path fill="none" stroke="#63b8ff" d="M773.34,-241.58C782.93,-238.23 793.96,-234.41 804,-231 852.31,-214.61 864.88,-211.96 913,-195 918.91,-192.92 925.17,-190.63 931.23,-188.39"/>
<polygon fill="#63b8ff" stroke="#63b8ff" points="932.22,-191.75 940.36,-184.97 929.77,-185.2 932.22,-191.75"/>
</g>
<!-- Node16&#45;&gt;Node3 -->
<g id="edge19" class="edge">
<title>Node16&#45;&gt;Node3</title>
<path fill="none" stroke="#63b8ff" d="M128.41,-266.94C137.32,-268.91 146.38,-270.7 155,-272 418.73,-311.74 487.87,-290.5 754,-308 770.88,-309.11 789.09,-310.38 805.79,-311.59"/>
<polygon fill="#63b8ff" stroke="#63b8ff" points="805.33,-315.06 815.56,-312.3 805.84,-308.08 805.33,-315.06"/>
</g>
<!-- Node17 -->
<g id="node17" class="node">
<title>Node17</title>
<g id="a_node17"><a xlink:href="_observer_8h.html" target="_top" xlink:title="Clase observador.">
<polygon fill="white" stroke="#666666" points="504,-189.5 372,-189.5 372,-159.5 504,-159.5 504,-189.5"/>
<text text-anchor="start" x="380" y="-177.5" font-family="Helvetica,sans-Serif" font-size="10.00">observer_pattern/observers</text>
<text text-anchor="middle" x="438" y="-166.5" font-family="Helvetica,sans-Serif" font-size="10.00">/Observer.h</text>
</a>
</g>
</g>
<!-- Node16&#45;&gt;Node17 -->
<g id="edge16" class="edge">
<title>Node16&#45;&gt;Node17</title>
<path fill="none" stroke="#63b8ff" d="M132.08,-237.18C196.06,-224.28 293.04,-204.73 360.6,-191.1"/>
<polygon fill="#63b8ff" stroke="#63b8ff" points="361,-194.59 370.12,-189.19 359.62,-187.73 361,-194.59"/>
</g>
<!-- Node17&#45;&gt;Node5 -->
<g id="edge17" class="edge">
<title>Node17&#45;&gt;Node5</title>
<path fill="none" stroke="#63b8ff" d="M488.14,-159.02C496.39,-157.06 504.89,-155.28 513,-154 555.78,-147.25 1167.69,-114.12 1384.52,-102.52"/>
<polygon fill="#63b8ff" stroke="#63b8ff" points="1384.46,-106.03 1394.26,-102 1384.09,-99.04 1384.46,-106.03"/>
</g>
<!-- Node17&#45;&gt;Node6 -->
<g id="edge18" class="edge">
<title>Node17&#45;&gt;Node6</title>
<path fill="none" stroke="#63b8ff" d="M489.42,-159.08C497.28,-157.18 505.33,-155.41 513,-154 664.24,-126.23 843.54,-110.62 943.59,-103.44"/>
<polygon fill="#63b8ff" stroke="#63b8ff" points="943.56,-106.95 953.29,-102.75 943.06,-99.97 943.56,-106.95"/>
</g>
<!-- Node18&#45;&gt;Node19 -->
<g id="edge21" class="edge">
<title>Node18&#45;&gt;Node19</title>
<path fill="none" stroke="#63b8ff" d="M914.83,-244.43C1019.68,-231.81 1253.2,-203.27 1289,-195 1296.95,-193.16 1305.35,-190.67 1313.21,-188.09"/>
<polygon fill="#63b8ff" stroke="#63b8ff" points="1314.12,-191.48 1322.44,-184.92 1311.85,-184.86 1314.12,-191.48"/>
</g>
<!-- Node20 -->
<g id="node20" class="node">
<title>Node20</title>
<g id="a_node20"><a xlink:title=" ">
<polygon fill="#e0e0e0" stroke="#999999" points="1088.5,-184 1025.5,-184 1025.5,-165 1088.5,-165 1088.5,-184"/>
<text text-anchor="middle" x="1057" y="-172" font-family="Helvetica,sans-Serif" font-size="10.00">OneWire.h</text>
</a>
</g>
</g>
<!-- Node18&#45;&gt;Node20 -->
<g id="edge22" class="edge">
<title>Node18&#45;&gt;Node20</title>
<path fill="none" stroke="#63b8ff" d="M907,-236.01C937.67,-225.38 979.73,-210.21 1016,-195 1020.21,-193.23 1024.62,-191.27 1028.92,-189.28"/>
<polygon fill="#63b8ff" stroke="#63b8ff" points="1030.3,-192.5 1037.84,-185.06 1027.3,-186.18 1030.3,-192.5"/>
</g>
<!-- Node21 -->
<g id="node21" class="node">
<title>Node21</title>
<g id="a_node21"><a xlink:title=" ">
<polygon fill="#e0e0e0" stroke="#999999" points="1213,-184 1107,-184 1107,-165 1213,-165 1213,-184"/>
<text text-anchor="middle" x="1160" y="-172" font-family="Helvetica,sans-Serif" font-size="10.00">DallasTemperature.h</text>
</a>
</g>
</g>
<!-- Node18&#45;&gt;Node21 -->
<g id="edge23" class="edge">
<title>Node18&#45;&gt;Node21</title>
<path fill="none" stroke="#63b8ff" d="M910.39,-236.09C916.62,-234.3 922.95,-232.55 929,-231 1002.96,-212.01 1023.12,-214.31 1097,-195 1105.15,-192.87 1113.82,-190.35 1122.03,-187.85"/>
<polygon fill="#63b8ff" stroke="#63b8ff" points="1122.91,-191.24 1131.42,-184.93 1120.83,-184.56 1122.91,-191.24"/>
</g>
<!-- Node22&#45;&gt;Node2 -->
<g id="edge25" class="edge">
<title>Node22&#45;&gt;Node2</title>
<path fill="none" stroke="#63b8ff" d="M1638.75,-241.6C1635.86,-230.21 1630.78,-210.16 1626.97,-195.11"/>
<polygon fill="#63b8ff" stroke="#63b8ff" points="1630.47,-194.69 1624.62,-185.85 1623.69,-196.41 1630.47,-194.69"/>
</g>
<!-- Node24&#45;&gt;Node2 -->
<g id="edge28" class="edge">
<title>Node24&#45;&gt;Node2</title>
<path fill="none" stroke="#63b8ff" d="M1441.8,-241.53C1450.65,-238.2 1460.78,-234.41 1470,-231 1509.89,-216.24 1555.76,-199.52 1586.59,-188.33"/>
<polygon fill="#63b8ff" stroke="#63b8ff" points="1587.6,-191.69 1595.81,-184.99 1585.21,-185.11 1587.6,-191.69"/>
</g>
<!-- Node25 -->
<g id="node25" class="node">
<title>Node25</title>
<g id="a_node25"><a xlink:href="port__config_8h.html" target="_top" xlink:title="Archivo de configuración para los puertos de la placa donde se implementará el sistema.">
<polygon fill="white" stroke="#666666" points="1521,-184 1449,-184 1449,-165 1521,-165 1521,-184"/>
<text text-anchor="middle" x="1485" y="-172" font-family="Helvetica,sans-Serif" font-size="10.00">port_config.h</text>
</a>
</g>
</g>
<!-- Node24&#45;&gt;Node25 -->
<g id="edge29" class="edge">
<title>Node24&#45;&gt;Node25</title>
<path fill="none" stroke="#63b8ff" d="M1425.95,-241.6C1436.63,-229.65 1455.83,-208.15 1469.44,-192.92"/>
<polygon fill="#63b8ff" stroke="#63b8ff" points="1472,-195.3 1476.05,-185.52 1466.78,-190.64 1472,-195.3"/>
</g>
<!-- Node26&#45;&gt;Node2 -->
<g id="edge31" class="edge">
<title>Node26&#45;&gt;Node2</title>
<path fill="none" stroke="#63b8ff" d="M1531.22,-241.6C1548.33,-229.14 1579.69,-206.31 1600.69,-191.01"/>
<polygon fill="#63b8ff" stroke="#63b8ff" points="1602.55,-193.99 1608.57,-185.28 1598.43,-188.33 1602.55,-193.99"/>
</g>
<!-- Node26&#45;&gt;Node25 -->
<g id="edge32" class="edge">
<title>Node26&#45;&gt;Node25</title>
<path fill="none" stroke="#63b8ff" d="M1514.97,-241.6C1509.75,-230.1 1500.53,-209.76 1493.69,-194.67"/>
<polygon fill="#63b8ff" stroke="#63b8ff" points="1496.97,-193.43 1489.65,-185.76 1490.59,-196.32 1496.97,-193.43"/>
</g>
<!-- Node27&#45;&gt;Node2 -->
<g id="edge34" class="edge">
<title>Node27&#45;&gt;Node2</title>
<path fill="none" stroke="#63b8ff" d="M1140.99,-243.22C1166.18,-239.41 1197.76,-234.76 1226,-231 1360.87,-213.06 1395.76,-217.13 1530,-195 1546.98,-192.2 1565.58,-188.4 1581.58,-184.9"/>
<polygon fill="#63b8ff" stroke="#63b8ff" points="1582.23,-188.34 1591.23,-182.75 1580.71,-181.51 1582.23,-188.34"/>
</g>
<!-- Node27&#45;&gt;Node19 -->
<g id="edge36" class="edge">
<title>Node27&#45;&gt;Node19</title>
<path fill="none" stroke="#63b8ff" d="M1120.94,-241.59C1131.53,-238.16 1143.8,-234.29 1155,-231 1214.16,-213.61 1229.97,-212.83 1289,-195 1296.01,-192.88 1303.44,-190.49 1310.57,-188.13"/>
<polygon fill="#63b8ff" stroke="#63b8ff" points="1311.62,-191.47 1319.98,-184.97 1309.38,-184.84 1311.62,-191.47"/>
</g>
<!-- Node27&#45;&gt;Node23 -->
<g id="edge35" class="edge">
<title>Node27&#45;&gt;Node23</title>
<path fill="none" stroke="#63b8ff" d="M1116.55,-241.62C1142.39,-231.23 1185.84,-213.14 1222,-195 1225.12,-193.43 1228.36,-191.71 1231.54,-189.96"/>
<polygon fill="#63b8ff" stroke="#63b8ff" points="1233.02,-193.14 1239.99,-185.16 1229.56,-187.06 1233.02,-193.14"/>
</g>
<!-- Node28&#45;&gt;Node2 -->
<g id="edge38" class="edge">
<title>Node28&#45;&gt;Node2</title>
<path fill="none" stroke="#63b8ff" d="M1317.76,-241.55C1332.9,-238.23 1350.24,-234.44 1366,-231 1442.26,-214.38 1531.33,-195.1 1581.76,-184.2"/>
<polygon fill="#63b8ff" stroke="#63b8ff" points="1582.3,-187.66 1591.34,-182.12 1580.82,-180.82 1582.3,-187.66"/>
</g>
<!-- Node28&#45;&gt;Node19 -->
<g id="edge39" class="edge">
<title>Node28&#45;&gt;Node19</title>
<path fill="none" stroke="#63b8ff" d="M1285.3,-241.6C1296.57,-229.54 1316.91,-207.74 1331.14,-192.49"/>
<polygon fill="#63b8ff" stroke="#63b8ff" points="1333.41,-195.19 1337.67,-185.49 1328.29,-190.42 1333.41,-195.19"/>
</g>
<!-- Node29&#45;&gt;Node3 -->
<g id="edge41" class="edge">
<title>Node29&#45;&gt;Node3</title>
<path fill="none" stroke="#63b8ff" d="M551.47,-264.04C565.89,-266.74 580.97,-269.54 595,-272 667.7,-284.76 751.36,-297.95 805.91,-306.63"/>
<polygon fill="#63b8ff" stroke="#63b8ff" points="805.18,-310.05 815.6,-308.17 806.28,-303.14 805.18,-310.05"/>
</g>
<!-- Node29&#45;&gt;Node8 -->
<g id="edge42" class="edge">
<title>Node29&#45;&gt;Node8</title>
<path fill="none" stroke="#63b8ff" d="M420.04,-230.57C400.02,-222.02 379,-210.37 363,-195 320.57,-154.25 333.62,-127.24 303,-77 297.56,-68.08 291.15,-58.75 285.06,-50.33"/>
<polygon fill="#63b8ff" stroke="#63b8ff" points="288.04,-48.48 279.3,-42.51 282.41,-52.63 288.04,-48.48"/>
</g>
<!-- Node30 -->
<g id="node30" class="node">
<title>Node30</title>
<g id="a_node30"><a xlink:href="_idle__state_8h.html" target="_top" xlink:title="Clase de estado de reposo.">
<polygon fill="white" stroke="#666666" points="316,-195 200,-195 200,-154 316,-154 316,-195"/>
<text text-anchor="start" x="208" y="-183" font-family="Helvetica,sans-Serif" font-size="10.00">machine_state_pattern</text>
<text text-anchor="start" x="208" y="-172" font-family="Helvetica,sans-Serif" font-size="10.00">/machine_states/Idle</text>
<text text-anchor="middle" x="258" y="-161" font-family="Helvetica,sans-Serif" font-size="10.00">_state.h</text>
</a>
</g>
</g>
<!-- Node29&#45;&gt;Node30 -->
<g id="edge43" class="edge">
<title>Node29&#45;&gt;Node30</title>
<path fill="none" stroke="#63b8ff" d="M424.03,-230.6C394.2,-220.7 358,-208.68 327.02,-198.4"/>
<polygon fill="#63b8ff" stroke="#63b8ff" points="328.33,-195.15 317.73,-195.32 326.12,-201.79 328.33,-195.15"/>
</g>
<!-- Node30&#45;&gt;Node3 -->
<g id="edge44" class="edge">
<title>Node30&#45;&gt;Node3</title>
<path fill="none" stroke="#63b8ff" d="M281.07,-195.41C309.03,-218.27 358.57,-254.82 408,-272 444.73,-284.76 691.38,-303.99 805.85,-312.36"/>
<polygon fill="#63b8ff" stroke="#63b8ff" points="805.42,-315.84 815.65,-313.07 805.93,-308.86 805.42,-315.84"/>
</g>
<!-- Node30&#45;&gt;Node8 -->
<g id="edge45" class="edge">
<title>Node30&#45;&gt;Node8</title>
<path fill="none" stroke="#63b8ff" d="M271.38,-153.62C277.43,-143.44 283.92,-130.56 287,-118 291.34,-100.3 290.69,-94.84 287,-77 285.24,-68.52 282.13,-59.74 278.71,-51.74"/>
<polygon fill="#63b8ff" stroke="#63b8ff" points="281.95,-50.4 274.59,-42.78 275.59,-53.33 281.95,-50.4"/>
</g>
<!-- Node31 -->
<g id="node31" class="node">
<title>Node31</title>
<g id="a_node31"><a xlink:href="_motor__control__state_8h.html" target="_top" xlink:title="Clase de estado de control del motor.">
<polygon fill="white" stroke="#666666" points="278,-118 162,-118 162,-77 278,-77 278,-118"/>
<text text-anchor="start" x="170" y="-106" font-family="Helvetica,sans-Serif" font-size="10.00">machine_state_pattern</text>
<text text-anchor="start" x="170" y="-95" font-family="Helvetica,sans-Serif" font-size="10.00">/machine_states/Motor</text>
<text text-anchor="middle" x="220" y="-84" font-family="Helvetica,sans-Serif" font-size="10.00">_control_state.h</text>
</a>
</g>
</g>
<!-- Node30&#45;&gt;Node31 -->
<g id="edge46" class="edge">
<title>Node30&#45;&gt;Node31</title>
<path fill="none" stroke="#63b8ff" d="M241.99,-153.79C237.42,-146.1 232.66,-137.11 228.64,-128.65"/>
<polygon fill="#63b8ff" stroke="#63b8ff" points="231.92,-127.41 224.63,-119.72 225.53,-130.27 231.92,-127.41"/>
</g>
<!-- Node31&#45;&gt;Node3 -->
<g id="edge47" class="edge">
<title>Node31&#45;&gt;Node3</title>
<path fill="none" stroke="#63b8ff" d="M205.12,-118.45C191.94,-138.77 176.82,-170.67 191,-195 225.98,-255.01 260.62,-251.54 327,-272 371.85,-285.82 676.41,-305.32 805.92,-313.1"/>
<polygon fill="#63b8ff" stroke="#63b8ff" points="805.45,-316.58 815.64,-313.68 805.87,-309.59 805.45,-316.58"/>
</g>
<!-- Node31&#45;&gt;Node8 -->
<g id="edge48" class="edge">
<title>Node31&#45;&gt;Node8</title>
<path fill="none" stroke="#63b8ff" d="M231.3,-76.79C235.8,-68.93 241.09,-59.71 246.04,-51.08"/>
<polygon fill="#63b8ff" stroke="#63b8ff" points="248.94,-53.06 250.88,-42.65 242.87,-49.58 248.94,-53.06"/>
</g>
<!-- Node31&#45;&gt;Node30 -->
<g id="edge49" class="edge">
<title>Node31&#45;&gt;Node30</title>
<path fill="none" stroke="#63b8ff" d="M236.08,-118.33C240.66,-126.04 245.42,-135.03 249.43,-143.5"/>
<polygon fill="#63b8ff" stroke="#63b8ff" points="246.14,-144.72 253.42,-152.41 252.53,-141.86 246.14,-144.72"/>
</g>
<!-- Node32&#45;&gt;Node2 -->
<g id="edge52" class="edge">
<title>Node32&#45;&gt;Node2</title>
<path fill="none" stroke="#63b8ff" d="M1789,-307.66C1794.11,-290.81 1802.36,-253.79 1785,-231 1749.96,-185.01 1713.75,-216.3 1660,-195 1655.97,-193.4 1651.8,-191.52 1647.77,-189.56"/>
<polygon fill="#63b8ff" stroke="#63b8ff" points="1649.43,-186.48 1638.93,-185.05 1646.24,-192.72 1649.43,-186.48"/>
</g>
<!-- Node33&#45;&gt;Node3 -->
<g id="edge55" class="edge">
<title>Node33&#45;&gt;Node3</title>
<path fill="none" stroke="#63b8ff" d="M836.9,-362.54C841.7,-354.74 847.68,-345.03 852.79,-336.71"/>
<polygon fill="#63b8ff" stroke="#63b8ff" points="855.61,-338.82 857.87,-328.46 849.65,-335.15 855.61,-338.82"/>
</g>
<!-- Node33&#45;&gt;Node16 -->
<g id="edge54" class="edge">
<title>Node33&#45;&gt;Node16</title>
<path fill="none" stroke="#63b8ff" d="M761.83,-368.74C639.61,-353.07 370.44,-316.54 146,-272 141.98,-271.2 137.85,-270.34 133.7,-269.43"/>
<polygon fill="#63b8ff" stroke="#63b8ff" points="134.68,-266.07 124.16,-267.29 133.15,-272.9 134.68,-266.07"/>
</g>
<!-- Node34&#45;&gt;Node2 -->
<g id="edge58" class="edge">
<title>Node34&#45;&gt;Node2</title>
<path fill="none" stroke="#63b8ff" d="M1082.23,-364.49C1085.19,-363.98 1088.13,-363.48 1091,-363 1160.01,-351.52 1668.25,-324.92 1714,-272 1725.92,-258.22 1722.96,-246.87 1714,-231 1710.29,-224.43 1674.56,-204.01 1648.74,-189.87"/>
<polygon fill="#63b8ff" stroke="#63b8ff" points="1650.52,-186.85 1640.07,-185.15 1647.18,-193 1650.52,-186.85"/>
</g>
<!-- Node34&#45;&gt;Node3 -->
<g id="edge59" class="edge">
<title>Node34&#45;&gt;Node3</title>
<path fill="none" stroke="#63b8ff" d="M978.43,-362.54C953.69,-353.02 921.57,-340.66 897.66,-331.46"/>
<polygon fill="#63b8ff" stroke="#63b8ff" points="898.99,-328.22 888.4,-327.89 896.47,-334.75 898.99,-328.22"/>
</g>
<!-- Node34&#45;&gt;Node16 -->
<g id="edge57" class="edge">
<title>Node34&#45;&gt;Node16</title>
<path fill="none" stroke="#63b8ff" d="M949.68,-368.74C934.35,-366.85 918.11,-364.84 903,-363 818.91,-352.74 229.36,-287.11 146,-272 141.69,-271.22 137.27,-270.35 132.82,-269.41"/>
<polygon fill="#63b8ff" stroke="#63b8ff" points="133.76,-266.04 123.25,-267.32 132.27,-272.87 133.76,-266.04"/>
</g>
<!-- Node34&#45;&gt;Node19 -->
<g id="edge60" class="edge">
<title>Node34&#45;&gt;Node19</title>
<path fill="none" stroke="#63b8ff" d="M1034.21,-362.54C1079.43,-326.7 1193.82,-236.2 1203,-231 1221.86,-220.32 1274.38,-200.98 1310.49,-188.18"/>
<polygon fill="#63b8ff" stroke="#63b8ff" points="1311.42,-191.57 1319.69,-184.94 1309.1,-184.96 1311.42,-191.57"/>
</g>
<!-- Node34&#45;&gt;Node23 -->
<g id="edge61" class="edge">
<title>Node34&#45;&gt;Node23</title>
<path fill="none" stroke="#63b8ff" d="M1011.69,-362.85C1003.88,-334.07 991.09,-268.31 1024,-231 1083.17,-163.92 1137.99,-225.69 1222,-195 1225.76,-193.63 1229.58,-191.86 1233.24,-189.94"/>
<polygon fill="#63b8ff" stroke="#63b8ff" points="1234.7,-193.15 1241.63,-185.14 1231.22,-187.07 1234.7,-193.15"/>
</g>
<!-- Node35&#45;&gt;Node2 -->
<g id="edge64" class="edge">
<title>Node35&#45;&gt;Node2</title>
<path fill="none" stroke="#63b8ff" d="M1232.46,-375.25C1370.75,-370.05 1682.02,-349.78 1747,-272 1758.68,-258.02 1757.13,-246.15 1747,-231 1723.75,-196.21 1697.98,-212.57 1660,-195 1656.32,-193.3 1652.48,-191.43 1648.72,-189.56"/>
<polygon fill="#63b8ff" stroke="#63b8ff" points="1650.35,-186.46 1639.85,-185.03 1647.17,-192.69 1650.35,-186.46"/>
</g>
<!-- Node35&#45;&gt;Node3 -->
<g id="edge65" class="edge">
<title>Node35&#45;&gt;Node3</title>
<path fill="none" stroke="#63b8ff" d="M1099.72,-364.16C1046.46,-353.84 972.39,-339.5 921.57,-329.65"/>
<polygon fill="#63b8ff" stroke="#63b8ff" points="922.43,-326.25 911.95,-327.79 921.1,-333.13 922.43,-326.25"/>
</g>
<!-- Node35&#45;&gt;Node16 -->
<g id="edge63" class="edge">
<title>Node35&#45;&gt;Node16</title>
<path fill="none" stroke="#63b8ff" d="M1099.8,-364.32C1096.83,-363.85 1093.89,-363.41 1091,-363 842.52,-327.72 778.82,-331.97 529,-308 358.81,-291.67 314.61,-300.32 146,-272 141.4,-271.23 136.67,-270.34 131.93,-269.37"/>
<polygon fill="#63b8ff" stroke="#63b8ff" points="132.86,-265.99 122.35,-267.3 131.39,-272.83 132.86,-265.99"/>
</g>
<!-- Node35&#45;&gt;Node19 -->
<g id="edge66" class="edge">
<title>Node35&#45;&gt;Node19</title>
<path fill="none" stroke="#63b8ff" d="M1171.22,-362.62C1183.97,-327.81 1216.32,-241.08 1226,-231 1238.46,-218.03 1280.5,-200.31 1311.54,-188.42"/>
<polygon fill="#63b8ff" stroke="#63b8ff" points="1312.46,-191.81 1320.58,-185.01 1309.99,-185.26 1312.46,-191.81"/>
</g>
<!-- Node35&#45;&gt;Node23 -->
<g id="edge67" class="edge">
<title>Node35&#45;&gt;Node23</title>
<path fill="none" stroke="#63b8ff" d="M1136.36,-362.55C1087.04,-336.62 997.4,-280.32 1038,-231 1090.96,-166.67 1143.92,-224.12 1222,-195 1225.75,-193.6 1229.57,-191.82 1233.23,-189.9"/>
<polygon fill="#63b8ff" stroke="#63b8ff" points="1234.68,-193.1 1241.62,-185.09 1231.2,-187.03 1234.68,-193.1"/>
</g>
</g>
</svg>
