<?xml version="1.0" encoding="UTF-8" standalone="no"?>
<!DOCTYPE svg PUBLIC "-//W3C//DTD SVG 1.1//EN"
 "http://www.w3.org/Graphics/SVG/1.1/DTD/svg11.dtd">
<!-- Generated by graphviz version 7.0.2 (20221119.0110)
 -->
<!-- Title: C:/Users/juanh/OneDrive/Escritorio/Facultad/Beca/Proyecto/LAL_Control/include/port_config.h Pages: 1 -->
<svg width="883pt" height="533pt"
 viewBox="0.00 0.00 882.50 533.00" xmlns="http://www.w3.org/2000/svg" xmlns:xlink="http://www.w3.org/1999/xlink">
<g id="graph0" class="graph" transform="scale(1 1) rotate(0) translate(4 529)">
<title>C:/Users/juanh/OneDrive/Escritorio/Facultad/Beca/Proyecto/LAL_Control/include/port_config.h</title>
<!-- Node1 -->
<g id="node1" class="node">
<title>Node1</title>
<g id="a_node1"><a xlink:title="Archivo de configuración para los puertos de la placa donde se implementará el sistema.">
<polygon fill="#999999" stroke="#666666" points="550.5,-525 401.5,-525 401.5,-473 550.5,-473 550.5,-525"/>
<text text-anchor="start" x="409.5" y="-513" font-family="Helvetica,sans-Serif" font-size="10.00">C:/Users/juanh/OneDrive</text>
<text text-anchor="start" x="409.5" y="-502" font-family="Helvetica,sans-Serif" font-size="10.00">/Escritorio/Facultad/Beca</text>
<text text-anchor="start" x="409.5" y="-491" font-family="Helvetica,sans-Serif" font-size="10.00">/Proyecto/LAL_Control/include</text>
<text text-anchor="middle" x="476" y="-480" font-family="Helvetica,sans-Serif" font-size="10.00">/port_config.h</text>
</a>
</g>
</g>
<!-- Node2 -->
<g id="node2" class="node">
<title>Node2</title>
<g id="a_node2"><a xlink:href="_buzzer_8h.html" target="_top" xlink:title="Controlador de Buzzer de 12 milimetros.">
<polygon fill="white" stroke="#666666" points="634.5,-437 485.5,-437 485.5,-385 634.5,-385 634.5,-437"/>
<text text-anchor="start" x="493.5" y="-425" font-family="Helvetica,sans-Serif" font-size="10.00">C:/Users/juanh/OneDrive</text>
<text text-anchor="start" x="493.5" y="-414" font-family="Helvetica,sans-Serif" font-size="10.00">/Escritorio/Facultad/Beca</text>
<text text-anchor="start" x="493.5" y="-403" font-family="Helvetica,sans-Serif" font-size="10.00">/Proyecto/LAL_Control/include</text>
<text text-anchor="middle" x="560" y="-392" font-family="Helvetica,sans-Serif" font-size="10.00">/drivers/Buzzer.h</text>
</a>
</g>
</g>
<!-- Node1&#45;&gt;Node2 -->
<g id="edge1" class="edge">
<title>Node1&#45;&gt;Node2</title>
<path fill="none" stroke="#63b8ff" d="M508.63,-464.59C517.44,-455.57 526.83,-445.96 535.14,-437.45"/>
<polygon fill="#63b8ff" stroke="#63b8ff" points="506.29,-461.98 501.81,-471.58 511.3,-466.87 506.29,-461.98"/>
</g>
<!-- Node14 -->
<g id="node14" class="node">
<title>Node14</title>
<g id="a_node14"><a xlink:href="_motor_8h.html" target="_top" xlink:title="Controlador de motor de 220 VAC.">
<polygon fill="white" stroke="#666666" points="467.5,-437 318.5,-437 318.5,-385 467.5,-385 467.5,-437"/>
<text text-anchor="start" x="326.5" y="-425" font-family="Helvetica,sans-Serif" font-size="10.00">C:/Users/juanh/OneDrive</text>
<text text-anchor="start" x="326.5" y="-414" font-family="Helvetica,sans-Serif" font-size="10.00">/Escritorio/Facultad/Beca</text>
<text text-anchor="start" x="326.5" y="-403" font-family="Helvetica,sans-Serif" font-size="10.00">/Proyecto/LAL_Control/include</text>
<text text-anchor="middle" x="393" y="-392" font-family="Helvetica,sans-Serif" font-size="10.00">/drivers/Motor.h</text>
</a>
</g>
</g>
<!-- Node1&#45;&gt;Node14 -->
<g id="edge24" class="edge">
<title>Node1&#45;&gt;Node14</title>
<path fill="none" stroke="#63b8ff" d="M443.76,-464.59C435.05,-455.57 425.78,-445.96 417.57,-437.45"/>
<polygon fill="#63b8ff" stroke="#63b8ff" points="441.03,-466.81 450.5,-471.57 446.07,-461.95 441.03,-466.81"/>
</g>
<!-- Node3 -->
<g id="node3" class="node">
<title>Node3</title>
<g id="a_node3"><a xlink:href="_control__system_8h_source.html" target="_top" xlink:title=" ">
<polygon fill="white" stroke="#666666" points="551.5,-349 402.5,-349 402.5,-297 551.5,-297 551.5,-349"/>
<text text-anchor="start" x="410.5" y="-337" font-family="Helvetica,sans-Serif" font-size="10.00">C:/Users/juanh/OneDrive</text>
<text text-anchor="start" x="410.5" y="-326" font-family="Helvetica,sans-Serif" font-size="10.00">/Escritorio/Facultad/Beca</text>
<text text-anchor="start" x="410.5" y="-315" font-family="Helvetica,sans-Serif" font-size="10.00">/Proyecto/LAL_Control/include</text>
<text text-anchor="middle" x="477" y="-304" font-family="Helvetica,sans-Serif" font-size="10.00">/Control_system.h</text>
</a>
</g>
</g>
<!-- Node2&#45;&gt;Node3 -->
<g id="edge2" class="edge">
<title>Node2&#45;&gt;Node3</title>
<path fill="none" stroke="#63b8ff" d="M527.76,-376.59C519.05,-367.57 509.78,-357.96 501.57,-349.45"/>
<polygon fill="#63b8ff" stroke="#63b8ff" points="525.03,-378.81 534.5,-383.57 530.07,-373.95 525.03,-378.81"/>
</g>
<!-- Node13 -->
<g id="node13" class="node">
<title>Node13</title>
<g id="a_node13"><a xlink:href="_buzzer_8cpp.html" target="_top" xlink:title=" ">
<polygon fill="white" stroke="#666666" points="700.5,-349 569.5,-349 569.5,-297 700.5,-297 700.5,-349"/>
<text text-anchor="start" x="577.5" y="-337" font-family="Helvetica,sans-Serif" font-size="10.00">C:/Users/juanh/OneDrive</text>
<text text-anchor="start" x="577.5" y="-326" font-family="Helvetica,sans-Serif" font-size="10.00">/Escritorio/Facultad/Beca</text>
<text text-anchor="start" x="577.5" y="-315" font-family="Helvetica,sans-Serif" font-size="10.00">/Proyecto/LAL_Control/src</text>
<text text-anchor="middle" x="635" y="-304" font-family="Helvetica,sans-Serif" font-size="10.00">/drivers/Buzzer.cpp</text>
</a>
</g>
</g>
<!-- Node2&#45;&gt;Node13 -->
<g id="edge23" class="edge">
<title>Node2&#45;&gt;Node13</title>
<path fill="none" stroke="#63b8ff" d="M589.62,-376.04C597.34,-367.18 605.53,-357.79 612.8,-349.45"/>
<polygon fill="#63b8ff" stroke="#63b8ff" points="587.03,-373.68 583.09,-383.52 592.3,-378.29 587.03,-373.68"/>
</g>
<!-- Node4 -->
<g id="node4" class="node">
<title>Node4</title>
<g id="a_node4"><a xlink:href="_idle__state_8h.html" target="_top" xlink:title="Clase de estado de reposo.">
<polygon fill="white" stroke="#666666" points="317,-261 159,-261 159,-198 317,-198 317,-261"/>
<text text-anchor="start" x="167" y="-249" font-family="Helvetica,sans-Serif" font-size="10.00">C:/Users/juanh/OneDrive</text>
<text text-anchor="start" x="167" y="-238" font-family="Helvetica,sans-Serif" font-size="10.00">/Escritorio/Facultad/Beca</text>
<text text-anchor="start" x="167" y="-227" font-family="Helvetica,sans-Serif" font-size="10.00">/Proyecto/LAL_Control/include</text>
<text text-anchor="start" x="167" y="-216" font-family="Helvetica,sans-Serif" font-size="10.00">/machine_state_pattern/machine</text>
<text text-anchor="middle" x="238" y="-205" font-family="Helvetica,sans-Serif" font-size="10.00">_states/Idle_state.h</text>
</a>
</g>
</g>
<!-- Node3&#45;&gt;Node4 -->
<g id="edge3" class="edge">
<title>Node3&#45;&gt;Node4</title>
<path fill="none" stroke="#63b8ff" d="M399.73,-292.42C373.37,-282.33 343.87,-271.03 317.36,-260.88"/>
<polygon fill="#63b8ff" stroke="#63b8ff" points="398.42,-295.66 409.01,-295.97 400.92,-289.13 398.42,-295.66"/>
</g>
<!-- Node5 -->
<g id="node5" class="node">
<title>Node5</title>
<g id="a_node5"><a xlink:href="_motor__control__state_8h.html" target="_top" xlink:title="Clase de estado de control del motor.">
<polygon fill="white" stroke="#666666" points="158,-162 0,-162 0,-99 158,-99 158,-162"/>
<text text-anchor="start" x="8" y="-150" font-family="Helvetica,sans-Serif" font-size="10.00">C:/Users/juanh/OneDrive</text>
<text text-anchor="start" x="8" y="-139" font-family="Helvetica,sans-Serif" font-size="10.00">/Escritorio/Facultad/Beca</text>
<text text-anchor="start" x="8" y="-128" font-family="Helvetica,sans-Serif" font-size="10.00">/Proyecto/LAL_Control/include</text>
<text text-anchor="start" x="8" y="-117" font-family="Helvetica,sans-Serif" font-size="10.00">/machine_state_pattern/machine</text>
<text text-anchor="middle" x="79" y="-106" font-family="Helvetica,sans-Serif" font-size="10.00">_states/Motor_control_state.h</text>
</a>
</g>
</g>
<!-- Node3&#45;&gt;Node5 -->
<g id="edge8" class="edge">
<title>Node3&#45;&gt;Node5</title>
<path fill="none" stroke="#63b8ff" d="M391.06,-296.85C283.35,-276.48 236.71,-321.37 150,-261 116.23,-237.49 96.89,-192.55 87.17,-162.3"/>
<polygon fill="#63b8ff" stroke="#63b8ff" points="390.05,-300.22 400.55,-298.81 391.46,-293.36 390.05,-300.22"/>
</g>
<!-- Node6 -->
<g id="node6" class="node">
<title>Node6</title>
<g id="a_node6"><a xlink:href="_shutdown__state_8h.html" target="_top" xlink:title="Clase de estado de apagado del sistema.">
<polygon fill="white" stroke="#666666" points="334,-162 176,-162 176,-99 334,-99 334,-162"/>
<text text-anchor="start" x="184" y="-150" font-family="Helvetica,sans-Serif" font-size="10.00">C:/Users/juanh/OneDrive</text>
<text text-anchor="start" x="184" y="-139" font-family="Helvetica,sans-Serif" font-size="10.00">/Escritorio/Facultad/Beca</text>
<text text-anchor="start" x="184" y="-128" font-family="Helvetica,sans-Serif" font-size="10.00">/Proyecto/LAL_Control/include</text>
<text text-anchor="start" x="184" y="-117" font-family="Helvetica,sans-Serif" font-size="10.00">/machine_state_pattern/machine</text>
<text text-anchor="middle" x="255" y="-106" font-family="Helvetica,sans-Serif" font-size="10.00">_states/Shutdown_state.h</text>
</a>
</g>
</g>
<!-- Node3&#45;&gt;Node6 -->
<g id="edge9" class="edge">
<title>Node3&#45;&gt;Node6</title>
<path fill="none" stroke="#63b8ff" d="M434.09,-289.66C390.53,-254.06 324.34,-197.23 285.73,-162.27"/>
<polygon fill="#63b8ff" stroke="#63b8ff" points="431.62,-292.16 441.59,-295.75 436.03,-286.73 431.62,-292.16"/>
</g>
<!-- Node7 -->
<g id="node7" class="node">
<title>Node7</title>
<g id="a_node7"><a xlink:href="main_8h.html" target="_top" xlink:title="Archivo principal del programa.">
<polygon fill="white" stroke="#666666" points="709.5,-52 528.5,-52 528.5,-11 709.5,-11 709.5,-52"/>
<text text-anchor="start" x="536.5" y="-40" font-family="Helvetica,sans-Serif" font-size="10.00">C:/Users/juanh/OneDrive</text>
<text text-anchor="start" x="536.5" y="-29" font-family="Helvetica,sans-Serif" font-size="10.00">/Escritorio/Facultad/Beca</text>
<text text-anchor="middle" x="619" y="-18" font-family="Helvetica,sans-Serif" font-size="10.00">/Proyecto/LAL_Control/include/main.h</text>
</a>
</g>
</g>
<!-- Node3&#45;&gt;Node7 -->
<g id="edge10" class="edge">
<title>Node3&#45;&gt;Node7</title>
<path fill="none" stroke="#63b8ff" d="M483.06,-285.25C491.93,-238.99 511.63,-158.39 549,-99 560.34,-80.98 577.65,-64.48 592.23,-52.41"/>
<polygon fill="#63b8ff" stroke="#63b8ff" points="479.62,-284.56 481.25,-295.02 486.51,-285.82 479.62,-284.56"/>
</g>
<!-- Node8 -->
<g id="node8" class="node">
<title>Node8</title>
<g id="a_node8"><a xlink:href="_instruction__observer_8h.html" target="_top" xlink:title="Observador de instrucciones.">
<polygon fill="white" stroke="#666666" points="501.5,-162 352.5,-162 352.5,-99 501.5,-99 501.5,-162"/>
<text text-anchor="start" x="360.5" y="-150" font-family="Helvetica,sans-Serif" font-size="10.00">C:/Users/juanh/OneDrive</text>
<text text-anchor="start" x="360.5" y="-139" font-family="Helvetica,sans-Serif" font-size="10.00">/Escritorio/Facultad/Beca</text>
<text text-anchor="start" x="360.5" y="-128" font-family="Helvetica,sans-Serif" font-size="10.00">/Proyecto/LAL_Control/include</text>
<text text-anchor="start" x="360.5" y="-117" font-family="Helvetica,sans-Serif" font-size="10.00">/observer_pattern/observers</text>
<text text-anchor="middle" x="427" y="-106" font-family="Helvetica,sans-Serif" font-size="10.00">/Instruction_observer.h</text>
</a>
</g>
</g>
<!-- Node3&#45;&gt;Node8 -->
<g id="edge11" class="edge">
<title>Node3&#45;&gt;Node8</title>
<path fill="none" stroke="#63b8ff" d="M467.5,-285.79C458.12,-250.05 443.93,-195.99 435.08,-162.27"/>
<polygon fill="#63b8ff" stroke="#63b8ff" points="464.05,-286.46 469.98,-295.24 470.82,-284.68 464.05,-286.46"/>
</g>
<!-- Node10 -->
<g id="node10" class="node">
<title>Node10</title>
<g id="a_node10"><a xlink:href="_moisture__observer_8h.html" target="_top" xlink:title="Observador del sensor de temperatura.">
<polygon fill="white" stroke="#666666" points="707.5,-162 558.5,-162 558.5,-99 707.5,-99 707.5,-162"/>
<text text-anchor="start" x="566.5" y="-150" font-family="Helvetica,sans-Serif" font-size="10.00">C:/Users/juanh/OneDrive</text>
<text text-anchor="start" x="566.5" y="-139" font-family="Helvetica,sans-Serif" font-size="10.00">/Escritorio/Facultad/Beca</text>
<text text-anchor="start" x="566.5" y="-128" font-family="Helvetica,sans-Serif" font-size="10.00">/Proyecto/LAL_Control/include</text>
<text text-anchor="start" x="566.5" y="-117" font-family="Helvetica,sans-Serif" font-size="10.00">/observer_pattern/observers</text>
<text text-anchor="middle" x="633" y="-106" font-family="Helvetica,sans-Serif" font-size="10.00">/Moisture_observer.h</text>
</a>
</g>
</g>
<!-- Node3&#45;&gt;Node10 -->
<g id="edge14" class="edge">
<title>Node3&#45;&gt;Node10</title>
<path fill="none" stroke="#63b8ff" d="M562.73,-296.61C625.21,-283.04 661.37,-308.42 698,-261 715.12,-238.84 708.57,-223.93 698,-198 692.58,-184.69 683.07,-172.6 672.97,-162.49"/>
<polygon fill="#63b8ff" stroke="#63b8ff" points="561.94,-293.2 553.09,-299.02 563.64,-299.99 561.94,-293.2"/>
</g>
<!-- Node11 -->
<g id="node11" class="node">
<title>Node11</title>
<g id="a_node11"><a xlink:href="_system__observer_8h.html" target="_top" xlink:title="Clase observador del sistema de control.">
<polygon fill="white" stroke="#666666" points="689.5,-261 540.5,-261 540.5,-198 689.5,-198 689.5,-261"/>
<text text-anchor="start" x="548.5" y="-249" font-family="Helvetica,sans-Serif" font-size="10.00">C:/Users/juanh/OneDrive</text>
<text text-anchor="start" x="548.5" y="-238" font-family="Helvetica,sans-Serif" font-size="10.00">/Escritorio/Facultad/Beca</text>
<text text-anchor="start" x="548.5" y="-227" font-family="Helvetica,sans-Serif" font-size="10.00">/Proyecto/LAL_Control/include</text>
<text text-anchor="start" x="548.5" y="-216" font-family="Helvetica,sans-Serif" font-size="10.00">/observer_pattern/observers</text>
<text text-anchor="middle" x="615" y="-205" font-family="Helvetica,sans-Serif" font-size="10.00">/System_observer.h</text>
</a>
</g>
</g>
<!-- Node3&#45;&gt;Node11 -->
<g id="edge16" class="edge">
<title>Node3&#45;&gt;Node11</title>
<path fill="none" stroke="#63b8ff" d="M518.49,-290.2C532.18,-280.86 547.58,-270.66 562,-261.38"/>
<polygon fill="#63b8ff" stroke="#63b8ff" points="516.82,-287.1 510.56,-295.65 520.79,-292.87 516.82,-287.1"/>
</g>
<!-- Node12 -->
<g id="node12" class="node">
<title>Node12</title>
<g id="a_node12"><a xlink:href="_temperature__observer_8h.html" target="_top" xlink:title="Observador del sensor de temperatura.">
<polygon fill="white" stroke="#666666" points="874.5,-162 725.5,-162 725.5,-99 874.5,-99 874.5,-162"/>
<text text-anchor="start" x="733.5" y="-150" font-family="Helvetica,sans-Serif" font-size="10.00">C:/Users/juanh/OneDrive</text>
<text text-anchor="start" x="733.5" y="-139" font-family="Helvetica,sans-Serif" font-size="10.00">/Escritorio/Facultad/Beca</text>
<text text-anchor="start" x="733.5" y="-128" font-family="Helvetica,sans-Serif" font-size="10.00">/Proyecto/LAL_Control/include</text>
<text text-anchor="start" x="733.5" y="-117" font-family="Helvetica,sans-Serif" font-size="10.00">/observer_pattern/observers</text>
<text text-anchor="middle" x="800" y="-106" font-family="Helvetica,sans-Serif" font-size="10.00">/Temperature_observer.h</text>
</a>
</g>
</g>
<!-- Node3&#45;&gt;Node12 -->
<g id="edge22" class="edge">
<title>Node3&#45;&gt;Node12</title>
<path fill="none" stroke="#63b8ff" d="M562.68,-296.55C632.59,-280.79 662.05,-300.53 718,-261 752.66,-236.51 775.96,-192.26 788.61,-162.39"/>
<polygon fill="#63b8ff" stroke="#63b8ff" points="561.94,-293.13 553.06,-298.91 563.6,-299.93 561.94,-293.13"/>
</g>
<!-- Node4&#45;&gt;Node5 -->
<g id="edge4" class="edge">
<title>Node4&#45;&gt;Node5</title>
<path fill="none" stroke="#63b8ff" d="M171.03,-191.65C154.97,-182.04 138.22,-171.77 123.47,-162.5"/>
<polygon fill="#63b8ff" stroke="#63b8ff" points="169.23,-194.66 179.61,-196.77 172.81,-188.64 169.23,-194.66"/>
</g>
<!-- Node4&#45;&gt;Node6 -->
<g id="edge6" class="edge">
<title>Node4&#45;&gt;Node6</title>
<path fill="none" stroke="#63b8ff" d="M245.37,-186.43C246.78,-178.39 248.23,-170.11 249.57,-162.5"/>
<polygon fill="#63b8ff" stroke="#63b8ff" points="241.97,-185.6 243.69,-196.05 248.86,-186.81 241.97,-185.6"/>
</g>
<!-- Node5&#45;&gt;Node4 -->
<g id="edge5" class="edge">
<title>Node5&#45;&gt;Node4</title>
<path fill="none" stroke="#63b8ff" d="M146.04,-168.39C162.1,-178 178.84,-188.27 193.6,-197.54"/>
<polygon fill="#63b8ff" stroke="#63b8ff" points="147.83,-165.38 137.45,-163.27 144.25,-171.4 147.83,-165.38"/>
</g>
<!-- Node6&#45;&gt;Node3 -->
<g id="edge7" class="edge">
<title>Node6&#45;&gt;Node3</title>
<path fill="none" stroke="#63b8ff" d="M304.87,-169.56C350.75,-207.33 416.72,-264.16 452.28,-296.7"/>
<polygon fill="#63b8ff" stroke="#63b8ff" points="307.1,-166.86 297.15,-163.23 302.67,-172.27 307.1,-166.86"/>
</g>
<!-- Node8&#45;&gt;Node7 -->
<g id="edge12" class="edge">
<title>Node8&#45;&gt;Node7</title>
<path fill="none" stroke="#63b8ff" d="M498.24,-93.51C525.69,-79.64 556.03,-64.31 579.44,-52.49"/>
<polygon fill="#63b8ff" stroke="#63b8ff" points="496.98,-90.23 489.63,-97.86 500.13,-96.47 496.98,-90.23"/>
</g>
<!-- Node9 -->
<g id="node9" class="node">
<title>Node9</title>
<g id="a_node9"><a xlink:href="_instruction__observer_8cpp.html" target="_top" xlink:title=" ">
<polygon fill="white" stroke="#666666" points="496.5,-63 357.5,-63 357.5,0 496.5,0 496.5,-63"/>
<text text-anchor="start" x="365.5" y="-51" font-family="Helvetica,sans-Serif" font-size="10.00">C:/Users/juanh/OneDrive</text>
<text text-anchor="start" x="365.5" y="-40" font-family="Helvetica,sans-Serif" font-size="10.00">/Escritorio/Facultad/Beca</text>
<text text-anchor="start" x="365.5" y="-29" font-family="Helvetica,sans-Serif" font-size="10.00">/Proyecto/LAL_Control/src</text>
<text text-anchor="start" x="365.5" y="-18" font-family="Helvetica,sans-Serif" font-size="10.00">/observer_pattern/Instruction</text>
<text text-anchor="middle" x="427" y="-7" font-family="Helvetica,sans-Serif" font-size="10.00">_observer.cpp</text>
</a>
</g>
</g>
<!-- Node8&#45;&gt;Node9 -->
<g id="edge13" class="edge">
<title>Node8&#45;&gt;Node9</title>
<path fill="none" stroke="#63b8ff" d="M427,-87.15C427,-79.2 427,-71.02 427,-63.5"/>
<polygon fill="#63b8ff" stroke="#63b8ff" points="423.5,-87.03 427,-97.03 430.5,-87.03 423.5,-87.03"/>
</g>
<!-- Node10&#45;&gt;Node7 -->
<g id="edge15" class="edge">
<title>Node10&#45;&gt;Node7</title>
<path fill="none" stroke="#63b8ff" d="M626.9,-87.22C625.16,-75.15 623.34,-62.55 621.88,-52.49"/>
<polygon fill="#63b8ff" stroke="#63b8ff" points="623.42,-87.65 628.32,-97.04 630.35,-86.65 623.42,-87.65"/>
</g>
<!-- Node11&#45;&gt;Node3 -->
<g id="edge17" class="edge">
<title>Node11&#45;&gt;Node3</title>
<path fill="none" stroke="#63b8ff" d="M565.61,-267.65C551.23,-277.35 535.63,-287.58 521.56,-296.51"/>
<polygon fill="#63b8ff" stroke="#63b8ff" points="567.29,-270.74 573.6,-262.23 563.36,-264.95 567.29,-270.74"/>
</g>
<!-- Node11&#45;&gt;Node8 -->
<g id="edge18" class="edge">
<title>Node11&#45;&gt;Node8</title>
<path fill="none" stroke="#63b8ff" d="M544.9,-192.33C525.89,-182.52 505.48,-171.99 487.08,-162.5"/>
<polygon fill="#63b8ff" stroke="#63b8ff" points="543.16,-195.37 553.65,-196.85 546.37,-189.15 543.16,-195.37"/>
</g>
<!-- Node11&#45;&gt;Node10 -->
<g id="edge19" class="edge">
<title>Node11&#45;&gt;Node10</title>
<path fill="none" stroke="#63b8ff" d="M622.81,-186.43C624.3,-178.39 625.84,-170.11 627.25,-162.5"/>
<polygon fill="#63b8ff" stroke="#63b8ff" points="619.4,-185.58 621.02,-196.05 626.29,-186.86 619.4,-185.58"/>
</g>
<!-- Node11&#45;&gt;Node12 -->
<g id="edge20" class="edge">
<title>Node11&#45;&gt;Node12</title>
<path fill="none" stroke="#63b8ff" d="M684.24,-192.2C702.87,-182.43 722.85,-171.95 740.88,-162.5"/>
<polygon fill="#63b8ff" stroke="#63b8ff" points="682.62,-189.1 675.38,-196.84 685.87,-195.3 682.62,-189.1"/>
</g>
<!-- Node12&#45;&gt;Node7 -->
<g id="edge21" class="edge">
<title>Node12&#45;&gt;Node7</title>
<path fill="none" stroke="#63b8ff" d="M732.16,-93.14C706.47,-79.37 678.17,-64.21 656.3,-52.49"/>
<polygon fill="#63b8ff" stroke="#63b8ff" points="730.43,-96.19 740.9,-97.83 733.74,-90.02 730.43,-96.19"/>
</g>
<!-- Node14&#45;&gt;Node3 -->
<g id="edge25" class="edge">
<title>Node14&#45;&gt;Node3</title>
<path fill="none" stroke="#63b8ff" d="M425.63,-376.59C434.44,-367.57 443.83,-357.96 452.14,-349.45"/>
<polygon fill="#63b8ff" stroke="#63b8ff" points="423.29,-373.98 418.81,-383.58 428.3,-378.87 423.29,-373.98"/>
</g>
<!-- Node15 -->
<g id="node15" class="node">
<title>Node15</title>
<g id="a_node15"><a xlink:href="_motor_8cpp.html" target="_top" xlink:title=" ">
<polygon fill="white" stroke="#666666" points="384.5,-349 253.5,-349 253.5,-297 384.5,-297 384.5,-349"/>
<text text-anchor="start" x="261.5" y="-337" font-family="Helvetica,sans-Serif" font-size="10.00">C:/Users/juanh/OneDrive</text>
<text text-anchor="start" x="261.5" y="-326" font-family="Helvetica,sans-Serif" font-size="10.00">/Escritorio/Facultad/Beca</text>
<text text-anchor="start" x="261.5" y="-315" font-family="Helvetica,sans-Serif" font-size="10.00">/Proyecto/LAL_Control/src</text>
<text text-anchor="middle" x="319" y="-304" font-family="Helvetica,sans-Serif" font-size="10.00">/drivers/Motor.cpp</text>
</a>
</g>
</g>
<!-- Node14&#45;&gt;Node15 -->
<g id="edge26" class="edge">
<title>Node14&#45;&gt;Node15</title>
<path fill="none" stroke="#63b8ff" d="M363.78,-376.04C356.16,-367.18 348.07,-357.79 340.9,-349.45"/>
<polygon fill="#63b8ff" stroke="#63b8ff" points="361.04,-378.22 370.21,-383.52 366.34,-373.65 361.04,-378.22"/>
</g>
</g>
</svg>
