<?xml version="1.0" encoding="UTF-8" standalone="no"?>
<!DOCTYPE svg PUBLIC "-//W3C//DTD SVG 1.1//EN"
 "http://www.w3.org/Graphics/SVG/1.1/DTD/svg11.dtd">
<!-- Generated by graphviz version 7.0.2 (20221119.0110)
 -->
<!-- Title: C:/Users/juanh/OneDrive/Escritorio/Facultad/Beca/Proyecto/LAL_Control/include/user_messages.h Pages: 1 -->
<!--zoomable 500 -->
<svg id="main" version="1.1" xmlns="http://www.w3.org/2000/svg" xmlns:xlink="http://www.w3.org/1999/xlink" xml:space="preserve" onload="init(evt)">
<style type="text/css"><![CDATA[
.edge:hover path { stroke: red; }
.edge:hover polygon { stroke: red; fill: red; }
]]></style>
<script type="text/javascript"><![CDATA[
var edges = document.getElementsByTagName('g');
if (edges && edges.length) {
  for (var i=0;i<edges.length;i++) {
    if (edges[i].id.substr(0,4)=='edge') {
      edges[i].setAttribute('class','edge');
    }
  }
}
]]></script>
        <defs>
                <circle id="rim" cx="0" cy="0" r="7"/>
                <circle id="rim2" cx="0" cy="0" r="3.5"/>
                <g id="zoomPlus">
                        <use xlink:href="#rim" fill="#404040">
                                <set attributeName="fill" to="#808080" begin="zoomplus.mouseover" end="zoomplus.mouseout"/>
                        </use>
                        <path d="M-4,0h8M0,-4v8" fill="none" stroke="white" stroke-width="1.5" pointer-events="none"/>
                </g>
                <g id="zoomMin">
                        <use xlink:href="#rim" fill="#404040">
                                <set attributeName="fill" to="#808080" begin="zoomminus.mouseover" end="zoomminus.mouseout"/>
                        </use>
                        <path d="M-4,0h8" fill="none" stroke="white" stroke-width="1.5" pointer-events="none"/>
                </g>
                <g id="dirArrow">
                        <path fill="none" stroke="white" stroke-width="1.5" d="M0,-3.0v7 M-2.5,-0.5L0,-3.0L2.5,-0.5"/>
                </g>
               <g id="resetDef">
                       <use xlink:href="#rim2" fill="#404040">
                               <set attributeName="fill" to="#808080" begin="reset.mouseover" end="reset.mouseout"/>
                       </use>
               </g>
        </defs>

<script type="text/javascript">
var viewWidth = 864;
var viewHeight = 500;
var sectionId = 'dynsection-1';
</script>
<script xlink:href="svgpan.js"/>
<svg id="graph" class="graph">
<g id="viewport">
<title>C:/Users/juanh/OneDrive/Escritorio/Facultad/Beca/Proyecto/LAL_Control/include/user_messages.h</title>
<!-- Node1 -->
<g id="node1" class="node">
<title>Node1</title>
<g id="a_node1"><a xlink:title="Archivo para la configuración de interfaz con el usuario.">
<polygon fill="#999999" stroke="#666666" points="533,-492 384,-492 384,-440 533,-440 533,-492"/>
<text text-anchor="start" x="392" y="-480" font-family="Helvetica,sans-Serif" font-size="10.00">C:/Users/juanh/OneDrive</text>
<text text-anchor="start" x="392" y="-469" font-family="Helvetica,sans-Serif" font-size="10.00">/Escritorio/Facultad/Beca</text>
<text text-anchor="start" x="392" y="-458" font-family="Helvetica,sans-Serif" font-size="10.00">/Proyecto/LAL_Control/include</text>
<text text-anchor="middle" x="458.5" y="-447" font-family="Helvetica,sans-Serif" font-size="10.00">/user_messages.h</text>
</a>
</g>
</g>
<!-- Node2 -->
<g id="node2" class="node">
<title>Node2</title>
<g id="a_node2"><a xlink:href="_control__system_8h_source.html" target="_top" xlink:title=" ">
<polygon fill="white" stroke="#666666" points="533,-316 384,-316 384,-264 533,-264 533,-316"/>
<text text-anchor="start" x="392" y="-304" font-family="Helvetica,sans-Serif" font-size="10.00">C:/Users/juanh/OneDrive</text>
<text text-anchor="start" x="392" y="-293" font-family="Helvetica,sans-Serif" font-size="10.00">/Escritorio/Facultad/Beca</text>
<text text-anchor="start" x="392" y="-282" font-family="Helvetica,sans-Serif" font-size="10.00">/Proyecto/LAL_Control/include</text>
<text text-anchor="middle" x="458.5" y="-271" font-family="Helvetica,sans-Serif" font-size="10.00">/Control_system.h</text>
</a>
</g>
</g>
<!-- Node1&#45;&gt;Node2 -->
<g id="edge1" class="edge">
<title>Node1&#45;&gt;Node2</title>
<path fill="none" stroke="#63b8ff" d="M436.39,-429.78C432.3,-421.61 428.65,-412.74 426.5,-404 420.97,-381.56 420.97,-374.44 426.5,-352 429.56,-339.58 435.65,-326.88 441.71,-316.31"/>
<polygon fill="#63b8ff" stroke="#63b8ff" points="433.18,-431.2 440.99,-438.35 439.35,-427.89 433.18,-431.2"/>
</g>
<!-- Node12 -->
<g id="node12" class="node">
<title>Node12</title>
<g id="a_node12"><a xlink:href="utils_8h_source.html" target="_top" xlink:title=" ">
<polygon fill="white" stroke="#666666" points="585,-404 436,-404 436,-352 585,-352 585,-404"/>
<text text-anchor="start" x="444" y="-392" font-family="Helvetica,sans-Serif" font-size="10.00">C:/Users/juanh/OneDrive</text>
<text text-anchor="start" x="444" y="-381" font-family="Helvetica,sans-Serif" font-size="10.00">/Escritorio/Facultad/Beca</text>
<text text-anchor="start" x="444" y="-370" font-family="Helvetica,sans-Serif" font-size="10.00">/Proyecto/LAL_Control/include</text>
<text text-anchor="middle" x="510.5" y="-359" font-family="Helvetica,sans-Serif" font-size="10.00">/utils.h</text>
</a>
</g>
</g>
<!-- Node1&#45;&gt;Node12 -->
<g id="edge22" class="edge">
<title>Node1&#45;&gt;Node12</title>
<path fill="none" stroke="#63b8ff" d="M479.7,-429.93C484.86,-421.4 490.28,-412.44 495.11,-404.45"/>
<polygon fill="#63b8ff" stroke="#63b8ff" points="476.78,-428 474.6,-438.37 482.77,-431.62 476.78,-428"/>
</g>
<!-- Node3 -->
<g id="node3" class="node">
<title>Node3</title>
<g id="a_node3"><a xlink:href="_idle__state_8h.html" target="_top" xlink:title=" ">
<polygon fill="white" stroke="#666666" points="300,-228 151,-228 151,-176 300,-176 300,-228"/>
<text text-anchor="start" x="159" y="-216" font-family="Helvetica,sans-Serif" font-size="10.00">C:/Users/juanh/OneDrive</text>
<text text-anchor="start" x="159" y="-205" font-family="Helvetica,sans-Serif" font-size="10.00">/Escritorio/Facultad/Beca</text>
<text text-anchor="start" x="159" y="-194" font-family="Helvetica,sans-Serif" font-size="10.00">/Proyecto/LAL_Control/include</text>
<text text-anchor="middle" x="225.5" y="-183" font-family="Helvetica,sans-Serif" font-size="10.00">/Idle_state.h</text>
</a>
</g>
</g>
<!-- Node2&#45;&gt;Node3 -->
<g id="edge2" class="edge">
<title>Node2&#45;&gt;Node3</title>
<path fill="none" stroke="#63b8ff" d="M378.78,-259.57C351.31,-249.44 320.8,-238.18 294.29,-228.39"/>
<polygon fill="#63b8ff" stroke="#63b8ff" points="377.52,-262.84 388.12,-263.02 379.95,-256.28 377.52,-262.84"/>
</g>
<!-- Node4 -->
<g id="node4" class="node">
<title>Node4</title>
<g id="a_node4"><a xlink:href="_motor__control__state_8h_source.html" target="_top" xlink:title=" ">
<polygon fill="white" stroke="#666666" points="149,-140 0,-140 0,-88 149,-88 149,-140"/>
<text text-anchor="start" x="8" y="-128" font-family="Helvetica,sans-Serif" font-size="10.00">C:/Users/juanh/OneDrive</text>
<text text-anchor="start" x="8" y="-117" font-family="Helvetica,sans-Serif" font-size="10.00">/Escritorio/Facultad/Beca</text>
<text text-anchor="start" x="8" y="-106" font-family="Helvetica,sans-Serif" font-size="10.00">/Proyecto/LAL_Control/include</text>
<text text-anchor="middle" x="74.5" y="-95" font-family="Helvetica,sans-Serif" font-size="10.00">/Motor_control_state.h</text>
</a>
</g>
</g>
<!-- Node2&#45;&gt;Node4 -->
<g id="edge12" class="edge">
<title>Node2&#45;&gt;Node4</title>
<path fill="none" stroke="#63b8ff" d="M372.55,-280.45C291.78,-271.01 178.01,-253.67 141.5,-228 111.09,-206.62 92.24,-166.65 82.56,-140.44"/>
<polygon fill="#63b8ff" stroke="#63b8ff" points="371.88,-283.89 382.21,-281.56 372.67,-276.94 371.88,-283.89"/>
</g>
<!-- Node5 -->
<g id="node5" class="node">
<title>Node5</title>
<g id="a_node5"><a xlink:href="_shutdown__state_8h_source.html" target="_top" xlink:title=" ">
<polygon fill="white" stroke="#666666" points="316,-140 167,-140 167,-88 316,-88 316,-140"/>
<text text-anchor="start" x="175" y="-128" font-family="Helvetica,sans-Serif" font-size="10.00">C:/Users/juanh/OneDrive</text>
<text text-anchor="start" x="175" y="-117" font-family="Helvetica,sans-Serif" font-size="10.00">/Escritorio/Facultad/Beca</text>
<text text-anchor="start" x="175" y="-106" font-family="Helvetica,sans-Serif" font-size="10.00">/Proyecto/LAL_Control/include</text>
<text text-anchor="middle" x="241.5" y="-95" font-family="Helvetica,sans-Serif" font-size="10.00">/Shutdown_state.h</text>
</a>
</g>
</g>
<!-- Node2&#45;&gt;Node5 -->
<g id="edge13" class="edge">
<title>Node2&#45;&gt;Node5</title>
<path fill="none" stroke="#63b8ff" d="M412.99,-256.82C369.09,-223.2 304.32,-171.14 268.16,-140.33"/>
<polygon fill="#63b8ff" stroke="#63b8ff" points="410.74,-259.51 420.81,-262.78 414.98,-253.94 410.74,-259.51"/>
</g>
<!-- Node6 -->
<g id="node6" class="node">
<title>Node6</title>
<g id="a_node6"><a xlink:href="_instruction__observer_8h.html" target="_top" xlink:title=" ">
<polygon fill="white" stroke="#666666" points="483,-140 334,-140 334,-88 483,-88 483,-140"/>
<text text-anchor="start" x="342" y="-128" font-family="Helvetica,sans-Serif" font-size="10.00">C:/Users/juanh/OneDrive</text>
<text text-anchor="start" x="342" y="-117" font-family="Helvetica,sans-Serif" font-size="10.00">/Escritorio/Facultad/Beca</text>
<text text-anchor="start" x="342" y="-106" font-family="Helvetica,sans-Serif" font-size="10.00">/Proyecto/LAL_Control/include</text>
<text text-anchor="middle" x="408.5" y="-95" font-family="Helvetica,sans-Serif" font-size="10.00">/Instruction_observer.h</text>
</a>
</g>
</g>
<!-- Node2&#45;&gt;Node6 -->
<g id="edge7" class="edge">
<title>Node2&#45;&gt;Node6</title>
<path fill="none" stroke="#63b8ff" d="M448.14,-252.94C438.47,-219.31 424.3,-169.98 415.78,-140.33"/>
<polygon fill="#63b8ff" stroke="#63b8ff" points="444.69,-253.6 450.81,-262.24 451.41,-251.67 444.69,-253.6"/>
</g>
<!-- Node7 -->
<g id="node7" class="node">
<title>Node7</title>
<g id="a_node7"><a xlink:href="main_8h_source.html" target="_top" xlink:title=" ">
<polygon fill="white" stroke="#666666" points="689,-46.5 508,-46.5 508,-5.5 689,-5.5 689,-46.5"/>
<text text-anchor="start" x="516" y="-34.5" font-family="Helvetica,sans-Serif" font-size="10.00">C:/Users/juanh/OneDrive</text>
<text text-anchor="start" x="516" y="-23.5" font-family="Helvetica,sans-Serif" font-size="10.00">/Escritorio/Facultad/Beca</text>
<text text-anchor="middle" x="598.5" y="-12.5" font-family="Helvetica,sans-Serif" font-size="10.00">/Proyecto/LAL_Control/include/main.h</text>
</a>
</g>
</g>
<!-- Node2&#45;&gt;Node7 -->
<g id="edge21" class="edge">
<title>Node2&#45;&gt;Node7</title>
<path fill="none" stroke="#63b8ff" d="M465.83,-252.54C475.56,-210.25 495.72,-139.74 530.5,-88 541.12,-72.2 556.72,-57.81 570.31,-46.98"/>
<polygon fill="#63b8ff" stroke="#63b8ff" points="462.43,-251.68 463.68,-262.2 469.27,-253.2 462.43,-251.68"/>
</g>
<!-- Node9 -->
<g id="node9" class="node">
<title>Node9</title>
<g id="a_node9"><a xlink:href="_moisture__observer_8h_source.html" target="_top" xlink:title=" ">
<polygon fill="white" stroke="#666666" points="689,-140 540,-140 540,-88 689,-88 689,-140"/>
<text text-anchor="start" x="548" y="-128" font-family="Helvetica,sans-Serif" font-size="10.00">C:/Users/juanh/OneDrive</text>
<text text-anchor="start" x="548" y="-117" font-family="Helvetica,sans-Serif" font-size="10.00">/Escritorio/Facultad/Beca</text>
<text text-anchor="start" x="548" y="-106" font-family="Helvetica,sans-Serif" font-size="10.00">/Proyecto/LAL_Control/include</text>
<text text-anchor="middle" x="614.5" y="-95" font-family="Helvetica,sans-Serif" font-size="10.00">/Moisture_observer.h</text>
</a>
</g>
</g>
<!-- Node2&#45;&gt;Node9 -->
<g id="edge10" class="edge">
<title>Node2&#45;&gt;Node9</title>
<path fill="none" stroke="#63b8ff" d="M544.65,-276.15C599.31,-266.03 662.78,-249.96 679.5,-228 693.5,-209.61 688.68,-197.21 679.5,-176 673.54,-162.22 662.76,-150.13 651.67,-140.42"/>
<polygon fill="#63b8ff" stroke="#63b8ff" points="544.21,-272.67 534.99,-277.89 545.45,-279.56 544.21,-272.67"/>
</g>
<!-- Node10 -->
<g id="node10" class="node">
<title>Node10</title>
<g id="a_node10"><a xlink:href="_system__observer_8h.html" target="_top" xlink:title=" ">
<polygon fill="white" stroke="#666666" points="671,-228 522,-228 522,-176 671,-176 671,-228"/>
<text text-anchor="start" x="530" y="-216" font-family="Helvetica,sans-Serif" font-size="10.00">C:/Users/juanh/OneDrive</text>
<text text-anchor="start" x="530" y="-205" font-family="Helvetica,sans-Serif" font-size="10.00">/Escritorio/Facultad/Beca</text>
<text text-anchor="start" x="530" y="-194" font-family="Helvetica,sans-Serif" font-size="10.00">/Proyecto/LAL_Control/include</text>
<text text-anchor="middle" x="596.5" y="-183" font-family="Helvetica,sans-Serif" font-size="10.00">/System_observer.h</text>
</a>
</g>
</g>
<!-- Node2&#45;&gt;Node10 -->
<g id="edge14" class="edge">
<title>Node2&#45;&gt;Node10</title>
<path fill="none" stroke="#63b8ff" d="M502.49,-257.52C517.46,-247.95 534.23,-237.57 549.43,-228.45"/>
<polygon fill="#63b8ff" stroke="#63b8ff" points="500.73,-254.49 494.21,-262.84 504.52,-260.37 500.73,-254.49"/>
</g>
<!-- Node11 -->
<g id="node11" class="node">
<title>Node11</title>
<g id="a_node11"><a xlink:href="_temperature__observer_8h.html" target="_top" xlink:title=" ">
<polygon fill="white" stroke="#666666" points="856,-140 707,-140 707,-88 856,-88 856,-140"/>
<text text-anchor="start" x="715" y="-128" font-family="Helvetica,sans-Serif" font-size="10.00">C:/Users/juanh/OneDrive</text>
<text text-anchor="start" x="715" y="-117" font-family="Helvetica,sans-Serif" font-size="10.00">/Escritorio/Facultad/Beca</text>
<text text-anchor="start" x="715" y="-106" font-family="Helvetica,sans-Serif" font-size="10.00">/Proyecto/LAL_Control/include</text>
<text text-anchor="middle" x="781.5" y="-95" font-family="Helvetica,sans-Serif" font-size="10.00">/Temperature_observer.h</text>
</a>
</g>
</g>
<!-- Node2&#45;&gt;Node11 -->
<g id="edge20" class="edge">
<title>Node2&#45;&gt;Node11</title>
<path fill="none" stroke="#63b8ff" d="M544.51,-281.53C593.06,-273.96 652.94,-258.71 698.5,-228 731.4,-205.82 756.05,-166.08 769.62,-140.12"/>
<polygon fill="#63b8ff" stroke="#63b8ff" points="544.27,-278.03 534.88,-282.95 545.28,-284.96 544.27,-278.03"/>
</g>
<!-- Node3&#45;&gt;Node4 -->
<g id="edge3" class="edge">
<title>Node3&#45;&gt;Node4</title>
<path fill="none" stroke="#63b8ff" d="M165.16,-170.34C147.56,-160.55 128.84,-149.83 112.97,-140.45"/>
<polygon fill="#63b8ff" stroke="#63b8ff" points="163.03,-173.15 173.47,-174.93 166.41,-167.03 163.03,-173.15"/>
</g>
<!-- Node3&#45;&gt;Node5 -->
<g id="edge5" class="edge">
<title>Node3&#45;&gt;Node5</title>
<path fill="none" stroke="#63b8ff" d="M232.28,-164.54C233.79,-156.43 235.36,-148.01 236.76,-140.45"/>
<polygon fill="#63b8ff" stroke="#63b8ff" points="228.88,-163.7 230.49,-174.17 235.76,-164.98 228.88,-163.7"/>
</g>
<!-- Node4&#45;&gt;Node3 -->
<g id="edge4" class="edge">
<title>Node4&#45;&gt;Node3</title>
<path fill="none" stroke="#63b8ff" d="M135.06,-145.79C152.66,-155.58 171.38,-166.3 187.23,-175.66"/>
<polygon fill="#63b8ff" stroke="#63b8ff" points="137.18,-142.96 126.74,-141.19 133.8,-149.09 137.18,-142.96"/>
</g>
<!-- Node5&#45;&gt;Node2 -->
<g id="edge6" class="edge">
<title>Node5&#45;&gt;Node2</title>
<path fill="none" stroke="#63b8ff" d="M287.06,-147.21C330.97,-180.85 395.73,-232.9 431.87,-263.7"/>
<polygon fill="#63b8ff" stroke="#63b8ff" points="289.3,-144.52 279.23,-141.25 285.06,-150.09 289.3,-144.52"/>
</g>
<!-- Node6&#45;&gt;Node7 -->
<g id="edge8" class="edge">
<title>Node6&#45;&gt;Node7</title>
<path fill="none" stroke="#63b8ff" d="M475.03,-82.89C501.35,-70.97 530.89,-57.6 554.47,-46.93"/>
<polygon fill="#63b8ff" stroke="#63b8ff" points="473.78,-79.61 466.11,-86.92 476.67,-85.99 473.78,-79.61"/>
</g>
<!-- Node8 -->
<g id="node8" class="node">
<title>Node8</title>
<g id="a_node8"><a xlink:href="_instruction__observer_8cpp.html" target="_top" xlink:title=" ">
<polygon fill="white" stroke="#666666" points="474,-52 343,-52 343,0 474,0 474,-52"/>
<text text-anchor="start" x="351" y="-40" font-family="Helvetica,sans-Serif" font-size="10.00">C:/Users/juanh/OneDrive</text>
<text text-anchor="start" x="351" y="-29" font-family="Helvetica,sans-Serif" font-size="10.00">/Escritorio/Facultad/Beca</text>
<text text-anchor="start" x="351" y="-18" font-family="Helvetica,sans-Serif" font-size="10.00">/Proyecto/LAL_Control/src</text>
<text text-anchor="middle" x="408.5" y="-7" font-family="Helvetica,sans-Serif" font-size="10.00">/Instruction_observer.cpp</text>
</a>
</g>
</g>
<!-- Node6&#45;&gt;Node8 -->
<g id="edge9" class="edge">
<title>Node6&#45;&gt;Node8</title>
<path fill="none" stroke="#63b8ff" d="M408.5,-76.26C408.5,-68.24 408.5,-59.92 408.5,-52.45"/>
<polygon fill="#63b8ff" stroke="#63b8ff" points="405,-76.15 408.5,-86.15 412,-76.15 405,-76.15"/>
</g>
<!-- Node9&#45;&gt;Node7 -->
<g id="edge11" class="edge">
<title>Node9&#45;&gt;Node7</title>
<path fill="none" stroke="#63b8ff" d="M607.72,-76.55C605.83,-66.42 603.86,-55.79 602.22,-46.98"/>
<polygon fill="#63b8ff" stroke="#63b8ff" points="604.24,-76.98 609.51,-86.17 611.12,-75.7 604.24,-76.98"/>
</g>
<!-- Node10&#45;&gt;Node2 -->
<g id="edge15" class="edge">
<title>Node10&#45;&gt;Node2</title>
<path fill="none" stroke="#63b8ff" d="M552.32,-234.6C537.33,-244.18 520.57,-254.56 505.37,-263.66"/>
<polygon fill="#63b8ff" stroke="#63b8ff" points="554.09,-237.63 560.61,-229.27 550.3,-231.74 554.09,-237.63"/>
</g>
<!-- Node10&#45;&gt;Node6 -->
<g id="edge16" class="edge">
<title>Node10&#45;&gt;Node6</title>
<path fill="none" stroke="#63b8ff" d="M530.4,-170.76C508.71,-160.84 484.83,-149.92 464,-140.39"/>
<polygon fill="#63b8ff" stroke="#63b8ff" points="528.93,-173.94 539.48,-174.92 531.84,-167.57 528.93,-173.94"/>
</g>
<!-- Node10&#45;&gt;Node9 -->
<g id="edge17" class="edge">
<title>Node10&#45;&gt;Node9</title>
<path fill="none" stroke="#63b8ff" d="M604.13,-164.54C605.83,-156.43 607.59,-148.01 609.17,-140.45"/>
<polygon fill="#63b8ff" stroke="#63b8ff" points="600.74,-163.68 602.11,-174.18 607.59,-165.11 600.74,-163.68"/>
</g>
<!-- Node10&#45;&gt;Node11 -->
<g id="edge18" class="edge">
<title>Node10&#45;&gt;Node11</title>
<path fill="none" stroke="#63b8ff" d="M661.54,-170.76C682.89,-160.84 706.39,-149.92 726.89,-140.39"/>
<polygon fill="#63b8ff" stroke="#63b8ff" points="660.22,-167.52 652.63,-174.91 663.17,-173.87 660.22,-167.52"/>
</g>
<!-- Node11&#45;&gt;Node7 -->
<g id="edge19" class="edge">
<title>Node11&#45;&gt;Node7</title>
<path fill="none" stroke="#63b8ff" d="M717.33,-82.84C692.04,-70.96 663.68,-57.63 641.02,-46.98"/>
<polygon fill="#63b8ff" stroke="#63b8ff" points="715.67,-85.93 726.21,-87.02 718.65,-79.6 715.67,-85.93"/>
</g>
<!-- Node12&#45;&gt;Node2 -->
<g id="edge23" class="edge">
<title>Node12&#45;&gt;Node2</title>
<path fill="none" stroke="#63b8ff" d="M489.3,-341.93C484.14,-333.4 478.72,-324.44 473.89,-316.45"/>
<polygon fill="#63b8ff" stroke="#63b8ff" points="486.23,-343.62 494.4,-350.37 492.22,-340 486.23,-343.62"/>
</g>
</g>
</svg>
        <g id="navigator" transform="translate(0 0)" fill="#404254">
                <rect fill="#f2f5e9" fill-opacity="0.5" stroke="#606060" stroke-width=".5" x="0" y="0" width="60" height="60"/>
                <use id="zoomplus" xlink:href="#zoomPlus" x="17" y="9" onmousedown="handleZoom(evt,'in')"/>
                <use id="zoomminus" xlink:href="#zoomMin" x="42" y="9" onmousedown="handleZoom(evt,'out')"/>
                <use id="reset" xlink:href="#resetDef" x="30" y="36" onmousedown="handleReset()"/>
                <g id="arrowUp" xlink:href="#dirArrow" transform="translate(30 24)" onmousedown="handlePan(0,-1)">
                  <use xlink:href="#rim" fill="#404040">
                        <set attributeName="fill" to="#808080" begin="arrowUp.mouseover" end="arrowUp.mouseout"/>
                  </use>
                  <path fill="none" stroke="white" stroke-width="1.5" d="M0,-3.0v7 M-2.5,-0.5L0,-3.0L2.5,-0.5"/>
                </g>
                <g id="arrowRight" xlink:href="#dirArrow" transform="rotate(90) translate(36 -43)" onmousedown="handlePan(1,0)">
                  <use xlink:href="#rim" fill="#404040">
                        <set attributeName="fill" to="#808080" begin="arrowRight.mouseover" end="arrowRight.mouseout"/>
                  </use>
                  <path fill="none" stroke="white" stroke-width="1.5" d="M0,-3.0v7 M-2.5,-0.5L0,-3.0L2.5,-0.5"/>
                </g>
                <g id="arrowDown" xlink:href="#dirArrow" transform="rotate(180) translate(-30 -48)" onmousedown="handlePan(0,1)">
                  <use xlink:href="#rim" fill="#404040">
                        <set attributeName="fill" to="#808080" begin="arrowDown.mouseover" end="arrowDown.mouseout"/>
                  </use>
                  <path fill="none" stroke="white" stroke-width="1.5" d="M0,-3.0v7 M-2.5,-0.5L0,-3.0L2.5,-0.5"/>
                </g>
                <g id="arrowLeft" xlink:href="#dirArrow" transform="rotate(270) translate(-36 17)" onmousedown="handlePan(-1,0)">
                  <use xlink:href="#rim" fill="#404040">
                        <set attributeName="fill" to="#808080" begin="arrowLeft.mouseover" end="arrowLeft.mouseout"/>
                  </use>
                  <path fill="none" stroke="white" stroke-width="1.5" d="M0,-3.0v7 M-2.5,-0.5L0,-3.0L2.5,-0.5"/>
                </g>
        </g>
        <svg viewBox="0 0 15 15" width="100%" height="30px" preserveAspectRatio="xMaxYMin meet">
         <g id="arrow_out" transform="scale(0.3 0.3)">
          <a xlink:href="user__messages_8h__dep__incl_org.svg" target="_base">
           <rect id="button" ry="5" rx="5" y="6" x="6" height="38" width="38"
                fill="#f2f5e9" fill-opacity="0.5" stroke="#606060" stroke-width="1.0"/>
           <path id="arrow"
             d="M 11.500037,31.436501 C 11.940474,20.09759 22.043105,11.32322 32.158766,21.979434 L 37.068811,17.246167 C 37.068811,17.246167 37.088388,32 37.088388,32 L 22.160133,31.978069 C 22.160133,31.978069 26.997745,27.140456 26.997745,27.140456 C 18.528582,18.264221 13.291696,25.230495 11.500037,31.436501 z"
             style="fill:#404040;"/>
          </a>
         </g>
        </svg>
</svg>
